G04 #@! TF.GenerationSoftware,KiCad,Pcbnew,7.0.5*
G04 #@! TF.CreationDate,2023-07-03T11:33:58+02:00*
G04 #@! TF.ProjectId,STM32CAN,53544d33-3243-4414-9e2e-6b696361645f,rev?*
G04 #@! TF.SameCoordinates,Original*
G04 #@! TF.FileFunction,Soldermask,Top*
G04 #@! TF.FilePolarity,Negative*
%FSLAX46Y46*%
G04 Gerber Fmt 4.6, Leading zero omitted, Abs format (unit mm)*
G04 Created by KiCad (PCBNEW 7.0.5) date 2023-07-03 11:33:58*
%MOMM*%
%LPD*%
G01*
G04 APERTURE LIST*
G04 APERTURE END LIST*
G36*
X47789188Y-100550396D02*
G01*
X47817761Y-100550396D01*
X47850524Y-100558471D01*
X47893445Y-100564122D01*
X47922824Y-100576291D01*
X47945467Y-100581872D01*
X47979797Y-100599890D01*
X48025250Y-100618717D01*
X48045987Y-100634629D01*
X48061925Y-100642994D01*
X48094509Y-100671861D01*
X48138434Y-100705566D01*
X48150918Y-100721835D01*
X48160373Y-100730212D01*
X48187487Y-100769494D01*
X48225283Y-100818750D01*
X48230979Y-100832502D01*
X48235089Y-100838456D01*
X48252917Y-100885465D01*
X48279878Y-100950555D01*
X48281088Y-100959746D01*
X48281727Y-100961431D01*
X48286676Y-101002196D01*
X48298500Y-101092000D01*
X48286674Y-101181819D01*
X48281727Y-101222568D01*
X48281088Y-101224252D01*
X48279878Y-101233445D01*
X48252912Y-101298545D01*
X48235089Y-101345543D01*
X48230980Y-101351495D01*
X48225283Y-101365250D01*
X48187480Y-101414514D01*
X48160373Y-101453787D01*
X48150920Y-101462161D01*
X48138434Y-101478434D01*
X48094501Y-101512144D01*
X48061925Y-101541005D01*
X48045991Y-101549367D01*
X48025250Y-101565283D01*
X47979788Y-101584113D01*
X47945467Y-101602127D01*
X47922829Y-101607706D01*
X47893445Y-101619878D01*
X47850522Y-101625529D01*
X47817761Y-101633604D01*
X47789188Y-101633604D01*
X47752000Y-101638500D01*
X47714812Y-101633604D01*
X47686239Y-101633604D01*
X47653477Y-101625528D01*
X47610555Y-101619878D01*
X47581172Y-101607707D01*
X47558532Y-101602127D01*
X47524206Y-101584111D01*
X47478750Y-101565283D01*
X47458010Y-101549369D01*
X47442074Y-101541005D01*
X47409491Y-101512138D01*
X47365566Y-101478434D01*
X47353081Y-101462164D01*
X47343626Y-101453787D01*
X47316509Y-101414501D01*
X47278717Y-101365250D01*
X47273021Y-101351499D01*
X47268910Y-101345543D01*
X47251075Y-101298516D01*
X47224122Y-101233445D01*
X47222912Y-101224256D01*
X47222272Y-101222568D01*
X47217311Y-101181717D01*
X47205500Y-101092000D01*
X47217310Y-101002290D01*
X47222272Y-100961431D01*
X47222912Y-100959742D01*
X47224122Y-100950555D01*
X47251070Y-100885494D01*
X47268910Y-100838456D01*
X47273022Y-100832498D01*
X47278717Y-100818750D01*
X47316502Y-100769507D01*
X47343626Y-100730212D01*
X47353084Y-100721832D01*
X47365566Y-100705566D01*
X47409482Y-100671867D01*
X47442074Y-100642994D01*
X47458014Y-100634627D01*
X47478750Y-100618717D01*
X47524197Y-100599892D01*
X47558532Y-100581872D01*
X47581176Y-100576290D01*
X47610555Y-100564122D01*
X47653475Y-100558471D01*
X47686239Y-100550396D01*
X47714812Y-100550396D01*
X47752000Y-100545500D01*
X47789188Y-100550396D01*
G37*
G36*
X20269517Y-99082882D02*
G01*
X20286062Y-99093938D01*
X20297118Y-99110483D01*
X20301000Y-99130000D01*
X20301000Y-101530000D01*
X20297118Y-101549517D01*
X20286062Y-101566062D01*
X20269517Y-101577118D01*
X20250000Y-101581000D01*
X17850000Y-101581000D01*
X17830483Y-101577118D01*
X17813938Y-101566062D01*
X17802882Y-101549517D01*
X17799000Y-101530000D01*
X17799000Y-99130000D01*
X17802882Y-99110483D01*
X17813938Y-99093938D01*
X17830483Y-99082882D01*
X17850000Y-99079000D01*
X20250000Y-99079000D01*
X20269517Y-99082882D01*
G37*
G36*
X22603720Y-99083700D02*
G01*
X22653273Y-99083700D01*
X22707891Y-99092814D01*
X22767234Y-99098006D01*
X22813834Y-99110492D01*
X22856997Y-99117695D01*
X22914900Y-99137573D01*
X22977867Y-99154445D01*
X23016438Y-99172430D01*
X23052349Y-99184759D01*
X23111347Y-99216687D01*
X23175500Y-99246602D01*
X23205701Y-99267749D01*
X23233995Y-99283061D01*
X23291590Y-99327889D01*
X23354127Y-99371678D01*
X23376167Y-99393718D01*
X23396987Y-99409923D01*
X23450470Y-99468021D01*
X23508322Y-99525873D01*
X23522924Y-99546727D01*
X23536878Y-99561885D01*
X23583430Y-99633139D01*
X23633398Y-99704500D01*
X23641738Y-99722385D01*
X23649843Y-99734791D01*
X23686635Y-99818668D01*
X23725555Y-99902133D01*
X23729179Y-99915658D01*
X23732813Y-99923943D01*
X23757144Y-100020025D01*
X23781994Y-100112766D01*
X23782714Y-100121000D01*
X23783515Y-100124162D01*
X23792893Y-100237345D01*
X23801000Y-100330000D01*
X23792891Y-100422681D01*
X23783515Y-100535837D01*
X23782714Y-100538997D01*
X23781994Y-100547234D01*
X23757139Y-100639991D01*
X23732813Y-100736056D01*
X23729179Y-100744338D01*
X23725555Y-100757867D01*
X23686627Y-100841347D01*
X23649843Y-100925208D01*
X23641739Y-100937611D01*
X23633398Y-100955500D01*
X23583421Y-101026874D01*
X23536878Y-101098114D01*
X23522927Y-101113268D01*
X23508322Y-101134127D01*
X23450458Y-101191990D01*
X23396987Y-101250076D01*
X23376172Y-101266276D01*
X23354127Y-101288322D01*
X23291577Y-101332119D01*
X23233995Y-101376938D01*
X23205707Y-101392246D01*
X23175500Y-101413398D01*
X23111334Y-101443318D01*
X23052349Y-101475240D01*
X23016446Y-101487565D01*
X22977867Y-101505555D01*
X22914887Y-101522430D01*
X22856997Y-101542304D01*
X22813842Y-101549505D01*
X22767234Y-101561994D01*
X22707888Y-101567186D01*
X22653273Y-101576300D01*
X22603720Y-101576300D01*
X22550000Y-101581000D01*
X22496280Y-101576300D01*
X22446727Y-101576300D01*
X22392111Y-101567186D01*
X22332766Y-101561994D01*
X22286159Y-101549505D01*
X22243002Y-101542304D01*
X22185108Y-101522429D01*
X22122133Y-101505555D01*
X22083556Y-101487566D01*
X22047650Y-101475240D01*
X21988658Y-101443315D01*
X21924500Y-101413398D01*
X21894295Y-101392248D01*
X21866004Y-101376938D01*
X21808412Y-101332112D01*
X21745873Y-101288322D01*
X21723831Y-101266280D01*
X21703012Y-101250076D01*
X21649528Y-101191977D01*
X21591678Y-101134127D01*
X21577075Y-101113273D01*
X21563121Y-101098114D01*
X21516563Y-101026852D01*
X21466602Y-100955500D01*
X21458262Y-100937616D01*
X21450156Y-100925208D01*
X21413355Y-100841311D01*
X21374445Y-100757867D01*
X21370821Y-100744344D01*
X21367186Y-100736056D01*
X21342842Y-100639923D01*
X21318006Y-100547234D01*
X21317285Y-100539003D01*
X21316484Y-100535837D01*
X21307089Y-100422465D01*
X21299000Y-100330000D01*
X21307087Y-100237561D01*
X21316484Y-100124162D01*
X21317286Y-100120994D01*
X21318006Y-100112766D01*
X21342837Y-100020093D01*
X21367186Y-99923943D01*
X21370822Y-99915653D01*
X21374445Y-99902133D01*
X21413348Y-99818704D01*
X21450156Y-99734791D01*
X21458264Y-99722380D01*
X21466602Y-99704500D01*
X21516554Y-99633160D01*
X21563121Y-99561885D01*
X21577078Y-99546722D01*
X21591678Y-99525873D01*
X21649517Y-99468033D01*
X21703012Y-99409923D01*
X21723835Y-99393715D01*
X21745873Y-99371678D01*
X21808399Y-99327896D01*
X21866004Y-99283061D01*
X21894301Y-99267746D01*
X21924500Y-99246602D01*
X21988644Y-99216690D01*
X22047650Y-99184759D01*
X22083564Y-99172429D01*
X22122133Y-99154445D01*
X22185095Y-99137574D01*
X22243002Y-99117695D01*
X22286166Y-99110492D01*
X22332766Y-99098006D01*
X22392107Y-99092814D01*
X22446727Y-99083700D01*
X22496280Y-99083700D01*
X22550000Y-99079000D01*
X22603720Y-99083700D01*
G37*
G36*
X29878914Y-98803995D02*
G01*
X29894726Y-98810976D01*
X29902531Y-98812213D01*
X29935039Y-98828776D01*
X29980106Y-98848676D01*
X30058324Y-98926894D01*
X30078226Y-98971967D01*
X30094786Y-99004468D01*
X30096021Y-99012270D01*
X30103005Y-99028086D01*
X30111000Y-99097000D01*
X30111000Y-100547000D01*
X30103005Y-100615914D01*
X30096021Y-100631729D01*
X30094786Y-100639531D01*
X30078229Y-100672024D01*
X30058324Y-100717106D01*
X29980106Y-100795324D01*
X29935024Y-100815229D01*
X29902531Y-100831786D01*
X29894729Y-100833021D01*
X29878914Y-100840005D01*
X29810000Y-100848000D01*
X28610000Y-100848000D01*
X28541086Y-100840005D01*
X28525270Y-100833021D01*
X28517468Y-100831786D01*
X28484967Y-100815226D01*
X28439894Y-100795324D01*
X28361676Y-100717106D01*
X28341776Y-100672039D01*
X28325213Y-100639531D01*
X28323976Y-100631726D01*
X28316995Y-100615914D01*
X28309000Y-100547000D01*
X28309000Y-99097000D01*
X28316995Y-99028086D01*
X28323976Y-99012274D01*
X28325213Y-99004468D01*
X28341780Y-98971953D01*
X28361676Y-98926894D01*
X28439894Y-98848676D01*
X28484953Y-98828780D01*
X28517468Y-98812213D01*
X28525274Y-98810976D01*
X28541086Y-98803995D01*
X28610000Y-98796000D01*
X29810000Y-98796000D01*
X29878914Y-98803995D01*
G37*
G36*
X31753983Y-98800936D02*
G01*
X31804180Y-98800936D01*
X31847524Y-98810149D01*
X31885659Y-98813905D01*
X31933566Y-98828437D01*
X31988424Y-98840098D01*
X32023530Y-98855728D01*
X32054566Y-98865143D01*
X32103884Y-98891504D01*
X32160500Y-98916711D01*
X32186822Y-98935835D01*
X32210232Y-98948348D01*
X32257988Y-98987540D01*
X32312887Y-99027427D01*
X32330711Y-99047223D01*
X32346675Y-99060324D01*
X32389572Y-99112594D01*
X32438924Y-99167405D01*
X32449292Y-99185363D01*
X32458651Y-99196767D01*
X32493273Y-99261542D01*
X32533104Y-99330530D01*
X32537685Y-99344630D01*
X32541856Y-99352433D01*
X32564852Y-99428242D01*
X32591311Y-99509672D01*
X32592242Y-99518532D01*
X32593094Y-99521340D01*
X32601387Y-99605539D01*
X32611000Y-99697000D01*
X32611000Y-99947000D01*
X32601385Y-100038475D01*
X32593094Y-100122659D01*
X32592242Y-100125466D01*
X32591311Y-100134328D01*
X32564848Y-100215771D01*
X32541856Y-100291566D01*
X32537686Y-100299366D01*
X32533104Y-100313470D01*
X32493266Y-100382470D01*
X32458651Y-100447232D01*
X32449294Y-100458633D01*
X32438924Y-100476595D01*
X32389563Y-100531415D01*
X32346675Y-100583675D01*
X32330714Y-100596773D01*
X32312887Y-100616573D01*
X32257977Y-100656467D01*
X32210232Y-100695651D01*
X32186827Y-100708161D01*
X32160500Y-100727289D01*
X32103873Y-100752500D01*
X32054566Y-100778856D01*
X32023537Y-100788268D01*
X31988424Y-100803902D01*
X31933555Y-100815564D01*
X31885659Y-100830094D01*
X31847533Y-100833849D01*
X31804180Y-100843064D01*
X31753972Y-100843064D01*
X31709999Y-100847395D01*
X31666026Y-100843064D01*
X31615820Y-100843064D01*
X31572467Y-100833849D01*
X31534340Y-100830094D01*
X31486441Y-100815563D01*
X31431576Y-100803902D01*
X31396464Y-100788269D01*
X31365433Y-100778856D01*
X31316120Y-100752498D01*
X31259500Y-100727289D01*
X31233175Y-100708163D01*
X31209767Y-100695651D01*
X31162013Y-100656460D01*
X31107113Y-100616573D01*
X31089287Y-100596776D01*
X31073324Y-100583675D01*
X31030425Y-100531402D01*
X30981076Y-100476595D01*
X30970708Y-100458637D01*
X30961348Y-100447232D01*
X30926719Y-100382447D01*
X30886896Y-100313470D01*
X30882315Y-100299371D01*
X30878143Y-100291566D01*
X30855136Y-100215725D01*
X30828689Y-100134328D01*
X30827758Y-100125471D01*
X30826905Y-100122659D01*
X30818605Y-100038394D01*
X30809000Y-99947000D01*
X30809000Y-99697000D01*
X30818604Y-99605620D01*
X30826905Y-99521340D01*
X30827758Y-99518527D01*
X30828689Y-99509672D01*
X30855132Y-99428288D01*
X30878143Y-99352433D01*
X30882315Y-99344626D01*
X30886896Y-99330530D01*
X30926712Y-99261565D01*
X30961348Y-99196767D01*
X30970710Y-99185359D01*
X30981076Y-99167405D01*
X31030416Y-99112607D01*
X31073324Y-99060324D01*
X31089291Y-99047219D01*
X31107113Y-99027427D01*
X31162002Y-98987546D01*
X31209767Y-98948348D01*
X31233180Y-98935833D01*
X31259500Y-98916711D01*
X31316109Y-98891506D01*
X31365433Y-98865143D01*
X31396471Y-98855727D01*
X31431576Y-98840098D01*
X31486430Y-98828438D01*
X31534340Y-98813905D01*
X31572476Y-98810148D01*
X31615820Y-98800936D01*
X31666016Y-98800936D01*
X31710000Y-98796604D01*
X31753983Y-98800936D01*
G37*
G36*
X34253983Y-98800936D02*
G01*
X34304180Y-98800936D01*
X34347524Y-98810149D01*
X34385659Y-98813905D01*
X34433566Y-98828437D01*
X34488424Y-98840098D01*
X34523530Y-98855728D01*
X34554566Y-98865143D01*
X34603884Y-98891504D01*
X34660500Y-98916711D01*
X34686822Y-98935835D01*
X34710232Y-98948348D01*
X34757988Y-98987540D01*
X34812887Y-99027427D01*
X34830711Y-99047223D01*
X34846675Y-99060324D01*
X34889572Y-99112594D01*
X34938924Y-99167405D01*
X34949292Y-99185363D01*
X34958651Y-99196767D01*
X34993273Y-99261542D01*
X35033104Y-99330530D01*
X35037685Y-99344630D01*
X35041856Y-99352433D01*
X35064852Y-99428242D01*
X35091311Y-99509672D01*
X35092242Y-99518532D01*
X35093094Y-99521340D01*
X35101387Y-99605539D01*
X35111000Y-99697000D01*
X35111000Y-99947000D01*
X35101385Y-100038475D01*
X35093094Y-100122659D01*
X35092242Y-100125466D01*
X35091311Y-100134328D01*
X35064848Y-100215771D01*
X35041856Y-100291566D01*
X35037686Y-100299366D01*
X35033104Y-100313470D01*
X34993266Y-100382470D01*
X34958651Y-100447232D01*
X34949294Y-100458633D01*
X34938924Y-100476595D01*
X34889563Y-100531415D01*
X34846675Y-100583675D01*
X34830714Y-100596773D01*
X34812887Y-100616573D01*
X34757977Y-100656467D01*
X34710232Y-100695651D01*
X34686827Y-100708161D01*
X34660500Y-100727289D01*
X34603873Y-100752500D01*
X34554566Y-100778856D01*
X34523537Y-100788268D01*
X34488424Y-100803902D01*
X34433555Y-100815564D01*
X34385659Y-100830094D01*
X34347532Y-100833849D01*
X34304180Y-100843064D01*
X34253973Y-100843064D01*
X34210000Y-100847395D01*
X34166027Y-100843064D01*
X34115820Y-100843064D01*
X34072467Y-100833849D01*
X34034340Y-100830094D01*
X33986441Y-100815563D01*
X33931576Y-100803902D01*
X33896464Y-100788269D01*
X33865433Y-100778856D01*
X33816120Y-100752498D01*
X33759500Y-100727289D01*
X33733175Y-100708163D01*
X33709767Y-100695651D01*
X33662013Y-100656460D01*
X33607113Y-100616573D01*
X33589287Y-100596776D01*
X33573324Y-100583675D01*
X33530425Y-100531402D01*
X33481076Y-100476595D01*
X33470708Y-100458637D01*
X33461348Y-100447232D01*
X33426719Y-100382447D01*
X33386896Y-100313470D01*
X33382315Y-100299371D01*
X33378143Y-100291566D01*
X33355136Y-100215725D01*
X33328689Y-100134328D01*
X33327758Y-100125471D01*
X33326905Y-100122659D01*
X33318605Y-100038394D01*
X33309000Y-99947000D01*
X33309000Y-99697000D01*
X33318604Y-99605620D01*
X33326905Y-99521340D01*
X33327758Y-99518527D01*
X33328689Y-99509672D01*
X33355132Y-99428288D01*
X33378143Y-99352433D01*
X33382315Y-99344626D01*
X33386896Y-99330530D01*
X33426712Y-99261565D01*
X33461348Y-99196767D01*
X33470710Y-99185359D01*
X33481076Y-99167405D01*
X33530416Y-99112607D01*
X33573324Y-99060324D01*
X33589291Y-99047219D01*
X33607113Y-99027427D01*
X33662002Y-98987546D01*
X33709767Y-98948348D01*
X33733180Y-98935833D01*
X33759500Y-98916711D01*
X33816109Y-98891506D01*
X33865433Y-98865143D01*
X33896471Y-98855727D01*
X33931576Y-98840098D01*
X33986430Y-98828438D01*
X34034340Y-98813905D01*
X34072476Y-98810148D01*
X34115820Y-98800936D01*
X34166016Y-98800936D01*
X34209999Y-98796604D01*
X34253983Y-98800936D01*
G37*
G36*
X36753983Y-98800936D02*
G01*
X36804180Y-98800936D01*
X36847524Y-98810149D01*
X36885659Y-98813905D01*
X36933566Y-98828437D01*
X36988424Y-98840098D01*
X37023530Y-98855728D01*
X37054566Y-98865143D01*
X37103884Y-98891504D01*
X37160500Y-98916711D01*
X37186822Y-98935835D01*
X37210232Y-98948348D01*
X37257988Y-98987540D01*
X37312887Y-99027427D01*
X37330711Y-99047223D01*
X37346675Y-99060324D01*
X37389572Y-99112594D01*
X37438924Y-99167405D01*
X37449292Y-99185363D01*
X37458651Y-99196767D01*
X37493273Y-99261542D01*
X37533104Y-99330530D01*
X37537685Y-99344630D01*
X37541856Y-99352433D01*
X37564852Y-99428242D01*
X37591311Y-99509672D01*
X37592242Y-99518532D01*
X37593094Y-99521340D01*
X37601387Y-99605539D01*
X37611000Y-99697000D01*
X37611000Y-99947000D01*
X37601385Y-100038475D01*
X37593094Y-100122659D01*
X37592242Y-100125466D01*
X37591311Y-100134328D01*
X37564848Y-100215771D01*
X37541856Y-100291566D01*
X37537686Y-100299366D01*
X37533104Y-100313470D01*
X37493266Y-100382470D01*
X37458651Y-100447232D01*
X37449294Y-100458633D01*
X37438924Y-100476595D01*
X37389563Y-100531415D01*
X37346675Y-100583675D01*
X37330714Y-100596773D01*
X37312887Y-100616573D01*
X37257977Y-100656467D01*
X37210232Y-100695651D01*
X37186827Y-100708161D01*
X37160500Y-100727289D01*
X37103873Y-100752500D01*
X37054566Y-100778856D01*
X37023537Y-100788268D01*
X36988424Y-100803902D01*
X36933555Y-100815564D01*
X36885659Y-100830094D01*
X36847532Y-100833849D01*
X36804180Y-100843064D01*
X36753973Y-100843064D01*
X36710000Y-100847395D01*
X36666027Y-100843064D01*
X36615820Y-100843064D01*
X36572467Y-100833849D01*
X36534340Y-100830094D01*
X36486441Y-100815563D01*
X36431576Y-100803902D01*
X36396464Y-100788269D01*
X36365433Y-100778856D01*
X36316120Y-100752498D01*
X36259500Y-100727289D01*
X36233175Y-100708163D01*
X36209767Y-100695651D01*
X36162013Y-100656460D01*
X36107113Y-100616573D01*
X36089287Y-100596776D01*
X36073324Y-100583675D01*
X36030425Y-100531402D01*
X35981076Y-100476595D01*
X35970708Y-100458637D01*
X35961348Y-100447232D01*
X35926719Y-100382447D01*
X35886896Y-100313470D01*
X35882315Y-100299371D01*
X35878143Y-100291566D01*
X35855136Y-100215725D01*
X35828689Y-100134328D01*
X35827758Y-100125471D01*
X35826905Y-100122659D01*
X35818605Y-100038394D01*
X35809000Y-99947000D01*
X35809000Y-99697000D01*
X35818604Y-99605620D01*
X35826905Y-99521340D01*
X35827758Y-99518527D01*
X35828689Y-99509672D01*
X35855132Y-99428288D01*
X35878143Y-99352433D01*
X35882315Y-99344626D01*
X35886896Y-99330530D01*
X35926712Y-99261565D01*
X35961348Y-99196767D01*
X35970710Y-99185359D01*
X35981076Y-99167405D01*
X36030416Y-99112607D01*
X36073324Y-99060324D01*
X36089291Y-99047219D01*
X36107113Y-99027427D01*
X36162002Y-98987546D01*
X36209767Y-98948348D01*
X36233180Y-98935833D01*
X36259500Y-98916711D01*
X36316109Y-98891506D01*
X36365433Y-98865143D01*
X36396471Y-98855727D01*
X36431576Y-98840098D01*
X36486430Y-98828438D01*
X36534340Y-98813905D01*
X36572476Y-98810148D01*
X36615820Y-98800936D01*
X36666016Y-98800936D01*
X36710000Y-98796604D01*
X36753983Y-98800936D01*
G37*
G36*
X39253983Y-98800936D02*
G01*
X39304180Y-98800936D01*
X39347524Y-98810149D01*
X39385659Y-98813905D01*
X39433566Y-98828437D01*
X39488424Y-98840098D01*
X39523530Y-98855728D01*
X39554566Y-98865143D01*
X39603884Y-98891504D01*
X39660500Y-98916711D01*
X39686822Y-98935835D01*
X39710232Y-98948348D01*
X39757988Y-98987540D01*
X39812887Y-99027427D01*
X39830711Y-99047223D01*
X39846675Y-99060324D01*
X39889572Y-99112594D01*
X39938924Y-99167405D01*
X39949292Y-99185363D01*
X39958651Y-99196767D01*
X39993273Y-99261542D01*
X40033104Y-99330530D01*
X40037685Y-99344630D01*
X40041856Y-99352433D01*
X40064852Y-99428242D01*
X40091311Y-99509672D01*
X40092242Y-99518532D01*
X40093094Y-99521340D01*
X40101387Y-99605539D01*
X40111000Y-99697000D01*
X40111000Y-99947000D01*
X40101385Y-100038475D01*
X40093094Y-100122659D01*
X40092242Y-100125466D01*
X40091311Y-100134328D01*
X40064848Y-100215771D01*
X40041856Y-100291566D01*
X40037686Y-100299366D01*
X40033104Y-100313470D01*
X39993266Y-100382470D01*
X39958651Y-100447232D01*
X39949294Y-100458633D01*
X39938924Y-100476595D01*
X39889563Y-100531415D01*
X39846675Y-100583675D01*
X39830714Y-100596773D01*
X39812887Y-100616573D01*
X39757977Y-100656467D01*
X39710232Y-100695651D01*
X39686827Y-100708161D01*
X39660500Y-100727289D01*
X39603873Y-100752500D01*
X39554566Y-100778856D01*
X39523537Y-100788268D01*
X39488424Y-100803902D01*
X39433555Y-100815564D01*
X39385659Y-100830094D01*
X39347533Y-100833849D01*
X39304180Y-100843064D01*
X39253972Y-100843064D01*
X39209999Y-100847395D01*
X39166026Y-100843064D01*
X39115820Y-100843064D01*
X39072467Y-100833849D01*
X39034340Y-100830094D01*
X38986441Y-100815563D01*
X38931576Y-100803902D01*
X38896464Y-100788269D01*
X38865433Y-100778856D01*
X38816120Y-100752498D01*
X38759500Y-100727289D01*
X38733175Y-100708163D01*
X38709767Y-100695651D01*
X38662013Y-100656460D01*
X38607113Y-100616573D01*
X38589287Y-100596776D01*
X38573324Y-100583675D01*
X38530425Y-100531402D01*
X38481076Y-100476595D01*
X38470708Y-100458637D01*
X38461348Y-100447232D01*
X38426719Y-100382447D01*
X38386896Y-100313470D01*
X38382315Y-100299371D01*
X38378143Y-100291566D01*
X38355136Y-100215725D01*
X38328689Y-100134328D01*
X38327758Y-100125471D01*
X38326905Y-100122659D01*
X38318605Y-100038394D01*
X38309000Y-99947000D01*
X38309000Y-99697000D01*
X38318604Y-99605620D01*
X38326905Y-99521340D01*
X38327758Y-99518527D01*
X38328689Y-99509672D01*
X38355132Y-99428288D01*
X38378143Y-99352433D01*
X38382315Y-99344626D01*
X38386896Y-99330530D01*
X38426712Y-99261565D01*
X38461348Y-99196767D01*
X38470710Y-99185359D01*
X38481076Y-99167405D01*
X38530416Y-99112607D01*
X38573324Y-99060324D01*
X38589291Y-99047219D01*
X38607113Y-99027427D01*
X38662002Y-98987546D01*
X38709767Y-98948348D01*
X38733180Y-98935833D01*
X38759500Y-98916711D01*
X38816109Y-98891506D01*
X38865433Y-98865143D01*
X38896471Y-98855727D01*
X38931576Y-98840098D01*
X38986430Y-98828438D01*
X39034340Y-98813905D01*
X39072476Y-98810148D01*
X39115820Y-98800936D01*
X39166016Y-98800936D01*
X39209999Y-98796604D01*
X39253983Y-98800936D01*
G37*
G36*
X41753983Y-98800936D02*
G01*
X41804180Y-98800936D01*
X41847524Y-98810149D01*
X41885659Y-98813905D01*
X41933566Y-98828437D01*
X41988424Y-98840098D01*
X42023530Y-98855728D01*
X42054566Y-98865143D01*
X42103884Y-98891504D01*
X42160500Y-98916711D01*
X42186822Y-98935835D01*
X42210232Y-98948348D01*
X42257988Y-98987540D01*
X42312887Y-99027427D01*
X42330711Y-99047223D01*
X42346675Y-99060324D01*
X42389572Y-99112594D01*
X42438924Y-99167405D01*
X42449292Y-99185363D01*
X42458651Y-99196767D01*
X42493273Y-99261542D01*
X42533104Y-99330530D01*
X42537685Y-99344630D01*
X42541856Y-99352433D01*
X42564852Y-99428242D01*
X42591311Y-99509672D01*
X42592242Y-99518532D01*
X42593094Y-99521340D01*
X42601387Y-99605539D01*
X42611000Y-99697000D01*
X42611000Y-99947000D01*
X42601385Y-100038475D01*
X42593094Y-100122659D01*
X42592242Y-100125466D01*
X42591311Y-100134328D01*
X42564848Y-100215771D01*
X42541856Y-100291566D01*
X42537686Y-100299366D01*
X42533104Y-100313470D01*
X42493266Y-100382470D01*
X42458651Y-100447232D01*
X42449294Y-100458633D01*
X42438924Y-100476595D01*
X42389563Y-100531415D01*
X42346675Y-100583675D01*
X42330714Y-100596773D01*
X42312887Y-100616573D01*
X42257977Y-100656467D01*
X42210232Y-100695651D01*
X42186827Y-100708161D01*
X42160500Y-100727289D01*
X42103873Y-100752500D01*
X42054566Y-100778856D01*
X42023537Y-100788268D01*
X41988424Y-100803902D01*
X41933555Y-100815564D01*
X41885659Y-100830094D01*
X41847533Y-100833849D01*
X41804180Y-100843064D01*
X41753972Y-100843064D01*
X41709999Y-100847395D01*
X41666026Y-100843064D01*
X41615820Y-100843064D01*
X41572467Y-100833849D01*
X41534340Y-100830094D01*
X41486441Y-100815563D01*
X41431576Y-100803902D01*
X41396464Y-100788269D01*
X41365433Y-100778856D01*
X41316120Y-100752498D01*
X41259500Y-100727289D01*
X41233175Y-100708163D01*
X41209767Y-100695651D01*
X41162013Y-100656460D01*
X41107113Y-100616573D01*
X41089287Y-100596776D01*
X41073324Y-100583675D01*
X41030425Y-100531402D01*
X40981076Y-100476595D01*
X40970708Y-100458637D01*
X40961348Y-100447232D01*
X40926719Y-100382447D01*
X40886896Y-100313470D01*
X40882315Y-100299371D01*
X40878143Y-100291566D01*
X40855136Y-100215725D01*
X40828689Y-100134328D01*
X40827758Y-100125471D01*
X40826905Y-100122659D01*
X40818605Y-100038394D01*
X40809000Y-99947000D01*
X40809000Y-99697000D01*
X40818604Y-99605620D01*
X40826905Y-99521340D01*
X40827758Y-99518527D01*
X40828689Y-99509672D01*
X40855132Y-99428288D01*
X40878143Y-99352433D01*
X40882315Y-99344626D01*
X40886896Y-99330530D01*
X40926712Y-99261565D01*
X40961348Y-99196767D01*
X40970710Y-99185359D01*
X40981076Y-99167405D01*
X41030416Y-99112607D01*
X41073324Y-99060324D01*
X41089291Y-99047219D01*
X41107113Y-99027427D01*
X41162002Y-98987546D01*
X41209767Y-98948348D01*
X41233180Y-98935833D01*
X41259500Y-98916711D01*
X41316109Y-98891506D01*
X41365433Y-98865143D01*
X41396471Y-98855727D01*
X41431576Y-98840098D01*
X41486430Y-98828438D01*
X41534340Y-98813905D01*
X41572476Y-98810148D01*
X41615820Y-98800936D01*
X41666016Y-98800936D01*
X41710000Y-98796604D01*
X41753983Y-98800936D01*
G37*
G36*
X47143174Y-99382024D02*
G01*
X47180259Y-99382024D01*
X47210402Y-99390875D01*
X47231767Y-99393688D01*
X47260466Y-99405575D01*
X47301652Y-99417669D01*
X47323389Y-99431638D01*
X47338711Y-99437985D01*
X47366783Y-99459525D01*
X47408086Y-99486069D01*
X47421401Y-99501435D01*
X47430545Y-99508452D01*
X47454251Y-99539347D01*
X47490937Y-99581685D01*
X47497110Y-99595202D01*
X47501014Y-99600290D01*
X47516424Y-99637493D01*
X47543495Y-99696770D01*
X47544833Y-99706080D01*
X47545311Y-99707233D01*
X47548697Y-99732956D01*
X47561500Y-99822000D01*
X47548697Y-99911047D01*
X47545311Y-99936767D01*
X47544833Y-99937919D01*
X47543495Y-99947230D01*
X47516427Y-100006499D01*
X47501014Y-100043711D01*
X47497109Y-100048799D01*
X47490937Y-100062315D01*
X47454250Y-100104653D01*
X47430546Y-100135546D01*
X47421404Y-100142560D01*
X47408086Y-100157931D01*
X47366774Y-100184479D01*
X47338711Y-100206014D01*
X47323394Y-100212358D01*
X47301652Y-100226331D01*
X47260458Y-100238426D01*
X47231767Y-100250311D01*
X47210409Y-100253122D01*
X47180259Y-100261976D01*
X47143165Y-100261976D01*
X47116999Y-100265421D01*
X47090833Y-100261976D01*
X47053741Y-100261976D01*
X47023591Y-100253123D01*
X47002232Y-100250311D01*
X46973538Y-100238425D01*
X46932348Y-100226331D01*
X46910607Y-100212359D01*
X46895288Y-100206014D01*
X46867218Y-100184475D01*
X46825914Y-100157931D01*
X46812597Y-100142563D01*
X46803453Y-100135546D01*
X46779740Y-100104643D01*
X46743063Y-100062315D01*
X46736892Y-100048802D01*
X46732985Y-100043711D01*
X46717562Y-100006476D01*
X46690505Y-99947230D01*
X46689166Y-99937923D01*
X46688688Y-99936767D01*
X46685290Y-99910962D01*
X46672500Y-99822000D01*
X46685290Y-99733037D01*
X46688688Y-99707233D01*
X46689166Y-99706076D01*
X46690505Y-99696770D01*
X46717565Y-99637517D01*
X46732985Y-99600290D01*
X46736891Y-99595199D01*
X46743063Y-99581685D01*
X46779738Y-99539359D01*
X46803453Y-99508453D01*
X46812599Y-99501434D01*
X46825914Y-99486069D01*
X46867219Y-99459523D01*
X46895290Y-99437985D01*
X46910608Y-99431639D01*
X46932348Y-99417669D01*
X46973534Y-99405575D01*
X47002233Y-99393688D01*
X47023597Y-99390875D01*
X47053741Y-99382024D01*
X47090826Y-99382024D01*
X47117000Y-99378578D01*
X47143174Y-99382024D01*
G37*
G36*
X48413174Y-99382024D02*
G01*
X48450259Y-99382024D01*
X48480402Y-99390875D01*
X48501767Y-99393688D01*
X48530466Y-99405575D01*
X48571652Y-99417669D01*
X48593389Y-99431638D01*
X48608711Y-99437985D01*
X48636783Y-99459525D01*
X48678086Y-99486069D01*
X48691401Y-99501435D01*
X48700545Y-99508452D01*
X48724251Y-99539347D01*
X48760937Y-99581685D01*
X48767110Y-99595202D01*
X48771014Y-99600290D01*
X48786424Y-99637493D01*
X48813495Y-99696770D01*
X48814833Y-99706080D01*
X48815311Y-99707233D01*
X48818697Y-99732954D01*
X48831500Y-99822000D01*
X48818697Y-99911045D01*
X48815311Y-99936767D01*
X48814833Y-99937919D01*
X48813495Y-99947230D01*
X48786427Y-100006499D01*
X48771014Y-100043711D01*
X48767109Y-100048799D01*
X48760937Y-100062315D01*
X48724250Y-100104653D01*
X48700546Y-100135546D01*
X48691404Y-100142560D01*
X48678086Y-100157931D01*
X48636774Y-100184479D01*
X48608711Y-100206014D01*
X48593394Y-100212358D01*
X48571652Y-100226331D01*
X48530458Y-100238426D01*
X48501767Y-100250311D01*
X48480409Y-100253122D01*
X48450259Y-100261976D01*
X48413166Y-100261976D01*
X48387000Y-100265421D01*
X48360834Y-100261976D01*
X48323741Y-100261976D01*
X48293591Y-100253123D01*
X48272232Y-100250311D01*
X48243538Y-100238425D01*
X48202348Y-100226331D01*
X48180607Y-100212359D01*
X48165288Y-100206014D01*
X48137218Y-100184475D01*
X48095914Y-100157931D01*
X48082597Y-100142563D01*
X48073453Y-100135546D01*
X48049740Y-100104643D01*
X48013063Y-100062315D01*
X48006892Y-100048802D01*
X48002985Y-100043711D01*
X47987562Y-100006476D01*
X47960505Y-99947230D01*
X47959166Y-99937923D01*
X47958688Y-99936767D01*
X47955290Y-99910962D01*
X47942500Y-99822000D01*
X47955290Y-99733037D01*
X47958688Y-99707233D01*
X47959166Y-99706076D01*
X47960505Y-99696770D01*
X47987565Y-99637517D01*
X48002985Y-99600290D01*
X48006891Y-99595199D01*
X48013063Y-99581685D01*
X48049738Y-99539359D01*
X48073453Y-99508453D01*
X48082599Y-99501434D01*
X48095914Y-99486069D01*
X48137219Y-99459523D01*
X48165290Y-99437985D01*
X48180608Y-99431639D01*
X48202348Y-99417669D01*
X48243534Y-99405575D01*
X48272233Y-99393688D01*
X48293597Y-99390875D01*
X48323741Y-99382024D01*
X48360826Y-99382024D01*
X48387000Y-99378578D01*
X48413174Y-99382024D01*
G37*
G36*
X47143173Y-98112024D02*
G01*
X47180259Y-98112024D01*
X47210403Y-98120875D01*
X47231767Y-98123688D01*
X47260466Y-98135575D01*
X47301652Y-98147669D01*
X47323389Y-98161638D01*
X47338711Y-98167985D01*
X47366783Y-98189525D01*
X47408086Y-98216069D01*
X47421401Y-98231435D01*
X47430545Y-98238452D01*
X47454251Y-98269347D01*
X47490937Y-98311685D01*
X47497110Y-98325202D01*
X47501014Y-98330290D01*
X47516424Y-98367493D01*
X47543495Y-98426770D01*
X47544833Y-98436080D01*
X47545311Y-98437233D01*
X47548697Y-98462956D01*
X47561500Y-98552000D01*
X47548697Y-98641047D01*
X47545311Y-98666767D01*
X47544833Y-98667919D01*
X47543495Y-98677230D01*
X47516427Y-98736499D01*
X47501014Y-98773711D01*
X47497109Y-98778799D01*
X47490937Y-98792315D01*
X47454250Y-98834653D01*
X47430546Y-98865546D01*
X47421404Y-98872560D01*
X47408086Y-98887931D01*
X47366774Y-98914479D01*
X47338711Y-98936014D01*
X47323394Y-98942358D01*
X47301652Y-98956331D01*
X47260458Y-98968426D01*
X47231767Y-98980311D01*
X47210409Y-98983122D01*
X47180259Y-98991976D01*
X47143166Y-98991976D01*
X47117000Y-98995421D01*
X47090834Y-98991976D01*
X47053741Y-98991976D01*
X47023591Y-98983123D01*
X47002232Y-98980311D01*
X46973538Y-98968425D01*
X46932348Y-98956331D01*
X46910607Y-98942359D01*
X46895288Y-98936014D01*
X46867218Y-98914475D01*
X46825914Y-98887931D01*
X46812597Y-98872563D01*
X46803453Y-98865546D01*
X46779740Y-98834643D01*
X46743063Y-98792315D01*
X46736892Y-98778802D01*
X46732985Y-98773711D01*
X46717562Y-98736476D01*
X46690505Y-98677230D01*
X46689166Y-98667923D01*
X46688688Y-98666767D01*
X46685290Y-98640962D01*
X46672500Y-98552000D01*
X46685290Y-98463037D01*
X46688688Y-98437233D01*
X46689166Y-98436076D01*
X46690505Y-98426770D01*
X46717565Y-98367517D01*
X46732985Y-98330290D01*
X46736891Y-98325199D01*
X46743063Y-98311685D01*
X46779738Y-98269359D01*
X46803453Y-98238453D01*
X46812599Y-98231434D01*
X46825914Y-98216069D01*
X46867219Y-98189523D01*
X46895290Y-98167985D01*
X46910608Y-98161639D01*
X46932348Y-98147669D01*
X46973534Y-98135575D01*
X47002233Y-98123688D01*
X47023597Y-98120875D01*
X47053741Y-98112024D01*
X47090825Y-98112024D01*
X47116999Y-98108578D01*
X47143173Y-98112024D01*
G37*
G36*
X48413173Y-98112024D02*
G01*
X48450259Y-98112024D01*
X48480403Y-98120875D01*
X48501767Y-98123688D01*
X48530466Y-98135575D01*
X48571652Y-98147669D01*
X48593389Y-98161638D01*
X48608711Y-98167985D01*
X48636783Y-98189525D01*
X48678086Y-98216069D01*
X48691401Y-98231435D01*
X48700545Y-98238452D01*
X48724251Y-98269347D01*
X48760937Y-98311685D01*
X48767110Y-98325202D01*
X48771014Y-98330290D01*
X48786424Y-98367493D01*
X48813495Y-98426770D01*
X48814833Y-98436080D01*
X48815311Y-98437233D01*
X48818697Y-98462954D01*
X48831500Y-98552000D01*
X48818697Y-98641045D01*
X48815311Y-98666767D01*
X48814833Y-98667919D01*
X48813495Y-98677230D01*
X48786427Y-98736499D01*
X48771014Y-98773711D01*
X48767109Y-98778799D01*
X48760937Y-98792315D01*
X48724250Y-98834653D01*
X48700546Y-98865546D01*
X48691404Y-98872560D01*
X48678086Y-98887931D01*
X48636774Y-98914479D01*
X48608711Y-98936014D01*
X48593394Y-98942358D01*
X48571652Y-98956331D01*
X48530458Y-98968426D01*
X48501767Y-98980311D01*
X48480409Y-98983122D01*
X48450259Y-98991976D01*
X48413166Y-98991976D01*
X48387000Y-98995421D01*
X48360834Y-98991976D01*
X48323741Y-98991976D01*
X48293591Y-98983123D01*
X48272232Y-98980311D01*
X48243538Y-98968425D01*
X48202348Y-98956331D01*
X48180607Y-98942359D01*
X48165288Y-98936014D01*
X48137218Y-98914475D01*
X48095914Y-98887931D01*
X48082597Y-98872563D01*
X48073453Y-98865546D01*
X48049740Y-98834643D01*
X48013063Y-98792315D01*
X48006892Y-98778802D01*
X48002985Y-98773711D01*
X47987562Y-98736476D01*
X47960505Y-98677230D01*
X47959166Y-98667923D01*
X47958688Y-98666767D01*
X47955290Y-98640962D01*
X47942500Y-98552000D01*
X47955290Y-98463037D01*
X47958688Y-98437233D01*
X47959166Y-98436076D01*
X47960505Y-98426770D01*
X47987565Y-98367517D01*
X48002985Y-98330290D01*
X48006891Y-98325199D01*
X48013063Y-98311685D01*
X48049738Y-98269359D01*
X48073453Y-98238453D01*
X48082599Y-98231434D01*
X48095914Y-98216069D01*
X48137219Y-98189523D01*
X48165290Y-98167985D01*
X48180608Y-98161639D01*
X48202348Y-98147669D01*
X48243534Y-98135575D01*
X48272233Y-98123688D01*
X48293597Y-98120875D01*
X48323741Y-98112024D01*
X48360825Y-98112024D01*
X48386999Y-98108578D01*
X48413173Y-98112024D01*
G37*
G36*
X47143174Y-96842024D02*
G01*
X47180259Y-96842024D01*
X47210402Y-96850875D01*
X47231767Y-96853688D01*
X47260466Y-96865575D01*
X47301652Y-96877669D01*
X47323389Y-96891638D01*
X47338711Y-96897985D01*
X47366783Y-96919525D01*
X47408086Y-96946069D01*
X47421401Y-96961435D01*
X47430545Y-96968452D01*
X47454251Y-96999347D01*
X47490937Y-97041685D01*
X47497110Y-97055202D01*
X47501014Y-97060290D01*
X47516424Y-97097493D01*
X47543495Y-97156770D01*
X47544833Y-97166080D01*
X47545311Y-97167233D01*
X47548697Y-97192956D01*
X47561500Y-97282000D01*
X47548697Y-97371047D01*
X47545311Y-97396767D01*
X47544833Y-97397919D01*
X47543495Y-97407230D01*
X47516427Y-97466499D01*
X47501014Y-97503711D01*
X47497109Y-97508799D01*
X47490937Y-97522315D01*
X47454250Y-97564653D01*
X47430546Y-97595546D01*
X47421404Y-97602560D01*
X47408086Y-97617931D01*
X47366774Y-97644479D01*
X47338711Y-97666014D01*
X47323394Y-97672358D01*
X47301652Y-97686331D01*
X47260458Y-97698426D01*
X47231767Y-97710311D01*
X47210409Y-97713122D01*
X47180259Y-97721976D01*
X47143165Y-97721976D01*
X47116999Y-97725421D01*
X47090833Y-97721976D01*
X47053741Y-97721976D01*
X47023591Y-97713123D01*
X47002232Y-97710311D01*
X46973538Y-97698425D01*
X46932348Y-97686331D01*
X46910607Y-97672359D01*
X46895288Y-97666014D01*
X46867218Y-97644475D01*
X46825914Y-97617931D01*
X46812597Y-97602563D01*
X46803453Y-97595546D01*
X46779740Y-97564643D01*
X46743063Y-97522315D01*
X46736892Y-97508802D01*
X46732985Y-97503711D01*
X46717562Y-97466476D01*
X46690505Y-97407230D01*
X46689166Y-97397923D01*
X46688688Y-97396767D01*
X46685290Y-97370962D01*
X46672500Y-97282000D01*
X46685290Y-97193037D01*
X46688688Y-97167233D01*
X46689166Y-97166076D01*
X46690505Y-97156770D01*
X46717565Y-97097517D01*
X46732985Y-97060290D01*
X46736891Y-97055199D01*
X46743063Y-97041685D01*
X46779738Y-96999359D01*
X46803453Y-96968453D01*
X46812599Y-96961434D01*
X46825914Y-96946069D01*
X46867219Y-96919523D01*
X46895290Y-96897985D01*
X46910608Y-96891639D01*
X46932348Y-96877669D01*
X46973534Y-96865575D01*
X47002233Y-96853688D01*
X47023597Y-96850875D01*
X47053741Y-96842024D01*
X47090826Y-96842024D01*
X47117000Y-96838578D01*
X47143174Y-96842024D01*
G37*
G36*
X48413174Y-96842024D02*
G01*
X48450259Y-96842024D01*
X48480402Y-96850875D01*
X48501767Y-96853688D01*
X48530466Y-96865575D01*
X48571652Y-96877669D01*
X48593389Y-96891638D01*
X48608711Y-96897985D01*
X48636783Y-96919525D01*
X48678086Y-96946069D01*
X48691401Y-96961435D01*
X48700545Y-96968452D01*
X48724251Y-96999347D01*
X48760937Y-97041685D01*
X48767110Y-97055202D01*
X48771014Y-97060290D01*
X48786424Y-97097493D01*
X48813495Y-97156770D01*
X48814833Y-97166080D01*
X48815311Y-97167233D01*
X48818697Y-97192954D01*
X48831500Y-97282000D01*
X48818697Y-97371045D01*
X48815311Y-97396767D01*
X48814833Y-97397919D01*
X48813495Y-97407230D01*
X48786427Y-97466499D01*
X48771014Y-97503711D01*
X48767109Y-97508799D01*
X48760937Y-97522315D01*
X48724250Y-97564653D01*
X48700546Y-97595546D01*
X48691404Y-97602560D01*
X48678086Y-97617931D01*
X48636774Y-97644479D01*
X48608711Y-97666014D01*
X48593394Y-97672358D01*
X48571652Y-97686331D01*
X48530458Y-97698426D01*
X48501767Y-97710311D01*
X48480409Y-97713122D01*
X48450259Y-97721976D01*
X48413165Y-97721976D01*
X48386999Y-97725421D01*
X48360833Y-97721976D01*
X48323741Y-97721976D01*
X48293591Y-97713123D01*
X48272232Y-97710311D01*
X48243538Y-97698425D01*
X48202348Y-97686331D01*
X48180607Y-97672359D01*
X48165288Y-97666014D01*
X48137218Y-97644475D01*
X48095914Y-97617931D01*
X48082597Y-97602563D01*
X48073453Y-97595546D01*
X48049740Y-97564643D01*
X48013063Y-97522315D01*
X48006892Y-97508802D01*
X48002985Y-97503711D01*
X47987562Y-97466476D01*
X47960505Y-97407230D01*
X47959166Y-97397923D01*
X47958688Y-97396767D01*
X47955290Y-97370962D01*
X47942500Y-97282000D01*
X47955290Y-97193037D01*
X47958688Y-97167233D01*
X47959166Y-97166076D01*
X47960505Y-97156770D01*
X47987565Y-97097517D01*
X48002985Y-97060290D01*
X48006891Y-97055199D01*
X48013063Y-97041685D01*
X48049738Y-96999359D01*
X48073453Y-96968453D01*
X48082599Y-96961434D01*
X48095914Y-96946069D01*
X48137219Y-96919523D01*
X48165290Y-96897985D01*
X48180608Y-96891639D01*
X48202348Y-96877669D01*
X48243534Y-96865575D01*
X48272233Y-96853688D01*
X48293597Y-96850875D01*
X48323741Y-96842024D01*
X48360826Y-96842024D01*
X48387000Y-96838578D01*
X48413174Y-96842024D01*
G37*
G36*
X46773188Y-95470396D02*
G01*
X46801761Y-95470396D01*
X46834524Y-95478471D01*
X46877445Y-95484122D01*
X46906824Y-95496291D01*
X46929467Y-95501872D01*
X46963797Y-95519890D01*
X47009250Y-95538717D01*
X47029987Y-95554629D01*
X47045925Y-95562994D01*
X47078509Y-95591861D01*
X47122434Y-95625566D01*
X47134918Y-95641835D01*
X47144373Y-95650212D01*
X47171487Y-95689494D01*
X47209283Y-95738750D01*
X47214979Y-95752502D01*
X47219089Y-95758456D01*
X47236917Y-95805465D01*
X47263878Y-95870555D01*
X47265088Y-95879746D01*
X47265727Y-95881431D01*
X47270676Y-95922196D01*
X47282500Y-96012000D01*
X47270674Y-96101819D01*
X47265727Y-96142568D01*
X47265088Y-96144252D01*
X47263878Y-96153445D01*
X47236912Y-96218545D01*
X47219089Y-96265543D01*
X47214980Y-96271495D01*
X47209283Y-96285250D01*
X47171480Y-96334514D01*
X47144373Y-96373787D01*
X47134920Y-96382161D01*
X47122434Y-96398434D01*
X47078501Y-96432144D01*
X47045925Y-96461005D01*
X47029991Y-96469367D01*
X47009250Y-96485283D01*
X46963788Y-96504113D01*
X46929467Y-96522127D01*
X46906829Y-96527706D01*
X46877445Y-96539878D01*
X46834522Y-96545529D01*
X46801761Y-96553604D01*
X46773188Y-96553604D01*
X46736000Y-96558500D01*
X46698812Y-96553604D01*
X46670239Y-96553604D01*
X46637477Y-96545528D01*
X46594555Y-96539878D01*
X46565172Y-96527707D01*
X46542532Y-96522127D01*
X46508206Y-96504111D01*
X46462750Y-96485283D01*
X46442010Y-96469369D01*
X46426074Y-96461005D01*
X46393491Y-96432138D01*
X46349566Y-96398434D01*
X46337081Y-96382164D01*
X46327626Y-96373787D01*
X46300509Y-96334501D01*
X46262717Y-96285250D01*
X46257021Y-96271499D01*
X46252910Y-96265543D01*
X46235075Y-96218516D01*
X46208122Y-96153445D01*
X46206912Y-96144256D01*
X46206272Y-96142568D01*
X46201311Y-96101717D01*
X46189500Y-96012000D01*
X46201310Y-95922290D01*
X46206272Y-95881431D01*
X46206912Y-95879742D01*
X46208122Y-95870555D01*
X46235070Y-95805494D01*
X46252910Y-95758456D01*
X46257022Y-95752498D01*
X46262717Y-95738750D01*
X46300502Y-95689507D01*
X46327626Y-95650212D01*
X46337084Y-95641832D01*
X46349566Y-95625566D01*
X46393482Y-95591867D01*
X46426074Y-95562994D01*
X46442014Y-95554627D01*
X46462750Y-95538717D01*
X46508197Y-95519892D01*
X46542532Y-95501872D01*
X46565176Y-95496290D01*
X46594555Y-95484122D01*
X46637475Y-95478471D01*
X46670239Y-95470396D01*
X46698812Y-95470396D01*
X46736000Y-95465500D01*
X46773188Y-95470396D01*
G37*
G36*
X48805188Y-95470396D02*
G01*
X48833761Y-95470396D01*
X48866524Y-95478471D01*
X48909445Y-95484122D01*
X48938824Y-95496291D01*
X48961467Y-95501872D01*
X48995797Y-95519890D01*
X49041250Y-95538717D01*
X49061987Y-95554629D01*
X49077925Y-95562994D01*
X49110509Y-95591861D01*
X49154434Y-95625566D01*
X49166918Y-95641835D01*
X49176373Y-95650212D01*
X49203487Y-95689494D01*
X49241283Y-95738750D01*
X49246979Y-95752502D01*
X49251089Y-95758456D01*
X49268917Y-95805465D01*
X49295878Y-95870555D01*
X49297088Y-95879746D01*
X49297727Y-95881431D01*
X49302676Y-95922196D01*
X49314500Y-96012000D01*
X49302674Y-96101819D01*
X49297727Y-96142568D01*
X49297088Y-96144252D01*
X49295878Y-96153445D01*
X49268912Y-96218545D01*
X49251089Y-96265543D01*
X49246980Y-96271495D01*
X49241283Y-96285250D01*
X49203480Y-96334514D01*
X49176373Y-96373787D01*
X49166920Y-96382161D01*
X49154434Y-96398434D01*
X49110501Y-96432144D01*
X49077925Y-96461005D01*
X49061991Y-96469367D01*
X49041250Y-96485283D01*
X48995788Y-96504113D01*
X48961467Y-96522127D01*
X48938829Y-96527706D01*
X48909445Y-96539878D01*
X48866522Y-96545529D01*
X48833761Y-96553604D01*
X48805188Y-96553604D01*
X48768000Y-96558500D01*
X48730812Y-96553604D01*
X48702239Y-96553604D01*
X48669477Y-96545528D01*
X48626555Y-96539878D01*
X48597172Y-96527707D01*
X48574532Y-96522127D01*
X48540206Y-96504111D01*
X48494750Y-96485283D01*
X48474010Y-96469369D01*
X48458074Y-96461005D01*
X48425491Y-96432138D01*
X48381566Y-96398434D01*
X48369081Y-96382164D01*
X48359626Y-96373787D01*
X48332509Y-96334501D01*
X48294717Y-96285250D01*
X48289021Y-96271499D01*
X48284910Y-96265543D01*
X48267075Y-96218516D01*
X48240122Y-96153445D01*
X48238912Y-96144256D01*
X48238272Y-96142568D01*
X48233311Y-96101717D01*
X48221500Y-96012000D01*
X48233310Y-95922290D01*
X48238272Y-95881431D01*
X48238912Y-95879742D01*
X48240122Y-95870555D01*
X48267070Y-95805494D01*
X48284910Y-95758456D01*
X48289022Y-95752498D01*
X48294717Y-95738750D01*
X48332502Y-95689507D01*
X48359626Y-95650212D01*
X48369084Y-95641832D01*
X48381566Y-95625566D01*
X48425482Y-95591867D01*
X48458074Y-95562994D01*
X48474014Y-95554627D01*
X48494750Y-95538717D01*
X48540197Y-95519892D01*
X48574532Y-95501872D01*
X48597176Y-95496290D01*
X48626555Y-95484122D01*
X48669475Y-95478471D01*
X48702239Y-95470396D01*
X48730812Y-95470396D01*
X48768000Y-95465500D01*
X48805188Y-95470396D01*
G37*
G36*
X39119194Y-94161646D02*
G01*
X39163626Y-94168684D01*
X39169423Y-94171637D01*
X39183979Y-94174533D01*
X39212473Y-94193572D01*
X39238387Y-94206776D01*
X39250778Y-94219167D01*
X39271492Y-94233008D01*
X39285332Y-94253721D01*
X39297723Y-94266112D01*
X39310925Y-94292023D01*
X39329967Y-94320521D01*
X39332862Y-94335078D01*
X39335815Y-94340873D01*
X39342849Y-94385284D01*
X39350500Y-94423750D01*
X39350500Y-94936250D01*
X39342848Y-94974718D01*
X39335815Y-95019126D01*
X39332862Y-95024919D01*
X39329967Y-95039479D01*
X39310923Y-95067979D01*
X39297723Y-95093887D01*
X39285334Y-95106275D01*
X39271492Y-95126992D01*
X39250775Y-95140834D01*
X39238387Y-95153223D01*
X39212479Y-95166423D01*
X39183979Y-95185467D01*
X39169419Y-95188362D01*
X39163626Y-95191315D01*
X39119218Y-95198348D01*
X39080750Y-95206000D01*
X38643250Y-95206000D01*
X38604784Y-95198349D01*
X38560373Y-95191315D01*
X38554578Y-95188362D01*
X38540021Y-95185467D01*
X38511523Y-95166425D01*
X38485612Y-95153223D01*
X38473221Y-95140832D01*
X38452508Y-95126992D01*
X38438667Y-95106278D01*
X38426276Y-95093887D01*
X38413072Y-95067973D01*
X38394033Y-95039479D01*
X38391137Y-95024923D01*
X38388184Y-95019126D01*
X38381146Y-94974694D01*
X38373500Y-94936250D01*
X38373500Y-94423750D01*
X38381146Y-94385309D01*
X38388184Y-94340873D01*
X38391138Y-94335075D01*
X38394033Y-94320521D01*
X38413070Y-94292029D01*
X38426276Y-94266112D01*
X38438669Y-94253718D01*
X38452508Y-94233008D01*
X38473218Y-94219169D01*
X38485612Y-94206776D01*
X38511529Y-94193570D01*
X38540021Y-94174533D01*
X38554575Y-94171638D01*
X38560373Y-94168684D01*
X38604809Y-94161646D01*
X38643250Y-94154000D01*
X39080750Y-94154000D01*
X39119194Y-94161646D01*
G37*
G36*
X40694194Y-94161646D02*
G01*
X40738626Y-94168684D01*
X40744423Y-94171637D01*
X40758979Y-94174533D01*
X40787473Y-94193572D01*
X40813387Y-94206776D01*
X40825778Y-94219167D01*
X40846492Y-94233008D01*
X40860332Y-94253721D01*
X40872723Y-94266112D01*
X40885925Y-94292023D01*
X40904967Y-94320521D01*
X40907862Y-94335078D01*
X40910815Y-94340873D01*
X40917849Y-94385284D01*
X40925500Y-94423750D01*
X40925500Y-94936250D01*
X40917848Y-94974718D01*
X40910815Y-95019126D01*
X40907862Y-95024919D01*
X40904967Y-95039479D01*
X40885923Y-95067979D01*
X40872723Y-95093887D01*
X40860334Y-95106275D01*
X40846492Y-95126992D01*
X40825775Y-95140834D01*
X40813387Y-95153223D01*
X40787479Y-95166423D01*
X40758979Y-95185467D01*
X40744419Y-95188362D01*
X40738626Y-95191315D01*
X40694218Y-95198348D01*
X40655750Y-95206000D01*
X40218250Y-95206000D01*
X40179784Y-95198349D01*
X40135373Y-95191315D01*
X40129578Y-95188362D01*
X40115021Y-95185467D01*
X40086523Y-95166425D01*
X40060612Y-95153223D01*
X40048221Y-95140832D01*
X40027508Y-95126992D01*
X40013667Y-95106278D01*
X40001276Y-95093887D01*
X39988072Y-95067973D01*
X39969033Y-95039479D01*
X39966137Y-95024923D01*
X39963184Y-95019126D01*
X39956146Y-94974694D01*
X39948500Y-94936250D01*
X39948500Y-94423750D01*
X39956146Y-94385309D01*
X39963184Y-94340873D01*
X39966138Y-94335075D01*
X39969033Y-94320521D01*
X39988070Y-94292029D01*
X40001276Y-94266112D01*
X40013669Y-94253718D01*
X40027508Y-94233008D01*
X40048218Y-94219169D01*
X40060612Y-94206776D01*
X40086529Y-94193570D01*
X40115021Y-94174533D01*
X40129575Y-94171638D01*
X40135373Y-94168684D01*
X40179809Y-94161646D01*
X40218250Y-94154000D01*
X40655750Y-94154000D01*
X40694194Y-94161646D01*
G37*
G36*
X18824022Y-94276026D02*
G01*
X18853966Y-94296034D01*
X18873974Y-94325978D01*
X18881000Y-94361300D01*
X18881000Y-94868700D01*
X18873974Y-94904022D01*
X18853966Y-94933966D01*
X18824022Y-94953974D01*
X18788700Y-94961000D01*
X16901300Y-94961000D01*
X16865978Y-94953974D01*
X16836034Y-94933966D01*
X16816026Y-94904022D01*
X16809000Y-94868700D01*
X16809000Y-94361300D01*
X16816026Y-94325978D01*
X16836034Y-94296034D01*
X16865978Y-94276026D01*
X16901300Y-94269000D01*
X18788700Y-94269000D01*
X18824022Y-94276026D01*
G37*
G36*
X23774022Y-94276026D02*
G01*
X23803966Y-94296034D01*
X23823974Y-94325978D01*
X23831000Y-94361300D01*
X23831000Y-94868700D01*
X23823974Y-94904022D01*
X23803966Y-94933966D01*
X23774022Y-94953974D01*
X23738700Y-94961000D01*
X21851300Y-94961000D01*
X21815978Y-94953974D01*
X21786034Y-94933966D01*
X21766026Y-94904022D01*
X21759000Y-94868700D01*
X21759000Y-94361300D01*
X21766026Y-94325978D01*
X21786034Y-94296034D01*
X21815978Y-94276026D01*
X21851300Y-94269000D01*
X23738700Y-94269000D01*
X23774022Y-94276026D01*
G37*
G36*
X28651517Y-93816882D02*
G01*
X28668062Y-93827938D01*
X28679118Y-93844483D01*
X28683000Y-93864000D01*
X28683000Y-94604000D01*
X28679118Y-94623517D01*
X28668062Y-94640062D01*
X28651517Y-94651118D01*
X28632000Y-94655000D01*
X26232000Y-94655000D01*
X26212483Y-94651118D01*
X26195938Y-94640062D01*
X26184882Y-94623517D01*
X26181000Y-94604000D01*
X26181000Y-93864000D01*
X26184882Y-93844483D01*
X26195938Y-93827938D01*
X26212483Y-93816882D01*
X26232000Y-93813000D01*
X28632000Y-93813000D01*
X28651517Y-93816882D01*
G37*
G36*
X32551517Y-93816882D02*
G01*
X32568062Y-93827938D01*
X32579118Y-93844483D01*
X32583000Y-93864000D01*
X32583000Y-94604000D01*
X32579118Y-94623517D01*
X32568062Y-94640062D01*
X32551517Y-94651118D01*
X32532000Y-94655000D01*
X30132000Y-94655000D01*
X30112483Y-94651118D01*
X30095938Y-94640062D01*
X30084882Y-94623517D01*
X30081000Y-94604000D01*
X30081000Y-93864000D01*
X30084882Y-93844483D01*
X30095938Y-93827938D01*
X30112483Y-93816882D01*
X30132000Y-93813000D01*
X32532000Y-93813000D01*
X32551517Y-93816882D01*
G37*
G36*
X18824022Y-93006026D02*
G01*
X18853966Y-93026034D01*
X18873974Y-93055978D01*
X18881000Y-93091300D01*
X18881000Y-93598700D01*
X18873974Y-93634022D01*
X18853966Y-93663966D01*
X18824022Y-93683974D01*
X18788700Y-93691000D01*
X16901300Y-93691000D01*
X16865978Y-93683974D01*
X16836034Y-93663966D01*
X16816026Y-93634022D01*
X16809000Y-93598700D01*
X16809000Y-93091300D01*
X16816026Y-93055978D01*
X16836034Y-93026034D01*
X16865978Y-93006026D01*
X16901300Y-92999000D01*
X18788700Y-92999000D01*
X18824022Y-93006026D01*
G37*
G36*
X23774022Y-93006026D02*
G01*
X23803966Y-93026034D01*
X23823974Y-93055978D01*
X23831000Y-93091300D01*
X23831000Y-93598700D01*
X23823974Y-93634022D01*
X23803966Y-93663966D01*
X23774022Y-93683974D01*
X23738700Y-93691000D01*
X21851300Y-93691000D01*
X21815978Y-93683974D01*
X21786034Y-93663966D01*
X21766026Y-93634022D01*
X21759000Y-93598700D01*
X21759000Y-93091300D01*
X21766026Y-93055978D01*
X21786034Y-93026034D01*
X21815978Y-93006026D01*
X21851300Y-92999000D01*
X23738700Y-92999000D01*
X23774022Y-93006026D01*
G37*
G36*
X28651517Y-92546882D02*
G01*
X28668062Y-92557938D01*
X28679118Y-92574483D01*
X28683000Y-92594000D01*
X28683000Y-93334000D01*
X28679118Y-93353517D01*
X28668062Y-93370062D01*
X28651517Y-93381118D01*
X28632000Y-93385000D01*
X26232000Y-93385000D01*
X26212483Y-93381118D01*
X26195938Y-93370062D01*
X26184882Y-93353517D01*
X26181000Y-93334000D01*
X26181000Y-92594000D01*
X26184882Y-92574483D01*
X26195938Y-92557938D01*
X26212483Y-92546882D01*
X26232000Y-92543000D01*
X28632000Y-92543000D01*
X28651517Y-92546882D01*
G37*
G36*
X32551517Y-92546882D02*
G01*
X32568062Y-92557938D01*
X32579118Y-92574483D01*
X32583000Y-92594000D01*
X32583000Y-93334000D01*
X32579118Y-93353517D01*
X32568062Y-93370062D01*
X32551517Y-93381118D01*
X32532000Y-93385000D01*
X30132000Y-93385000D01*
X30112483Y-93381118D01*
X30095938Y-93370062D01*
X30084882Y-93353517D01*
X30081000Y-93334000D01*
X30081000Y-92594000D01*
X30084882Y-92574483D01*
X30095938Y-92557938D01*
X30112483Y-92546882D01*
X30132000Y-92543000D01*
X32532000Y-92543000D01*
X32551517Y-92546882D01*
G37*
G36*
X39119194Y-91621646D02*
G01*
X39163626Y-91628684D01*
X39169423Y-91631637D01*
X39183979Y-91634533D01*
X39212473Y-91653572D01*
X39238387Y-91666776D01*
X39250778Y-91679167D01*
X39271492Y-91693008D01*
X39285332Y-91713721D01*
X39297723Y-91726112D01*
X39310925Y-91752023D01*
X39329967Y-91780521D01*
X39332862Y-91795078D01*
X39335815Y-91800873D01*
X39342849Y-91845284D01*
X39350500Y-91883750D01*
X39350500Y-92396250D01*
X39342848Y-92434718D01*
X39335815Y-92479126D01*
X39332862Y-92484919D01*
X39329967Y-92499479D01*
X39310923Y-92527979D01*
X39297723Y-92553887D01*
X39285334Y-92566275D01*
X39271492Y-92586992D01*
X39250775Y-92600834D01*
X39238387Y-92613223D01*
X39212479Y-92626423D01*
X39183979Y-92645467D01*
X39169419Y-92648362D01*
X39163626Y-92651315D01*
X39119218Y-92658348D01*
X39080750Y-92666000D01*
X38643250Y-92666000D01*
X38604784Y-92658349D01*
X38560373Y-92651315D01*
X38554578Y-92648362D01*
X38540021Y-92645467D01*
X38511523Y-92626425D01*
X38485612Y-92613223D01*
X38473221Y-92600832D01*
X38452508Y-92586992D01*
X38438667Y-92566278D01*
X38426276Y-92553887D01*
X38413072Y-92527973D01*
X38394033Y-92499479D01*
X38391137Y-92484923D01*
X38388184Y-92479126D01*
X38381146Y-92434694D01*
X38373500Y-92396250D01*
X38373500Y-91883750D01*
X38381146Y-91845309D01*
X38388184Y-91800873D01*
X38391138Y-91795075D01*
X38394033Y-91780521D01*
X38413070Y-91752029D01*
X38426276Y-91726112D01*
X38438669Y-91713718D01*
X38452508Y-91693008D01*
X38473218Y-91679169D01*
X38485612Y-91666776D01*
X38511529Y-91653570D01*
X38540021Y-91634533D01*
X38554575Y-91631638D01*
X38560373Y-91628684D01*
X38604809Y-91621646D01*
X38643250Y-91614000D01*
X39080750Y-91614000D01*
X39119194Y-91621646D01*
G37*
G36*
X40694194Y-91621646D02*
G01*
X40738626Y-91628684D01*
X40744423Y-91631637D01*
X40758979Y-91634533D01*
X40787473Y-91653572D01*
X40813387Y-91666776D01*
X40825778Y-91679167D01*
X40846492Y-91693008D01*
X40860332Y-91713721D01*
X40872723Y-91726112D01*
X40885925Y-91752023D01*
X40904967Y-91780521D01*
X40907862Y-91795078D01*
X40910815Y-91800873D01*
X40917849Y-91845284D01*
X40925500Y-91883750D01*
X40925500Y-92396250D01*
X40917848Y-92434718D01*
X40910815Y-92479126D01*
X40907862Y-92484919D01*
X40904967Y-92499479D01*
X40885923Y-92527979D01*
X40872723Y-92553887D01*
X40860334Y-92566275D01*
X40846492Y-92586992D01*
X40825775Y-92600834D01*
X40813387Y-92613223D01*
X40787479Y-92626423D01*
X40758979Y-92645467D01*
X40744419Y-92648362D01*
X40738626Y-92651315D01*
X40694218Y-92658348D01*
X40655750Y-92666000D01*
X40218250Y-92666000D01*
X40179784Y-92658349D01*
X40135373Y-92651315D01*
X40129578Y-92648362D01*
X40115021Y-92645467D01*
X40086523Y-92626425D01*
X40060612Y-92613223D01*
X40048221Y-92600832D01*
X40027508Y-92586992D01*
X40013667Y-92566278D01*
X40001276Y-92553887D01*
X39988072Y-92527973D01*
X39969033Y-92499479D01*
X39966137Y-92484923D01*
X39963184Y-92479126D01*
X39956146Y-92434694D01*
X39948500Y-92396250D01*
X39948500Y-91883750D01*
X39956146Y-91845309D01*
X39963184Y-91800873D01*
X39966138Y-91795075D01*
X39969033Y-91780521D01*
X39988070Y-91752029D01*
X40001276Y-91726112D01*
X40013669Y-91713718D01*
X40027508Y-91693008D01*
X40048218Y-91679169D01*
X40060612Y-91666776D01*
X40086529Y-91653570D01*
X40115021Y-91634533D01*
X40129575Y-91631638D01*
X40135373Y-91628684D01*
X40179809Y-91621646D01*
X40218250Y-91614000D01*
X40655750Y-91614000D01*
X40694194Y-91621646D01*
G37*
G36*
X18824022Y-91736026D02*
G01*
X18853966Y-91756034D01*
X18873974Y-91785978D01*
X18881000Y-91821300D01*
X18881000Y-92328700D01*
X18873974Y-92364022D01*
X18853966Y-92393966D01*
X18824022Y-92413974D01*
X18788700Y-92421000D01*
X16901300Y-92421000D01*
X16865978Y-92413974D01*
X16836034Y-92393966D01*
X16816026Y-92364022D01*
X16809000Y-92328700D01*
X16809000Y-91821300D01*
X16816026Y-91785978D01*
X16836034Y-91756034D01*
X16865978Y-91736026D01*
X16901300Y-91729000D01*
X18788700Y-91729000D01*
X18824022Y-91736026D01*
G37*
G36*
X23774022Y-91736026D02*
G01*
X23803966Y-91756034D01*
X23823974Y-91785978D01*
X23831000Y-91821300D01*
X23831000Y-92328700D01*
X23823974Y-92364022D01*
X23803966Y-92393966D01*
X23774022Y-92413974D01*
X23738700Y-92421000D01*
X21851300Y-92421000D01*
X21815978Y-92413974D01*
X21786034Y-92393966D01*
X21766026Y-92364022D01*
X21759000Y-92328700D01*
X21759000Y-91821300D01*
X21766026Y-91785978D01*
X21786034Y-91756034D01*
X21815978Y-91736026D01*
X21851300Y-91729000D01*
X23738700Y-91729000D01*
X23774022Y-91736026D01*
G37*
G36*
X28651517Y-91276882D02*
G01*
X28668062Y-91287938D01*
X28679118Y-91304483D01*
X28683000Y-91324000D01*
X28683000Y-92064000D01*
X28679118Y-92083517D01*
X28668062Y-92100062D01*
X28651517Y-92111118D01*
X28632000Y-92115000D01*
X26232000Y-92115000D01*
X26212483Y-92111118D01*
X26195938Y-92100062D01*
X26184882Y-92083517D01*
X26181000Y-92064000D01*
X26181000Y-91324000D01*
X26184882Y-91304483D01*
X26195938Y-91287938D01*
X26212483Y-91276882D01*
X26232000Y-91273000D01*
X28632000Y-91273000D01*
X28651517Y-91276882D01*
G37*
G36*
X32551517Y-91276882D02*
G01*
X32568062Y-91287938D01*
X32579118Y-91304483D01*
X32583000Y-91324000D01*
X32583000Y-92064000D01*
X32579118Y-92083517D01*
X32568062Y-92100062D01*
X32551517Y-92111118D01*
X32532000Y-92115000D01*
X30132000Y-92115000D01*
X30112483Y-92111118D01*
X30095938Y-92100062D01*
X30084882Y-92083517D01*
X30081000Y-92064000D01*
X30081000Y-91324000D01*
X30084882Y-91304483D01*
X30095938Y-91287938D01*
X30112483Y-91276882D01*
X30132000Y-91273000D01*
X32532000Y-91273000D01*
X32551517Y-91276882D01*
G37*
G36*
X18824022Y-90466026D02*
G01*
X18853966Y-90486034D01*
X18873974Y-90515978D01*
X18881000Y-90551300D01*
X18881000Y-91058700D01*
X18873974Y-91094022D01*
X18853966Y-91123966D01*
X18824022Y-91143974D01*
X18788700Y-91151000D01*
X16901300Y-91151000D01*
X16865978Y-91143974D01*
X16836034Y-91123966D01*
X16816026Y-91094022D01*
X16809000Y-91058700D01*
X16809000Y-90551300D01*
X16816026Y-90515978D01*
X16836034Y-90486034D01*
X16865978Y-90466026D01*
X16901300Y-90459000D01*
X18788700Y-90459000D01*
X18824022Y-90466026D01*
G37*
G36*
X23774022Y-90466026D02*
G01*
X23803966Y-90486034D01*
X23823974Y-90515978D01*
X23831000Y-90551300D01*
X23831000Y-91058700D01*
X23823974Y-91094022D01*
X23803966Y-91123966D01*
X23774022Y-91143974D01*
X23738700Y-91151000D01*
X21851300Y-91151000D01*
X21815978Y-91143974D01*
X21786034Y-91123966D01*
X21766026Y-91094022D01*
X21759000Y-91058700D01*
X21759000Y-90551300D01*
X21766026Y-90515978D01*
X21786034Y-90486034D01*
X21815978Y-90466026D01*
X21851300Y-90459000D01*
X23738700Y-90459000D01*
X23774022Y-90466026D01*
G37*
G36*
X28651517Y-90006882D02*
G01*
X28668062Y-90017938D01*
X28679118Y-90034483D01*
X28683000Y-90054000D01*
X28683000Y-90794000D01*
X28679118Y-90813517D01*
X28668062Y-90830062D01*
X28651517Y-90841118D01*
X28632000Y-90845000D01*
X26232000Y-90845000D01*
X26212483Y-90841118D01*
X26195938Y-90830062D01*
X26184882Y-90813517D01*
X26181000Y-90794000D01*
X26181000Y-90054000D01*
X26184882Y-90034483D01*
X26195938Y-90017938D01*
X26212483Y-90006882D01*
X26232000Y-90003000D01*
X28632000Y-90003000D01*
X28651517Y-90006882D01*
G37*
G36*
X32551517Y-90006882D02*
G01*
X32568062Y-90017938D01*
X32579118Y-90034483D01*
X32583000Y-90054000D01*
X32583000Y-90794000D01*
X32579118Y-90813517D01*
X32568062Y-90830062D01*
X32551517Y-90841118D01*
X32532000Y-90845000D01*
X30132000Y-90845000D01*
X30112483Y-90841118D01*
X30095938Y-90830062D01*
X30084882Y-90813517D01*
X30081000Y-90794000D01*
X30081000Y-90054000D01*
X30084882Y-90034483D01*
X30095938Y-90017938D01*
X30112483Y-90006882D01*
X30132000Y-90003000D01*
X32532000Y-90003000D01*
X32551517Y-90006882D01*
G37*
G36*
X37758040Y-87877190D02*
G01*
X37790987Y-87881528D01*
X37799274Y-87885392D01*
X37818919Y-87889300D01*
X37844938Y-87906686D01*
X37856180Y-87911928D01*
X37863019Y-87918767D01*
X37884128Y-87932872D01*
X37898232Y-87953980D01*
X37905071Y-87960819D01*
X37910312Y-87972058D01*
X37927700Y-87998081D01*
X37931607Y-88017727D01*
X37935471Y-88026012D01*
X37939806Y-88058946D01*
X37943000Y-88075000D01*
X37943000Y-89725000D01*
X37939806Y-89741054D01*
X37935471Y-89773987D01*
X37931608Y-89782270D01*
X37927700Y-89801919D01*
X37910310Y-89827943D01*
X37905071Y-89839180D01*
X37898234Y-89846016D01*
X37884128Y-89867128D01*
X37863016Y-89881234D01*
X37856180Y-89888071D01*
X37844943Y-89893310D01*
X37818919Y-89910700D01*
X37799270Y-89914608D01*
X37790987Y-89918471D01*
X37758054Y-89922806D01*
X37742000Y-89926000D01*
X37442000Y-89926000D01*
X37425946Y-89922806D01*
X37393012Y-89918471D01*
X37384727Y-89914607D01*
X37365081Y-89910700D01*
X37339058Y-89893312D01*
X37327819Y-89888071D01*
X37320980Y-89881232D01*
X37299872Y-89867128D01*
X37285767Y-89846019D01*
X37278928Y-89839180D01*
X37273686Y-89827938D01*
X37256300Y-89801919D01*
X37252392Y-89782274D01*
X37248528Y-89773987D01*
X37244190Y-89741040D01*
X37241000Y-89725000D01*
X37241000Y-88075000D01*
X37244190Y-88058961D01*
X37248528Y-88026012D01*
X37252392Y-88017723D01*
X37256300Y-87998081D01*
X37273684Y-87972063D01*
X37278928Y-87960819D01*
X37285769Y-87953977D01*
X37299872Y-87932872D01*
X37320977Y-87918769D01*
X37327819Y-87911928D01*
X37339063Y-87906684D01*
X37365081Y-87889300D01*
X37384723Y-87885392D01*
X37393012Y-87881528D01*
X37425961Y-87877190D01*
X37442000Y-87874000D01*
X37742000Y-87874000D01*
X37758040Y-87877190D01*
G37*
G36*
X39028040Y-87877190D02*
G01*
X39060987Y-87881528D01*
X39069274Y-87885392D01*
X39088919Y-87889300D01*
X39114938Y-87906686D01*
X39126180Y-87911928D01*
X39133019Y-87918767D01*
X39154128Y-87932872D01*
X39168232Y-87953980D01*
X39175071Y-87960819D01*
X39180312Y-87972058D01*
X39197700Y-87998081D01*
X39201607Y-88017727D01*
X39205471Y-88026012D01*
X39209806Y-88058946D01*
X39213000Y-88075000D01*
X39213000Y-89725000D01*
X39209806Y-89741054D01*
X39205471Y-89773987D01*
X39201608Y-89782270D01*
X39197700Y-89801919D01*
X39180310Y-89827943D01*
X39175071Y-89839180D01*
X39168234Y-89846016D01*
X39154128Y-89867128D01*
X39133016Y-89881234D01*
X39126180Y-89888071D01*
X39114943Y-89893310D01*
X39088919Y-89910700D01*
X39069270Y-89914608D01*
X39060987Y-89918471D01*
X39028054Y-89922806D01*
X39012000Y-89926000D01*
X38712000Y-89926000D01*
X38695946Y-89922806D01*
X38663012Y-89918471D01*
X38654727Y-89914607D01*
X38635081Y-89910700D01*
X38609058Y-89893312D01*
X38597819Y-89888071D01*
X38590980Y-89881232D01*
X38569872Y-89867128D01*
X38555767Y-89846019D01*
X38548928Y-89839180D01*
X38543686Y-89827938D01*
X38526300Y-89801919D01*
X38522392Y-89782274D01*
X38518528Y-89773987D01*
X38514190Y-89741040D01*
X38511000Y-89725000D01*
X38511000Y-88075000D01*
X38514190Y-88058961D01*
X38518528Y-88026012D01*
X38522392Y-88017723D01*
X38526300Y-87998081D01*
X38543684Y-87972063D01*
X38548928Y-87960819D01*
X38555769Y-87953977D01*
X38569872Y-87932872D01*
X38590977Y-87918769D01*
X38597819Y-87911928D01*
X38609063Y-87906684D01*
X38635081Y-87889300D01*
X38654723Y-87885392D01*
X38663012Y-87881528D01*
X38695961Y-87877190D01*
X38712000Y-87874000D01*
X39012000Y-87874000D01*
X39028040Y-87877190D01*
G37*
G36*
X40298040Y-87877190D02*
G01*
X40330987Y-87881528D01*
X40339274Y-87885392D01*
X40358919Y-87889300D01*
X40384938Y-87906686D01*
X40396180Y-87911928D01*
X40403019Y-87918767D01*
X40424128Y-87932872D01*
X40438232Y-87953980D01*
X40445071Y-87960819D01*
X40450312Y-87972058D01*
X40467700Y-87998081D01*
X40471607Y-88017727D01*
X40475471Y-88026012D01*
X40479806Y-88058946D01*
X40483000Y-88075000D01*
X40483000Y-89725000D01*
X40479806Y-89741054D01*
X40475471Y-89773987D01*
X40471608Y-89782270D01*
X40467700Y-89801919D01*
X40450310Y-89827943D01*
X40445071Y-89839180D01*
X40438234Y-89846016D01*
X40424128Y-89867128D01*
X40403016Y-89881234D01*
X40396180Y-89888071D01*
X40384943Y-89893310D01*
X40358919Y-89910700D01*
X40339270Y-89914608D01*
X40330987Y-89918471D01*
X40298054Y-89922806D01*
X40282000Y-89926000D01*
X39982000Y-89926000D01*
X39965946Y-89922806D01*
X39933012Y-89918471D01*
X39924727Y-89914607D01*
X39905081Y-89910700D01*
X39879058Y-89893312D01*
X39867819Y-89888071D01*
X39860980Y-89881232D01*
X39839872Y-89867128D01*
X39825767Y-89846019D01*
X39818928Y-89839180D01*
X39813686Y-89827938D01*
X39796300Y-89801919D01*
X39792392Y-89782274D01*
X39788528Y-89773987D01*
X39784190Y-89741040D01*
X39781000Y-89725000D01*
X39781000Y-88075000D01*
X39784190Y-88058961D01*
X39788528Y-88026012D01*
X39792392Y-88017723D01*
X39796300Y-87998081D01*
X39813684Y-87972063D01*
X39818928Y-87960819D01*
X39825769Y-87953977D01*
X39839872Y-87932872D01*
X39860977Y-87918769D01*
X39867819Y-87911928D01*
X39879063Y-87906684D01*
X39905081Y-87889300D01*
X39924723Y-87885392D01*
X39933012Y-87881528D01*
X39965961Y-87877190D01*
X39982000Y-87874000D01*
X40282000Y-87874000D01*
X40298040Y-87877190D01*
G37*
G36*
X41568040Y-87877190D02*
G01*
X41600987Y-87881528D01*
X41609274Y-87885392D01*
X41628919Y-87889300D01*
X41654938Y-87906686D01*
X41666180Y-87911928D01*
X41673019Y-87918767D01*
X41694128Y-87932872D01*
X41708232Y-87953980D01*
X41715071Y-87960819D01*
X41720312Y-87972058D01*
X41737700Y-87998081D01*
X41741607Y-88017727D01*
X41745471Y-88026012D01*
X41749806Y-88058946D01*
X41753000Y-88075000D01*
X41753000Y-89725000D01*
X41749806Y-89741054D01*
X41745471Y-89773987D01*
X41741608Y-89782270D01*
X41737700Y-89801919D01*
X41720310Y-89827943D01*
X41715071Y-89839180D01*
X41708234Y-89846016D01*
X41694128Y-89867128D01*
X41673016Y-89881234D01*
X41666180Y-89888071D01*
X41654943Y-89893310D01*
X41628919Y-89910700D01*
X41609270Y-89914608D01*
X41600987Y-89918471D01*
X41568054Y-89922806D01*
X41552000Y-89926000D01*
X41252000Y-89926000D01*
X41235946Y-89922806D01*
X41203012Y-89918471D01*
X41194727Y-89914607D01*
X41175081Y-89910700D01*
X41149058Y-89893312D01*
X41137819Y-89888071D01*
X41130980Y-89881232D01*
X41109872Y-89867128D01*
X41095767Y-89846019D01*
X41088928Y-89839180D01*
X41083686Y-89827938D01*
X41066300Y-89801919D01*
X41062392Y-89782274D01*
X41058528Y-89773987D01*
X41054190Y-89741040D01*
X41051000Y-89725000D01*
X41051000Y-88075000D01*
X41054190Y-88058961D01*
X41058528Y-88026012D01*
X41062392Y-88017723D01*
X41066300Y-87998081D01*
X41083684Y-87972063D01*
X41088928Y-87960819D01*
X41095769Y-87953977D01*
X41109872Y-87932872D01*
X41130977Y-87918769D01*
X41137819Y-87911928D01*
X41149063Y-87906684D01*
X41175081Y-87889300D01*
X41194723Y-87885392D01*
X41203012Y-87881528D01*
X41235961Y-87877190D01*
X41252000Y-87874000D01*
X41552000Y-87874000D01*
X41568040Y-87877190D01*
G37*
G36*
X28651517Y-88736882D02*
G01*
X28668062Y-88747938D01*
X28679118Y-88764483D01*
X28683000Y-88784000D01*
X28683000Y-89524000D01*
X28679118Y-89543517D01*
X28668062Y-89560062D01*
X28651517Y-89571118D01*
X28632000Y-89575000D01*
X26232000Y-89575000D01*
X26212483Y-89571118D01*
X26195938Y-89560062D01*
X26184882Y-89543517D01*
X26181000Y-89524000D01*
X26181000Y-88784000D01*
X26184882Y-88764483D01*
X26195938Y-88747938D01*
X26212483Y-88736882D01*
X26232000Y-88733000D01*
X28632000Y-88733000D01*
X28651517Y-88736882D01*
G37*
G36*
X32551517Y-88736882D02*
G01*
X32568062Y-88747938D01*
X32579118Y-88764483D01*
X32583000Y-88784000D01*
X32583000Y-89524000D01*
X32579118Y-89543517D01*
X32568062Y-89560062D01*
X32551517Y-89571118D01*
X32532000Y-89575000D01*
X30132000Y-89575000D01*
X30112483Y-89571118D01*
X30095938Y-89560062D01*
X30084882Y-89543517D01*
X30081000Y-89524000D01*
X30081000Y-88784000D01*
X30084882Y-88764483D01*
X30095938Y-88747938D01*
X30112483Y-88736882D01*
X30132000Y-88733000D01*
X32532000Y-88733000D01*
X32551517Y-88736882D01*
G37*
G36*
X22305517Y-80327882D02*
G01*
X22322062Y-80338938D01*
X22333118Y-80355483D01*
X22337000Y-80375000D01*
X22337000Y-80825000D01*
X22333118Y-80844517D01*
X22322062Y-80861062D01*
X22316844Y-80864548D01*
X22301788Y-80887082D01*
X22301788Y-80962918D01*
X22316845Y-80985451D01*
X22322062Y-80988938D01*
X22333118Y-81005483D01*
X22337000Y-81025000D01*
X22337000Y-81475000D01*
X22333118Y-81494517D01*
X22322062Y-81511062D01*
X22316844Y-81514548D01*
X22301788Y-81537082D01*
X22301788Y-81612918D01*
X22316845Y-81635451D01*
X22322062Y-81638938D01*
X22333118Y-81655483D01*
X22337000Y-81675000D01*
X22337000Y-82125000D01*
X22333118Y-82144517D01*
X22322062Y-82161062D01*
X22316844Y-82164548D01*
X22301788Y-82187082D01*
X22301788Y-82262918D01*
X22316845Y-82285451D01*
X22322062Y-82288938D01*
X22333118Y-82305483D01*
X22337000Y-82325000D01*
X22337000Y-82775000D01*
X22333118Y-82794517D01*
X22322062Y-82811062D01*
X22316844Y-82814548D01*
X22301788Y-82837082D01*
X22301788Y-82912918D01*
X22316845Y-82935451D01*
X22322062Y-82938938D01*
X22333118Y-82955483D01*
X22337000Y-82975000D01*
X22337000Y-83425000D01*
X22333118Y-83444517D01*
X22322062Y-83461062D01*
X22316844Y-83464548D01*
X22301788Y-83487082D01*
X22301788Y-83562918D01*
X22316845Y-83585451D01*
X22322062Y-83588938D01*
X22333118Y-83605483D01*
X22337000Y-83625000D01*
X22337000Y-84075000D01*
X22333118Y-84094517D01*
X22322062Y-84111062D01*
X22316844Y-84114548D01*
X22301788Y-84137082D01*
X22301788Y-84212918D01*
X22316845Y-84235451D01*
X22322062Y-84238938D01*
X22333118Y-84255483D01*
X22337000Y-84275000D01*
X22337000Y-84725000D01*
X22333118Y-84744517D01*
X22322062Y-84761062D01*
X22316844Y-84764548D01*
X22301788Y-84787082D01*
X22301788Y-84862918D01*
X22316845Y-84885451D01*
X22322062Y-84888938D01*
X22333118Y-84905483D01*
X22337000Y-84925000D01*
X22337000Y-85375000D01*
X22333118Y-85394517D01*
X22322062Y-85411062D01*
X22316844Y-85414548D01*
X22301788Y-85437082D01*
X22301788Y-85512918D01*
X22316845Y-85535451D01*
X22322062Y-85538938D01*
X22333118Y-85555483D01*
X22337000Y-85575000D01*
X22337000Y-86025000D01*
X22333118Y-86044517D01*
X22322062Y-86061062D01*
X22316844Y-86064548D01*
X22301788Y-86087082D01*
X22301788Y-86162918D01*
X22316845Y-86185451D01*
X22322062Y-86188938D01*
X22333118Y-86205483D01*
X22337000Y-86225000D01*
X22337000Y-86675000D01*
X22333118Y-86694517D01*
X22322062Y-86711062D01*
X22305517Y-86722118D01*
X22286000Y-86726000D01*
X20836000Y-86726000D01*
X20816483Y-86722118D01*
X20799938Y-86711062D01*
X20788882Y-86694517D01*
X20785000Y-86675000D01*
X20785000Y-86225000D01*
X20788882Y-86205483D01*
X20799938Y-86188938D01*
X20805152Y-86185453D01*
X20820211Y-86162917D01*
X20820211Y-86087083D01*
X20805153Y-86064546D01*
X20799938Y-86061062D01*
X20788882Y-86044517D01*
X20785000Y-86025000D01*
X20785000Y-85575000D01*
X20788882Y-85555483D01*
X20799938Y-85538938D01*
X20805152Y-85535453D01*
X20820211Y-85512917D01*
X20820211Y-85437083D01*
X20805153Y-85414546D01*
X20799938Y-85411062D01*
X20788882Y-85394517D01*
X20785000Y-85375000D01*
X20785000Y-84925000D01*
X20788882Y-84905483D01*
X20799938Y-84888938D01*
X20805152Y-84885453D01*
X20820211Y-84862917D01*
X20820211Y-84787083D01*
X20805153Y-84764546D01*
X20799938Y-84761062D01*
X20788882Y-84744517D01*
X20785000Y-84725000D01*
X20785000Y-84275000D01*
X20788882Y-84255483D01*
X20799938Y-84238938D01*
X20805152Y-84235453D01*
X20820211Y-84212917D01*
X20820211Y-84137083D01*
X20805153Y-84114546D01*
X20799938Y-84111062D01*
X20788882Y-84094517D01*
X20785000Y-84075000D01*
X20785000Y-83625000D01*
X20788882Y-83605483D01*
X20799938Y-83588938D01*
X20805152Y-83585453D01*
X20820211Y-83562917D01*
X20820211Y-83487083D01*
X20805153Y-83464546D01*
X20799938Y-83461062D01*
X20788882Y-83444517D01*
X20785000Y-83425000D01*
X20785000Y-82975000D01*
X20788882Y-82955483D01*
X20799938Y-82938938D01*
X20805152Y-82935453D01*
X20820211Y-82912917D01*
X20820211Y-82837083D01*
X20805153Y-82814546D01*
X20799938Y-82811062D01*
X20788882Y-82794517D01*
X20785000Y-82775000D01*
X20785000Y-82325000D01*
X20788882Y-82305483D01*
X20799938Y-82288938D01*
X20805152Y-82285453D01*
X20820211Y-82262917D01*
X20820211Y-82187083D01*
X20805153Y-82164546D01*
X20799938Y-82161062D01*
X20788882Y-82144517D01*
X20785000Y-82125000D01*
X20785000Y-81675000D01*
X20788882Y-81655483D01*
X20799938Y-81638938D01*
X20805152Y-81635453D01*
X20820211Y-81612917D01*
X20820211Y-81537083D01*
X20805153Y-81514546D01*
X20799938Y-81511062D01*
X20788882Y-81494517D01*
X20785000Y-81475000D01*
X20785000Y-81025000D01*
X20788882Y-81005483D01*
X20799938Y-80988938D01*
X20805152Y-80985453D01*
X20820211Y-80962917D01*
X20820211Y-80887083D01*
X20805153Y-80864546D01*
X20799938Y-80861062D01*
X20788882Y-80844517D01*
X20785000Y-80825000D01*
X20785000Y-80375000D01*
X20788882Y-80355483D01*
X20799938Y-80338938D01*
X20816483Y-80327882D01*
X20836000Y-80324000D01*
X22286000Y-80324000D01*
X22305517Y-80327882D01*
G37*
G36*
X28205517Y-80327882D02*
G01*
X28222062Y-80338938D01*
X28233118Y-80355483D01*
X28237000Y-80375000D01*
X28237000Y-80825000D01*
X28233118Y-80844517D01*
X28222062Y-80861062D01*
X28216844Y-80864548D01*
X28201788Y-80887082D01*
X28201788Y-80962918D01*
X28216845Y-80985451D01*
X28222062Y-80988938D01*
X28233118Y-81005483D01*
X28237000Y-81025000D01*
X28237000Y-81475000D01*
X28233118Y-81494517D01*
X28222062Y-81511062D01*
X28216844Y-81514548D01*
X28201788Y-81537082D01*
X28201788Y-81612918D01*
X28216845Y-81635451D01*
X28222062Y-81638938D01*
X28233118Y-81655483D01*
X28237000Y-81675000D01*
X28237000Y-82125000D01*
X28233118Y-82144517D01*
X28222062Y-82161062D01*
X28216844Y-82164548D01*
X28201788Y-82187082D01*
X28201788Y-82262918D01*
X28216845Y-82285451D01*
X28222062Y-82288938D01*
X28233118Y-82305483D01*
X28237000Y-82325000D01*
X28237000Y-82775000D01*
X28233118Y-82794517D01*
X28222062Y-82811062D01*
X28216844Y-82814548D01*
X28201788Y-82837082D01*
X28201788Y-82912918D01*
X28216845Y-82935451D01*
X28222062Y-82938938D01*
X28233118Y-82955483D01*
X28237000Y-82975000D01*
X28237000Y-83425000D01*
X28233118Y-83444517D01*
X28222062Y-83461062D01*
X28216844Y-83464548D01*
X28201788Y-83487082D01*
X28201788Y-83562918D01*
X28216845Y-83585451D01*
X28222062Y-83588938D01*
X28233118Y-83605483D01*
X28237000Y-83625000D01*
X28237000Y-84075000D01*
X28233118Y-84094517D01*
X28222062Y-84111062D01*
X28216844Y-84114548D01*
X28201788Y-84137082D01*
X28201788Y-84212918D01*
X28216845Y-84235451D01*
X28222062Y-84238938D01*
X28233118Y-84255483D01*
X28237000Y-84275000D01*
X28237000Y-84725000D01*
X28233118Y-84744517D01*
X28222062Y-84761062D01*
X28216844Y-84764548D01*
X28201788Y-84787082D01*
X28201788Y-84862918D01*
X28216845Y-84885451D01*
X28222062Y-84888938D01*
X28233118Y-84905483D01*
X28237000Y-84925000D01*
X28237000Y-85375000D01*
X28233118Y-85394517D01*
X28222062Y-85411062D01*
X28216844Y-85414548D01*
X28201788Y-85437082D01*
X28201788Y-85512918D01*
X28216845Y-85535451D01*
X28222062Y-85538938D01*
X28233118Y-85555483D01*
X28237000Y-85575000D01*
X28237000Y-86025000D01*
X28233118Y-86044517D01*
X28222062Y-86061062D01*
X28216844Y-86064548D01*
X28201788Y-86087082D01*
X28201788Y-86162918D01*
X28216845Y-86185451D01*
X28222062Y-86188938D01*
X28233118Y-86205483D01*
X28237000Y-86225000D01*
X28237000Y-86675000D01*
X28233118Y-86694517D01*
X28222062Y-86711062D01*
X28205517Y-86722118D01*
X28186000Y-86726000D01*
X26736000Y-86726000D01*
X26716483Y-86722118D01*
X26699938Y-86711062D01*
X26688882Y-86694517D01*
X26685000Y-86675000D01*
X26685000Y-86225000D01*
X26688882Y-86205483D01*
X26699938Y-86188938D01*
X26705152Y-86185453D01*
X26720211Y-86162917D01*
X26720211Y-86087083D01*
X26705153Y-86064546D01*
X26699938Y-86061062D01*
X26688882Y-86044517D01*
X26685000Y-86025000D01*
X26685000Y-85575000D01*
X26688882Y-85555483D01*
X26699938Y-85538938D01*
X26705152Y-85535453D01*
X26720211Y-85512917D01*
X26720211Y-85437083D01*
X26705153Y-85414546D01*
X26699938Y-85411062D01*
X26688882Y-85394517D01*
X26685000Y-85375000D01*
X26685000Y-84925000D01*
X26688882Y-84905483D01*
X26699938Y-84888938D01*
X26705152Y-84885453D01*
X26720211Y-84862917D01*
X26720211Y-84787083D01*
X26705153Y-84764546D01*
X26699938Y-84761062D01*
X26688882Y-84744517D01*
X26685000Y-84725000D01*
X26685000Y-84275000D01*
X26688882Y-84255483D01*
X26699938Y-84238938D01*
X26705152Y-84235453D01*
X26720211Y-84212917D01*
X26720211Y-84137083D01*
X26705153Y-84114546D01*
X26699938Y-84111062D01*
X26688882Y-84094517D01*
X26685000Y-84075000D01*
X26685000Y-83625000D01*
X26688882Y-83605483D01*
X26699938Y-83588938D01*
X26705152Y-83585453D01*
X26720211Y-83562917D01*
X26720211Y-83487083D01*
X26705153Y-83464546D01*
X26699938Y-83461062D01*
X26688882Y-83444517D01*
X26685000Y-83425000D01*
X26685000Y-82975000D01*
X26688882Y-82955483D01*
X26699938Y-82938938D01*
X26705152Y-82935453D01*
X26720211Y-82912917D01*
X26720211Y-82837083D01*
X26705153Y-82814546D01*
X26699938Y-82811062D01*
X26688882Y-82794517D01*
X26685000Y-82775000D01*
X26685000Y-82325000D01*
X26688882Y-82305483D01*
X26699938Y-82288938D01*
X26705152Y-82285453D01*
X26720211Y-82262917D01*
X26720211Y-82187083D01*
X26705153Y-82164546D01*
X26699938Y-82161062D01*
X26688882Y-82144517D01*
X26685000Y-82125000D01*
X26685000Y-81675000D01*
X26688882Y-81655483D01*
X26699938Y-81638938D01*
X26705152Y-81635453D01*
X26720211Y-81612917D01*
X26720211Y-81537083D01*
X26705153Y-81514546D01*
X26699938Y-81511062D01*
X26688882Y-81494517D01*
X26685000Y-81475000D01*
X26685000Y-81025000D01*
X26688882Y-81005483D01*
X26699938Y-80988938D01*
X26705152Y-80985453D01*
X26720211Y-80962917D01*
X26720211Y-80887083D01*
X26705153Y-80864546D01*
X26699938Y-80861062D01*
X26688882Y-80844517D01*
X26685000Y-80825000D01*
X26685000Y-80375000D01*
X26688882Y-80355483D01*
X26699938Y-80338938D01*
X26716483Y-80327882D01*
X26736000Y-80324000D01*
X28186000Y-80324000D01*
X28205517Y-80327882D01*
G37*
G36*
X17185694Y-84466646D02*
G01*
X17230126Y-84473684D01*
X17235923Y-84476637D01*
X17250479Y-84479533D01*
X17278973Y-84498572D01*
X17304887Y-84511776D01*
X17317278Y-84524167D01*
X17337992Y-84538008D01*
X17351832Y-84558721D01*
X17364223Y-84571112D01*
X17377425Y-84597023D01*
X17396467Y-84625521D01*
X17399362Y-84640078D01*
X17402315Y-84645873D01*
X17409349Y-84690284D01*
X17417000Y-84728750D01*
X17417000Y-85166250D01*
X17409348Y-85204718D01*
X17402315Y-85249126D01*
X17399362Y-85254919D01*
X17396467Y-85269479D01*
X17377423Y-85297979D01*
X17364223Y-85323887D01*
X17351834Y-85336275D01*
X17337992Y-85356992D01*
X17317275Y-85370834D01*
X17304887Y-85383223D01*
X17278979Y-85396423D01*
X17250479Y-85415467D01*
X17235919Y-85418362D01*
X17230126Y-85421315D01*
X17185718Y-85428348D01*
X17147250Y-85436000D01*
X16634750Y-85436000D01*
X16596284Y-85428349D01*
X16551873Y-85421315D01*
X16546078Y-85418362D01*
X16531521Y-85415467D01*
X16503023Y-85396425D01*
X16477112Y-85383223D01*
X16464721Y-85370832D01*
X16444008Y-85356992D01*
X16430167Y-85336278D01*
X16417776Y-85323887D01*
X16404572Y-85297973D01*
X16385533Y-85269479D01*
X16382637Y-85254923D01*
X16379684Y-85249126D01*
X16372646Y-85204694D01*
X16365000Y-85166250D01*
X16365000Y-84728750D01*
X16372646Y-84690309D01*
X16379684Y-84645873D01*
X16382638Y-84640075D01*
X16385533Y-84625521D01*
X16404570Y-84597029D01*
X16417776Y-84571112D01*
X16430169Y-84558718D01*
X16444008Y-84538008D01*
X16464718Y-84524169D01*
X16477112Y-84511776D01*
X16503029Y-84498570D01*
X16531521Y-84479533D01*
X16546075Y-84476638D01*
X16551873Y-84473684D01*
X16596309Y-84466646D01*
X16634750Y-84459000D01*
X17147250Y-84459000D01*
X17185694Y-84466646D01*
G37*
G36*
X19090694Y-84466646D02*
G01*
X19135126Y-84473684D01*
X19140923Y-84476637D01*
X19155479Y-84479533D01*
X19183973Y-84498572D01*
X19209887Y-84511776D01*
X19222278Y-84524167D01*
X19242992Y-84538008D01*
X19256832Y-84558721D01*
X19269223Y-84571112D01*
X19282425Y-84597023D01*
X19301467Y-84625521D01*
X19304362Y-84640078D01*
X19307315Y-84645873D01*
X19314349Y-84690284D01*
X19322000Y-84728750D01*
X19322000Y-85166250D01*
X19314348Y-85204718D01*
X19307315Y-85249126D01*
X19304362Y-85254919D01*
X19301467Y-85269479D01*
X19282423Y-85297979D01*
X19269223Y-85323887D01*
X19256834Y-85336275D01*
X19242992Y-85356992D01*
X19222275Y-85370834D01*
X19209887Y-85383223D01*
X19183979Y-85396423D01*
X19155479Y-85415467D01*
X19140919Y-85418362D01*
X19135126Y-85421315D01*
X19090718Y-85428348D01*
X19052250Y-85436000D01*
X18539750Y-85436000D01*
X18501284Y-85428349D01*
X18456873Y-85421315D01*
X18451078Y-85418362D01*
X18436521Y-85415467D01*
X18408023Y-85396425D01*
X18382112Y-85383223D01*
X18369721Y-85370832D01*
X18349008Y-85356992D01*
X18335167Y-85336278D01*
X18322776Y-85323887D01*
X18309572Y-85297973D01*
X18290533Y-85269479D01*
X18287637Y-85254923D01*
X18284684Y-85249126D01*
X18277646Y-85204694D01*
X18270000Y-85166250D01*
X18270000Y-84728750D01*
X18277646Y-84690309D01*
X18284684Y-84645873D01*
X18287638Y-84640075D01*
X18290533Y-84625521D01*
X18309570Y-84597029D01*
X18322776Y-84571112D01*
X18335169Y-84558718D01*
X18349008Y-84538008D01*
X18369718Y-84524169D01*
X18382112Y-84511776D01*
X18408029Y-84498570D01*
X18436521Y-84479533D01*
X18451075Y-84476638D01*
X18456873Y-84473684D01*
X18501309Y-84466646D01*
X18539750Y-84459000D01*
X19052250Y-84459000D01*
X19090694Y-84466646D01*
G37*
G36*
X37758040Y-82927190D02*
G01*
X37790987Y-82931528D01*
X37799274Y-82935392D01*
X37818919Y-82939300D01*
X37844938Y-82956686D01*
X37856180Y-82961928D01*
X37863019Y-82968767D01*
X37884128Y-82982872D01*
X37898232Y-83003980D01*
X37905071Y-83010819D01*
X37910312Y-83022058D01*
X37927700Y-83048081D01*
X37931607Y-83067727D01*
X37935471Y-83076012D01*
X37939806Y-83108946D01*
X37943000Y-83125000D01*
X37943000Y-84775000D01*
X37939806Y-84791054D01*
X37935471Y-84823987D01*
X37931608Y-84832270D01*
X37927700Y-84851919D01*
X37910310Y-84877943D01*
X37905071Y-84889180D01*
X37898234Y-84896016D01*
X37884128Y-84917128D01*
X37863016Y-84931234D01*
X37856180Y-84938071D01*
X37844943Y-84943310D01*
X37818919Y-84960700D01*
X37799270Y-84964608D01*
X37790987Y-84968471D01*
X37758054Y-84972806D01*
X37742000Y-84976000D01*
X37442000Y-84976000D01*
X37425946Y-84972806D01*
X37393012Y-84968471D01*
X37384727Y-84964607D01*
X37365081Y-84960700D01*
X37339058Y-84943312D01*
X37327819Y-84938071D01*
X37320980Y-84931232D01*
X37299872Y-84917128D01*
X37285767Y-84896019D01*
X37278928Y-84889180D01*
X37273686Y-84877938D01*
X37256300Y-84851919D01*
X37252392Y-84832274D01*
X37248528Y-84823987D01*
X37244190Y-84791040D01*
X37241000Y-84775000D01*
X37241000Y-83125000D01*
X37244190Y-83108961D01*
X37248528Y-83076012D01*
X37252392Y-83067723D01*
X37256300Y-83048081D01*
X37273684Y-83022063D01*
X37278928Y-83010819D01*
X37285769Y-83003977D01*
X37299872Y-82982872D01*
X37320977Y-82968769D01*
X37327819Y-82961928D01*
X37339063Y-82956684D01*
X37365081Y-82939300D01*
X37384723Y-82935392D01*
X37393012Y-82931528D01*
X37425961Y-82927190D01*
X37442000Y-82924000D01*
X37742000Y-82924000D01*
X37758040Y-82927190D01*
G37*
G36*
X39028040Y-82927190D02*
G01*
X39060987Y-82931528D01*
X39069274Y-82935392D01*
X39088919Y-82939300D01*
X39114938Y-82956686D01*
X39126180Y-82961928D01*
X39133019Y-82968767D01*
X39154128Y-82982872D01*
X39168232Y-83003980D01*
X39175071Y-83010819D01*
X39180312Y-83022058D01*
X39197700Y-83048081D01*
X39201607Y-83067727D01*
X39205471Y-83076012D01*
X39209806Y-83108946D01*
X39213000Y-83125000D01*
X39213000Y-84775000D01*
X39209806Y-84791054D01*
X39205471Y-84823987D01*
X39201608Y-84832270D01*
X39197700Y-84851919D01*
X39180310Y-84877943D01*
X39175071Y-84889180D01*
X39168234Y-84896016D01*
X39154128Y-84917128D01*
X39133016Y-84931234D01*
X39126180Y-84938071D01*
X39114943Y-84943310D01*
X39088919Y-84960700D01*
X39069270Y-84964608D01*
X39060987Y-84968471D01*
X39028054Y-84972806D01*
X39012000Y-84976000D01*
X38712000Y-84976000D01*
X38695946Y-84972806D01*
X38663012Y-84968471D01*
X38654727Y-84964607D01*
X38635081Y-84960700D01*
X38609058Y-84943312D01*
X38597819Y-84938071D01*
X38590980Y-84931232D01*
X38569872Y-84917128D01*
X38555767Y-84896019D01*
X38548928Y-84889180D01*
X38543686Y-84877938D01*
X38526300Y-84851919D01*
X38522392Y-84832274D01*
X38518528Y-84823987D01*
X38514190Y-84791040D01*
X38511000Y-84775000D01*
X38511000Y-83125000D01*
X38514190Y-83108961D01*
X38518528Y-83076012D01*
X38522392Y-83067723D01*
X38526300Y-83048081D01*
X38543684Y-83022063D01*
X38548928Y-83010819D01*
X38555769Y-83003977D01*
X38569872Y-82982872D01*
X38590977Y-82968769D01*
X38597819Y-82961928D01*
X38609063Y-82956684D01*
X38635081Y-82939300D01*
X38654723Y-82935392D01*
X38663012Y-82931528D01*
X38695961Y-82927190D01*
X38712000Y-82924000D01*
X39012000Y-82924000D01*
X39028040Y-82927190D01*
G37*
G36*
X40298040Y-82927190D02*
G01*
X40330987Y-82931528D01*
X40339274Y-82935392D01*
X40358919Y-82939300D01*
X40384938Y-82956686D01*
X40396180Y-82961928D01*
X40403019Y-82968767D01*
X40424128Y-82982872D01*
X40438232Y-83003980D01*
X40445071Y-83010819D01*
X40450312Y-83022058D01*
X40467700Y-83048081D01*
X40471607Y-83067727D01*
X40475471Y-83076012D01*
X40479806Y-83108946D01*
X40483000Y-83125000D01*
X40483000Y-84775000D01*
X40479806Y-84791054D01*
X40475471Y-84823987D01*
X40471608Y-84832270D01*
X40467700Y-84851919D01*
X40450310Y-84877943D01*
X40445071Y-84889180D01*
X40438234Y-84896016D01*
X40424128Y-84917128D01*
X40403016Y-84931234D01*
X40396180Y-84938071D01*
X40384943Y-84943310D01*
X40358919Y-84960700D01*
X40339270Y-84964608D01*
X40330987Y-84968471D01*
X40298054Y-84972806D01*
X40282000Y-84976000D01*
X39982000Y-84976000D01*
X39965946Y-84972806D01*
X39933012Y-84968471D01*
X39924727Y-84964607D01*
X39905081Y-84960700D01*
X39879058Y-84943312D01*
X39867819Y-84938071D01*
X39860980Y-84931232D01*
X39839872Y-84917128D01*
X39825767Y-84896019D01*
X39818928Y-84889180D01*
X39813686Y-84877938D01*
X39796300Y-84851919D01*
X39792392Y-84832274D01*
X39788528Y-84823987D01*
X39784190Y-84791040D01*
X39781000Y-84775000D01*
X39781000Y-83125000D01*
X39784190Y-83108961D01*
X39788528Y-83076012D01*
X39792392Y-83067723D01*
X39796300Y-83048081D01*
X39813684Y-83022063D01*
X39818928Y-83010819D01*
X39825769Y-83003977D01*
X39839872Y-82982872D01*
X39860977Y-82968769D01*
X39867819Y-82961928D01*
X39879063Y-82956684D01*
X39905081Y-82939300D01*
X39924723Y-82935392D01*
X39933012Y-82931528D01*
X39965961Y-82927190D01*
X39982000Y-82924000D01*
X40282000Y-82924000D01*
X40298040Y-82927190D01*
G37*
G36*
X41568040Y-82927190D02*
G01*
X41600987Y-82931528D01*
X41609274Y-82935392D01*
X41628919Y-82939300D01*
X41654938Y-82956686D01*
X41666180Y-82961928D01*
X41673019Y-82968767D01*
X41694128Y-82982872D01*
X41708232Y-83003980D01*
X41715071Y-83010819D01*
X41720312Y-83022058D01*
X41737700Y-83048081D01*
X41741607Y-83067727D01*
X41745471Y-83076012D01*
X41749806Y-83108946D01*
X41753000Y-83125000D01*
X41753000Y-84775000D01*
X41749806Y-84791054D01*
X41745471Y-84823987D01*
X41741608Y-84832270D01*
X41737700Y-84851919D01*
X41720310Y-84877943D01*
X41715071Y-84889180D01*
X41708234Y-84896016D01*
X41694128Y-84917128D01*
X41673016Y-84931234D01*
X41666180Y-84938071D01*
X41654943Y-84943310D01*
X41628919Y-84960700D01*
X41609270Y-84964608D01*
X41600987Y-84968471D01*
X41568054Y-84972806D01*
X41552000Y-84976000D01*
X41252000Y-84976000D01*
X41235946Y-84972806D01*
X41203012Y-84968471D01*
X41194727Y-84964607D01*
X41175081Y-84960700D01*
X41149058Y-84943312D01*
X41137819Y-84938071D01*
X41130980Y-84931232D01*
X41109872Y-84917128D01*
X41095767Y-84896019D01*
X41088928Y-84889180D01*
X41083686Y-84877938D01*
X41066300Y-84851919D01*
X41062392Y-84832274D01*
X41058528Y-84823987D01*
X41054190Y-84791040D01*
X41051000Y-84775000D01*
X41051000Y-83125000D01*
X41054190Y-83108961D01*
X41058528Y-83076012D01*
X41062392Y-83067723D01*
X41066300Y-83048081D01*
X41083684Y-83022063D01*
X41088928Y-83010819D01*
X41095769Y-83003977D01*
X41109872Y-82982872D01*
X41130977Y-82968769D01*
X41137819Y-82961928D01*
X41149063Y-82956684D01*
X41175081Y-82939300D01*
X41194723Y-82935392D01*
X41203012Y-82931528D01*
X41235961Y-82927190D01*
X41252000Y-82924000D01*
X41552000Y-82924000D01*
X41568040Y-82927190D01*
G37*
G36*
X30520694Y-83984146D02*
G01*
X30565126Y-83991184D01*
X30570923Y-83994137D01*
X30585479Y-83997033D01*
X30613973Y-84016072D01*
X30639887Y-84029276D01*
X30652278Y-84041667D01*
X30672992Y-84055508D01*
X30686832Y-84076221D01*
X30699223Y-84088612D01*
X30712425Y-84114523D01*
X30731467Y-84143021D01*
X30734362Y-84157578D01*
X30737315Y-84163373D01*
X30744349Y-84207784D01*
X30752000Y-84246250D01*
X30752000Y-84683750D01*
X30744348Y-84722218D01*
X30737315Y-84766626D01*
X30734362Y-84772419D01*
X30731467Y-84786979D01*
X30712423Y-84815479D01*
X30699223Y-84841387D01*
X30686834Y-84853775D01*
X30672992Y-84874492D01*
X30652275Y-84888334D01*
X30639887Y-84900723D01*
X30613979Y-84913923D01*
X30585479Y-84932967D01*
X30570919Y-84935862D01*
X30565126Y-84938815D01*
X30520718Y-84945848D01*
X30482250Y-84953500D01*
X29969750Y-84953500D01*
X29931284Y-84945849D01*
X29886873Y-84938815D01*
X29881078Y-84935862D01*
X29866521Y-84932967D01*
X29838023Y-84913925D01*
X29812112Y-84900723D01*
X29799721Y-84888332D01*
X29779008Y-84874492D01*
X29765167Y-84853778D01*
X29752776Y-84841387D01*
X29739572Y-84815473D01*
X29720533Y-84786979D01*
X29717637Y-84772423D01*
X29714684Y-84766626D01*
X29707646Y-84722194D01*
X29700000Y-84683750D01*
X29700000Y-84246250D01*
X29707646Y-84207809D01*
X29714684Y-84163373D01*
X29717638Y-84157575D01*
X29720533Y-84143021D01*
X29739570Y-84114529D01*
X29752776Y-84088612D01*
X29765169Y-84076218D01*
X29779008Y-84055508D01*
X29799718Y-84041669D01*
X29812112Y-84029276D01*
X29838029Y-84016070D01*
X29866521Y-83997033D01*
X29881075Y-83994138D01*
X29886873Y-83991184D01*
X29931309Y-83984146D01*
X29969750Y-83976500D01*
X30482250Y-83976500D01*
X30520694Y-83984146D01*
G37*
G36*
X32425694Y-83984146D02*
G01*
X32470126Y-83991184D01*
X32475923Y-83994137D01*
X32490479Y-83997033D01*
X32518973Y-84016072D01*
X32544887Y-84029276D01*
X32557278Y-84041667D01*
X32577992Y-84055508D01*
X32591832Y-84076221D01*
X32604223Y-84088612D01*
X32617425Y-84114523D01*
X32636467Y-84143021D01*
X32639362Y-84157578D01*
X32642315Y-84163373D01*
X32649349Y-84207784D01*
X32657000Y-84246250D01*
X32657000Y-84683750D01*
X32649348Y-84722218D01*
X32642315Y-84766626D01*
X32639362Y-84772419D01*
X32636467Y-84786979D01*
X32617423Y-84815479D01*
X32604223Y-84841387D01*
X32591834Y-84853775D01*
X32577992Y-84874492D01*
X32557275Y-84888334D01*
X32544887Y-84900723D01*
X32518979Y-84913923D01*
X32490479Y-84932967D01*
X32475919Y-84935862D01*
X32470126Y-84938815D01*
X32425718Y-84945848D01*
X32387250Y-84953500D01*
X31874750Y-84953500D01*
X31836284Y-84945849D01*
X31791873Y-84938815D01*
X31786078Y-84935862D01*
X31771521Y-84932967D01*
X31743023Y-84913925D01*
X31717112Y-84900723D01*
X31704721Y-84888332D01*
X31684008Y-84874492D01*
X31670167Y-84853778D01*
X31657776Y-84841387D01*
X31644572Y-84815473D01*
X31625533Y-84786979D01*
X31622637Y-84772423D01*
X31619684Y-84766626D01*
X31612646Y-84722194D01*
X31605000Y-84683750D01*
X31605000Y-84246250D01*
X31612646Y-84207809D01*
X31619684Y-84163373D01*
X31622638Y-84157575D01*
X31625533Y-84143021D01*
X31644570Y-84114529D01*
X31657776Y-84088612D01*
X31670169Y-84076218D01*
X31684008Y-84055508D01*
X31704718Y-84041669D01*
X31717112Y-84029276D01*
X31743029Y-84016070D01*
X31771521Y-83997033D01*
X31786075Y-83994138D01*
X31791873Y-83991184D01*
X31836309Y-83984146D01*
X31874750Y-83976500D01*
X32387250Y-83976500D01*
X32425694Y-83984146D01*
G37*
G36*
X34330694Y-83984146D02*
G01*
X34375126Y-83991184D01*
X34380923Y-83994137D01*
X34395479Y-83997033D01*
X34423973Y-84016072D01*
X34449887Y-84029276D01*
X34462278Y-84041667D01*
X34482992Y-84055508D01*
X34496832Y-84076221D01*
X34509223Y-84088612D01*
X34522425Y-84114523D01*
X34541467Y-84143021D01*
X34544362Y-84157578D01*
X34547315Y-84163373D01*
X34554349Y-84207784D01*
X34562000Y-84246250D01*
X34562000Y-84683750D01*
X34554348Y-84722218D01*
X34547315Y-84766626D01*
X34544362Y-84772419D01*
X34541467Y-84786979D01*
X34522423Y-84815479D01*
X34509223Y-84841387D01*
X34496834Y-84853775D01*
X34482992Y-84874492D01*
X34462275Y-84888334D01*
X34449887Y-84900723D01*
X34423979Y-84913923D01*
X34395479Y-84932967D01*
X34380919Y-84935862D01*
X34375126Y-84938815D01*
X34330718Y-84945848D01*
X34292250Y-84953500D01*
X33779750Y-84953500D01*
X33741284Y-84945849D01*
X33696873Y-84938815D01*
X33691078Y-84935862D01*
X33676521Y-84932967D01*
X33648023Y-84913925D01*
X33622112Y-84900723D01*
X33609721Y-84888332D01*
X33589008Y-84874492D01*
X33575167Y-84853778D01*
X33562776Y-84841387D01*
X33549572Y-84815473D01*
X33530533Y-84786979D01*
X33527637Y-84772423D01*
X33524684Y-84766626D01*
X33517646Y-84722194D01*
X33510000Y-84683750D01*
X33510000Y-84246250D01*
X33517646Y-84207809D01*
X33524684Y-84163373D01*
X33527638Y-84157575D01*
X33530533Y-84143021D01*
X33549570Y-84114529D01*
X33562776Y-84088612D01*
X33575169Y-84076218D01*
X33589008Y-84055508D01*
X33609718Y-84041669D01*
X33622112Y-84029276D01*
X33648029Y-84016070D01*
X33676521Y-83997033D01*
X33691075Y-83994138D01*
X33696873Y-83991184D01*
X33741309Y-83984146D01*
X33779750Y-83976500D01*
X34292250Y-83976500D01*
X34330694Y-83984146D01*
G37*
G36*
X17185694Y-82891646D02*
G01*
X17230126Y-82898684D01*
X17235923Y-82901637D01*
X17250479Y-82904533D01*
X17278973Y-82923572D01*
X17304887Y-82936776D01*
X17317278Y-82949167D01*
X17337992Y-82963008D01*
X17351832Y-82983721D01*
X17364223Y-82996112D01*
X17377425Y-83022023D01*
X17396467Y-83050521D01*
X17399362Y-83065078D01*
X17402315Y-83070873D01*
X17409349Y-83115284D01*
X17417000Y-83153750D01*
X17417000Y-83591250D01*
X17409348Y-83629718D01*
X17402315Y-83674126D01*
X17399362Y-83679919D01*
X17396467Y-83694479D01*
X17377423Y-83722979D01*
X17364223Y-83748887D01*
X17351834Y-83761275D01*
X17337992Y-83781992D01*
X17317275Y-83795834D01*
X17304887Y-83808223D01*
X17278979Y-83821423D01*
X17250479Y-83840467D01*
X17235919Y-83843362D01*
X17230126Y-83846315D01*
X17185718Y-83853348D01*
X17147250Y-83861000D01*
X16634750Y-83861000D01*
X16596284Y-83853349D01*
X16551873Y-83846315D01*
X16546078Y-83843362D01*
X16531521Y-83840467D01*
X16503023Y-83821425D01*
X16477112Y-83808223D01*
X16464721Y-83795832D01*
X16444008Y-83781992D01*
X16430167Y-83761278D01*
X16417776Y-83748887D01*
X16404572Y-83722973D01*
X16385533Y-83694479D01*
X16382637Y-83679923D01*
X16379684Y-83674126D01*
X16372646Y-83629694D01*
X16365000Y-83591250D01*
X16365000Y-83153750D01*
X16372646Y-83115309D01*
X16379684Y-83070873D01*
X16382638Y-83065075D01*
X16385533Y-83050521D01*
X16404570Y-83022029D01*
X16417776Y-82996112D01*
X16430169Y-82983718D01*
X16444008Y-82963008D01*
X16464718Y-82949169D01*
X16477112Y-82936776D01*
X16503029Y-82923570D01*
X16531521Y-82904533D01*
X16546075Y-82901638D01*
X16551873Y-82898684D01*
X16596309Y-82891646D01*
X16634750Y-82884000D01*
X17147250Y-82884000D01*
X17185694Y-82891646D01*
G37*
G36*
X19090694Y-82891646D02*
G01*
X19135126Y-82898684D01*
X19140923Y-82901637D01*
X19155479Y-82904533D01*
X19183973Y-82923572D01*
X19209887Y-82936776D01*
X19222278Y-82949167D01*
X19242992Y-82963008D01*
X19256832Y-82983721D01*
X19269223Y-82996112D01*
X19282425Y-83022023D01*
X19301467Y-83050521D01*
X19304362Y-83065078D01*
X19307315Y-83070873D01*
X19314349Y-83115284D01*
X19322000Y-83153750D01*
X19322000Y-83591250D01*
X19314348Y-83629718D01*
X19307315Y-83674126D01*
X19304362Y-83679919D01*
X19301467Y-83694479D01*
X19282423Y-83722979D01*
X19269223Y-83748887D01*
X19256834Y-83761275D01*
X19242992Y-83781992D01*
X19222275Y-83795834D01*
X19209887Y-83808223D01*
X19183979Y-83821423D01*
X19155479Y-83840467D01*
X19140919Y-83843362D01*
X19135126Y-83846315D01*
X19090718Y-83853348D01*
X19052250Y-83861000D01*
X18539750Y-83861000D01*
X18501284Y-83853349D01*
X18456873Y-83846315D01*
X18451078Y-83843362D01*
X18436521Y-83840467D01*
X18408023Y-83821425D01*
X18382112Y-83808223D01*
X18369721Y-83795832D01*
X18349008Y-83781992D01*
X18335167Y-83761278D01*
X18322776Y-83748887D01*
X18309572Y-83722973D01*
X18290533Y-83694479D01*
X18287637Y-83679923D01*
X18284684Y-83674126D01*
X18277646Y-83629694D01*
X18270000Y-83591250D01*
X18270000Y-83153750D01*
X18277646Y-83115309D01*
X18284684Y-83070873D01*
X18287638Y-83065075D01*
X18290533Y-83050521D01*
X18309570Y-83022029D01*
X18322776Y-82996112D01*
X18335169Y-82983718D01*
X18349008Y-82963008D01*
X18369718Y-82949169D01*
X18382112Y-82936776D01*
X18408029Y-82923570D01*
X18436521Y-82904533D01*
X18451075Y-82901638D01*
X18456873Y-82898684D01*
X18501309Y-82891646D01*
X18539750Y-82884000D01*
X19052250Y-82884000D01*
X19090694Y-82891646D01*
G37*
G36*
X30520694Y-82409146D02*
G01*
X30565126Y-82416184D01*
X30570923Y-82419137D01*
X30585479Y-82422033D01*
X30613973Y-82441072D01*
X30639887Y-82454276D01*
X30652278Y-82466667D01*
X30672992Y-82480508D01*
X30686832Y-82501221D01*
X30699223Y-82513612D01*
X30712425Y-82539523D01*
X30731467Y-82568021D01*
X30734362Y-82582578D01*
X30737315Y-82588373D01*
X30744349Y-82632784D01*
X30752000Y-82671250D01*
X30752000Y-83108750D01*
X30744348Y-83147218D01*
X30737315Y-83191626D01*
X30734362Y-83197419D01*
X30731467Y-83211979D01*
X30712423Y-83240479D01*
X30699223Y-83266387D01*
X30686834Y-83278775D01*
X30672992Y-83299492D01*
X30652275Y-83313334D01*
X30639887Y-83325723D01*
X30613979Y-83338923D01*
X30585479Y-83357967D01*
X30570919Y-83360862D01*
X30565126Y-83363815D01*
X30520718Y-83370848D01*
X30482250Y-83378500D01*
X29969750Y-83378500D01*
X29931284Y-83370849D01*
X29886873Y-83363815D01*
X29881078Y-83360862D01*
X29866521Y-83357967D01*
X29838023Y-83338925D01*
X29812112Y-83325723D01*
X29799721Y-83313332D01*
X29779008Y-83299492D01*
X29765167Y-83278778D01*
X29752776Y-83266387D01*
X29739572Y-83240473D01*
X29720533Y-83211979D01*
X29717637Y-83197423D01*
X29714684Y-83191626D01*
X29707646Y-83147194D01*
X29700000Y-83108750D01*
X29700000Y-82671250D01*
X29707646Y-82632809D01*
X29714684Y-82588373D01*
X29717638Y-82582575D01*
X29720533Y-82568021D01*
X29739570Y-82539529D01*
X29752776Y-82513612D01*
X29765169Y-82501218D01*
X29779008Y-82480508D01*
X29799718Y-82466669D01*
X29812112Y-82454276D01*
X29838029Y-82441070D01*
X29866521Y-82422033D01*
X29881075Y-82419138D01*
X29886873Y-82416184D01*
X29931309Y-82409146D01*
X29969750Y-82401500D01*
X30482250Y-82401500D01*
X30520694Y-82409146D01*
G37*
G36*
X32425694Y-82409146D02*
G01*
X32470126Y-82416184D01*
X32475923Y-82419137D01*
X32490479Y-82422033D01*
X32518973Y-82441072D01*
X32544887Y-82454276D01*
X32557278Y-82466667D01*
X32577992Y-82480508D01*
X32591832Y-82501221D01*
X32604223Y-82513612D01*
X32617425Y-82539523D01*
X32636467Y-82568021D01*
X32639362Y-82582578D01*
X32642315Y-82588373D01*
X32649349Y-82632784D01*
X32657000Y-82671250D01*
X32657000Y-83108750D01*
X32649348Y-83147218D01*
X32642315Y-83191626D01*
X32639362Y-83197419D01*
X32636467Y-83211979D01*
X32617423Y-83240479D01*
X32604223Y-83266387D01*
X32591834Y-83278775D01*
X32577992Y-83299492D01*
X32557275Y-83313334D01*
X32544887Y-83325723D01*
X32518979Y-83338923D01*
X32490479Y-83357967D01*
X32475919Y-83360862D01*
X32470126Y-83363815D01*
X32425718Y-83370848D01*
X32387250Y-83378500D01*
X31874750Y-83378500D01*
X31836284Y-83370849D01*
X31791873Y-83363815D01*
X31786078Y-83360862D01*
X31771521Y-83357967D01*
X31743023Y-83338925D01*
X31717112Y-83325723D01*
X31704721Y-83313332D01*
X31684008Y-83299492D01*
X31670167Y-83278778D01*
X31657776Y-83266387D01*
X31644572Y-83240473D01*
X31625533Y-83211979D01*
X31622637Y-83197423D01*
X31619684Y-83191626D01*
X31612646Y-83147194D01*
X31605000Y-83108750D01*
X31605000Y-82671250D01*
X31612646Y-82632809D01*
X31619684Y-82588373D01*
X31622638Y-82582575D01*
X31625533Y-82568021D01*
X31644570Y-82539529D01*
X31657776Y-82513612D01*
X31670169Y-82501218D01*
X31684008Y-82480508D01*
X31704718Y-82466669D01*
X31717112Y-82454276D01*
X31743029Y-82441070D01*
X31771521Y-82422033D01*
X31786075Y-82419138D01*
X31791873Y-82416184D01*
X31836309Y-82409146D01*
X31874750Y-82401500D01*
X32387250Y-82401500D01*
X32425694Y-82409146D01*
G37*
G36*
X34330694Y-82409146D02*
G01*
X34375126Y-82416184D01*
X34380923Y-82419137D01*
X34395479Y-82422033D01*
X34423973Y-82441072D01*
X34449887Y-82454276D01*
X34462278Y-82466667D01*
X34482992Y-82480508D01*
X34496832Y-82501221D01*
X34509223Y-82513612D01*
X34522425Y-82539523D01*
X34541467Y-82568021D01*
X34544362Y-82582578D01*
X34547315Y-82588373D01*
X34554349Y-82632784D01*
X34562000Y-82671250D01*
X34562000Y-83108750D01*
X34554348Y-83147218D01*
X34547315Y-83191626D01*
X34544362Y-83197419D01*
X34541467Y-83211979D01*
X34522423Y-83240479D01*
X34509223Y-83266387D01*
X34496834Y-83278775D01*
X34482992Y-83299492D01*
X34462275Y-83313334D01*
X34449887Y-83325723D01*
X34423979Y-83338923D01*
X34395479Y-83357967D01*
X34380919Y-83360862D01*
X34375126Y-83363815D01*
X34330718Y-83370848D01*
X34292250Y-83378500D01*
X33779750Y-83378500D01*
X33741284Y-83370849D01*
X33696873Y-83363815D01*
X33691078Y-83360862D01*
X33676521Y-83357967D01*
X33648023Y-83338925D01*
X33622112Y-83325723D01*
X33609721Y-83313332D01*
X33589008Y-83299492D01*
X33575167Y-83278778D01*
X33562776Y-83266387D01*
X33549572Y-83240473D01*
X33530533Y-83211979D01*
X33527637Y-83197423D01*
X33524684Y-83191626D01*
X33517646Y-83147194D01*
X33510000Y-83108750D01*
X33510000Y-82671250D01*
X33517646Y-82632809D01*
X33524684Y-82588373D01*
X33527638Y-82582575D01*
X33530533Y-82568021D01*
X33549570Y-82539529D01*
X33562776Y-82513612D01*
X33575169Y-82501218D01*
X33589008Y-82480508D01*
X33609718Y-82466669D01*
X33622112Y-82454276D01*
X33648029Y-82441070D01*
X33676521Y-82422033D01*
X33691075Y-82419138D01*
X33696873Y-82416184D01*
X33741309Y-82409146D01*
X33779750Y-82401500D01*
X34292250Y-82401500D01*
X34330694Y-82409146D01*
G37*
G36*
X17478194Y-78561646D02*
G01*
X17522626Y-78568684D01*
X17528423Y-78571637D01*
X17542979Y-78574533D01*
X17571473Y-78593572D01*
X17597387Y-78606776D01*
X17609778Y-78619167D01*
X17630492Y-78633008D01*
X17644332Y-78653721D01*
X17656723Y-78666112D01*
X17669925Y-78692023D01*
X17688967Y-78720521D01*
X17691862Y-78735078D01*
X17694815Y-78740873D01*
X17701849Y-78785284D01*
X17709500Y-78823750D01*
X17709500Y-79336250D01*
X17701848Y-79374718D01*
X17694815Y-79419126D01*
X17691862Y-79424919D01*
X17688967Y-79439479D01*
X17669923Y-79467979D01*
X17656723Y-79493887D01*
X17644334Y-79506275D01*
X17630492Y-79526992D01*
X17609775Y-79540834D01*
X17597387Y-79553223D01*
X17571479Y-79566423D01*
X17542979Y-79585467D01*
X17528419Y-79588362D01*
X17522626Y-79591315D01*
X17478218Y-79598348D01*
X17439750Y-79606000D01*
X17002250Y-79606000D01*
X16963784Y-79598349D01*
X16919373Y-79591315D01*
X16913578Y-79588362D01*
X16899021Y-79585467D01*
X16870523Y-79566425D01*
X16844612Y-79553223D01*
X16832221Y-79540832D01*
X16811508Y-79526992D01*
X16797667Y-79506278D01*
X16785276Y-79493887D01*
X16772072Y-79467973D01*
X16753033Y-79439479D01*
X16750137Y-79424923D01*
X16747184Y-79419126D01*
X16740146Y-79374694D01*
X16732500Y-79336250D01*
X16732500Y-78823750D01*
X16740146Y-78785309D01*
X16747184Y-78740873D01*
X16750138Y-78735075D01*
X16753033Y-78720521D01*
X16772070Y-78692029D01*
X16785276Y-78666112D01*
X16797669Y-78653718D01*
X16811508Y-78633008D01*
X16832218Y-78619169D01*
X16844612Y-78606776D01*
X16870529Y-78593570D01*
X16899021Y-78574533D01*
X16913575Y-78571638D01*
X16919373Y-78568684D01*
X16963809Y-78561646D01*
X17002250Y-78554000D01*
X17439750Y-78554000D01*
X17478194Y-78561646D01*
G37*
G36*
X19053194Y-78561646D02*
G01*
X19097626Y-78568684D01*
X19103423Y-78571637D01*
X19117979Y-78574533D01*
X19146473Y-78593572D01*
X19172387Y-78606776D01*
X19184778Y-78619167D01*
X19205492Y-78633008D01*
X19219332Y-78653721D01*
X19231723Y-78666112D01*
X19244925Y-78692023D01*
X19263967Y-78720521D01*
X19266862Y-78735078D01*
X19269815Y-78740873D01*
X19276849Y-78785284D01*
X19284500Y-78823750D01*
X19284500Y-79336250D01*
X19276848Y-79374718D01*
X19269815Y-79419126D01*
X19266862Y-79424919D01*
X19263967Y-79439479D01*
X19244923Y-79467979D01*
X19231723Y-79493887D01*
X19219334Y-79506275D01*
X19205492Y-79526992D01*
X19184775Y-79540834D01*
X19172387Y-79553223D01*
X19146479Y-79566423D01*
X19117979Y-79585467D01*
X19103419Y-79588362D01*
X19097626Y-79591315D01*
X19053218Y-79598348D01*
X19014750Y-79606000D01*
X18577250Y-79606000D01*
X18538784Y-79598349D01*
X18494373Y-79591315D01*
X18488578Y-79588362D01*
X18474021Y-79585467D01*
X18445523Y-79566425D01*
X18419612Y-79553223D01*
X18407221Y-79540832D01*
X18386508Y-79526992D01*
X18372667Y-79506278D01*
X18360276Y-79493887D01*
X18347072Y-79467973D01*
X18328033Y-79439479D01*
X18325137Y-79424923D01*
X18322184Y-79419126D01*
X18315146Y-79374694D01*
X18307500Y-79336250D01*
X18307500Y-78823750D01*
X18315146Y-78785309D01*
X18322184Y-78740873D01*
X18325138Y-78735075D01*
X18328033Y-78720521D01*
X18347070Y-78692029D01*
X18360276Y-78666112D01*
X18372669Y-78653718D01*
X18386508Y-78633008D01*
X18407218Y-78619169D01*
X18419612Y-78606776D01*
X18445529Y-78593570D01*
X18474021Y-78574533D01*
X18488575Y-78571638D01*
X18494373Y-78568684D01*
X18538809Y-78561646D01*
X18577250Y-78554000D01*
X19014750Y-78554000D01*
X19053194Y-78561646D01*
G37*
G36*
X39358517Y-78086882D02*
G01*
X39375062Y-78097938D01*
X39386118Y-78114483D01*
X39390000Y-78134000D01*
X39390000Y-78584000D01*
X39386118Y-78603517D01*
X39375062Y-78620062D01*
X39358517Y-78631118D01*
X39339000Y-78635000D01*
X38639000Y-78635000D01*
X38619483Y-78631118D01*
X38602938Y-78620062D01*
X38591882Y-78603517D01*
X38588000Y-78584000D01*
X38588000Y-78134000D01*
X38591882Y-78114483D01*
X38602938Y-78097938D01*
X38619483Y-78086882D01*
X38639000Y-78083000D01*
X39339000Y-78083000D01*
X39358517Y-78086882D01*
G37*
G36*
X25313694Y-77507146D02*
G01*
X25358126Y-77514184D01*
X25363923Y-77517137D01*
X25378479Y-77520033D01*
X25406973Y-77539072D01*
X25432887Y-77552276D01*
X25445278Y-77564667D01*
X25465992Y-77578508D01*
X25479832Y-77599221D01*
X25492223Y-77611612D01*
X25505425Y-77637523D01*
X25524467Y-77666021D01*
X25527362Y-77680578D01*
X25530315Y-77686373D01*
X25537349Y-77730784D01*
X25545000Y-77769250D01*
X25545000Y-78206750D01*
X25537348Y-78245218D01*
X25530315Y-78289626D01*
X25527362Y-78295419D01*
X25524467Y-78309979D01*
X25505423Y-78338479D01*
X25492223Y-78364387D01*
X25479834Y-78376775D01*
X25465992Y-78397492D01*
X25445275Y-78411334D01*
X25432887Y-78423723D01*
X25406979Y-78436923D01*
X25378479Y-78455967D01*
X25363919Y-78458862D01*
X25358126Y-78461815D01*
X25313718Y-78468848D01*
X25275250Y-78476500D01*
X24762750Y-78476500D01*
X24724284Y-78468849D01*
X24679873Y-78461815D01*
X24674078Y-78458862D01*
X24659521Y-78455967D01*
X24631023Y-78436925D01*
X24605112Y-78423723D01*
X24592721Y-78411332D01*
X24572008Y-78397492D01*
X24558167Y-78376778D01*
X24545776Y-78364387D01*
X24532572Y-78338473D01*
X24513533Y-78309979D01*
X24510637Y-78295423D01*
X24507684Y-78289626D01*
X24500646Y-78245194D01*
X24493000Y-78206750D01*
X24493000Y-77769250D01*
X24500646Y-77730809D01*
X24507684Y-77686373D01*
X24510638Y-77680575D01*
X24513533Y-77666021D01*
X24532570Y-77637529D01*
X24545776Y-77611612D01*
X24558169Y-77599218D01*
X24572008Y-77578508D01*
X24592718Y-77564669D01*
X24605112Y-77552276D01*
X24631029Y-77539070D01*
X24659521Y-77520033D01*
X24674075Y-77517138D01*
X24679873Y-77514184D01*
X24724309Y-77507146D01*
X24762750Y-77499500D01*
X25275250Y-77499500D01*
X25313694Y-77507146D01*
G37*
G36*
X21630694Y-77481646D02*
G01*
X21675126Y-77488684D01*
X21680923Y-77491637D01*
X21695479Y-77494533D01*
X21723973Y-77513572D01*
X21749887Y-77526776D01*
X21762278Y-77539167D01*
X21782992Y-77553008D01*
X21796832Y-77573721D01*
X21809223Y-77586112D01*
X21822425Y-77612023D01*
X21841467Y-77640521D01*
X21844362Y-77655078D01*
X21847315Y-77660873D01*
X21854349Y-77705284D01*
X21862000Y-77743750D01*
X21862000Y-78181250D01*
X21854348Y-78219718D01*
X21847315Y-78264126D01*
X21844362Y-78269919D01*
X21841467Y-78284479D01*
X21822423Y-78312979D01*
X21809223Y-78338887D01*
X21796834Y-78351275D01*
X21782992Y-78371992D01*
X21762275Y-78385834D01*
X21749887Y-78398223D01*
X21723979Y-78411423D01*
X21695479Y-78430467D01*
X21680919Y-78433362D01*
X21675126Y-78436315D01*
X21630718Y-78443348D01*
X21592250Y-78451000D01*
X21079750Y-78451000D01*
X21041284Y-78443349D01*
X20996873Y-78436315D01*
X20991078Y-78433362D01*
X20976521Y-78430467D01*
X20948023Y-78411425D01*
X20922112Y-78398223D01*
X20909721Y-78385832D01*
X20889008Y-78371992D01*
X20875167Y-78351278D01*
X20862776Y-78338887D01*
X20849572Y-78312973D01*
X20830533Y-78284479D01*
X20827637Y-78269923D01*
X20824684Y-78264126D01*
X20817646Y-78219694D01*
X20810000Y-78181250D01*
X20810000Y-77743750D01*
X20817646Y-77705309D01*
X20824684Y-77660873D01*
X20827638Y-77655075D01*
X20830533Y-77640521D01*
X20849570Y-77612029D01*
X20862776Y-77586112D01*
X20875169Y-77573718D01*
X20889008Y-77553008D01*
X20909718Y-77539169D01*
X20922112Y-77526776D01*
X20948029Y-77513570D01*
X20976521Y-77494533D01*
X20991075Y-77491638D01*
X20996873Y-77488684D01*
X21041309Y-77481646D01*
X21079750Y-77474000D01*
X21592250Y-77474000D01*
X21630694Y-77481646D01*
G37*
G36*
X30515517Y-75927882D02*
G01*
X30532062Y-75938938D01*
X30543118Y-75955483D01*
X30547000Y-75975000D01*
X30547000Y-78375000D01*
X30543118Y-78394517D01*
X30532062Y-78411062D01*
X30515517Y-78422118D01*
X30496000Y-78426000D01*
X28796000Y-78426000D01*
X28776483Y-78422118D01*
X28759938Y-78411062D01*
X28748882Y-78394517D01*
X28745000Y-78375000D01*
X28745000Y-75975000D01*
X28748882Y-75955483D01*
X28759938Y-75938938D01*
X28776483Y-75927882D01*
X28796000Y-75924000D01*
X30496000Y-75924000D01*
X30515517Y-75927882D01*
G37*
G36*
X34215517Y-75927882D02*
G01*
X34232062Y-75938938D01*
X34243118Y-75955483D01*
X34247000Y-75975000D01*
X34247000Y-78375000D01*
X34243118Y-78394517D01*
X34232062Y-78411062D01*
X34215517Y-78422118D01*
X34196000Y-78426000D01*
X32496000Y-78426000D01*
X32476483Y-78422118D01*
X32459938Y-78411062D01*
X32448882Y-78394517D01*
X32445000Y-78375000D01*
X32445000Y-75975000D01*
X32448882Y-75955483D01*
X32459938Y-75938938D01*
X32476483Y-75927882D01*
X32496000Y-75924000D01*
X34196000Y-75924000D01*
X34215517Y-75927882D01*
G37*
G36*
X37358517Y-77436882D02*
G01*
X37375062Y-77447938D01*
X37386118Y-77464483D01*
X37390000Y-77484000D01*
X37390000Y-77934000D01*
X37386118Y-77953517D01*
X37375062Y-77970062D01*
X37358517Y-77981118D01*
X37339000Y-77985000D01*
X36639000Y-77985000D01*
X36619483Y-77981118D01*
X36602938Y-77970062D01*
X36591882Y-77953517D01*
X36588000Y-77934000D01*
X36588000Y-77484000D01*
X36591882Y-77464483D01*
X36602938Y-77447938D01*
X36619483Y-77436882D01*
X36639000Y-77433000D01*
X37339000Y-77433000D01*
X37358517Y-77436882D01*
G37*
G36*
X39358517Y-76786882D02*
G01*
X39375062Y-76797938D01*
X39386118Y-76814483D01*
X39390000Y-76834000D01*
X39390000Y-77284000D01*
X39386118Y-77303517D01*
X39375062Y-77320062D01*
X39358517Y-77331118D01*
X39339000Y-77335000D01*
X38639000Y-77335000D01*
X38619483Y-77331118D01*
X38602938Y-77320062D01*
X38591882Y-77303517D01*
X38588000Y-77284000D01*
X38588000Y-76834000D01*
X38591882Y-76814483D01*
X38602938Y-76797938D01*
X38619483Y-76786882D01*
X38639000Y-76783000D01*
X39339000Y-76783000D01*
X39358517Y-76786882D01*
G37*
G36*
X25313694Y-75932146D02*
G01*
X25358126Y-75939184D01*
X25363923Y-75942137D01*
X25378479Y-75945033D01*
X25406973Y-75964072D01*
X25432887Y-75977276D01*
X25445278Y-75989667D01*
X25465992Y-76003508D01*
X25479832Y-76024221D01*
X25492223Y-76036612D01*
X25505425Y-76062523D01*
X25524467Y-76091021D01*
X25527362Y-76105578D01*
X25530315Y-76111373D01*
X25537349Y-76155784D01*
X25545000Y-76194250D01*
X25545000Y-76631750D01*
X25537348Y-76670218D01*
X25530315Y-76714626D01*
X25527362Y-76720419D01*
X25524467Y-76734979D01*
X25505423Y-76763479D01*
X25492223Y-76789387D01*
X25479834Y-76801775D01*
X25465992Y-76822492D01*
X25445275Y-76836334D01*
X25432887Y-76848723D01*
X25406979Y-76861923D01*
X25378479Y-76880967D01*
X25363919Y-76883862D01*
X25358126Y-76886815D01*
X25313718Y-76893848D01*
X25275250Y-76901500D01*
X24762750Y-76901500D01*
X24724284Y-76893849D01*
X24679873Y-76886815D01*
X24674078Y-76883862D01*
X24659521Y-76880967D01*
X24631023Y-76861925D01*
X24605112Y-76848723D01*
X24592721Y-76836332D01*
X24572008Y-76822492D01*
X24558167Y-76801778D01*
X24545776Y-76789387D01*
X24532572Y-76763473D01*
X24513533Y-76734979D01*
X24510637Y-76720423D01*
X24507684Y-76714626D01*
X24500646Y-76670194D01*
X24493000Y-76631750D01*
X24493000Y-76194250D01*
X24500646Y-76155809D01*
X24507684Y-76111373D01*
X24510638Y-76105575D01*
X24513533Y-76091021D01*
X24532570Y-76062529D01*
X24545776Y-76036612D01*
X24558169Y-76024218D01*
X24572008Y-76003508D01*
X24592718Y-75989669D01*
X24605112Y-75977276D01*
X24631029Y-75964070D01*
X24659521Y-75945033D01*
X24674075Y-75942138D01*
X24679873Y-75939184D01*
X24724309Y-75932146D01*
X24762750Y-75924500D01*
X25275250Y-75924500D01*
X25313694Y-75932146D01*
G37*
G36*
X21630694Y-75906646D02*
G01*
X21675126Y-75913684D01*
X21680923Y-75916637D01*
X21695479Y-75919533D01*
X21723973Y-75938572D01*
X21749887Y-75951776D01*
X21762278Y-75964167D01*
X21782992Y-75978008D01*
X21796832Y-75998721D01*
X21809223Y-76011112D01*
X21822425Y-76037023D01*
X21841467Y-76065521D01*
X21844362Y-76080078D01*
X21847315Y-76085873D01*
X21854349Y-76130284D01*
X21862000Y-76168750D01*
X21862000Y-76606250D01*
X21854348Y-76644718D01*
X21847315Y-76689126D01*
X21844362Y-76694919D01*
X21841467Y-76709479D01*
X21822423Y-76737979D01*
X21809223Y-76763887D01*
X21796834Y-76776275D01*
X21782992Y-76796992D01*
X21762275Y-76810834D01*
X21749887Y-76823223D01*
X21723979Y-76836423D01*
X21695479Y-76855467D01*
X21680919Y-76858362D01*
X21675126Y-76861315D01*
X21630718Y-76868348D01*
X21592250Y-76876000D01*
X21079750Y-76876000D01*
X21041284Y-76868349D01*
X20996873Y-76861315D01*
X20991078Y-76858362D01*
X20976521Y-76855467D01*
X20948023Y-76836425D01*
X20922112Y-76823223D01*
X20909721Y-76810832D01*
X20889008Y-76796992D01*
X20875167Y-76776278D01*
X20862776Y-76763887D01*
X20849572Y-76737973D01*
X20830533Y-76709479D01*
X20827637Y-76694923D01*
X20824684Y-76689126D01*
X20817646Y-76644694D01*
X20810000Y-76606250D01*
X20810000Y-76168750D01*
X20817646Y-76130309D01*
X20824684Y-76085873D01*
X20827638Y-76080075D01*
X20830533Y-76065521D01*
X20849570Y-76037029D01*
X20862776Y-76011112D01*
X20875169Y-75998718D01*
X20889008Y-75978008D01*
X20909718Y-75964169D01*
X20922112Y-75951776D01*
X20948029Y-75938570D01*
X20976521Y-75919533D01*
X20991075Y-75916638D01*
X20996873Y-75913684D01*
X21041309Y-75906646D01*
X21079750Y-75899000D01*
X21592250Y-75899000D01*
X21630694Y-75906646D01*
G37*
G36*
X17503694Y-73903646D02*
G01*
X17548126Y-73910684D01*
X17553923Y-73913637D01*
X17568479Y-73916533D01*
X17596973Y-73935572D01*
X17622887Y-73948776D01*
X17635278Y-73961167D01*
X17655992Y-73975008D01*
X17669832Y-73995721D01*
X17682223Y-74008112D01*
X17695425Y-74034023D01*
X17714467Y-74062521D01*
X17717362Y-74077078D01*
X17720315Y-74082873D01*
X17727349Y-74127284D01*
X17735000Y-74165750D01*
X17735000Y-74678250D01*
X17727348Y-74716718D01*
X17720315Y-74761126D01*
X17717362Y-74766919D01*
X17714467Y-74781479D01*
X17695423Y-74809979D01*
X17682223Y-74835887D01*
X17669834Y-74848275D01*
X17655992Y-74868992D01*
X17635275Y-74882834D01*
X17622887Y-74895223D01*
X17596979Y-74908423D01*
X17568479Y-74927467D01*
X17553919Y-74930362D01*
X17548126Y-74933315D01*
X17503718Y-74940348D01*
X17465250Y-74948000D01*
X17027750Y-74948000D01*
X16989284Y-74940349D01*
X16944873Y-74933315D01*
X16939078Y-74930362D01*
X16924521Y-74927467D01*
X16896023Y-74908425D01*
X16870112Y-74895223D01*
X16857721Y-74882832D01*
X16837008Y-74868992D01*
X16823167Y-74848278D01*
X16810776Y-74835887D01*
X16797572Y-74809973D01*
X16778533Y-74781479D01*
X16775637Y-74766923D01*
X16772684Y-74761126D01*
X16765646Y-74716694D01*
X16758000Y-74678250D01*
X16758000Y-74165750D01*
X16765646Y-74127309D01*
X16772684Y-74082873D01*
X16775638Y-74077075D01*
X16778533Y-74062521D01*
X16797570Y-74034029D01*
X16810776Y-74008112D01*
X16823169Y-73995718D01*
X16837008Y-73975008D01*
X16857718Y-73961169D01*
X16870112Y-73948776D01*
X16896029Y-73935570D01*
X16924521Y-73916533D01*
X16939075Y-73913638D01*
X16944873Y-73910684D01*
X16989309Y-73903646D01*
X17027750Y-73896000D01*
X17465250Y-73896000D01*
X17503694Y-73903646D01*
G37*
G36*
X19078694Y-73903646D02*
G01*
X19123126Y-73910684D01*
X19128923Y-73913637D01*
X19143479Y-73916533D01*
X19171973Y-73935572D01*
X19197887Y-73948776D01*
X19210278Y-73961167D01*
X19230992Y-73975008D01*
X19244832Y-73995721D01*
X19257223Y-74008112D01*
X19270425Y-74034023D01*
X19289467Y-74062521D01*
X19292362Y-74077078D01*
X19295315Y-74082873D01*
X19302349Y-74127284D01*
X19310000Y-74165750D01*
X19310000Y-74678250D01*
X19302348Y-74716718D01*
X19295315Y-74761126D01*
X19292362Y-74766919D01*
X19289467Y-74781479D01*
X19270423Y-74809979D01*
X19257223Y-74835887D01*
X19244834Y-74848275D01*
X19230992Y-74868992D01*
X19210275Y-74882834D01*
X19197887Y-74895223D01*
X19171979Y-74908423D01*
X19143479Y-74927467D01*
X19128919Y-74930362D01*
X19123126Y-74933315D01*
X19078718Y-74940348D01*
X19040250Y-74948000D01*
X18602750Y-74948000D01*
X18564284Y-74940349D01*
X18519873Y-74933315D01*
X18514078Y-74930362D01*
X18499521Y-74927467D01*
X18471023Y-74908425D01*
X18445112Y-74895223D01*
X18432721Y-74882832D01*
X18412008Y-74868992D01*
X18398167Y-74848278D01*
X18385776Y-74835887D01*
X18372572Y-74809973D01*
X18353533Y-74781479D01*
X18350637Y-74766923D01*
X18347684Y-74761126D01*
X18340646Y-74716694D01*
X18333000Y-74678250D01*
X18333000Y-74165750D01*
X18340646Y-74127309D01*
X18347684Y-74082873D01*
X18350638Y-74077075D01*
X18353533Y-74062521D01*
X18372570Y-74034029D01*
X18385776Y-74008112D01*
X18398169Y-73995718D01*
X18412008Y-73975008D01*
X18432718Y-73961169D01*
X18445112Y-73948776D01*
X18471029Y-73935570D01*
X18499521Y-73916533D01*
X18514075Y-73913638D01*
X18519873Y-73910684D01*
X18564309Y-73903646D01*
X18602750Y-73896000D01*
X19040250Y-73896000D01*
X19078694Y-73903646D01*
G37*
G36*
X21180793Y-73900931D02*
G01*
X21225933Y-73907508D01*
X21234217Y-73911558D01*
X21252054Y-73915106D01*
X21280897Y-73934378D01*
X21300844Y-73944130D01*
X21311622Y-73954908D01*
X21333484Y-73969516D01*
X21348091Y-73991377D01*
X21358869Y-74002155D01*
X21368619Y-74022099D01*
X21387894Y-74050946D01*
X21391442Y-74068783D01*
X21395491Y-74077066D01*
X21402065Y-74122190D01*
X21407000Y-74147000D01*
X21407000Y-74697000D01*
X21402064Y-74721812D01*
X21395491Y-74766933D01*
X21391442Y-74775214D01*
X21387894Y-74793054D01*
X21368617Y-74821903D01*
X21358869Y-74841844D01*
X21348093Y-74852619D01*
X21333484Y-74874484D01*
X21311619Y-74889093D01*
X21300844Y-74899869D01*
X21280903Y-74909617D01*
X21252054Y-74928894D01*
X21234214Y-74932442D01*
X21225933Y-74936491D01*
X21180812Y-74943064D01*
X21156000Y-74948000D01*
X20756000Y-74948000D01*
X20731190Y-74943065D01*
X20686066Y-74936491D01*
X20677783Y-74932442D01*
X20659946Y-74928894D01*
X20631099Y-74909619D01*
X20611155Y-74899869D01*
X20600377Y-74889091D01*
X20578516Y-74874484D01*
X20563908Y-74852622D01*
X20553130Y-74841844D01*
X20543378Y-74821897D01*
X20524106Y-74793054D01*
X20520558Y-74775217D01*
X20516508Y-74766933D01*
X20509931Y-74721793D01*
X20505000Y-74697000D01*
X20505000Y-74147000D01*
X20509931Y-74122209D01*
X20516508Y-74077066D01*
X20520558Y-74068780D01*
X20524106Y-74050946D01*
X20543376Y-74022105D01*
X20553130Y-74002155D01*
X20563910Y-73991374D01*
X20578516Y-73969516D01*
X20600374Y-73954910D01*
X20611155Y-73944130D01*
X20631105Y-73934376D01*
X20659946Y-73915106D01*
X20677780Y-73911558D01*
X20686066Y-73907508D01*
X20731209Y-73900931D01*
X20756000Y-73896000D01*
X21156000Y-73896000D01*
X21180793Y-73900931D01*
G37*
G36*
X22830793Y-73900931D02*
G01*
X22875933Y-73907508D01*
X22884217Y-73911558D01*
X22902054Y-73915106D01*
X22930897Y-73934378D01*
X22950844Y-73944130D01*
X22961622Y-73954908D01*
X22983484Y-73969516D01*
X22998091Y-73991377D01*
X23008869Y-74002155D01*
X23018619Y-74022099D01*
X23037894Y-74050946D01*
X23041442Y-74068783D01*
X23045491Y-74077066D01*
X23052065Y-74122190D01*
X23057000Y-74147000D01*
X23057000Y-74697000D01*
X23052064Y-74721812D01*
X23045491Y-74766933D01*
X23041442Y-74775214D01*
X23037894Y-74793054D01*
X23018617Y-74821903D01*
X23008869Y-74841844D01*
X22998093Y-74852619D01*
X22983484Y-74874484D01*
X22961619Y-74889093D01*
X22950844Y-74899869D01*
X22930903Y-74909617D01*
X22902054Y-74928894D01*
X22884214Y-74932442D01*
X22875933Y-74936491D01*
X22830812Y-74943064D01*
X22806000Y-74948000D01*
X22406000Y-74948000D01*
X22381190Y-74943065D01*
X22336066Y-74936491D01*
X22327783Y-74932442D01*
X22309946Y-74928894D01*
X22281099Y-74909619D01*
X22261155Y-74899869D01*
X22250377Y-74889091D01*
X22228516Y-74874484D01*
X22213908Y-74852622D01*
X22203130Y-74841844D01*
X22193378Y-74821897D01*
X22174106Y-74793054D01*
X22170558Y-74775217D01*
X22166508Y-74766933D01*
X22159931Y-74721793D01*
X22155000Y-74697000D01*
X22155000Y-74147000D01*
X22159931Y-74122209D01*
X22166508Y-74077066D01*
X22170558Y-74068780D01*
X22174106Y-74050946D01*
X22193376Y-74022105D01*
X22203130Y-74002155D01*
X22213910Y-73991374D01*
X22228516Y-73969516D01*
X22250374Y-73954910D01*
X22261155Y-73944130D01*
X22281105Y-73934376D01*
X22309946Y-73915106D01*
X22327780Y-73911558D01*
X22336066Y-73907508D01*
X22381209Y-73900931D01*
X22406000Y-73896000D01*
X22806000Y-73896000D01*
X22830793Y-73900931D01*
G37*
G36*
X19383517Y-68210882D02*
G01*
X19400062Y-68221938D01*
X19411118Y-68238483D01*
X19415000Y-68258000D01*
X19415000Y-70758000D01*
X19411118Y-70777517D01*
X19400062Y-70794062D01*
X19383517Y-70805118D01*
X19364000Y-70809000D01*
X16864000Y-70809000D01*
X16844483Y-70805118D01*
X16827938Y-70794062D01*
X16816882Y-70777517D01*
X16813000Y-70758000D01*
X16813000Y-68258000D01*
X16816882Y-68238483D01*
X16827938Y-68221938D01*
X16844483Y-68210882D01*
X16864000Y-68207000D01*
X19364000Y-68207000D01*
X19383517Y-68210882D01*
G37*
G36*
X29383517Y-68210882D02*
G01*
X29400062Y-68221938D01*
X29411118Y-68238483D01*
X29415000Y-68258000D01*
X29415000Y-70758000D01*
X29411118Y-70777517D01*
X29400062Y-70794062D01*
X29383517Y-70805118D01*
X29364000Y-70809000D01*
X26864000Y-70809000D01*
X26844483Y-70805118D01*
X26827938Y-70794062D01*
X26816882Y-70777517D01*
X26813000Y-70758000D01*
X26813000Y-68258000D01*
X26816882Y-68238483D01*
X26827938Y-68221938D01*
X26844483Y-68210882D01*
X26864000Y-68207000D01*
X29364000Y-68207000D01*
X29383517Y-68210882D01*
G37*
G36*
X40431023Y-64482073D02*
G01*
X40469657Y-64482073D01*
X40513240Y-64491336D01*
X40564239Y-64497083D01*
X40601321Y-64510058D01*
X40633306Y-64516857D01*
X40679401Y-64537379D01*
X40733541Y-64556324D01*
X40761719Y-64574029D01*
X40786157Y-64584910D01*
X40831720Y-64618014D01*
X40885415Y-64651753D01*
X40904700Y-64671038D01*
X40921512Y-64683253D01*
X40963076Y-64729414D01*
X41012247Y-64778585D01*
X41023555Y-64796582D01*
X41033467Y-64807590D01*
X41067376Y-64866322D01*
X41107676Y-64930459D01*
X41112707Y-64944838D01*
X41117120Y-64952481D01*
X41139718Y-65022030D01*
X41166917Y-65099761D01*
X41167948Y-65108913D01*
X41168823Y-65111606D01*
X41176750Y-65187038D01*
X41187000Y-65278000D01*
X41176750Y-65368969D01*
X41168823Y-65444393D01*
X41167948Y-65447084D01*
X41166917Y-65456239D01*
X41139713Y-65533982D01*
X41117120Y-65603518D01*
X41112708Y-65611159D01*
X41107676Y-65625541D01*
X41067369Y-65689688D01*
X41033467Y-65748409D01*
X41023557Y-65759414D01*
X41012247Y-65777415D01*
X40963067Y-65826594D01*
X40921512Y-65872746D01*
X40904704Y-65884957D01*
X40885415Y-65904247D01*
X40831710Y-65937992D01*
X40786157Y-65971089D01*
X40761725Y-65981966D01*
X40733541Y-65999676D01*
X40679391Y-66018623D01*
X40633306Y-66039142D01*
X40601327Y-66045939D01*
X40564239Y-66058917D01*
X40513237Y-66064663D01*
X40469657Y-66073927D01*
X40431023Y-66073927D01*
X40386000Y-66079000D01*
X40340977Y-66073927D01*
X40302343Y-66073927D01*
X40258761Y-66064663D01*
X40207761Y-66058917D01*
X40170674Y-66045939D01*
X40138693Y-66039142D01*
X40092603Y-66018622D01*
X40038459Y-65999676D01*
X40010277Y-65981968D01*
X39985842Y-65971089D01*
X39940282Y-65937987D01*
X39886585Y-65904247D01*
X39867298Y-65884960D01*
X39850487Y-65872746D01*
X39808922Y-65826584D01*
X39759753Y-65777415D01*
X39748444Y-65759418D01*
X39738532Y-65748409D01*
X39704618Y-65689668D01*
X39664324Y-65625541D01*
X39659293Y-65611163D01*
X39654879Y-65603518D01*
X39632272Y-65533942D01*
X39605083Y-65456239D01*
X39604052Y-65447089D01*
X39603176Y-65444393D01*
X39595235Y-65368837D01*
X39585000Y-65278000D01*
X39595234Y-65187170D01*
X39603176Y-65111606D01*
X39604052Y-65108909D01*
X39605083Y-65099761D01*
X39632267Y-65022070D01*
X39654879Y-64952481D01*
X39659293Y-64944834D01*
X39664324Y-64930459D01*
X39704611Y-64866342D01*
X39738532Y-64807590D01*
X39748446Y-64796578D01*
X39759753Y-64778585D01*
X39808913Y-64729424D01*
X39850487Y-64683253D01*
X39867301Y-64671036D01*
X39886585Y-64651753D01*
X39940278Y-64618015D01*
X39985846Y-64584908D01*
X40010284Y-64574027D01*
X40038459Y-64556324D01*
X40092587Y-64537383D01*
X40138689Y-64516858D01*
X40170679Y-64510058D01*
X40207761Y-64497083D01*
X40258759Y-64491336D01*
X40302343Y-64482073D01*
X40340977Y-64482073D01*
X40386000Y-64477000D01*
X40431023Y-64482073D01*
G37*
G36*
X37931023Y-61982073D02*
G01*
X37969657Y-61982073D01*
X38013240Y-61991336D01*
X38064239Y-61997083D01*
X38101321Y-62010058D01*
X38133306Y-62016857D01*
X38179401Y-62037379D01*
X38233541Y-62056324D01*
X38261719Y-62074029D01*
X38286157Y-62084910D01*
X38331720Y-62118014D01*
X38385415Y-62151753D01*
X38404700Y-62171038D01*
X38421512Y-62183253D01*
X38463076Y-62229414D01*
X38512247Y-62278585D01*
X38523555Y-62296582D01*
X38533467Y-62307590D01*
X38567376Y-62366322D01*
X38607676Y-62430459D01*
X38612707Y-62444838D01*
X38617120Y-62452481D01*
X38639718Y-62522030D01*
X38666917Y-62599761D01*
X38667948Y-62608913D01*
X38668823Y-62611606D01*
X38676751Y-62687044D01*
X38687000Y-62778000D01*
X38676749Y-62868975D01*
X38668823Y-62944393D01*
X38667948Y-62947084D01*
X38666917Y-62956239D01*
X38639713Y-63033982D01*
X38617120Y-63103518D01*
X38612708Y-63111159D01*
X38607676Y-63125541D01*
X38567369Y-63189688D01*
X38533467Y-63248409D01*
X38523557Y-63259414D01*
X38512247Y-63277415D01*
X38463067Y-63326594D01*
X38421512Y-63372746D01*
X38404704Y-63384957D01*
X38385415Y-63404247D01*
X38331710Y-63437992D01*
X38286157Y-63471089D01*
X38261725Y-63481966D01*
X38233541Y-63499676D01*
X38179391Y-63518623D01*
X38133306Y-63539142D01*
X38101327Y-63545939D01*
X38064239Y-63558917D01*
X38013237Y-63564663D01*
X37969657Y-63573927D01*
X37931023Y-63573927D01*
X37886000Y-63579000D01*
X37840977Y-63573927D01*
X37802343Y-63573927D01*
X37758761Y-63564663D01*
X37707761Y-63558917D01*
X37670674Y-63545939D01*
X37638693Y-63539142D01*
X37592603Y-63518622D01*
X37538459Y-63499676D01*
X37510277Y-63481968D01*
X37485842Y-63471089D01*
X37440282Y-63437987D01*
X37386585Y-63404247D01*
X37367298Y-63384960D01*
X37350487Y-63372746D01*
X37308922Y-63326584D01*
X37259753Y-63277415D01*
X37248444Y-63259418D01*
X37238532Y-63248409D01*
X37204618Y-63189668D01*
X37164324Y-63125541D01*
X37159293Y-63111163D01*
X37154879Y-63103518D01*
X37132272Y-63033942D01*
X37105083Y-62956239D01*
X37104052Y-62947089D01*
X37103176Y-62944393D01*
X37095235Y-62868843D01*
X37085000Y-62778000D01*
X37095233Y-62687176D01*
X37103176Y-62611606D01*
X37104052Y-62608909D01*
X37105083Y-62599761D01*
X37132267Y-62522070D01*
X37154879Y-62452481D01*
X37159293Y-62444834D01*
X37164324Y-62430459D01*
X37204611Y-62366342D01*
X37238532Y-62307590D01*
X37248446Y-62296578D01*
X37259753Y-62278585D01*
X37308913Y-62229424D01*
X37350487Y-62183253D01*
X37367301Y-62171036D01*
X37386585Y-62151753D01*
X37440278Y-62118015D01*
X37485846Y-62084908D01*
X37510284Y-62074027D01*
X37538459Y-62056324D01*
X37592587Y-62037383D01*
X37638689Y-62016858D01*
X37670679Y-62010058D01*
X37707761Y-61997083D01*
X37758759Y-61991336D01*
X37802343Y-61982073D01*
X37840977Y-61982073D01*
X37886000Y-61977000D01*
X37931023Y-61982073D01*
G37*
G36*
X40431023Y-61982073D02*
G01*
X40469657Y-61982073D01*
X40513240Y-61991336D01*
X40564239Y-61997083D01*
X40601321Y-62010058D01*
X40633306Y-62016857D01*
X40679401Y-62037379D01*
X40733541Y-62056324D01*
X40761719Y-62074029D01*
X40786157Y-62084910D01*
X40831720Y-62118014D01*
X40885415Y-62151753D01*
X40904700Y-62171038D01*
X40921512Y-62183253D01*
X40963076Y-62229414D01*
X41012247Y-62278585D01*
X41023555Y-62296582D01*
X41033467Y-62307590D01*
X41067376Y-62366322D01*
X41107676Y-62430459D01*
X41112707Y-62444838D01*
X41117120Y-62452481D01*
X41139718Y-62522030D01*
X41166917Y-62599761D01*
X41167948Y-62608913D01*
X41168823Y-62611606D01*
X41176751Y-62687044D01*
X41187000Y-62778000D01*
X41176749Y-62868975D01*
X41168823Y-62944393D01*
X41167948Y-62947084D01*
X41166917Y-62956239D01*
X41139713Y-63033982D01*
X41117120Y-63103518D01*
X41112708Y-63111159D01*
X41107676Y-63125541D01*
X41067369Y-63189688D01*
X41033467Y-63248409D01*
X41023557Y-63259414D01*
X41012247Y-63277415D01*
X40963067Y-63326594D01*
X40921512Y-63372746D01*
X40904704Y-63384957D01*
X40885415Y-63404247D01*
X40831710Y-63437992D01*
X40786157Y-63471089D01*
X40761725Y-63481966D01*
X40733541Y-63499676D01*
X40679391Y-63518623D01*
X40633306Y-63539142D01*
X40601327Y-63545939D01*
X40564239Y-63558917D01*
X40513237Y-63564663D01*
X40469657Y-63573927D01*
X40431023Y-63573927D01*
X40386000Y-63579000D01*
X40340977Y-63573927D01*
X40302343Y-63573927D01*
X40258761Y-63564663D01*
X40207761Y-63558917D01*
X40170674Y-63545939D01*
X40138693Y-63539142D01*
X40092603Y-63518622D01*
X40038459Y-63499676D01*
X40010277Y-63481968D01*
X39985842Y-63471089D01*
X39940282Y-63437987D01*
X39886585Y-63404247D01*
X39867298Y-63384960D01*
X39850487Y-63372746D01*
X39808922Y-63326584D01*
X39759753Y-63277415D01*
X39748444Y-63259418D01*
X39738532Y-63248409D01*
X39704618Y-63189668D01*
X39664324Y-63125541D01*
X39659293Y-63111163D01*
X39654879Y-63103518D01*
X39632272Y-63033942D01*
X39605083Y-62956239D01*
X39604052Y-62947089D01*
X39603176Y-62944393D01*
X39595235Y-62868843D01*
X39585000Y-62778000D01*
X39595233Y-62687176D01*
X39603176Y-62611606D01*
X39604052Y-62608909D01*
X39605083Y-62599761D01*
X39632267Y-62522070D01*
X39654879Y-62452481D01*
X39659293Y-62444834D01*
X39664324Y-62430459D01*
X39704611Y-62366342D01*
X39738532Y-62307590D01*
X39748446Y-62296578D01*
X39759753Y-62278585D01*
X39808913Y-62229424D01*
X39850487Y-62183253D01*
X39867301Y-62171036D01*
X39886585Y-62151753D01*
X39940278Y-62118015D01*
X39985846Y-62084908D01*
X40010284Y-62074027D01*
X40038459Y-62056324D01*
X40092587Y-62037383D01*
X40138689Y-62016858D01*
X40170679Y-62010058D01*
X40207761Y-61997083D01*
X40258759Y-61991336D01*
X40302343Y-61982073D01*
X40340977Y-61982073D01*
X40386000Y-61977000D01*
X40431023Y-61982073D01*
G37*
G36*
X42931023Y-61982073D02*
G01*
X42969657Y-61982073D01*
X43013240Y-61991336D01*
X43064239Y-61997083D01*
X43101321Y-62010058D01*
X43133306Y-62016857D01*
X43179401Y-62037379D01*
X43233541Y-62056324D01*
X43261719Y-62074029D01*
X43286157Y-62084910D01*
X43331720Y-62118014D01*
X43385415Y-62151753D01*
X43404700Y-62171038D01*
X43421512Y-62183253D01*
X43463076Y-62229414D01*
X43512247Y-62278585D01*
X43523555Y-62296582D01*
X43533467Y-62307590D01*
X43567376Y-62366322D01*
X43607676Y-62430459D01*
X43612707Y-62444838D01*
X43617120Y-62452481D01*
X43639718Y-62522030D01*
X43666917Y-62599761D01*
X43667948Y-62608913D01*
X43668823Y-62611606D01*
X43676751Y-62687044D01*
X43687000Y-62778000D01*
X43676749Y-62868975D01*
X43668823Y-62944393D01*
X43667948Y-62947084D01*
X43666917Y-62956239D01*
X43639713Y-63033982D01*
X43617120Y-63103518D01*
X43612708Y-63111159D01*
X43607676Y-63125541D01*
X43567369Y-63189688D01*
X43533467Y-63248409D01*
X43523557Y-63259414D01*
X43512247Y-63277415D01*
X43463067Y-63326594D01*
X43421512Y-63372746D01*
X43404704Y-63384957D01*
X43385415Y-63404247D01*
X43331710Y-63437992D01*
X43286157Y-63471089D01*
X43261725Y-63481966D01*
X43233541Y-63499676D01*
X43179391Y-63518623D01*
X43133306Y-63539142D01*
X43101327Y-63545939D01*
X43064239Y-63558917D01*
X43013237Y-63564663D01*
X42969657Y-63573927D01*
X42931023Y-63573927D01*
X42886000Y-63579000D01*
X42840977Y-63573927D01*
X42802343Y-63573927D01*
X42758761Y-63564663D01*
X42707761Y-63558917D01*
X42670674Y-63545939D01*
X42638693Y-63539142D01*
X42592603Y-63518622D01*
X42538459Y-63499676D01*
X42510277Y-63481968D01*
X42485842Y-63471089D01*
X42440282Y-63437987D01*
X42386585Y-63404247D01*
X42367298Y-63384960D01*
X42350487Y-63372746D01*
X42308922Y-63326584D01*
X42259753Y-63277415D01*
X42248444Y-63259418D01*
X42238532Y-63248409D01*
X42204618Y-63189668D01*
X42164324Y-63125541D01*
X42159293Y-63111163D01*
X42154879Y-63103518D01*
X42132272Y-63033942D01*
X42105083Y-62956239D01*
X42104052Y-62947089D01*
X42103176Y-62944393D01*
X42095235Y-62868843D01*
X42085000Y-62778000D01*
X42095233Y-62687176D01*
X42103176Y-62611606D01*
X42104052Y-62608909D01*
X42105083Y-62599761D01*
X42132267Y-62522070D01*
X42154879Y-62452481D01*
X42159293Y-62444834D01*
X42164324Y-62430459D01*
X42204611Y-62366342D01*
X42238532Y-62307590D01*
X42248446Y-62296578D01*
X42259753Y-62278585D01*
X42308913Y-62229424D01*
X42350487Y-62183253D01*
X42367301Y-62171036D01*
X42386585Y-62151753D01*
X42440278Y-62118015D01*
X42485846Y-62084908D01*
X42510284Y-62074027D01*
X42538459Y-62056324D01*
X42592587Y-62037383D01*
X42638689Y-62016858D01*
X42670679Y-62010058D01*
X42707761Y-61997083D01*
X42758759Y-61991336D01*
X42802343Y-61982073D01*
X42840977Y-61982073D01*
X42886000Y-61977000D01*
X42931023Y-61982073D01*
G37*
G36*
X40431023Y-59482073D02*
G01*
X40469657Y-59482073D01*
X40513240Y-59491336D01*
X40564239Y-59497083D01*
X40601321Y-59510058D01*
X40633306Y-59516857D01*
X40679401Y-59537379D01*
X40733541Y-59556324D01*
X40761719Y-59574029D01*
X40786157Y-59584910D01*
X40831720Y-59618014D01*
X40885415Y-59651753D01*
X40904700Y-59671038D01*
X40921512Y-59683253D01*
X40963076Y-59729414D01*
X41012247Y-59778585D01*
X41023555Y-59796582D01*
X41033467Y-59807590D01*
X41067376Y-59866322D01*
X41107676Y-59930459D01*
X41112707Y-59944838D01*
X41117120Y-59952481D01*
X41139718Y-60022030D01*
X41166917Y-60099761D01*
X41167948Y-60108913D01*
X41168823Y-60111606D01*
X41176750Y-60187038D01*
X41187000Y-60278000D01*
X41176750Y-60368969D01*
X41168823Y-60444393D01*
X41167948Y-60447084D01*
X41166917Y-60456239D01*
X41139713Y-60533982D01*
X41117120Y-60603518D01*
X41112708Y-60611159D01*
X41107676Y-60625541D01*
X41067369Y-60689688D01*
X41033467Y-60748409D01*
X41023557Y-60759414D01*
X41012247Y-60777415D01*
X40963067Y-60826594D01*
X40921512Y-60872746D01*
X40904704Y-60884957D01*
X40885415Y-60904247D01*
X40831710Y-60937992D01*
X40786157Y-60971089D01*
X40761725Y-60981966D01*
X40733541Y-60999676D01*
X40679391Y-61018623D01*
X40633306Y-61039142D01*
X40601327Y-61045939D01*
X40564239Y-61058917D01*
X40513237Y-61064663D01*
X40469657Y-61073927D01*
X40431023Y-61073927D01*
X40386000Y-61079000D01*
X40340977Y-61073927D01*
X40302343Y-61073927D01*
X40258761Y-61064663D01*
X40207761Y-61058917D01*
X40170674Y-61045939D01*
X40138693Y-61039142D01*
X40092603Y-61018622D01*
X40038459Y-60999676D01*
X40010277Y-60981968D01*
X39985842Y-60971089D01*
X39940282Y-60937987D01*
X39886585Y-60904247D01*
X39867298Y-60884960D01*
X39850487Y-60872746D01*
X39808922Y-60826584D01*
X39759753Y-60777415D01*
X39748444Y-60759418D01*
X39738532Y-60748409D01*
X39704618Y-60689668D01*
X39664324Y-60625541D01*
X39659293Y-60611163D01*
X39654879Y-60603518D01*
X39632272Y-60533942D01*
X39605083Y-60456239D01*
X39604052Y-60447089D01*
X39603176Y-60444393D01*
X39595235Y-60368837D01*
X39585000Y-60278000D01*
X39595234Y-60187170D01*
X39603176Y-60111606D01*
X39604052Y-60108909D01*
X39605083Y-60099761D01*
X39632267Y-60022070D01*
X39654879Y-59952481D01*
X39659293Y-59944834D01*
X39664324Y-59930459D01*
X39704611Y-59866342D01*
X39738532Y-59807590D01*
X39748446Y-59796578D01*
X39759753Y-59778585D01*
X39808913Y-59729424D01*
X39850487Y-59683253D01*
X39867301Y-59671036D01*
X39886585Y-59651753D01*
X39940278Y-59618015D01*
X39985846Y-59584908D01*
X40010284Y-59574027D01*
X40038459Y-59556324D01*
X40092587Y-59537383D01*
X40138689Y-59516858D01*
X40170679Y-59510058D01*
X40207761Y-59497083D01*
X40258759Y-59491336D01*
X40302343Y-59482073D01*
X40340977Y-59482073D01*
X40386000Y-59477000D01*
X40431023Y-59482073D01*
G37*
G36*
X19383517Y-57210882D02*
G01*
X19400062Y-57221938D01*
X19411118Y-57238483D01*
X19415000Y-57258000D01*
X19415000Y-59758000D01*
X19411118Y-59777517D01*
X19400062Y-59794062D01*
X19383517Y-59805118D01*
X19364000Y-59809000D01*
X16864000Y-59809000D01*
X16844483Y-59805118D01*
X16827938Y-59794062D01*
X16816882Y-59777517D01*
X16813000Y-59758000D01*
X16813000Y-57258000D01*
X16816882Y-57238483D01*
X16827938Y-57221938D01*
X16844483Y-57210882D01*
X16864000Y-57207000D01*
X19364000Y-57207000D01*
X19383517Y-57210882D01*
G37*
G36*
X29383517Y-57210882D02*
G01*
X29400062Y-57221938D01*
X29411118Y-57238483D01*
X29415000Y-57258000D01*
X29415000Y-59758000D01*
X29411118Y-59777517D01*
X29400062Y-59794062D01*
X29383517Y-59805118D01*
X29364000Y-59809000D01*
X26864000Y-59809000D01*
X26844483Y-59805118D01*
X26827938Y-59794062D01*
X26816882Y-59777517D01*
X26813000Y-59758000D01*
X26813000Y-57258000D01*
X26816882Y-57238483D01*
X26827938Y-57221938D01*
X26844483Y-57210882D01*
X26864000Y-57207000D01*
X29364000Y-57207000D01*
X29383517Y-57210882D01*
G37*
G36*
X18451607Y-54336010D02*
G01*
X18474361Y-54338650D01*
X18482136Y-54342083D01*
X18504069Y-54346446D01*
X18527550Y-54362135D01*
X18532674Y-54364398D01*
X18536173Y-54367897D01*
X18557112Y-54381888D01*
X18571102Y-54402826D01*
X18574601Y-54406325D01*
X18576862Y-54411447D01*
X18592554Y-54434931D01*
X18596916Y-54456864D01*
X18600349Y-54464637D01*
X18602987Y-54487382D01*
X18605000Y-54497500D01*
X18605000Y-54722500D01*
X18602986Y-54732619D01*
X18600349Y-54755361D01*
X18596917Y-54763132D01*
X18592554Y-54785069D01*
X18576861Y-54808554D01*
X18574601Y-54813674D01*
X18571104Y-54817170D01*
X18557112Y-54838112D01*
X18536170Y-54852104D01*
X18532674Y-54855601D01*
X18527554Y-54857861D01*
X18504069Y-54873554D01*
X18482133Y-54877917D01*
X18474362Y-54881349D01*
X18451617Y-54883987D01*
X18441500Y-54886000D01*
X18066500Y-54886000D01*
X18056381Y-54883987D01*
X18033638Y-54881349D01*
X18025865Y-54877917D01*
X18003931Y-54873554D01*
X17980447Y-54857862D01*
X17975325Y-54855601D01*
X17971826Y-54852102D01*
X17950888Y-54838112D01*
X17936897Y-54817173D01*
X17933398Y-54813674D01*
X17931135Y-54808550D01*
X17915446Y-54785069D01*
X17911083Y-54763138D01*
X17907650Y-54755362D01*
X17905010Y-54732606D01*
X17903000Y-54722500D01*
X17903000Y-54497500D01*
X17905010Y-54487393D01*
X17907650Y-54464638D01*
X17911083Y-54456861D01*
X17915446Y-54434931D01*
X17931134Y-54411451D01*
X17933398Y-54406325D01*
X17936899Y-54402823D01*
X17950888Y-54381888D01*
X17971823Y-54367899D01*
X17975325Y-54364398D01*
X17980451Y-54362134D01*
X18003931Y-54346446D01*
X18025860Y-54342083D01*
X18033637Y-54338650D01*
X18056395Y-54336009D01*
X18066500Y-54334000D01*
X18441500Y-54334000D01*
X18451607Y-54336010D01*
G37*
G36*
X20551607Y-54336010D02*
G01*
X20574361Y-54338650D01*
X20582136Y-54342083D01*
X20604069Y-54346446D01*
X20627550Y-54362135D01*
X20632674Y-54364398D01*
X20636173Y-54367897D01*
X20657112Y-54381888D01*
X20671102Y-54402826D01*
X20674601Y-54406325D01*
X20676862Y-54411447D01*
X20692554Y-54434931D01*
X20696916Y-54456864D01*
X20700349Y-54464637D01*
X20702987Y-54487382D01*
X20705000Y-54497500D01*
X20705000Y-54722500D01*
X20702986Y-54732619D01*
X20700349Y-54755361D01*
X20696917Y-54763132D01*
X20692554Y-54785069D01*
X20676861Y-54808554D01*
X20674601Y-54813674D01*
X20671104Y-54817170D01*
X20657112Y-54838112D01*
X20636170Y-54852104D01*
X20632674Y-54855601D01*
X20627554Y-54857861D01*
X20604069Y-54873554D01*
X20582133Y-54877917D01*
X20574362Y-54881349D01*
X20551617Y-54883987D01*
X20541500Y-54886000D01*
X20166500Y-54886000D01*
X20156381Y-54883987D01*
X20133638Y-54881349D01*
X20125865Y-54877917D01*
X20103931Y-54873554D01*
X20080447Y-54857862D01*
X20075325Y-54855601D01*
X20071826Y-54852102D01*
X20050888Y-54838112D01*
X20036897Y-54817173D01*
X20033398Y-54813674D01*
X20031135Y-54808550D01*
X20015446Y-54785069D01*
X20011083Y-54763138D01*
X20007650Y-54755362D01*
X20005010Y-54732606D01*
X20003000Y-54722500D01*
X20003000Y-54497500D01*
X20005010Y-54487393D01*
X20007650Y-54464638D01*
X20011083Y-54456861D01*
X20015446Y-54434931D01*
X20031134Y-54411451D01*
X20033398Y-54406325D01*
X20036899Y-54402823D01*
X20050888Y-54381888D01*
X20071823Y-54367899D01*
X20075325Y-54364398D01*
X20080451Y-54362134D01*
X20103931Y-54346446D01*
X20125860Y-54342083D01*
X20133637Y-54338650D01*
X20156395Y-54336009D01*
X20166500Y-54334000D01*
X20541500Y-54334000D01*
X20551607Y-54336010D01*
G37*
M02*
