G04 #@! TF.GenerationSoftware,KiCad,Pcbnew,7.0.5*
G04 #@! TF.CreationDate,2023-07-03T11:33:58+02:00*
G04 #@! TF.ProjectId,STM32CAN,53544d33-3243-4414-9e2e-6b696361645f,rev?*
G04 #@! TF.SameCoordinates,Original*
G04 #@! TF.FileFunction,Copper,L2,Bot*
G04 #@! TF.FilePolarity,Positive*
%FSLAX46Y46*%
G04 Gerber Fmt 4.6, Leading zero omitted, Abs format (unit mm)*
G04 Created by KiCad (PCBNEW 7.0.5) date 2023-07-03 11:33:58*
%MOMM*%
%LPD*%
G01*
G04 APERTURE LIST*
G04 Aperture macros list*
%AMRoundRect*
0 Rectangle with rounded corners*
0 $1 Rounding radius*
0 $2 $3 $4 $5 $6 $7 $8 $9 X,Y pos of 4 corners*
0 Add a 4 corners polygon primitive as box body*
4,1,4,$2,$3,$4,$5,$6,$7,$8,$9,$2,$3,0*
0 Add four circle primitives for the rounded corners*
1,1,$1+$1,$2,$3*
1,1,$1+$1,$4,$5*
1,1,$1+$1,$6,$7*
1,1,$1+$1,$8,$9*
0 Add four rect primitives between the rounded corners*
20,1,$1+$1,$2,$3,$4,$5,0*
20,1,$1+$1,$4,$5,$6,$7,0*
20,1,$1+$1,$6,$7,$8,$9,0*
20,1,$1+$1,$8,$9,$2,$3,0*%
G04 Aperture macros list end*
G04 #@! TA.AperFunction,ComponentPad*
%ADD10RoundRect,0.250000X-0.600000X-0.725000X0.600000X-0.725000X0.600000X0.725000X-0.600000X0.725000X0*%
G04 #@! TD*
G04 #@! TA.AperFunction,ComponentPad*
%ADD11O,1.700000X1.950000*%
G04 #@! TD*
G04 #@! TA.AperFunction,ComponentPad*
%ADD12R,2.400000X2.400000*%
G04 #@! TD*
G04 #@! TA.AperFunction,ComponentPad*
%ADD13C,2.400000*%
G04 #@! TD*
G04 #@! TA.AperFunction,ComponentPad*
%ADD14C,1.500000*%
G04 #@! TD*
G04 #@! TA.AperFunction,ViaPad*
%ADD15C,0.800000*%
G04 #@! TD*
G04 #@! TA.AperFunction,Conductor*
%ADD16C,0.250000*%
G04 #@! TD*
G04 APERTURE END LIST*
D10*
X29210000Y-99822000D03*
D11*
X31710000Y-99822000D03*
X34210000Y-99822000D03*
X36710000Y-99822000D03*
X39210000Y-99822000D03*
X41710000Y-99822000D03*
D12*
X19050000Y-100330000D03*
D13*
X22550000Y-100330000D03*
D14*
X42886000Y-62778000D03*
X40386000Y-60278000D03*
X37886000Y-62778000D03*
X40386000Y-65278000D03*
X40386000Y-62778000D03*
D15*
X28702000Y-74422000D03*
X19304000Y-76708000D03*
X17780000Y-81534000D03*
X16510000Y-102362000D03*
X16510000Y-87884000D03*
X16764000Y-72136000D03*
X24638000Y-72136000D03*
X38100000Y-74930000D03*
X33020000Y-53086000D03*
X33020000Y-56388000D03*
X16764000Y-53086000D03*
X49276000Y-53086000D03*
X42672000Y-92202000D03*
X41402000Y-78486000D03*
X49530000Y-74930000D03*
X49784000Y-92456000D03*
X49784000Y-102362000D03*
X25654000Y-102362000D03*
X40132000Y-96266000D03*
X36322000Y-80772000D03*
X32512000Y-86360000D03*
X35560000Y-91948000D03*
X24542500Y-87767600D03*
X29513500Y-91279100D03*
X25159800Y-86925400D03*
X26118000Y-84275000D03*
X23444000Y-84535800D03*
X24077100Y-74898000D03*
D16*
X34210000Y-97435100D02*
X24542500Y-87767600D01*
X34210000Y-99822000D02*
X34210000Y-97435100D01*
X25159800Y-86925400D02*
X29513500Y-91279100D01*
X37960000Y-96117000D02*
X26118000Y-84275000D01*
X37960000Y-100411000D02*
X37960000Y-96117000D01*
X38677800Y-101128800D02*
X37960000Y-100411000D01*
X39742100Y-101128800D02*
X38677800Y-101128800D01*
X40534700Y-100336200D02*
X39742100Y-101128800D01*
X40534700Y-99822000D02*
X40534700Y-100336200D01*
X41710000Y-99822000D02*
X40534700Y-99822000D01*
X25375200Y-75288800D02*
X37886000Y-62778000D01*
X25375200Y-81941800D02*
X25375200Y-75288800D01*
X26389600Y-82956200D02*
X25375200Y-81941800D01*
X26389600Y-84003400D02*
X26389600Y-82956200D01*
X26118000Y-84275000D02*
X26389600Y-84003400D01*
X23809100Y-94421100D02*
X23809100Y-84535800D01*
X29210000Y-99822000D02*
X23809100Y-94421100D01*
X23809100Y-84535800D02*
X23444000Y-84535800D01*
X24077100Y-84267800D02*
X24077100Y-74898000D01*
X23809100Y-84535800D02*
X24077100Y-84267800D01*
G04 #@! TA.AperFunction,Conductor*
G36*
X50743039Y-51835685D02*
G01*
X50788794Y-51888489D01*
X50800000Y-51940000D01*
X50800000Y-103762000D01*
X50780315Y-103829039D01*
X50727511Y-103874794D01*
X50676000Y-103886000D01*
X15618000Y-103886000D01*
X15550961Y-103866315D01*
X15505206Y-103813511D01*
X15494000Y-103762000D01*
X15494000Y-101578654D01*
X17341500Y-101578654D01*
X17348011Y-101639202D01*
X17348011Y-101639204D01*
X17394256Y-101763187D01*
X17399111Y-101776204D01*
X17486739Y-101893261D01*
X17603796Y-101980889D01*
X17740799Y-102031989D01*
X17768050Y-102034918D01*
X17801345Y-102038499D01*
X17801362Y-102038500D01*
X20298638Y-102038500D01*
X20298654Y-102038499D01*
X20325692Y-102035591D01*
X20359201Y-102031989D01*
X20496204Y-101980889D01*
X20613261Y-101893261D01*
X20700889Y-101776204D01*
X20751989Y-101639201D01*
X20755591Y-101605692D01*
X20758499Y-101578654D01*
X20758500Y-101578637D01*
X20758500Y-101097140D01*
X20778185Y-101030101D01*
X20830989Y-100984346D01*
X20900147Y-100974402D01*
X20963703Y-101003427D01*
X20997927Y-101051836D01*
X21006378Y-101073369D01*
X21006380Y-101073373D01*
X21026364Y-101107986D01*
X21134413Y-101295131D01*
X21209659Y-101389487D01*
X21294072Y-101495338D01*
X21449121Y-101639201D01*
X21481781Y-101669505D01*
X21693355Y-101813754D01*
X21693360Y-101813756D01*
X21693361Y-101813757D01*
X21693362Y-101813758D01*
X21743700Y-101837999D01*
X21924061Y-101924856D01*
X21924062Y-101924856D01*
X21924065Y-101924858D01*
X22168757Y-102000335D01*
X22168758Y-102000335D01*
X22168761Y-102000336D01*
X22421958Y-102038499D01*
X22421963Y-102038499D01*
X22421966Y-102038500D01*
X22421967Y-102038500D01*
X22678033Y-102038500D01*
X22678034Y-102038500D01*
X22721232Y-102031989D01*
X22931238Y-102000336D01*
X22931239Y-102000335D01*
X22931243Y-102000335D01*
X23175935Y-101924858D01*
X23406646Y-101813754D01*
X23618219Y-101669505D01*
X23805931Y-101495334D01*
X23965587Y-101295131D01*
X24093622Y-101073369D01*
X24187174Y-100835001D01*
X24244155Y-100585353D01*
X24244156Y-100585343D01*
X24263291Y-100330004D01*
X24263291Y-100329995D01*
X24244156Y-100074656D01*
X24244155Y-100074651D01*
X24244155Y-100074647D01*
X24187174Y-99824999D01*
X24093622Y-99586631D01*
X23965587Y-99364869D01*
X23805931Y-99164666D01*
X23805930Y-99164665D01*
X23805927Y-99164661D01*
X23663027Y-99032071D01*
X23618219Y-98990495D01*
X23547932Y-98942574D01*
X23406649Y-98846248D01*
X23406638Y-98846241D01*
X23175940Y-98735144D01*
X23175921Y-98735137D01*
X22931248Y-98659666D01*
X22931238Y-98659663D01*
X22678041Y-98621500D01*
X22678034Y-98621500D01*
X22421966Y-98621500D01*
X22421958Y-98621500D01*
X22168761Y-98659663D01*
X22168755Y-98659665D01*
X21924061Y-98735143D01*
X21693362Y-98846241D01*
X21693361Y-98846242D01*
X21481780Y-98990495D01*
X21294072Y-99164661D01*
X21134413Y-99364869D01*
X21006378Y-99586630D01*
X20997928Y-99608161D01*
X20955112Y-99663375D01*
X20889242Y-99686676D01*
X20821232Y-99670665D01*
X20772673Y-99620427D01*
X20758500Y-99562859D01*
X20758500Y-99081362D01*
X20758499Y-99081345D01*
X20755157Y-99050270D01*
X20751989Y-99020799D01*
X20751946Y-99020685D01*
X20719434Y-98933517D01*
X20700889Y-98883796D01*
X20613261Y-98766739D01*
X20496204Y-98679111D01*
X20481225Y-98673524D01*
X20359203Y-98628011D01*
X20298654Y-98621500D01*
X20298638Y-98621500D01*
X17801362Y-98621500D01*
X17801345Y-98621500D01*
X17740797Y-98628011D01*
X17740795Y-98628011D01*
X17603795Y-98679111D01*
X17486739Y-98766739D01*
X17399111Y-98883795D01*
X17348011Y-99020795D01*
X17348011Y-99020797D01*
X17341500Y-99081345D01*
X17341500Y-101578654D01*
X15494000Y-101578654D01*
X15494000Y-84535800D01*
X22530496Y-84535800D01*
X22550458Y-84725728D01*
X22550459Y-84725731D01*
X22609470Y-84907349D01*
X22609473Y-84907356D01*
X22704960Y-85072744D01*
X22832747Y-85214666D01*
X22987248Y-85326918D01*
X23102038Y-85378025D01*
X23155272Y-85423273D01*
X23175594Y-85490122D01*
X23175600Y-85491303D01*
X23175600Y-94337466D01*
X23173861Y-94353213D01*
X23174132Y-94353239D01*
X23173397Y-94361006D01*
X23175569Y-94430090D01*
X23175600Y-94432038D01*
X23175600Y-94460959D01*
X23176484Y-94467956D01*
X23176942Y-94473779D01*
X23178426Y-94520989D01*
X23178427Y-94520991D01*
X23184122Y-94540595D01*
X23188067Y-94559642D01*
X23190626Y-94579897D01*
X23190627Y-94579900D01*
X23190628Y-94579903D01*
X23208014Y-94623816D01*
X23209906Y-94629344D01*
X23223081Y-94674692D01*
X23233472Y-94692262D01*
X23242032Y-94709735D01*
X23249547Y-94728717D01*
X23277309Y-94766927D01*
X23280516Y-94771810D01*
X23304558Y-94812462D01*
X23304562Y-94812466D01*
X23318989Y-94826893D01*
X23331626Y-94841688D01*
X23343628Y-94858207D01*
X23380031Y-94888322D01*
X23384331Y-94892235D01*
X26794276Y-98302181D01*
X27815181Y-99323086D01*
X27848666Y-99384409D01*
X27851500Y-99410767D01*
X27851500Y-100597537D01*
X27851501Y-100597553D01*
X27862113Y-100701427D01*
X27917884Y-100869735D01*
X27917886Y-100869740D01*
X27922110Y-100876588D01*
X28010970Y-101020652D01*
X28136348Y-101146030D01*
X28287262Y-101239115D01*
X28455574Y-101294887D01*
X28559455Y-101305500D01*
X29860544Y-101305499D01*
X29964426Y-101294887D01*
X30132738Y-101239115D01*
X30283652Y-101146030D01*
X30409030Y-101020652D01*
X30500417Y-100872489D01*
X30552363Y-100825768D01*
X30621326Y-100814545D01*
X30685408Y-100842389D01*
X30695468Y-100851780D01*
X30809228Y-100970476D01*
X30995153Y-101107985D01*
X31201643Y-101212095D01*
X31422757Y-101279811D01*
X31652135Y-101309184D01*
X31883178Y-101299369D01*
X32109238Y-101250649D01*
X32323813Y-101164426D01*
X32520730Y-101043179D01*
X32694324Y-100890398D01*
X32839600Y-100710476D01*
X32853030Y-100686434D01*
X32902906Y-100637509D01*
X32971318Y-100623314D01*
X33036545Y-100648359D01*
X33064019Y-100677470D01*
X33149209Y-100803512D01*
X33149212Y-100803516D01*
X33149217Y-100803523D01*
X33309228Y-100970476D01*
X33495153Y-101107985D01*
X33701643Y-101212095D01*
X33922757Y-101279811D01*
X34152135Y-101309184D01*
X34383178Y-101299369D01*
X34609238Y-101250649D01*
X34823813Y-101164426D01*
X35020730Y-101043179D01*
X35194324Y-100890398D01*
X35339600Y-100710476D01*
X35353030Y-100686434D01*
X35402906Y-100637509D01*
X35471318Y-100623314D01*
X35536545Y-100648359D01*
X35564019Y-100677470D01*
X35649209Y-100803512D01*
X35649212Y-100803516D01*
X35649217Y-100803523D01*
X35809228Y-100970476D01*
X35995153Y-101107985D01*
X36201643Y-101212095D01*
X36422757Y-101279811D01*
X36652135Y-101309184D01*
X36883178Y-101299369D01*
X37109238Y-101250649D01*
X37323813Y-101164426D01*
X37520730Y-101043179D01*
X37694324Y-100890398D01*
X37839600Y-100710476D01*
X37853030Y-100686434D01*
X37902906Y-100637509D01*
X37971318Y-100623314D01*
X38036545Y-100648359D01*
X38064019Y-100677470D01*
X38149209Y-100803512D01*
X38149212Y-100803516D01*
X38149217Y-100803523D01*
X38309228Y-100970476D01*
X38495153Y-101107985D01*
X38701643Y-101212095D01*
X38922757Y-101279811D01*
X39152135Y-101309184D01*
X39383178Y-101299369D01*
X39609238Y-101250649D01*
X39823813Y-101164426D01*
X40020730Y-101043179D01*
X40194324Y-100890398D01*
X40339600Y-100710476D01*
X40357199Y-100678971D01*
X40407079Y-100630044D01*
X40475492Y-100615851D01*
X40540718Y-100640898D01*
X40567029Y-100668321D01*
X40671886Y-100818073D01*
X40671891Y-100818079D01*
X40838917Y-100985105D01*
X41032421Y-101120600D01*
X41246507Y-101220429D01*
X41246516Y-101220433D01*
X41460000Y-101277634D01*
X41460000Y-100230018D01*
X41574801Y-100282446D01*
X41676025Y-100297000D01*
X41743975Y-100297000D01*
X41845199Y-100282446D01*
X41960000Y-100230018D01*
X41960000Y-101277633D01*
X42173483Y-101220433D01*
X42173492Y-101220429D01*
X42355257Y-101135671D01*
X47002192Y-101135671D01*
X47032136Y-101305500D01*
X47032474Y-101307412D01*
X47101547Y-101467539D01*
X47205685Y-101607422D01*
X47205686Y-101607423D01*
X47205688Y-101607425D01*
X47277118Y-101667361D01*
X47339275Y-101719517D01*
X47495116Y-101797783D01*
X47664805Y-101838000D01*
X47664807Y-101838000D01*
X47795448Y-101838000D01*
X47795455Y-101838000D01*
X47925211Y-101822834D01*
X48089084Y-101763189D01*
X48234784Y-101667360D01*
X48354458Y-101540513D01*
X48441653Y-101389487D01*
X48491668Y-101222423D01*
X48501808Y-101048329D01*
X48471526Y-100876588D01*
X48402453Y-100716461D01*
X48298315Y-100576578D01*
X48298312Y-100576576D01*
X48298311Y-100576574D01*
X48164725Y-100464483D01*
X48164723Y-100464482D01*
X48008887Y-100386218D01*
X48008885Y-100386217D01*
X48008884Y-100386217D01*
X47839195Y-100346000D01*
X47708545Y-100346000D01*
X47607623Y-100357795D01*
X47578787Y-100361166D01*
X47578785Y-100361167D01*
X47414917Y-100420810D01*
X47414913Y-100420812D01*
X47269218Y-100516637D01*
X47269217Y-100516638D01*
X47149543Y-100643485D01*
X47149539Y-100643490D01*
X47062347Y-100794511D01*
X47012333Y-100961573D01*
X47012331Y-100961581D01*
X47002192Y-101135670D01*
X47002192Y-101135671D01*
X42355257Y-101135671D01*
X42387577Y-101120600D01*
X42387579Y-101120599D01*
X42581073Y-100985113D01*
X42581079Y-100985108D01*
X42748108Y-100818079D01*
X42748113Y-100818073D01*
X42883599Y-100624579D01*
X42883600Y-100624577D01*
X42983429Y-100410492D01*
X42983433Y-100410483D01*
X43044567Y-100182326D01*
X43044569Y-100182316D01*
X43054221Y-100072000D01*
X42113969Y-100072000D01*
X42146519Y-100021351D01*
X42185000Y-99890295D01*
X42185000Y-99753705D01*
X42146519Y-99622649D01*
X42113969Y-99572000D01*
X43054221Y-99572000D01*
X43044569Y-99461683D01*
X43044567Y-99461673D01*
X42983433Y-99233516D01*
X42983429Y-99233507D01*
X42883600Y-99019422D01*
X42883599Y-99019420D01*
X42748113Y-98825926D01*
X42748108Y-98825920D01*
X42581082Y-98658894D01*
X42387578Y-98523399D01*
X42173492Y-98423570D01*
X42173486Y-98423567D01*
X41960000Y-98366364D01*
X41960000Y-99413981D01*
X41845199Y-99361554D01*
X41743975Y-99347000D01*
X41676025Y-99347000D01*
X41574801Y-99361554D01*
X41460000Y-99413981D01*
X41460000Y-98366364D01*
X41459999Y-98366364D01*
X41246513Y-98423567D01*
X41246507Y-98423570D01*
X41032422Y-98523399D01*
X41032420Y-98523400D01*
X40838926Y-98658886D01*
X40838920Y-98658891D01*
X40671891Y-98825920D01*
X40671890Y-98825922D01*
X40566166Y-98976911D01*
X40511589Y-99020536D01*
X40442090Y-99027728D01*
X40379736Y-98996206D01*
X40361856Y-98975224D01*
X40270790Y-98840486D01*
X40270786Y-98840481D01*
X40270783Y-98840477D01*
X40110772Y-98673524D01*
X39924847Y-98536015D01*
X39924846Y-98536014D01*
X39924844Y-98536013D01*
X39718358Y-98431905D01*
X39590888Y-98392867D01*
X39497243Y-98364189D01*
X39497241Y-98364188D01*
X39497242Y-98364188D01*
X39267859Y-98334815D01*
X39036827Y-98344630D01*
X39036821Y-98344630D01*
X38810759Y-98393351D01*
X38596190Y-98479572D01*
X38399270Y-98600820D01*
X38225679Y-98753599D01*
X38225672Y-98753605D01*
X38080404Y-98933517D01*
X38080397Y-98933527D01*
X38066968Y-98957567D01*
X38017089Y-99006493D01*
X37948675Y-99020685D01*
X37883450Y-98995637D01*
X37855980Y-98966529D01*
X37770790Y-98840487D01*
X37770788Y-98840485D01*
X37770783Y-98840477D01*
X37610772Y-98673524D01*
X37424847Y-98536015D01*
X37424846Y-98536014D01*
X37424844Y-98536013D01*
X37218358Y-98431905D01*
X37090888Y-98392867D01*
X36997243Y-98364189D01*
X36997241Y-98364188D01*
X36997242Y-98364188D01*
X36767859Y-98334815D01*
X36536827Y-98344630D01*
X36536821Y-98344630D01*
X36310759Y-98393351D01*
X36096190Y-98479572D01*
X35899270Y-98600820D01*
X35725679Y-98753599D01*
X35725672Y-98753605D01*
X35580404Y-98933517D01*
X35580397Y-98933527D01*
X35566968Y-98957567D01*
X35517089Y-99006493D01*
X35448675Y-99020685D01*
X35383450Y-98995637D01*
X35355980Y-98966529D01*
X35270790Y-98840487D01*
X35270788Y-98840485D01*
X35270783Y-98840477D01*
X35110772Y-98673524D01*
X35012471Y-98600821D01*
X34924853Y-98536019D01*
X34924851Y-98536018D01*
X34924847Y-98536015D01*
X34911672Y-98529372D01*
X34860675Y-98481615D01*
X34843500Y-98418651D01*
X34843500Y-97518732D01*
X34845239Y-97502980D01*
X34844968Y-97502955D01*
X34845702Y-97495193D01*
X34843531Y-97426095D01*
X34843500Y-97424147D01*
X34843500Y-97395247D01*
X34843500Y-97395244D01*
X34842614Y-97388241D01*
X34842157Y-97382422D01*
X34840674Y-97335213D01*
X34840674Y-97335211D01*
X34834974Y-97315592D01*
X34831031Y-97296546D01*
X34828474Y-97276304D01*
X34828474Y-97276303D01*
X34811081Y-97232374D01*
X34809204Y-97226892D01*
X34796019Y-97181507D01*
X34785620Y-97163924D01*
X34777066Y-97146463D01*
X34769552Y-97127483D01*
X34741793Y-97089276D01*
X34738586Y-97084394D01*
X34714544Y-97043741D01*
X34714543Y-97043740D01*
X34714542Y-97043738D01*
X34700108Y-97029304D01*
X34687471Y-97014509D01*
X34675472Y-96997993D01*
X34675470Y-96997990D01*
X34639073Y-96967881D01*
X34634751Y-96963947D01*
X33726475Y-96055671D01*
X45986192Y-96055671D01*
X46001487Y-96142418D01*
X46016474Y-96227412D01*
X46085547Y-96387539D01*
X46189685Y-96527422D01*
X46189686Y-96527423D01*
X46189688Y-96527425D01*
X46261118Y-96587361D01*
X46323275Y-96639517D01*
X46479116Y-96717783D01*
X46648805Y-96758000D01*
X46648807Y-96758000D01*
X46779448Y-96758000D01*
X46779455Y-96758000D01*
X46909211Y-96742834D01*
X47073084Y-96683189D01*
X47218784Y-96587360D01*
X47338458Y-96460513D01*
X47425653Y-96309487D01*
X47475668Y-96142423D01*
X47480721Y-96055671D01*
X48018192Y-96055671D01*
X48033487Y-96142418D01*
X48048474Y-96227412D01*
X48117547Y-96387539D01*
X48221685Y-96527422D01*
X48221686Y-96527423D01*
X48221688Y-96527425D01*
X48293118Y-96587361D01*
X48355275Y-96639517D01*
X48511116Y-96717783D01*
X48680805Y-96758000D01*
X48680807Y-96758000D01*
X48811448Y-96758000D01*
X48811455Y-96758000D01*
X48941211Y-96742834D01*
X49105084Y-96683189D01*
X49250784Y-96587360D01*
X49370458Y-96460513D01*
X49457653Y-96309487D01*
X49507668Y-96142423D01*
X49517808Y-95968329D01*
X49487526Y-95796588D01*
X49418453Y-95636461D01*
X49314315Y-95496578D01*
X49314312Y-95496576D01*
X49314311Y-95496574D01*
X49180725Y-95384483D01*
X49180723Y-95384482D01*
X49024887Y-95306218D01*
X49024885Y-95306217D01*
X49024884Y-95306217D01*
X48855195Y-95266000D01*
X48724545Y-95266000D01*
X48623623Y-95277795D01*
X48594787Y-95281166D01*
X48594785Y-95281167D01*
X48430917Y-95340810D01*
X48430913Y-95340812D01*
X48285218Y-95436637D01*
X48285217Y-95436638D01*
X48165543Y-95563485D01*
X48165539Y-95563490D01*
X48078347Y-95714511D01*
X48028333Y-95881573D01*
X48028331Y-95881581D01*
X48018192Y-96055670D01*
X48018192Y-96055671D01*
X47480721Y-96055671D01*
X47485808Y-95968329D01*
X47455526Y-95796588D01*
X47386453Y-95636461D01*
X47282315Y-95496578D01*
X47282312Y-95496576D01*
X47282311Y-95496574D01*
X47148725Y-95384483D01*
X47148723Y-95384482D01*
X46992887Y-95306218D01*
X46992885Y-95306217D01*
X46992884Y-95306217D01*
X46823195Y-95266000D01*
X46692545Y-95266000D01*
X46591623Y-95277795D01*
X46562787Y-95281166D01*
X46562785Y-95281167D01*
X46398917Y-95340810D01*
X46398913Y-95340812D01*
X46253218Y-95436637D01*
X46253217Y-95436638D01*
X46133543Y-95563485D01*
X46133539Y-95563490D01*
X46046347Y-95714511D01*
X45996333Y-95881573D01*
X45996331Y-95881581D01*
X45986192Y-96055670D01*
X45986192Y-96055671D01*
X33726475Y-96055671D01*
X29939194Y-92268390D01*
X29905709Y-92207067D01*
X29910693Y-92137375D01*
X29952565Y-92081442D01*
X29964880Y-92073319D01*
X29970240Y-92070223D01*
X29970252Y-92070218D01*
X30124753Y-91957966D01*
X30252540Y-91816044D01*
X30348027Y-91650656D01*
X30407042Y-91469028D01*
X30427004Y-91279100D01*
X30407042Y-91089172D01*
X30348027Y-90907544D01*
X30252540Y-90742156D01*
X30124753Y-90600234D01*
X29970252Y-90487982D01*
X29795788Y-90410306D01*
X29795786Y-90410305D01*
X29608987Y-90370600D01*
X29552266Y-90370600D01*
X29485227Y-90350915D01*
X29464585Y-90334281D01*
X26106420Y-86976115D01*
X26072935Y-86914792D01*
X26070782Y-86901412D01*
X26053342Y-86735472D01*
X25994327Y-86553844D01*
X25898840Y-86388456D01*
X25771053Y-86246534D01*
X25616552Y-86134282D01*
X25442088Y-86056606D01*
X25442086Y-86056605D01*
X25255287Y-86016900D01*
X25064313Y-86016900D01*
X24877514Y-86056605D01*
X24703046Y-86134283D01*
X24639486Y-86180463D01*
X24573679Y-86203943D01*
X24505625Y-86188118D01*
X24456931Y-86138012D01*
X24442600Y-86080145D01*
X24442600Y-84852497D01*
X24462285Y-84785458D01*
X24479438Y-84766113D01*
X24478775Y-84765491D01*
X24498693Y-84744277D01*
X24531493Y-84709349D01*
X24532765Y-84708037D01*
X24553234Y-84687570D01*
X24557563Y-84681987D01*
X24561342Y-84677563D01*
X24593686Y-84643121D01*
X24603523Y-84625224D01*
X24614197Y-84608974D01*
X24626713Y-84592841D01*
X24645472Y-84549489D01*
X24648033Y-84544262D01*
X24670795Y-84502860D01*
X24675874Y-84483074D01*
X24682172Y-84464682D01*
X24690281Y-84445945D01*
X24697669Y-84399297D01*
X24698851Y-84393586D01*
X24710600Y-84347830D01*
X24710600Y-84327414D01*
X24712127Y-84308014D01*
X24715320Y-84287857D01*
X24710875Y-84240833D01*
X24710600Y-84234995D01*
X24710600Y-75599756D01*
X24730285Y-75532717D01*
X24742446Y-75516788D01*
X24816140Y-75434944D01*
X24911627Y-75269556D01*
X24970642Y-75087928D01*
X24990604Y-74898000D01*
X24970642Y-74708072D01*
X24911627Y-74526444D01*
X24816140Y-74361056D01*
X24688353Y-74219134D01*
X24533852Y-74106882D01*
X24359388Y-74029206D01*
X24359386Y-74029205D01*
X24172587Y-73989500D01*
X23981613Y-73989500D01*
X23794814Y-74029205D01*
X23620346Y-74106883D01*
X23465845Y-74219135D01*
X23338059Y-74361057D01*
X23242573Y-74526443D01*
X23242570Y-74526450D01*
X23183559Y-74708068D01*
X23183558Y-74708072D01*
X23163596Y-74898000D01*
X23183558Y-75087928D01*
X23183559Y-75087931D01*
X23242570Y-75269549D01*
X23242573Y-75269556D01*
X23338060Y-75434944D01*
X23403922Y-75508091D01*
X23411749Y-75516784D01*
X23441979Y-75579775D01*
X23443599Y-75599756D01*
X23443600Y-83506675D01*
X23423915Y-83573714D01*
X23371111Y-83619469D01*
X23345381Y-83627965D01*
X23161714Y-83667005D01*
X22987246Y-83744683D01*
X22832745Y-83856935D01*
X22704959Y-83998857D01*
X22609473Y-84164243D01*
X22609470Y-84164250D01*
X22556455Y-84327415D01*
X22550458Y-84345872D01*
X22530496Y-84535800D01*
X15494000Y-84535800D01*
X15494000Y-62778000D01*
X36631225Y-62778000D01*
X36650287Y-62995884D01*
X36650289Y-62995894D01*
X36706894Y-63207150D01*
X36706898Y-63207159D01*
X36799335Y-63405391D01*
X36842873Y-63467571D01*
X36842875Y-63467572D01*
X37402923Y-62907523D01*
X37426507Y-62987844D01*
X37504239Y-63108798D01*
X37612900Y-63202952D01*
X37743685Y-63262680D01*
X37753466Y-63264086D01*
X37196426Y-63821124D01*
X37258611Y-63864666D01*
X37258613Y-63864667D01*
X37456840Y-63957101D01*
X37456849Y-63957105D01*
X37668105Y-64013710D01*
X37668115Y-64013712D01*
X37885999Y-64032775D01*
X37886001Y-64032775D01*
X38103884Y-64013712D01*
X38103894Y-64013710D01*
X38315150Y-63957105D01*
X38315159Y-63957101D01*
X38513387Y-63864666D01*
X38575572Y-63821124D01*
X38018534Y-63264086D01*
X38028315Y-63262680D01*
X38159100Y-63202952D01*
X38267761Y-63108798D01*
X38345493Y-62987844D01*
X38369076Y-62907524D01*
X38929124Y-63467572D01*
X38972666Y-63405387D01*
X39018929Y-63306178D01*
X39065101Y-63253739D01*
X39132295Y-63234587D01*
X39199176Y-63254803D01*
X39243693Y-63306179D01*
X39291944Y-63409654D01*
X39418251Y-63590038D01*
X39573962Y-63745749D01*
X39754346Y-63872056D01*
X39847766Y-63915618D01*
X39900205Y-63961790D01*
X39919357Y-64028984D01*
X39899141Y-64095865D01*
X39847766Y-64140382D01*
X39754346Y-64183944D01*
X39754342Y-64183946D01*
X39573967Y-64310247D01*
X39573960Y-64310252D01*
X39418252Y-64465960D01*
X39418247Y-64465967D01*
X39291946Y-64646342D01*
X39291944Y-64646346D01*
X39198881Y-64845920D01*
X39141885Y-65058627D01*
X39141884Y-65058634D01*
X39122693Y-65277997D01*
X39122693Y-65278000D01*
X39141885Y-65497371D01*
X39198880Y-65710076D01*
X39291944Y-65909654D01*
X39418251Y-66090038D01*
X39573962Y-66245749D01*
X39754346Y-66372056D01*
X39953924Y-66465120D01*
X40166629Y-66522115D01*
X40323322Y-66535823D01*
X40385998Y-66541307D01*
X40386000Y-66541307D01*
X40386002Y-66541307D01*
X40440842Y-66536509D01*
X40605371Y-66522115D01*
X40818076Y-66465120D01*
X41017654Y-66372056D01*
X41198038Y-66245749D01*
X41353749Y-66090038D01*
X41480056Y-65909654D01*
X41573120Y-65710076D01*
X41630115Y-65497371D01*
X41649307Y-65278000D01*
X41630115Y-65058629D01*
X41573120Y-64845924D01*
X41480056Y-64646347D01*
X41480054Y-64646344D01*
X41480053Y-64646342D01*
X41416902Y-64556154D01*
X41353749Y-64465962D01*
X41198038Y-64310251D01*
X41017654Y-64183944D01*
X40924233Y-64140381D01*
X40871794Y-64094210D01*
X40852642Y-64027017D01*
X40872857Y-63960136D01*
X40924234Y-63915618D01*
X41017654Y-63872056D01*
X41198038Y-63745749D01*
X41353749Y-63590038D01*
X41480056Y-63409654D01*
X41523618Y-63316233D01*
X41569790Y-63263794D01*
X41636983Y-63244642D01*
X41703864Y-63264857D01*
X41748381Y-63316233D01*
X41791944Y-63409654D01*
X41918251Y-63590038D01*
X42073962Y-63745749D01*
X42254346Y-63872056D01*
X42453924Y-63965120D01*
X42666629Y-64022115D01*
X42823322Y-64035823D01*
X42885998Y-64041307D01*
X42886000Y-64041307D01*
X42886002Y-64041307D01*
X42940842Y-64036509D01*
X43105371Y-64022115D01*
X43318076Y-63965120D01*
X43517654Y-63872056D01*
X43698038Y-63745749D01*
X43853749Y-63590038D01*
X43980056Y-63409654D01*
X44073120Y-63210076D01*
X44130115Y-62997371D01*
X44149307Y-62778000D01*
X44130115Y-62558629D01*
X44073120Y-62345924D01*
X43980056Y-62146347D01*
X43980054Y-62146344D01*
X43980053Y-62146342D01*
X43916902Y-62056154D01*
X43853749Y-61965962D01*
X43698038Y-61810251D01*
X43517654Y-61683944D01*
X43517650Y-61683942D01*
X43318081Y-61590882D01*
X43318079Y-61590881D01*
X43318076Y-61590880D01*
X43136735Y-61542289D01*
X43105372Y-61533885D01*
X43105365Y-61533884D01*
X42886002Y-61514693D01*
X42885998Y-61514693D01*
X42666634Y-61533884D01*
X42666627Y-61533885D01*
X42453920Y-61590881D01*
X42254346Y-61683944D01*
X42254342Y-61683946D01*
X42073967Y-61810247D01*
X42073960Y-61810252D01*
X41918252Y-61965960D01*
X41918247Y-61965967D01*
X41791946Y-62146342D01*
X41791944Y-62146346D01*
X41748382Y-62239766D01*
X41702210Y-62292205D01*
X41635016Y-62311357D01*
X41568135Y-62291141D01*
X41523618Y-62239766D01*
X41482046Y-62150615D01*
X41480056Y-62146347D01*
X41480054Y-62146344D01*
X41480053Y-62146342D01*
X41416902Y-62056154D01*
X41353749Y-61965962D01*
X41198038Y-61810251D01*
X41017654Y-61683944D01*
X40924233Y-61640381D01*
X40871794Y-61594210D01*
X40852642Y-61527017D01*
X40872857Y-61460136D01*
X40924234Y-61415618D01*
X41017654Y-61372056D01*
X41198038Y-61245749D01*
X41353749Y-61090038D01*
X41480056Y-60909654D01*
X41573120Y-60710076D01*
X41630115Y-60497371D01*
X41649307Y-60278000D01*
X41630115Y-60058629D01*
X41573120Y-59845924D01*
X41480056Y-59646347D01*
X41480054Y-59646344D01*
X41480053Y-59646342D01*
X41416902Y-59556154D01*
X41353749Y-59465962D01*
X41198038Y-59310251D01*
X41017654Y-59183944D01*
X41017650Y-59183942D01*
X40818081Y-59090882D01*
X40818079Y-59090881D01*
X40818076Y-59090880D01*
X40666777Y-59050339D01*
X40605372Y-59033885D01*
X40605365Y-59033884D01*
X40386002Y-59014693D01*
X40385998Y-59014693D01*
X40166634Y-59033884D01*
X40166627Y-59033885D01*
X39953920Y-59090881D01*
X39754346Y-59183944D01*
X39754342Y-59183946D01*
X39573967Y-59310247D01*
X39573960Y-59310252D01*
X39418252Y-59465960D01*
X39418247Y-59465967D01*
X39291946Y-59646342D01*
X39291944Y-59646346D01*
X39198881Y-59845920D01*
X39141885Y-60058627D01*
X39141884Y-60058634D01*
X39122693Y-60277997D01*
X39122693Y-60278000D01*
X39141885Y-60497371D01*
X39198880Y-60710076D01*
X39291944Y-60909654D01*
X39418251Y-61090038D01*
X39573962Y-61245749D01*
X39754346Y-61372056D01*
X39847766Y-61415618D01*
X39900205Y-61461790D01*
X39919357Y-61528984D01*
X39899141Y-61595865D01*
X39847766Y-61640382D01*
X39754346Y-61683944D01*
X39754342Y-61683946D01*
X39573967Y-61810247D01*
X39573960Y-61810252D01*
X39418252Y-61965960D01*
X39418247Y-61965967D01*
X39291946Y-62146342D01*
X39291944Y-62146346D01*
X39243693Y-62249822D01*
X39197521Y-62302261D01*
X39130327Y-62321413D01*
X39063446Y-62301197D01*
X39018929Y-62249822D01*
X38972668Y-62150615D01*
X38929123Y-62088428D01*
X38369076Y-62648475D01*
X38345493Y-62568156D01*
X38267761Y-62447202D01*
X38159100Y-62353048D01*
X38028315Y-62293320D01*
X38018533Y-62291913D01*
X38575572Y-61734874D01*
X38575571Y-61734873D01*
X38513391Y-61691335D01*
X38315159Y-61598898D01*
X38315150Y-61598894D01*
X38103894Y-61542289D01*
X38103884Y-61542287D01*
X37886001Y-61523225D01*
X37885999Y-61523225D01*
X37668115Y-61542287D01*
X37668105Y-61542289D01*
X37456849Y-61598894D01*
X37456840Y-61598898D01*
X37258614Y-61691332D01*
X37258612Y-61691333D01*
X37196428Y-61734875D01*
X37196427Y-61734875D01*
X37753467Y-62291913D01*
X37743685Y-62293320D01*
X37612900Y-62353048D01*
X37504239Y-62447202D01*
X37426507Y-62568156D01*
X37402923Y-62648475D01*
X36842875Y-62088427D01*
X36842875Y-62088428D01*
X36799333Y-62150612D01*
X36799332Y-62150614D01*
X36706898Y-62348840D01*
X36706894Y-62348849D01*
X36650289Y-62560105D01*
X36650287Y-62560115D01*
X36631225Y-62777999D01*
X36631225Y-62778000D01*
X15494000Y-62778000D01*
X15494000Y-51940000D01*
X15513685Y-51872961D01*
X15566489Y-51827206D01*
X15618000Y-51816000D01*
X50676000Y-51816000D01*
X50743039Y-51835685D01*
G37*
G04 #@! TD.AperFunction*
M02*
