M48
; DRILL file {KiCad 7.0.5} date Mon 03 Jul 2023 11:34:05 AM CEST
; FORMAT={-:-/ absolute / inch / decimal}
; #@! TF.CreationDate,2023-07-03T11:34:05+02:00
; #@! TF.GenerationSoftware,Kicad,Pcbnew,7.0.5
; #@! TF.FileFunction,Plated,1,2,PTH
FMAT,2
INCH
; #@! TA.AperFunction,Plated,PTH,ViaDrill
T1C0.0157
; #@! TA.AperFunction,Plated,PTH,ComponentDrill
T2C0.0374
; #@! TA.AperFunction,Plated,PTH,ComponentDrill
T3C0.0394
; #@! TA.AperFunction,Plated,PTH,ComponentDrill
T4C0.0472
%
G90
G05
T1
X0.65Y-3.46
X0.65Y-4.03
X0.66Y-2.09
X0.66Y-2.84
X0.7Y-3.21
X0.76Y-3.02
X0.923Y-3.3282
X0.9479Y-2.9487
X0.9662Y-3.4554
X0.97Y-2.84
X0.9905Y-3.4223
X1.01Y-4.03
X1.0283Y-3.3179
X1.13Y-2.93
X1.1619Y-3.5937
X1.28Y-3.4
X1.3Y-2.09
X1.3Y-2.22
X1.4Y-3.62
X1.43Y-3.18
X1.5Y-2.95
X1.58Y-3.79
X1.63Y-3.09
X1.68Y-3.63
X1.94Y-2.09
X1.95Y-2.95
X1.96Y-3.64
X1.96Y-4.03
T2
X1.15Y-3.93
X1.2484Y-3.93
X1.3469Y-3.93
X1.4453Y-3.93
X1.5437Y-3.93
X1.6421Y-3.93
T3
X1.4916Y-2.4716
X1.59Y-2.3731
X1.59Y-2.4716
X1.59Y-2.57
X1.6884Y-2.4716
T4
X0.75Y-3.95
X0.8878Y-3.95
T0
M30
