G04 #@! TF.GenerationSoftware,KiCad,Pcbnew,7.0.5*
G04 #@! TF.CreationDate,2023-07-03T11:33:57+02:00*
G04 #@! TF.ProjectId,STM32CAN,53544d33-3243-4414-9e2e-6b696361645f,rev?*
G04 #@! TF.SameCoordinates,Original*
G04 #@! TF.FileFunction,Copper,L1,Top*
G04 #@! TF.FilePolarity,Positive*
%FSLAX46Y46*%
G04 Gerber Fmt 4.6, Leading zero omitted, Abs format (unit mm)*
G04 Created by KiCad (PCBNEW 7.0.5) date 2023-07-03 11:33:57*
%MOMM*%
%LPD*%
G01*
G04 APERTURE LIST*
G04 Aperture macros list*
%AMRoundRect*
0 Rectangle with rounded corners*
0 $1 Rounding radius*
0 $2 $3 $4 $5 $6 $7 $8 $9 X,Y pos of 4 corners*
0 Add a 4 corners polygon primitive as box body*
4,1,4,$2,$3,$4,$5,$6,$7,$8,$9,$2,$3,0*
0 Add four circle primitives for the rounded corners*
1,1,$1+$1,$2,$3*
1,1,$1+$1,$4,$5*
1,1,$1+$1,$6,$7*
1,1,$1+$1,$8,$9*
0 Add four rect primitives between the rounded corners*
20,1,$1+$1,$2,$3,$4,$5,0*
20,1,$1+$1,$4,$5,$6,$7,0*
20,1,$1+$1,$6,$7,$8,$9,0*
20,1,$1+$1,$8,$9,$2,$3,0*%
G04 Aperture macros list end*
G04 #@! TA.AperFunction,SMDPad,CuDef*
%ADD10C,0.787000*%
G04 #@! TD*
G04 #@! TA.AperFunction,SMDPad,CuDef*
%ADD11RoundRect,0.218750X0.256250X-0.218750X0.256250X0.218750X-0.256250X0.218750X-0.256250X-0.218750X0*%
G04 #@! TD*
G04 #@! TA.AperFunction,SMDPad,CuDef*
%ADD12RoundRect,0.218750X-0.256250X0.218750X-0.256250X-0.218750X0.256250X-0.218750X0.256250X0.218750X0*%
G04 #@! TD*
G04 #@! TA.AperFunction,SMDPad,CuDef*
%ADD13RoundRect,0.218750X0.218750X0.256250X-0.218750X0.256250X-0.218750X-0.256250X0.218750X-0.256250X0*%
G04 #@! TD*
G04 #@! TA.AperFunction,SMDPad,CuDef*
%ADD14R,0.700000X0.450000*%
G04 #@! TD*
G04 #@! TA.AperFunction,SMDPad,CuDef*
%ADD15RoundRect,0.218750X-0.218750X-0.256250X0.218750X-0.256250X0.218750X0.256250X-0.218750X0.256250X0*%
G04 #@! TD*
G04 #@! TA.AperFunction,SMDPad,CuDef*
%ADD16R,1.450000X0.450000*%
G04 #@! TD*
G04 #@! TA.AperFunction,SMDPad,CuDef*
%ADD17RoundRect,0.150000X0.150000X-0.825000X0.150000X0.825000X-0.150000X0.825000X-0.150000X-0.825000X0*%
G04 #@! TD*
G04 #@! TA.AperFunction,SMDPad,CuDef*
%ADD18R,1.700000X2.400000*%
G04 #@! TD*
G04 #@! TA.AperFunction,SMDPad,CuDef*
%ADD19RoundRect,0.112500X-0.187500X-0.112500X0.187500X-0.112500X0.187500X0.112500X-0.187500X0.112500X0*%
G04 #@! TD*
G04 #@! TA.AperFunction,ComponentPad*
%ADD20RoundRect,0.250000X-0.600000X-0.725000X0.600000X-0.725000X0.600000X0.725000X-0.600000X0.725000X0*%
G04 #@! TD*
G04 #@! TA.AperFunction,ComponentPad*
%ADD21O,1.700000X1.950000*%
G04 #@! TD*
G04 #@! TA.AperFunction,SMDPad,CuDef*
%ADD22RoundRect,0.200000X0.200000X0.275000X-0.200000X0.275000X-0.200000X-0.275000X0.200000X-0.275000X0*%
G04 #@! TD*
G04 #@! TA.AperFunction,ComponentPad*
%ADD23R,2.400000X2.400000*%
G04 #@! TD*
G04 #@! TA.AperFunction,ComponentPad*
%ADD24C,2.400000*%
G04 #@! TD*
G04 #@! TA.AperFunction,SMDPad,CuDef*
%ADD25RoundRect,0.041300X-0.943700X-0.253700X0.943700X-0.253700X0.943700X0.253700X-0.943700X0.253700X0*%
G04 #@! TD*
G04 #@! TA.AperFunction,SMDPad,CuDef*
%ADD26R,2.500000X2.500000*%
G04 #@! TD*
G04 #@! TA.AperFunction,SMDPad,CuDef*
%ADD27R,2.400000X0.740000*%
G04 #@! TD*
G04 #@! TA.AperFunction,ComponentPad*
%ADD28C,1.500000*%
G04 #@! TD*
G04 #@! TA.AperFunction,ViaPad*
%ADD29C,0.800000*%
G04 #@! TD*
G04 #@! TA.AperFunction,Conductor*
%ADD30C,0.250000*%
G04 #@! TD*
G04 APERTURE END LIST*
D10*
X48387000Y-99822000D03*
X47117000Y-99822000D03*
X48387000Y-98552000D03*
X47117000Y-98552000D03*
X48387000Y-97282000D03*
X47117000Y-97282000D03*
D11*
X16891000Y-84947500D03*
X16891000Y-83372500D03*
X18796000Y-84947500D03*
X18796000Y-83372500D03*
X30226000Y-84465000D03*
X30226000Y-82890000D03*
X32131000Y-84465000D03*
X32131000Y-82890000D03*
X34036000Y-84465000D03*
X34036000Y-82890000D03*
D12*
X25019000Y-76413000D03*
X25019000Y-77988000D03*
X21336000Y-76387500D03*
X21336000Y-77962500D03*
D13*
X40437000Y-92140000D03*
X38862000Y-92140000D03*
X40437000Y-94680000D03*
X38862000Y-94680000D03*
D14*
X38989000Y-78359000D03*
X38989000Y-77059000D03*
X36989000Y-77709000D03*
D15*
X17221000Y-79080000D03*
X18796000Y-79080000D03*
D16*
X21561000Y-80600000D03*
X21561000Y-81250000D03*
X21561000Y-81900000D03*
X21561000Y-82550000D03*
X21561000Y-83200000D03*
X21561000Y-83850000D03*
X21561000Y-84500000D03*
X21561000Y-85150000D03*
X21561000Y-85800000D03*
X21561000Y-86450000D03*
X27461000Y-86450000D03*
X27461000Y-85800000D03*
X27461000Y-85150000D03*
X27461000Y-84500000D03*
X27461000Y-83850000D03*
X27461000Y-83200000D03*
X27461000Y-82550000D03*
X27461000Y-81900000D03*
X27461000Y-81250000D03*
X27461000Y-80600000D03*
D17*
X37592000Y-88900000D03*
X38862000Y-88900000D03*
X40132000Y-88900000D03*
X41402000Y-88900000D03*
X41402000Y-83950000D03*
X40132000Y-83950000D03*
X38862000Y-83950000D03*
X37592000Y-83950000D03*
D18*
X33346000Y-77175000D03*
X29646000Y-77175000D03*
D19*
X18254000Y-54610000D03*
X20354000Y-54610000D03*
D20*
X29210000Y-99822000D03*
D21*
X31710000Y-99822000D03*
X34210000Y-99822000D03*
X36710000Y-99822000D03*
X39210000Y-99822000D03*
X41710000Y-99822000D03*
D22*
X22606000Y-74422000D03*
X20956000Y-74422000D03*
D15*
X17246500Y-74422000D03*
X18821500Y-74422000D03*
D23*
X19050000Y-100330000D03*
D24*
X22550000Y-100330000D03*
D25*
X17845000Y-90805000D03*
X17845000Y-92075000D03*
X17845000Y-93345000D03*
X17845000Y-94615000D03*
X22795000Y-94615000D03*
X22795000Y-93345000D03*
X22795000Y-92075000D03*
X22795000Y-90805000D03*
D26*
X18114000Y-58508000D03*
X28114000Y-58508000D03*
X28114000Y-69508000D03*
X18114000Y-69508000D03*
D27*
X27432000Y-89154000D03*
X31332000Y-89154000D03*
X27432000Y-90424000D03*
X31332000Y-90424000D03*
X27432000Y-91694000D03*
X31332000Y-91694000D03*
X27432000Y-92964000D03*
X31332000Y-92964000D03*
X27432000Y-94234000D03*
X31332000Y-94234000D03*
D28*
X42886000Y-62778000D03*
X40386000Y-60278000D03*
X37886000Y-62778000D03*
X40386000Y-65278000D03*
X40386000Y-62778000D03*
D29*
X28702000Y-74422000D03*
X19304000Y-76708000D03*
X17780000Y-81534000D03*
X16510000Y-102362000D03*
X16510000Y-87884000D03*
X16764000Y-72136000D03*
X24638000Y-72136000D03*
X38100000Y-74930000D03*
X33020000Y-53086000D03*
X33020000Y-56388000D03*
X16764000Y-53086000D03*
X49276000Y-53086000D03*
X42672000Y-92202000D03*
X41402000Y-78486000D03*
X49530000Y-74930000D03*
X49784000Y-92456000D03*
X49784000Y-102362000D03*
X25654000Y-102362000D03*
X40132000Y-96266000D03*
X36322000Y-80772000D03*
X32512000Y-86360000D03*
X35560000Y-91948000D03*
X24542500Y-87767600D03*
X29513500Y-91279100D03*
X25159800Y-86925400D03*
X26118000Y-84275000D03*
X23444000Y-84535800D03*
X24077100Y-74898000D03*
D30*
X18990700Y-79080000D02*
X18796000Y-79080000D01*
X20510700Y-80600000D02*
X18990700Y-79080000D01*
X21561000Y-80600000D02*
X20510700Y-80600000D01*
X20510700Y-94066400D02*
X20510700Y-85800000D01*
X22531600Y-96087300D02*
X20510700Y-94066400D01*
X34814200Y-96087300D02*
X22531600Y-96087300D01*
X38034700Y-99307800D02*
X34814200Y-96087300D01*
X38034700Y-99822000D02*
X38034700Y-99307800D01*
X39210000Y-99822000D02*
X38034700Y-99822000D01*
X21561000Y-85800000D02*
X20510700Y-85800000D01*
X36710000Y-99822000D02*
X35534700Y-99822000D01*
X21561000Y-85150000D02*
X20510700Y-85150000D01*
X35534700Y-99307800D02*
X35534700Y-99822000D01*
X33214900Y-96988000D02*
X35534700Y-99307800D01*
X22775800Y-96988000D02*
X33214900Y-96988000D01*
X20047500Y-94259700D02*
X22775800Y-96988000D01*
X20047500Y-85613200D02*
X20047500Y-94259700D01*
X20510700Y-85150000D02*
X20047500Y-85613200D01*
X21561000Y-84500000D02*
X22611300Y-84500000D01*
X22611300Y-85836400D02*
X22611300Y-84500000D01*
X24542500Y-87767600D02*
X22611300Y-85836400D01*
X19597200Y-84763500D02*
X20510700Y-83850000D01*
X19597200Y-94446300D02*
X19597200Y-84763500D01*
X23490000Y-98339100D02*
X19597200Y-94446300D01*
X29933300Y-98339100D02*
X23490000Y-98339100D01*
X30534700Y-98940500D02*
X29933300Y-98339100D01*
X30534700Y-99822000D02*
X30534700Y-98940500D01*
X31710000Y-99822000D02*
X30534700Y-99822000D01*
X21561000Y-83850000D02*
X20510700Y-83850000D01*
X27461000Y-81900000D02*
X26410700Y-81900000D01*
X26410700Y-80225100D02*
X26410700Y-81900000D01*
X26586200Y-80049600D02*
X26410700Y-80225100D01*
X32468600Y-80049600D02*
X26586200Y-80049600D01*
X35431300Y-83012300D02*
X32468600Y-80049600D01*
X35431300Y-86739400D02*
X35431300Y-83012300D01*
X35431400Y-86739400D02*
X35431300Y-86739400D01*
X37592000Y-88900000D02*
X35431400Y-86739400D01*
X26400400Y-82550000D02*
X27461000Y-82550000D01*
X25957500Y-82107100D02*
X26400400Y-82550000D01*
X25957500Y-80041400D02*
X25957500Y-82107100D01*
X26422900Y-79576000D02*
X25957500Y-80041400D01*
X32631900Y-79576000D02*
X26422900Y-79576000D01*
X36826300Y-83770400D02*
X32631900Y-79576000D01*
X36826300Y-84929700D02*
X36826300Y-83770400D01*
X38208000Y-86311400D02*
X36826300Y-84929700D01*
X39232000Y-86311400D02*
X38208000Y-86311400D01*
X41402000Y-88481400D02*
X39232000Y-86311400D01*
X41402000Y-88900000D02*
X41402000Y-88481400D01*
X21561000Y-82550000D02*
X22611300Y-82550000D01*
X31332000Y-94234000D02*
X29806700Y-94234000D01*
X25159800Y-85098500D02*
X25159800Y-86925400D01*
X22611300Y-82550000D02*
X25159800Y-85098500D01*
X29806700Y-91572300D02*
X29513500Y-91279100D01*
X29806700Y-94234000D02*
X29806700Y-91572300D01*
X28961700Y-81700400D02*
X28511300Y-81250000D01*
X28961700Y-88309000D02*
X28961700Y-81700400D01*
X29806700Y-89154000D02*
X28961700Y-88309000D01*
X31332000Y-89154000D02*
X29806700Y-89154000D01*
X27461000Y-81250000D02*
X28511300Y-81250000D01*
X29418600Y-81507300D02*
X28511300Y-80600000D01*
X29418600Y-85170300D02*
X29418600Y-81507300D01*
X32857300Y-88609000D02*
X29418600Y-85170300D01*
X32857300Y-90424000D02*
X32857300Y-88609000D01*
X31332000Y-90424000D02*
X32857300Y-90424000D01*
X27461000Y-80600000D02*
X28511300Y-80600000D01*
X17398900Y-93345000D02*
X17845000Y-93345000D01*
X16509700Y-94234200D02*
X17398900Y-93345000D01*
X16509700Y-95000800D02*
X16509700Y-94234200D01*
X17086100Y-95577200D02*
X16509700Y-95000800D01*
X17797200Y-95577200D02*
X17086100Y-95577200D01*
X22550000Y-100330000D02*
X17797200Y-95577200D01*
X16023100Y-95777800D02*
X19050000Y-98804700D01*
X16023100Y-93378500D02*
X16023100Y-95777800D01*
X17326600Y-92075000D02*
X16023100Y-93378500D01*
X17845000Y-92075000D02*
X17326600Y-92075000D01*
X19050000Y-100330000D02*
X19050000Y-98804700D01*
X38989000Y-77059000D02*
X38989000Y-76508700D01*
X38989000Y-77059000D02*
X38989000Y-77609300D01*
X40386000Y-75111700D02*
X38989000Y-76508700D01*
X40386000Y-65278000D02*
X40386000Y-75111700D01*
X38679500Y-77609300D02*
X38989000Y-77609300D01*
X38313600Y-77975200D02*
X38679500Y-77609300D01*
X38313600Y-83401600D02*
X38313600Y-77975200D01*
X38862000Y-83950000D02*
X38313600Y-83401600D01*
X21484400Y-86526600D02*
X21561000Y-86450000D01*
X21484400Y-92526000D02*
X21484400Y-86526600D01*
X22303400Y-93345000D02*
X21484400Y-92526000D01*
X22795000Y-93345000D02*
X22303400Y-93345000D01*
X27461000Y-85800000D02*
X26410700Y-85800000D01*
X25885100Y-86325600D02*
X26410700Y-85800000D01*
X25885100Y-87810600D02*
X25885100Y-86325600D01*
X24940300Y-88755400D02*
X25885100Y-87810600D01*
X24940300Y-90418800D02*
X24940300Y-88755400D01*
X23284100Y-92075000D02*
X24940300Y-90418800D01*
X22795000Y-92075000D02*
X23284100Y-92075000D01*
X26410700Y-88004300D02*
X26410700Y-86450000D01*
X25423500Y-88991500D02*
X26410700Y-88004300D01*
X25423500Y-92516200D02*
X25423500Y-88991500D01*
X23324700Y-94615000D02*
X25423500Y-92516200D01*
X22795000Y-94615000D02*
X23324700Y-94615000D01*
X27461000Y-86450000D02*
X26410700Y-86450000D01*
X40132000Y-80052300D02*
X38989000Y-78909300D01*
X40132000Y-83950000D02*
X40132000Y-80052300D01*
X38989000Y-78359000D02*
X38989000Y-78909300D01*
X41479000Y-75869000D02*
X38989000Y-78359000D01*
X41479000Y-63871000D02*
X41479000Y-75869000D01*
X40386000Y-62778000D02*
X41479000Y-63871000D01*
X21779800Y-75248200D02*
X22606000Y-74422000D01*
X19647700Y-75248200D02*
X21779800Y-75248200D01*
X18821500Y-74422000D02*
X19647700Y-75248200D01*
X34718000Y-54610000D02*
X20354000Y-54610000D01*
X40386000Y-60278000D02*
X34718000Y-54610000D01*
X18254000Y-56792700D02*
X18254000Y-54610000D01*
X18114000Y-56932700D02*
X18254000Y-56792700D01*
X18114000Y-58508000D02*
X18114000Y-56932700D01*
X29646000Y-77175000D02*
X28470700Y-77175000D01*
X22170300Y-76387500D02*
X21336000Y-76387500D01*
X22917700Y-75640100D02*
X22170300Y-76387500D01*
X26935800Y-75640100D02*
X22917700Y-75640100D01*
X28470700Y-77175000D02*
X26935800Y-75640100D01*
X20319500Y-81900000D02*
X21561000Y-81900000D01*
X18008500Y-79589000D02*
X20319500Y-81900000D01*
X18008500Y-78569300D02*
X18008500Y-79589000D01*
X18311400Y-78266400D02*
X18008500Y-78569300D01*
X19322000Y-78266400D02*
X18311400Y-78266400D01*
X19786300Y-78730700D02*
X19322000Y-78266400D01*
X21813500Y-78730700D02*
X19786300Y-78730700D01*
X22170300Y-78373900D02*
X21813500Y-78730700D01*
X22170300Y-76387500D02*
X22170300Y-78373900D01*
X33346000Y-77175000D02*
X32170700Y-77175000D01*
X21561000Y-81250000D02*
X22611300Y-81250000D01*
X22611300Y-79114800D02*
X22611300Y-81250000D01*
X25166100Y-76560000D02*
X22611300Y-79114800D01*
X27306400Y-78700400D02*
X25166100Y-76560000D01*
X30645300Y-78700400D02*
X27306400Y-78700400D01*
X32170700Y-77175000D02*
X30645300Y-78700400D01*
X25166100Y-76560000D02*
X25019000Y-76413000D01*
X38862000Y-92140000D02*
X38862000Y-94680000D01*
X32131000Y-84465000D02*
X30226000Y-84465000D01*
X28114000Y-58508000D02*
X28901700Y-58508000D01*
X28901700Y-58508000D02*
X28901700Y-62766800D01*
X34036000Y-84465000D02*
X32131000Y-84465000D01*
X26410700Y-83982300D02*
X26410700Y-83850000D01*
X26118000Y-84275000D02*
X26410700Y-83982300D01*
X27461000Y-83850000D02*
X26410700Y-83850000D01*
X16079700Y-84136200D02*
X16891000Y-84947500D01*
X16079700Y-80221300D02*
X16079700Y-84136200D01*
X17221000Y-79080000D02*
X16079700Y-80221300D01*
X16891000Y-84947500D02*
X17617900Y-85674300D01*
X17617800Y-85674400D02*
X17617900Y-85674300D01*
X17617800Y-90577800D02*
X17617800Y-85674400D01*
X17845000Y-90805000D02*
X17617800Y-90577800D01*
X18344700Y-84947500D02*
X18796000Y-84947500D01*
X17617900Y-85674300D02*
X18344700Y-84947500D01*
X36989000Y-77709000D02*
X36989000Y-77158700D01*
X36989000Y-62778000D02*
X36989000Y-77158700D01*
X37886000Y-62778000D02*
X36989000Y-62778000D01*
X28912900Y-62778000D02*
X28901700Y-62766800D01*
X36989000Y-62778000D02*
X28912900Y-62778000D01*
X25019000Y-83176000D02*
X26118000Y-84275000D01*
X25019000Y-77988000D02*
X25019000Y-83176000D01*
X38862000Y-92140000D02*
X38862000Y-90694700D01*
X38862000Y-90694700D02*
X38862000Y-88900000D01*
X27432000Y-91694000D02*
X27432000Y-90424000D01*
X34036000Y-90694700D02*
X38862000Y-90694700D01*
X34036000Y-84465000D02*
X34036000Y-90694700D01*
X29652600Y-94929300D02*
X28957300Y-94234000D01*
X32669900Y-94929300D02*
X29652600Y-94929300D01*
X34036000Y-93563200D02*
X32669900Y-94929300D01*
X34036000Y-90694700D02*
X34036000Y-93563200D01*
X27432000Y-94234000D02*
X28844700Y-94234000D01*
X28844700Y-94234000D02*
X28957300Y-94234000D01*
X28200600Y-91694000D02*
X27432000Y-91694000D01*
X28957300Y-92450700D02*
X28200600Y-91694000D01*
X28957300Y-94234000D02*
X28957300Y-92450700D01*
X38862000Y-96974000D02*
X38862000Y-94680000D01*
X41710000Y-99822000D02*
X38862000Y-96974000D01*
X28901700Y-62766800D02*
X17246500Y-74422000D01*
X17246500Y-74422000D02*
X17246500Y-77803700D01*
X17221000Y-77829200D02*
X17246500Y-77803700D01*
X17221000Y-79080000D02*
X17221000Y-77829200D01*
X21177200Y-77803700D02*
X21336000Y-77962500D01*
X17246500Y-77803700D02*
X21177200Y-77803700D01*
X40437000Y-92140000D02*
X40437000Y-94680000D01*
X32131000Y-82890000D02*
X30226000Y-82890000D01*
X34036000Y-82890000D02*
X32131000Y-82890000D01*
X19048300Y-94615000D02*
X17845000Y-94615000D01*
X24255300Y-99822000D02*
X19048300Y-94615000D01*
X29210000Y-99822000D02*
X24255300Y-99822000D01*
X40389700Y-99205000D02*
X40389700Y-101172200D01*
X36665900Y-95481200D02*
X40389700Y-99205000D01*
X26645000Y-95481200D02*
X36665900Y-95481200D01*
X25906700Y-94742900D02*
X26645000Y-95481200D01*
X25906700Y-89154000D02*
X25906700Y-94742900D01*
X42229700Y-101172200D02*
X40389700Y-101172200D01*
X42895200Y-100506700D02*
X42229700Y-101172200D01*
X42895200Y-97138200D02*
X42895200Y-100506700D01*
X40437000Y-94680000D02*
X42895200Y-97138200D01*
X30560200Y-101172200D02*
X29210000Y-99822000D01*
X40389700Y-101172200D02*
X30560200Y-101172200D01*
X21035900Y-83200000D02*
X20510700Y-83200000D01*
X21035900Y-83200000D02*
X21561000Y-83200000D01*
X23444000Y-84032700D02*
X22611300Y-83200000D01*
X23444000Y-84535800D02*
X23444000Y-84032700D01*
X21561000Y-83200000D02*
X22611300Y-83200000D01*
X27432000Y-89154000D02*
X26669400Y-89154000D01*
X26669400Y-89154000D02*
X25906700Y-89154000D01*
X28511300Y-87312100D02*
X28511300Y-83200000D01*
X26669400Y-89154000D02*
X28511300Y-87312100D01*
X27461000Y-83200000D02*
X28511300Y-83200000D01*
X28114000Y-69508000D02*
X28114000Y-71083300D01*
X40132000Y-91835000D02*
X40132000Y-88900000D01*
X40437000Y-92140000D02*
X40132000Y-91835000D01*
X34847300Y-83701300D02*
X34036000Y-82890000D01*
X34847300Y-87852200D02*
X34847300Y-83701300D01*
X37217700Y-90222600D02*
X34847300Y-87852200D01*
X37972800Y-90222600D02*
X37217700Y-90222600D01*
X38227000Y-89968400D02*
X37972800Y-90222600D01*
X38227000Y-87833300D02*
X38227000Y-89968400D01*
X38463200Y-87597100D02*
X38227000Y-87833300D01*
X39207200Y-87597100D02*
X38463200Y-87597100D01*
X40132000Y-88521900D02*
X39207200Y-87597100D01*
X40132000Y-88900000D02*
X40132000Y-88521900D01*
X25543800Y-73653500D02*
X28114000Y-71083300D01*
X24077100Y-73653500D02*
X25543800Y-73653500D01*
X21778800Y-73599200D02*
X20956000Y-74422000D01*
X24022800Y-73599200D02*
X21778800Y-73599200D01*
X24077100Y-73653500D02*
X24022800Y-73599200D01*
X18968500Y-83200000D02*
X18796000Y-83372500D01*
X20510700Y-83200000D02*
X18968500Y-83200000D01*
X18796000Y-83372500D02*
X16891000Y-83372500D01*
X24077100Y-73653500D02*
X24077100Y-74898000D01*
G04 #@! TA.AperFunction,Conductor*
G36*
X50743039Y-51835685D02*
G01*
X50788794Y-51888489D01*
X50800000Y-51940000D01*
X50800000Y-103762000D01*
X50780315Y-103829039D01*
X50727511Y-103874794D01*
X50676000Y-103886000D01*
X15618000Y-103886000D01*
X15550961Y-103866315D01*
X15505206Y-103813511D01*
X15494000Y-103762000D01*
X15494000Y-96443966D01*
X15513685Y-96376927D01*
X15566489Y-96331172D01*
X15635647Y-96321228D01*
X15699203Y-96350253D01*
X15705681Y-96356285D01*
X17776695Y-98427300D01*
X17810180Y-98488623D01*
X17805196Y-98558315D01*
X17763324Y-98614248D01*
X17732349Y-98631162D01*
X17603795Y-98679111D01*
X17486739Y-98766739D01*
X17399111Y-98883795D01*
X17348011Y-99020795D01*
X17348011Y-99020797D01*
X17341500Y-99081345D01*
X17341500Y-101578654D01*
X17348011Y-101639202D01*
X17348011Y-101639204D01*
X17394256Y-101763187D01*
X17399111Y-101776204D01*
X17486739Y-101893261D01*
X17603796Y-101980889D01*
X17740799Y-102031989D01*
X17768050Y-102034918D01*
X17801345Y-102038499D01*
X17801362Y-102038500D01*
X20298638Y-102038500D01*
X20298654Y-102038499D01*
X20325692Y-102035591D01*
X20359201Y-102031989D01*
X20496204Y-101980889D01*
X20613261Y-101893261D01*
X20700889Y-101776204D01*
X20746555Y-101653768D01*
X20751988Y-101639204D01*
X20751988Y-101639203D01*
X20751989Y-101639201D01*
X20758438Y-101579218D01*
X20758499Y-101578654D01*
X20758500Y-101578637D01*
X20758500Y-101097140D01*
X20778185Y-101030101D01*
X20830989Y-100984346D01*
X20900147Y-100974402D01*
X20963703Y-101003427D01*
X20997927Y-101051836D01*
X21006378Y-101073369D01*
X21134413Y-101295131D01*
X21171645Y-101341818D01*
X21294072Y-101495338D01*
X21435458Y-101626524D01*
X21481781Y-101669505D01*
X21693355Y-101813754D01*
X21693360Y-101813756D01*
X21693361Y-101813757D01*
X21693362Y-101813758D01*
X21743700Y-101837999D01*
X21924061Y-101924856D01*
X21924062Y-101924856D01*
X21924065Y-101924858D01*
X22168757Y-102000335D01*
X22168758Y-102000335D01*
X22168761Y-102000336D01*
X22421958Y-102038499D01*
X22421963Y-102038499D01*
X22421966Y-102038500D01*
X22421967Y-102038500D01*
X22678033Y-102038500D01*
X22678034Y-102038500D01*
X22721232Y-102031989D01*
X22931238Y-102000336D01*
X22931239Y-102000335D01*
X22931243Y-102000335D01*
X23175935Y-101924858D01*
X23406646Y-101813754D01*
X23618219Y-101669505D01*
X23805931Y-101495334D01*
X23965587Y-101295131D01*
X24093622Y-101073369D01*
X24187174Y-100835001D01*
X24244155Y-100585353D01*
X24244594Y-100579500D01*
X24245289Y-100570232D01*
X24269929Y-100504851D01*
X24326005Y-100463171D01*
X24368942Y-100455500D01*
X27727501Y-100455500D01*
X27794540Y-100475185D01*
X27840295Y-100527989D01*
X27851501Y-100579500D01*
X27851501Y-100597553D01*
X27862113Y-100701427D01*
X27917884Y-100869735D01*
X27917886Y-100869740D01*
X27922110Y-100876588D01*
X28010970Y-101020652D01*
X28136348Y-101146030D01*
X28287262Y-101239115D01*
X28455574Y-101294887D01*
X28559455Y-101305500D01*
X29746233Y-101305499D01*
X29813272Y-101325184D01*
X29833914Y-101341818D01*
X30053110Y-101561014D01*
X30063016Y-101573378D01*
X30063226Y-101573205D01*
X30068200Y-101579218D01*
X30118602Y-101626548D01*
X30119976Y-101627880D01*
X30140430Y-101648334D01*
X30146002Y-101652656D01*
X30150442Y-101656449D01*
X30184878Y-101688786D01*
X30202767Y-101698620D01*
X30219033Y-101709304D01*
X30235159Y-101721813D01*
X30278498Y-101740567D01*
X30283745Y-101743137D01*
X30325140Y-101765895D01*
X30344918Y-101770973D01*
X30363319Y-101777273D01*
X30382055Y-101785381D01*
X30426562Y-101792429D01*
X30428703Y-101792769D01*
X30434412Y-101793951D01*
X30480170Y-101805700D01*
X30500584Y-101805700D01*
X30519983Y-101807227D01*
X30540143Y-101810420D01*
X30587165Y-101805975D01*
X30593004Y-101805700D01*
X40309670Y-101805700D01*
X40318095Y-101805700D01*
X40341326Y-101807896D01*
X40345843Y-101808757D01*
X40349606Y-101809475D01*
X40407680Y-101805821D01*
X40411553Y-101805700D01*
X42146066Y-101805700D01*
X42161813Y-101807438D01*
X42161839Y-101807168D01*
X42169606Y-101807902D01*
X42169608Y-101807901D01*
X42169609Y-101807902D01*
X42178959Y-101807608D01*
X42238691Y-101805731D01*
X42240639Y-101805700D01*
X42269557Y-101805700D01*
X42270922Y-101805527D01*
X42276562Y-101804814D01*
X42282385Y-101804356D01*
X42308408Y-101803538D01*
X42329590Y-101802873D01*
X42339381Y-101800027D01*
X42349181Y-101797180D01*
X42368238Y-101793232D01*
X42388497Y-101790674D01*
X42432421Y-101773282D01*
X42437921Y-101771399D01*
X42483293Y-101758218D01*
X42500865Y-101747825D01*
X42518332Y-101739268D01*
X42537317Y-101731752D01*
X42575526Y-101703990D01*
X42580404Y-101700785D01*
X42621062Y-101676742D01*
X42635502Y-101662300D01*
X42650292Y-101649670D01*
X42666807Y-101637672D01*
X42696922Y-101601267D01*
X42700826Y-101596976D01*
X43284013Y-101013789D01*
X43296377Y-101003886D01*
X43296203Y-101003676D01*
X43302216Y-100998701D01*
X43302215Y-100998701D01*
X43302218Y-100998700D01*
X43337082Y-100961573D01*
X43349531Y-100948316D01*
X43350856Y-100946947D01*
X43371335Y-100926470D01*
X43375661Y-100920892D01*
X43379450Y-100916455D01*
X43411786Y-100882021D01*
X43421619Y-100864132D01*
X43432302Y-100847869D01*
X43444814Y-100831741D01*
X43463571Y-100788391D01*
X43466141Y-100783147D01*
X43488893Y-100741764D01*
X43488893Y-100741763D01*
X43488895Y-100741760D01*
X43493974Y-100721973D01*
X43500270Y-100703585D01*
X43508381Y-100684845D01*
X43515769Y-100638197D01*
X43516951Y-100632486D01*
X43528700Y-100586730D01*
X43528700Y-100566314D01*
X43530227Y-100546914D01*
X43531528Y-100538700D01*
X43533420Y-100526757D01*
X43528975Y-100479733D01*
X43528700Y-100473895D01*
X43528700Y-97221832D01*
X43530439Y-97206080D01*
X43530168Y-97206055D01*
X43530902Y-97198293D01*
X43528731Y-97129195D01*
X43528700Y-97127247D01*
X43528700Y-97098347D01*
X43528700Y-97098344D01*
X43527814Y-97091341D01*
X43527357Y-97085522D01*
X43525874Y-97038311D01*
X43520176Y-97018699D01*
X43516233Y-96999666D01*
X43513674Y-96979403D01*
X43496285Y-96935486D01*
X43494396Y-96929966D01*
X43481218Y-96884607D01*
X43470826Y-96867035D01*
X43462266Y-96849562D01*
X43454752Y-96830583D01*
X43426994Y-96792379D01*
X43423787Y-96787496D01*
X43400960Y-96748898D01*
X43399742Y-96746838D01*
X43385308Y-96732404D01*
X43372671Y-96717609D01*
X43360672Y-96701093D01*
X43360670Y-96701090D01*
X43324273Y-96670981D01*
X43319951Y-96667047D01*
X42708575Y-96055671D01*
X45986192Y-96055671D01*
X46010823Y-96195366D01*
X46016474Y-96227412D01*
X46085547Y-96387539D01*
X46189685Y-96527422D01*
X46189689Y-96527425D01*
X46326511Y-96642233D01*
X46365213Y-96700404D01*
X46366321Y-96770265D01*
X46354192Y-96799222D01*
X46288444Y-96913101D01*
X46232421Y-97085522D01*
X46229851Y-97093431D01*
X46210032Y-97282000D01*
X46229851Y-97470569D01*
X46229852Y-97470572D01*
X46288444Y-97650898D01*
X46383245Y-97815100D01*
X46383250Y-97815107D01*
X46400287Y-97834028D01*
X46430517Y-97897020D01*
X46421892Y-97966355D01*
X46400287Y-97999972D01*
X46383250Y-98018892D01*
X46383245Y-98018899D01*
X46288444Y-98183101D01*
X46234794Y-98348218D01*
X46229851Y-98363431D01*
X46210032Y-98552000D01*
X46229851Y-98740569D01*
X46229852Y-98740572D01*
X46288444Y-98920898D01*
X46383245Y-99085100D01*
X46383250Y-99085107D01*
X46400287Y-99104028D01*
X46430517Y-99167020D01*
X46421892Y-99236355D01*
X46400287Y-99269972D01*
X46383250Y-99288892D01*
X46383245Y-99288899D01*
X46288444Y-99453101D01*
X46270690Y-99507742D01*
X46229851Y-99633431D01*
X46210032Y-99822000D01*
X46229851Y-100010569D01*
X46229852Y-100010572D01*
X46288444Y-100190898D01*
X46308540Y-100225705D01*
X46383247Y-100355102D01*
X46439665Y-100417761D01*
X46510119Y-100496009D01*
X46510120Y-100496010D01*
X46663511Y-100607454D01*
X46663516Y-100607457D01*
X46836726Y-100684576D01*
X46836731Y-100684578D01*
X46948198Y-100708271D01*
X47009680Y-100741463D01*
X47043456Y-100802626D01*
X47041208Y-100865123D01*
X47039826Y-100869740D01*
X47012333Y-100961573D01*
X47012331Y-100961581D01*
X47002192Y-101135670D01*
X47002192Y-101135671D01*
X47032136Y-101305500D01*
X47032474Y-101307412D01*
X47101547Y-101467539D01*
X47205685Y-101607422D01*
X47205686Y-101607423D01*
X47205688Y-101607425D01*
X47288300Y-101676744D01*
X47339275Y-101719517D01*
X47495116Y-101797783D01*
X47664805Y-101838000D01*
X47664807Y-101838000D01*
X47795448Y-101838000D01*
X47795455Y-101838000D01*
X47925211Y-101822834D01*
X48089084Y-101763189D01*
X48234784Y-101667360D01*
X48354458Y-101540513D01*
X48441653Y-101389487D01*
X48491668Y-101222423D01*
X48501808Y-101048329D01*
X48471526Y-100876588D01*
X48471526Y-100876587D01*
X48469455Y-100869670D01*
X48470985Y-100869211D01*
X48463554Y-100808401D01*
X48493919Y-100745475D01*
X48553484Y-100708954D01*
X48560093Y-100707358D01*
X48667269Y-100684578D01*
X48840484Y-100607457D01*
X48891720Y-100570232D01*
X48993879Y-100496010D01*
X48993880Y-100496009D01*
X49030354Y-100455500D01*
X49120753Y-100355102D01*
X49215556Y-100190897D01*
X49274149Y-100010569D01*
X49293968Y-99822000D01*
X49274149Y-99633431D01*
X49215556Y-99453103D01*
X49120753Y-99288898D01*
X49103712Y-99269972D01*
X49073482Y-99206983D01*
X49082105Y-99137648D01*
X49103711Y-99104028D01*
X49120753Y-99085102D01*
X49215556Y-98920897D01*
X49274149Y-98740569D01*
X49293968Y-98552000D01*
X49274149Y-98363431D01*
X49215556Y-98183103D01*
X49120753Y-98018898D01*
X49103712Y-97999972D01*
X49073482Y-97936983D01*
X49082105Y-97867648D01*
X49103711Y-97834028D01*
X49120753Y-97815102D01*
X49215556Y-97650897D01*
X49274149Y-97470569D01*
X49293968Y-97282000D01*
X49274149Y-97093431D01*
X49215556Y-96913103D01*
X49167913Y-96830583D01*
X49147438Y-96795118D01*
X49130965Y-96727218D01*
X49153818Y-96661191D01*
X49186682Y-96629520D01*
X49250784Y-96587360D01*
X49370458Y-96460513D01*
X49457653Y-96309487D01*
X49507668Y-96142423D01*
X49517808Y-95968329D01*
X49487526Y-95796588D01*
X49418453Y-95636461D01*
X49314315Y-95496578D01*
X49314312Y-95496576D01*
X49314311Y-95496574D01*
X49180725Y-95384483D01*
X49180723Y-95384482D01*
X49024887Y-95306218D01*
X49024885Y-95306217D01*
X49024884Y-95306217D01*
X48855195Y-95266000D01*
X48724545Y-95266000D01*
X48623623Y-95277795D01*
X48594787Y-95281166D01*
X48594785Y-95281167D01*
X48430917Y-95340810D01*
X48430913Y-95340812D01*
X48285218Y-95436637D01*
X48285217Y-95436638D01*
X48165543Y-95563485D01*
X48165539Y-95563490D01*
X48078347Y-95714511D01*
X48028333Y-95881573D01*
X48028331Y-95881581D01*
X48018192Y-96055670D01*
X48018192Y-96055671D01*
X48048473Y-96227411D01*
X48078795Y-96297705D01*
X48087273Y-96367058D01*
X48056910Y-96429985D01*
X48015373Y-96460097D01*
X47933513Y-96496544D01*
X47933511Y-96496545D01*
X47824885Y-96575467D01*
X47759079Y-96598947D01*
X47691025Y-96583121D01*
X47679115Y-96575467D01*
X47570488Y-96496545D01*
X47570483Y-96496542D01*
X47492907Y-96462003D01*
X47439670Y-96416753D01*
X47419349Y-96349904D01*
X47424552Y-96313160D01*
X47425650Y-96309491D01*
X47425653Y-96309487D01*
X47475668Y-96142423D01*
X47485808Y-95968329D01*
X47455526Y-95796588D01*
X47386453Y-95636461D01*
X47282315Y-95496578D01*
X47282312Y-95496576D01*
X47282311Y-95496574D01*
X47148725Y-95384483D01*
X47148723Y-95384482D01*
X46992887Y-95306218D01*
X46992885Y-95306217D01*
X46992884Y-95306217D01*
X46823195Y-95266000D01*
X46692545Y-95266000D01*
X46591623Y-95277795D01*
X46562787Y-95281166D01*
X46562785Y-95281167D01*
X46398917Y-95340810D01*
X46398913Y-95340812D01*
X46253218Y-95436637D01*
X46253217Y-95436638D01*
X46133543Y-95563485D01*
X46133539Y-95563490D01*
X46046347Y-95714511D01*
X45996333Y-95881573D01*
X45996331Y-95881581D01*
X45986192Y-96055670D01*
X45986192Y-96055671D01*
X42708575Y-96055671D01*
X41419318Y-94766413D01*
X41385833Y-94705090D01*
X41382999Y-94678732D01*
X41382999Y-94375296D01*
X41382998Y-94375280D01*
X41374658Y-94293643D01*
X41372824Y-94275686D01*
X41319349Y-94114308D01*
X41230100Y-93969613D01*
X41109887Y-93849400D01*
X41109886Y-93849399D01*
X41106818Y-93846331D01*
X41073334Y-93785008D01*
X41070500Y-93758650D01*
X41070500Y-93061349D01*
X41090185Y-92994310D01*
X41106819Y-92973668D01*
X41142909Y-92937578D01*
X41230100Y-92850387D01*
X41319349Y-92705692D01*
X41372824Y-92544314D01*
X41383000Y-92444711D01*
X41382999Y-91835290D01*
X41372824Y-91735686D01*
X41319349Y-91574308D01*
X41230100Y-91429613D01*
X41109887Y-91309400D01*
X40965192Y-91220151D01*
X40850495Y-91182144D01*
X40793051Y-91142372D01*
X40766228Y-91077857D01*
X40765500Y-91064439D01*
X40765500Y-90419717D01*
X40785185Y-90352678D01*
X40837989Y-90306923D01*
X40907147Y-90296979D01*
X40952619Y-90312985D01*
X40988399Y-90334145D01*
X41021353Y-90343719D01*
X41148164Y-90380561D01*
X41148167Y-90380561D01*
X41148169Y-90380562D01*
X41185498Y-90383500D01*
X41185504Y-90383500D01*
X41618496Y-90383500D01*
X41618502Y-90383500D01*
X41655831Y-90380562D01*
X41655833Y-90380561D01*
X41655835Y-90380561D01*
X41751809Y-90352678D01*
X41815601Y-90334145D01*
X41958807Y-90249453D01*
X42076453Y-90131807D01*
X42161145Y-89988601D01*
X42207562Y-89828831D01*
X42210500Y-89791502D01*
X42210500Y-88008498D01*
X42207562Y-87971169D01*
X42202019Y-87952091D01*
X42161146Y-87811403D01*
X42161145Y-87811399D01*
X42076453Y-87668193D01*
X42076451Y-87668191D01*
X42076448Y-87668187D01*
X41958812Y-87550551D01*
X41958803Y-87550544D01*
X41815601Y-87465855D01*
X41815596Y-87465853D01*
X41655835Y-87419438D01*
X41655829Y-87419437D01*
X41618507Y-87416500D01*
X41618502Y-87416500D01*
X41284367Y-87416500D01*
X41217328Y-87396815D01*
X41196686Y-87380181D01*
X39739088Y-85922583D01*
X39729187Y-85910223D01*
X39728977Y-85910398D01*
X39724001Y-85904384D01*
X39724000Y-85904382D01*
X39673614Y-85857067D01*
X39672239Y-85855734D01*
X39651768Y-85835263D01*
X39649792Y-85833731D01*
X39646183Y-85830931D01*
X39641750Y-85827144D01*
X39607321Y-85794814D01*
X39607319Y-85794812D01*
X39589431Y-85784978D01*
X39573170Y-85774297D01*
X39557039Y-85761784D01*
X39513693Y-85743027D01*
X39508445Y-85740456D01*
X39481251Y-85725506D01*
X39467060Y-85717705D01*
X39463660Y-85716832D01*
X39447287Y-85712628D01*
X39428881Y-85706326D01*
X39410144Y-85698218D01*
X39410146Y-85698218D01*
X39363496Y-85690830D01*
X39357781Y-85689646D01*
X39337612Y-85684468D01*
X39312032Y-85677900D01*
X39312030Y-85677900D01*
X39291616Y-85677900D01*
X39272217Y-85676373D01*
X39252058Y-85673180D01*
X39252057Y-85673180D01*
X39205034Y-85677625D01*
X39199196Y-85677900D01*
X39129119Y-85677900D01*
X39062080Y-85658215D01*
X39016325Y-85605411D01*
X39006381Y-85536253D01*
X39035406Y-85472697D01*
X39094184Y-85434923D01*
X39109662Y-85432072D01*
X39109595Y-85431701D01*
X39115828Y-85430562D01*
X39115831Y-85430562D01*
X39115833Y-85430561D01*
X39115835Y-85430561D01*
X39212425Y-85402499D01*
X39275601Y-85384145D01*
X39418807Y-85299453D01*
X39418812Y-85299448D01*
X39420995Y-85297755D01*
X39423029Y-85296956D01*
X39425522Y-85295482D01*
X39425759Y-85295883D01*
X39486030Y-85272217D01*
X39554548Y-85285894D01*
X39573005Y-85297755D01*
X39575197Y-85299456D01*
X39643062Y-85339591D01*
X39718399Y-85384145D01*
X39746958Y-85392442D01*
X39878164Y-85430561D01*
X39878167Y-85430561D01*
X39878169Y-85430562D01*
X39915498Y-85433500D01*
X39915504Y-85433500D01*
X40348496Y-85433500D01*
X40348502Y-85433500D01*
X40385831Y-85430562D01*
X40385833Y-85430561D01*
X40385835Y-85430561D01*
X40482425Y-85402499D01*
X40545601Y-85384145D01*
X40688807Y-85299453D01*
X40688812Y-85299448D01*
X40690995Y-85297755D01*
X40693029Y-85296956D01*
X40695522Y-85295482D01*
X40695759Y-85295883D01*
X40756030Y-85272217D01*
X40824548Y-85285894D01*
X40843005Y-85297755D01*
X40845197Y-85299456D01*
X40913062Y-85339591D01*
X40988399Y-85384145D01*
X41016958Y-85392442D01*
X41148164Y-85430561D01*
X41148167Y-85430561D01*
X41148169Y-85430562D01*
X41185498Y-85433500D01*
X41185504Y-85433500D01*
X41618496Y-85433500D01*
X41618502Y-85433500D01*
X41655831Y-85430562D01*
X41655833Y-85430561D01*
X41655835Y-85430561D01*
X41752425Y-85402499D01*
X41815601Y-85384145D01*
X41958807Y-85299453D01*
X42076453Y-85181807D01*
X42161145Y-85038601D01*
X42203425Y-84893070D01*
X42207561Y-84878835D01*
X42207562Y-84878829D01*
X42209063Y-84859758D01*
X42210500Y-84841502D01*
X42210500Y-83058498D01*
X42207562Y-83021169D01*
X42202864Y-83004999D01*
X42161146Y-82861403D01*
X42161145Y-82861399D01*
X42087082Y-82736166D01*
X42076455Y-82718196D01*
X42076448Y-82718187D01*
X41958812Y-82600551D01*
X41958803Y-82600544D01*
X41815601Y-82515855D01*
X41815596Y-82515853D01*
X41655835Y-82469438D01*
X41655829Y-82469437D01*
X41618507Y-82466500D01*
X41618502Y-82466500D01*
X41185498Y-82466500D01*
X41185492Y-82466500D01*
X41148170Y-82469437D01*
X41148164Y-82469438D01*
X40988403Y-82515853D01*
X40988397Y-82515855D01*
X40952621Y-82537014D01*
X40884897Y-82554197D01*
X40818634Y-82532037D01*
X40774871Y-82477571D01*
X40765500Y-82430282D01*
X40765500Y-80135931D01*
X40767238Y-80120181D01*
X40766968Y-80120156D01*
X40767702Y-80112393D01*
X40765531Y-80043307D01*
X40765500Y-80041359D01*
X40765500Y-80012446D01*
X40764615Y-80005447D01*
X40764156Y-79999614D01*
X40762954Y-79961370D01*
X40762673Y-79952410D01*
X40756977Y-79932808D01*
X40753032Y-79913757D01*
X40750474Y-79893503D01*
X40744191Y-79877634D01*
X40733086Y-79849586D01*
X40731193Y-79844057D01*
X40725982Y-79826120D01*
X40718018Y-79798707D01*
X40707622Y-79781129D01*
X40699066Y-79763662D01*
X40691552Y-79744683D01*
X40663794Y-79706479D01*
X40660587Y-79701596D01*
X40639582Y-79666079D01*
X40636542Y-79660938D01*
X40622108Y-79646504D01*
X40609471Y-79631709D01*
X40597472Y-79615193D01*
X40597470Y-79615190D01*
X40561073Y-79585081D01*
X40556751Y-79581147D01*
X39850562Y-78874958D01*
X39817077Y-78813635D01*
X39822060Y-78743948D01*
X39840989Y-78693201D01*
X39845891Y-78647606D01*
X39847499Y-78632654D01*
X39847500Y-78632637D01*
X39847500Y-78447766D01*
X39867185Y-78380727D01*
X39883819Y-78360085D01*
X40869938Y-77373966D01*
X41867817Y-76376086D01*
X41880178Y-76366185D01*
X41880004Y-76365975D01*
X41886013Y-76361002D01*
X41886018Y-76361000D01*
X41933348Y-76310597D01*
X41934619Y-76309284D01*
X41955135Y-76288770D01*
X41959461Y-76283192D01*
X41963250Y-76278755D01*
X41995586Y-76244321D01*
X42005419Y-76226432D01*
X42016102Y-76210169D01*
X42028614Y-76194041D01*
X42047371Y-76150691D01*
X42049941Y-76145447D01*
X42072693Y-76104064D01*
X42072693Y-76104063D01*
X42072695Y-76104060D01*
X42077774Y-76084273D01*
X42084070Y-76065885D01*
X42092181Y-76047145D01*
X42099569Y-76000497D01*
X42100751Y-75994786D01*
X42112500Y-75949030D01*
X42112500Y-75928614D01*
X42114027Y-75909214D01*
X42115267Y-75901385D01*
X42117220Y-75889057D01*
X42112775Y-75842033D01*
X42112500Y-75836195D01*
X42112500Y-64000552D01*
X42132185Y-63933513D01*
X42184989Y-63887758D01*
X42254147Y-63877814D01*
X42288899Y-63888168D01*
X42453924Y-63965120D01*
X42666629Y-64022115D01*
X42823322Y-64035823D01*
X42885998Y-64041307D01*
X42886000Y-64041307D01*
X42886002Y-64041307D01*
X42940842Y-64036509D01*
X43105371Y-64022115D01*
X43318076Y-63965120D01*
X43517654Y-63872056D01*
X43698038Y-63745749D01*
X43853749Y-63590038D01*
X43980056Y-63409654D01*
X44073120Y-63210076D01*
X44130115Y-62997371D01*
X44149307Y-62778000D01*
X44130115Y-62558629D01*
X44073120Y-62345924D01*
X43980056Y-62146347D01*
X43980054Y-62146344D01*
X43980053Y-62146342D01*
X43916902Y-62056154D01*
X43853749Y-61965962D01*
X43698038Y-61810251D01*
X43517654Y-61683944D01*
X43517650Y-61683942D01*
X43318081Y-61590882D01*
X43318079Y-61590881D01*
X43318076Y-61590880D01*
X43136735Y-61542289D01*
X43105372Y-61533885D01*
X43105365Y-61533884D01*
X42886002Y-61514693D01*
X42885998Y-61514693D01*
X42666634Y-61533884D01*
X42666627Y-61533885D01*
X42453920Y-61590881D01*
X42254346Y-61683944D01*
X42254342Y-61683946D01*
X42073967Y-61810247D01*
X42073960Y-61810252D01*
X41918252Y-61965960D01*
X41918247Y-61965967D01*
X41791946Y-62146342D01*
X41791944Y-62146346D01*
X41748382Y-62239766D01*
X41702210Y-62292205D01*
X41635016Y-62311357D01*
X41568135Y-62291141D01*
X41523618Y-62239766D01*
X41482046Y-62150615D01*
X41480056Y-62146347D01*
X41480054Y-62146344D01*
X41480053Y-62146342D01*
X41416902Y-62056154D01*
X41353749Y-61965962D01*
X41198038Y-61810251D01*
X41017654Y-61683944D01*
X40924233Y-61640381D01*
X40871794Y-61594210D01*
X40852642Y-61527017D01*
X40872857Y-61460136D01*
X40924234Y-61415618D01*
X41017654Y-61372056D01*
X41198038Y-61245749D01*
X41353749Y-61090038D01*
X41480056Y-60909654D01*
X41573120Y-60710076D01*
X41630115Y-60497371D01*
X41649307Y-60278000D01*
X41630115Y-60058629D01*
X41573120Y-59845924D01*
X41480056Y-59646347D01*
X41480054Y-59646344D01*
X41480053Y-59646342D01*
X41416902Y-59556154D01*
X41353749Y-59465962D01*
X41198038Y-59310251D01*
X41017654Y-59183944D01*
X41017650Y-59183942D01*
X40818081Y-59090882D01*
X40818079Y-59090881D01*
X40818076Y-59090880D01*
X40637832Y-59042583D01*
X40605372Y-59033885D01*
X40605365Y-59033884D01*
X40386002Y-59014693D01*
X40385998Y-59014693D01*
X40166634Y-59033884D01*
X40166624Y-59033886D01*
X40134164Y-59042583D01*
X40064314Y-59040918D01*
X40014393Y-59010488D01*
X35225088Y-54221183D01*
X35215187Y-54208823D01*
X35214977Y-54208998D01*
X35210001Y-54202984D01*
X35210000Y-54202982D01*
X35159614Y-54155667D01*
X35158239Y-54154334D01*
X35137768Y-54133863D01*
X35135792Y-54132331D01*
X35132183Y-54129531D01*
X35127750Y-54125744D01*
X35093321Y-54093414D01*
X35093319Y-54093412D01*
X35075431Y-54083578D01*
X35059170Y-54072897D01*
X35043039Y-54060384D01*
X34999693Y-54041627D01*
X34994445Y-54039056D01*
X34967251Y-54024106D01*
X34953060Y-54016305D01*
X34949660Y-54015432D01*
X34933287Y-54011228D01*
X34914881Y-54004926D01*
X34896144Y-53996818D01*
X34896146Y-53996818D01*
X34849496Y-53989430D01*
X34843781Y-53988246D01*
X34823612Y-53983068D01*
X34798032Y-53976500D01*
X34798030Y-53976500D01*
X34777616Y-53976500D01*
X34758217Y-53974973D01*
X34738058Y-53971780D01*
X34738057Y-53971780D01*
X34691034Y-53976225D01*
X34685196Y-53976500D01*
X20914400Y-53976500D01*
X20851279Y-53959232D01*
X20790087Y-53923043D01*
X20790084Y-53923042D01*
X20639422Y-53879270D01*
X20639416Y-53879269D01*
X20604227Y-53876500D01*
X20604220Y-53876500D01*
X20103780Y-53876500D01*
X20103772Y-53876500D01*
X20068583Y-53879269D01*
X20068577Y-53879270D01*
X19917915Y-53923042D01*
X19917912Y-53923043D01*
X19782862Y-54002911D01*
X19782853Y-54002918D01*
X19671918Y-54113853D01*
X19671911Y-54113862D01*
X19592043Y-54248912D01*
X19592042Y-54248915D01*
X19548270Y-54399577D01*
X19548269Y-54399583D01*
X19545500Y-54434772D01*
X19545500Y-54785227D01*
X19548269Y-54820416D01*
X19548270Y-54820422D01*
X19592042Y-54971084D01*
X19592043Y-54971087D01*
X19671911Y-55106137D01*
X19671918Y-55106146D01*
X19782853Y-55217081D01*
X19782857Y-55217084D01*
X19782859Y-55217086D01*
X19917911Y-55296956D01*
X19957644Y-55308499D01*
X20068577Y-55340729D01*
X20068580Y-55340729D01*
X20068582Y-55340730D01*
X20103780Y-55343500D01*
X20103788Y-55343500D01*
X20604212Y-55343500D01*
X20604220Y-55343500D01*
X20639418Y-55340730D01*
X20639420Y-55340729D01*
X20639422Y-55340729D01*
X20679151Y-55329186D01*
X20790089Y-55296956D01*
X20851279Y-55260767D01*
X20914400Y-55243500D01*
X34404234Y-55243500D01*
X34471273Y-55263185D01*
X34491915Y-55279819D01*
X39118489Y-59906393D01*
X39151974Y-59967716D01*
X39150583Y-60026167D01*
X39141885Y-60058626D01*
X39141885Y-60058630D01*
X39124269Y-60259989D01*
X39122693Y-60278000D01*
X39141885Y-60497371D01*
X39198880Y-60710076D01*
X39291944Y-60909654D01*
X39418251Y-61090038D01*
X39573962Y-61245749D01*
X39754346Y-61372056D01*
X39847766Y-61415618D01*
X39900205Y-61461790D01*
X39919357Y-61528984D01*
X39899141Y-61595865D01*
X39847766Y-61640382D01*
X39754346Y-61683944D01*
X39754342Y-61683946D01*
X39573967Y-61810247D01*
X39573960Y-61810252D01*
X39418252Y-61965960D01*
X39418247Y-61965967D01*
X39291946Y-62146342D01*
X39291944Y-62146346D01*
X39243693Y-62249822D01*
X39197521Y-62302261D01*
X39130327Y-62321413D01*
X39063446Y-62301197D01*
X39018929Y-62249822D01*
X38972668Y-62150615D01*
X38929123Y-62088428D01*
X38369076Y-62648475D01*
X38345493Y-62568156D01*
X38267761Y-62447202D01*
X38159100Y-62353048D01*
X38028315Y-62293320D01*
X38018533Y-62291913D01*
X38575572Y-61734874D01*
X38575571Y-61734873D01*
X38513391Y-61691335D01*
X38315159Y-61598898D01*
X38315150Y-61598894D01*
X38103894Y-61542289D01*
X38103884Y-61542287D01*
X37886001Y-61523225D01*
X37885999Y-61523225D01*
X37668115Y-61542287D01*
X37668105Y-61542289D01*
X37456849Y-61598894D01*
X37456840Y-61598898D01*
X37258614Y-61691332D01*
X37258612Y-61691333D01*
X37196428Y-61734875D01*
X37196427Y-61734875D01*
X37753467Y-62291913D01*
X37743685Y-62293320D01*
X37612900Y-62353048D01*
X37504239Y-62447202D01*
X37426507Y-62568156D01*
X37402923Y-62648475D01*
X36842875Y-62088427D01*
X36842875Y-62088428D01*
X36799333Y-62150612D01*
X36799332Y-62150614D01*
X36706898Y-62348840D01*
X36706894Y-62348849D01*
X36650289Y-62560105D01*
X36650287Y-62560115D01*
X36631225Y-62777999D01*
X36631225Y-62778000D01*
X36650287Y-62995884D01*
X36650289Y-62995894D01*
X36706894Y-63207150D01*
X36706898Y-63207159D01*
X36799335Y-63405391D01*
X36842873Y-63467571D01*
X36842875Y-63467572D01*
X37402923Y-62907523D01*
X37426507Y-62987844D01*
X37504239Y-63108798D01*
X37612900Y-63202952D01*
X37743685Y-63262680D01*
X37753466Y-63264086D01*
X37196426Y-63821124D01*
X37258611Y-63864666D01*
X37258613Y-63864667D01*
X37456840Y-63957101D01*
X37456849Y-63957105D01*
X37668105Y-64013710D01*
X37668115Y-64013712D01*
X37885999Y-64032775D01*
X37886001Y-64032775D01*
X38103884Y-64013712D01*
X38103894Y-64013710D01*
X38315150Y-63957105D01*
X38315159Y-63957101D01*
X38513387Y-63864666D01*
X38575572Y-63821124D01*
X38018534Y-63264086D01*
X38028315Y-63262680D01*
X38159100Y-63202952D01*
X38267761Y-63108798D01*
X38345493Y-62987844D01*
X38369076Y-62907524D01*
X38929124Y-63467572D01*
X38972666Y-63405387D01*
X39018929Y-63306178D01*
X39065101Y-63253739D01*
X39132295Y-63234587D01*
X39199176Y-63254803D01*
X39243693Y-63306179D01*
X39291944Y-63409654D01*
X39418251Y-63590038D01*
X39573962Y-63745749D01*
X39754346Y-63872056D01*
X39847766Y-63915618D01*
X39900205Y-63961790D01*
X39919357Y-64028984D01*
X39899141Y-64095865D01*
X39847766Y-64140382D01*
X39754346Y-64183944D01*
X39754342Y-64183946D01*
X39573967Y-64310247D01*
X39573960Y-64310252D01*
X39418252Y-64465960D01*
X39418247Y-64465967D01*
X39291946Y-64646342D01*
X39291944Y-64646346D01*
X39198881Y-64845920D01*
X39141885Y-65058627D01*
X39141884Y-65058634D01*
X39122693Y-65277997D01*
X39122693Y-65278000D01*
X39141885Y-65497371D01*
X39198880Y-65710076D01*
X39291944Y-65909654D01*
X39418251Y-66090038D01*
X39573962Y-66245749D01*
X39699625Y-66333739D01*
X39743249Y-66388316D01*
X39752500Y-66435313D01*
X39752500Y-74797932D01*
X39732815Y-74864971D01*
X39716181Y-74885613D01*
X38600179Y-76001614D01*
X38587820Y-76011518D01*
X38587993Y-76011727D01*
X38581981Y-76016700D01*
X38534673Y-76067077D01*
X38533320Y-76068473D01*
X38512873Y-76088921D01*
X38512857Y-76088939D01*
X38508531Y-76094514D01*
X38504747Y-76098944D01*
X38472419Y-76133371D01*
X38472412Y-76133381D01*
X38462579Y-76151267D01*
X38451903Y-76167520D01*
X38439386Y-76183657D01*
X38439385Y-76183659D01*
X38420625Y-76227010D01*
X38418055Y-76232256D01*
X38395303Y-76273641D01*
X38395303Y-76273642D01*
X38390225Y-76293420D01*
X38383925Y-76311822D01*
X38375818Y-76330557D01*
X38371964Y-76354890D01*
X38342034Y-76418025D01*
X38323803Y-76434757D01*
X38275742Y-76470735D01*
X38275740Y-76470738D01*
X38188111Y-76587795D01*
X38137011Y-76724795D01*
X38137011Y-76724797D01*
X38130500Y-76785345D01*
X38130500Y-77211032D01*
X38110815Y-77278071D01*
X38094181Y-77298714D01*
X38018928Y-77373966D01*
X37957604Y-77407450D01*
X37887913Y-77402465D01*
X37831979Y-77360594D01*
X37815065Y-77329616D01*
X37782355Y-77241915D01*
X37782350Y-77241906D01*
X37696190Y-77126812D01*
X37696187Y-77126809D01*
X37581093Y-77040649D01*
X37581086Y-77040645D01*
X37446379Y-76990403D01*
X37446372Y-76990401D01*
X37386844Y-76984000D01*
X37214000Y-76984000D01*
X37214000Y-78434000D01*
X37386828Y-78434000D01*
X37386844Y-78433999D01*
X37446372Y-78427598D01*
X37446383Y-78427595D01*
X37512766Y-78402836D01*
X37582457Y-78397851D01*
X37643781Y-78431335D01*
X37677266Y-78492658D01*
X37680100Y-78519017D01*
X37680100Y-82342500D01*
X37660415Y-82409539D01*
X37607611Y-82455294D01*
X37556100Y-82466500D01*
X37375492Y-82466500D01*
X37338170Y-82469437D01*
X37338164Y-82469438D01*
X37178403Y-82515853D01*
X37178398Y-82515855D01*
X37035196Y-82600544D01*
X37035187Y-82600551D01*
X36917551Y-82718187D01*
X36917544Y-82718196D01*
X36906926Y-82736151D01*
X36855856Y-82783834D01*
X36787114Y-82796336D01*
X36722525Y-82769689D01*
X36712514Y-82760709D01*
X33138988Y-79187183D01*
X33129087Y-79174823D01*
X33128877Y-79174998D01*
X33123901Y-79168984D01*
X33123900Y-79168982D01*
X33073514Y-79121667D01*
X33072139Y-79120334D01*
X33048916Y-79097111D01*
X33049734Y-79096292D01*
X33015128Y-79041383D01*
X33015745Y-78971516D01*
X33054037Y-78913074D01*
X33117846Y-78884611D01*
X33134409Y-78883500D01*
X34244638Y-78883500D01*
X34244654Y-78883499D01*
X34271692Y-78880591D01*
X34305201Y-78876989D01*
X34442204Y-78825889D01*
X34559261Y-78738261D01*
X34646889Y-78621204D01*
X34697989Y-78484201D01*
X34702978Y-78437795D01*
X34704499Y-78423654D01*
X34704500Y-78423637D01*
X34704500Y-77934000D01*
X36139000Y-77934000D01*
X36139000Y-77981844D01*
X36145401Y-78041372D01*
X36145403Y-78041379D01*
X36195645Y-78176086D01*
X36195649Y-78176093D01*
X36281809Y-78291187D01*
X36281812Y-78291190D01*
X36396906Y-78377350D01*
X36396913Y-78377354D01*
X36531620Y-78427596D01*
X36531627Y-78427598D01*
X36591155Y-78433999D01*
X36591172Y-78434000D01*
X36764000Y-78434000D01*
X36764000Y-77934000D01*
X36139000Y-77934000D01*
X34704500Y-77934000D01*
X34704500Y-77484000D01*
X36139000Y-77484000D01*
X36764000Y-77484000D01*
X36764000Y-76984000D01*
X36591155Y-76984000D01*
X36531627Y-76990401D01*
X36531620Y-76990403D01*
X36396913Y-77040645D01*
X36396906Y-77040649D01*
X36281812Y-77126809D01*
X36281809Y-77126812D01*
X36195649Y-77241906D01*
X36195645Y-77241913D01*
X36145403Y-77376620D01*
X36145401Y-77376627D01*
X36139000Y-77436155D01*
X36139000Y-77484000D01*
X34704500Y-77484000D01*
X34704500Y-75926362D01*
X34704499Y-75926345D01*
X34700206Y-75886419D01*
X34697989Y-75865799D01*
X34696341Y-75861381D01*
X34672631Y-75797813D01*
X34646889Y-75728796D01*
X34559261Y-75611739D01*
X34442204Y-75524111D01*
X34442203Y-75524110D01*
X34305203Y-75473011D01*
X34244654Y-75466500D01*
X34244638Y-75466500D01*
X32447362Y-75466500D01*
X32447345Y-75466500D01*
X32386797Y-75473011D01*
X32386795Y-75473011D01*
X32249795Y-75524111D01*
X32132739Y-75611739D01*
X32045111Y-75728795D01*
X31994011Y-75865795D01*
X31994011Y-75865797D01*
X31987500Y-75926345D01*
X31987500Y-76477067D01*
X31967815Y-76544106D01*
X31922726Y-76583175D01*
X31923814Y-76585015D01*
X31899524Y-76599378D01*
X31882064Y-76607932D01*
X31863084Y-76615447D01*
X31863081Y-76615449D01*
X31824882Y-76643201D01*
X31820000Y-76646409D01*
X31779338Y-76670456D01*
X31764896Y-76684898D01*
X31750108Y-76697527D01*
X31733597Y-76709523D01*
X31733592Y-76709528D01*
X31703490Y-76745914D01*
X31699558Y-76750235D01*
X31216181Y-77233613D01*
X31154858Y-77267098D01*
X31085167Y-77262114D01*
X31029233Y-77220243D01*
X31004816Y-77154778D01*
X31004500Y-77145932D01*
X31004500Y-75926362D01*
X31004499Y-75926345D01*
X31000206Y-75886419D01*
X30997989Y-75865799D01*
X30996341Y-75861381D01*
X30972631Y-75797813D01*
X30946889Y-75728796D01*
X30859261Y-75611739D01*
X30742204Y-75524111D01*
X30742203Y-75524110D01*
X30605203Y-75473011D01*
X30544654Y-75466500D01*
X30544638Y-75466500D01*
X28747362Y-75466500D01*
X28747345Y-75466500D01*
X28686797Y-75473011D01*
X28686795Y-75473011D01*
X28549795Y-75524111D01*
X28432739Y-75611739D01*
X28345111Y-75728795D01*
X28297162Y-75857349D01*
X28255290Y-75913282D01*
X28189826Y-75937698D01*
X28121553Y-75922846D01*
X28093300Y-75901695D01*
X27442888Y-75251283D01*
X27432987Y-75238923D01*
X27432777Y-75239098D01*
X27427801Y-75233084D01*
X27427800Y-75233082D01*
X27377414Y-75185767D01*
X27376039Y-75184434D01*
X27355568Y-75163963D01*
X27353592Y-75162431D01*
X27349983Y-75159631D01*
X27345550Y-75155844D01*
X27311121Y-75123514D01*
X27311119Y-75123512D01*
X27293231Y-75113678D01*
X27276970Y-75102997D01*
X27260839Y-75090484D01*
X27217493Y-75071727D01*
X27212245Y-75069156D01*
X27185051Y-75054206D01*
X27170860Y-75046405D01*
X27167460Y-75045532D01*
X27151087Y-75041328D01*
X27132681Y-75035026D01*
X27113944Y-75026918D01*
X27113946Y-75026918D01*
X27067296Y-75019530D01*
X27061581Y-75018346D01*
X27041412Y-75013168D01*
X27015832Y-75006600D01*
X27015830Y-75006600D01*
X26995416Y-75006600D01*
X26976017Y-75005073D01*
X26955858Y-75001880D01*
X26955857Y-75001880D01*
X26908834Y-75006325D01*
X26902996Y-75006600D01*
X25113668Y-75006600D01*
X25046629Y-74986915D01*
X25000874Y-74934111D01*
X24990348Y-74895564D01*
X24970642Y-74708072D01*
X24911627Y-74526444D01*
X24880770Y-74472999D01*
X24864298Y-74405099D01*
X24887151Y-74339073D01*
X24942072Y-74295882D01*
X24988158Y-74287000D01*
X25460166Y-74287000D01*
X25475913Y-74288738D01*
X25475939Y-74288468D01*
X25483706Y-74289202D01*
X25483708Y-74289201D01*
X25483709Y-74289202D01*
X25493059Y-74288908D01*
X25552791Y-74287031D01*
X25554739Y-74287000D01*
X25583657Y-74287000D01*
X25585022Y-74286827D01*
X25590662Y-74286114D01*
X25596485Y-74285656D01*
X25622508Y-74284838D01*
X25643690Y-74284173D01*
X25653481Y-74281327D01*
X25663281Y-74278480D01*
X25682338Y-74274532D01*
X25702597Y-74271974D01*
X25746521Y-74254582D01*
X25752021Y-74252699D01*
X25797393Y-74239518D01*
X25814965Y-74229125D01*
X25832432Y-74220568D01*
X25851417Y-74213052D01*
X25889626Y-74185290D01*
X25894504Y-74182085D01*
X25935162Y-74158042D01*
X25949602Y-74143600D01*
X25964392Y-74130970D01*
X25980907Y-74118972D01*
X26011022Y-74082567D01*
X26014926Y-74078276D01*
X28502815Y-71590387D01*
X28515180Y-71580483D01*
X28515006Y-71580273D01*
X28521012Y-71575303D01*
X28521018Y-71575300D01*
X28568364Y-71524880D01*
X28569635Y-71523567D01*
X28590135Y-71503069D01*
X28594458Y-71497495D01*
X28598257Y-71493047D01*
X28602530Y-71488496D01*
X28630586Y-71458621D01*
X28640420Y-71440729D01*
X28651103Y-71424467D01*
X28663614Y-71408341D01*
X28682371Y-71364991D01*
X28684941Y-71359747D01*
X28693474Y-71344226D01*
X28700878Y-71330758D01*
X28750425Y-71281497D01*
X28809538Y-71266500D01*
X29412638Y-71266500D01*
X29412654Y-71266499D01*
X29439692Y-71263591D01*
X29473201Y-71259989D01*
X29610204Y-71208889D01*
X29727261Y-71121261D01*
X29814889Y-71004204D01*
X29865989Y-70867201D01*
X29869591Y-70833692D01*
X29872499Y-70806654D01*
X29872500Y-70806637D01*
X29872500Y-68209362D01*
X29872499Y-68209345D01*
X29869157Y-68178270D01*
X29865989Y-68148799D01*
X29814889Y-68011796D01*
X29727261Y-67894739D01*
X29610204Y-67807111D01*
X29610203Y-67807110D01*
X29473203Y-67756011D01*
X29412654Y-67749500D01*
X29412638Y-67749500D01*
X26815362Y-67749500D01*
X26815345Y-67749500D01*
X26754797Y-67756011D01*
X26754795Y-67756011D01*
X26617795Y-67807111D01*
X26500739Y-67894739D01*
X26413111Y-68011795D01*
X26362011Y-68148795D01*
X26362011Y-68148797D01*
X26355500Y-68209345D01*
X26355500Y-70806654D01*
X26362011Y-70867202D01*
X26362011Y-70867204D01*
X26413111Y-71004204D01*
X26500739Y-71121261D01*
X26617796Y-71208889D01*
X26705100Y-71241452D01*
X26754790Y-71259986D01*
X26754791Y-71259986D01*
X26754799Y-71259989D01*
X26755888Y-71260106D01*
X26756677Y-71260433D01*
X26762341Y-71261771D01*
X26762124Y-71262688D01*
X26820436Y-71286837D01*
X26860289Y-71344226D01*
X26862789Y-71414051D01*
X26830319Y-71471076D01*
X25317714Y-72983681D01*
X25256391Y-73017166D01*
X25230033Y-73020000D01*
X24316064Y-73020000D01*
X24265635Y-73007053D01*
X24265112Y-73008377D01*
X24257863Y-73005507D01*
X24257860Y-73005505D01*
X24254460Y-73004632D01*
X24238087Y-73000428D01*
X24219681Y-72994126D01*
X24200944Y-72986018D01*
X24200946Y-72986018D01*
X24154296Y-72978630D01*
X24148581Y-72977446D01*
X24128412Y-72972268D01*
X24102832Y-72965700D01*
X24102830Y-72965700D01*
X24082416Y-72965700D01*
X24063017Y-72964173D01*
X24042858Y-72960980D01*
X24042857Y-72960980D01*
X23995834Y-72965425D01*
X23989996Y-72965700D01*
X21862431Y-72965700D01*
X21846679Y-72963960D01*
X21846654Y-72964232D01*
X21838892Y-72963497D01*
X21769796Y-72965669D01*
X21767848Y-72965700D01*
X21738944Y-72965700D01*
X21738941Y-72965700D01*
X21738929Y-72965701D01*
X21731937Y-72966584D01*
X21726120Y-72967041D01*
X21678914Y-72968525D01*
X21678907Y-72968526D01*
X21659300Y-72974222D01*
X21640261Y-72978165D01*
X21620011Y-72980724D01*
X21620001Y-72980726D01*
X21576091Y-72998111D01*
X21570565Y-73000003D01*
X21525212Y-73013179D01*
X21525207Y-73013181D01*
X21507633Y-73023574D01*
X21490172Y-73032128D01*
X21471186Y-73039646D01*
X21471184Y-73039647D01*
X21432972Y-73067408D01*
X21428090Y-73070615D01*
X21387437Y-73094657D01*
X21373001Y-73109094D01*
X21358215Y-73121723D01*
X21341693Y-73133728D01*
X21341691Y-73133729D01*
X21341691Y-73133730D01*
X21341688Y-73133732D01*
X21311580Y-73170125D01*
X21307649Y-73174446D01*
X21079913Y-73402181D01*
X21018590Y-73435666D01*
X20992232Y-73438500D01*
X20698727Y-73438500D01*
X20627354Y-73444985D01*
X20627344Y-73444988D01*
X20463090Y-73496171D01*
X20315841Y-73585186D01*
X20194186Y-73706841D01*
X20105173Y-73854086D01*
X20053986Y-74018354D01*
X20047500Y-74089737D01*
X20047500Y-74452733D01*
X20027815Y-74519772D01*
X19975011Y-74565527D01*
X19905853Y-74575471D01*
X19842297Y-74546446D01*
X19835819Y-74540414D01*
X19803818Y-74508413D01*
X19770333Y-74447090D01*
X19767499Y-74420732D01*
X19767499Y-74117296D01*
X19767498Y-74117280D01*
X19763511Y-74078254D01*
X19757324Y-74017686D01*
X19703849Y-73856308D01*
X19614600Y-73711613D01*
X19494387Y-73591400D01*
X19349692Y-73502151D01*
X19188314Y-73448676D01*
X19188311Y-73448675D01*
X19188312Y-73448675D01*
X19088712Y-73438500D01*
X18554296Y-73438500D01*
X18554280Y-73438501D01*
X18454684Y-73448676D01*
X18293310Y-73502150D01*
X18293305Y-73502152D01*
X18148611Y-73591401D01*
X18115669Y-73624343D01*
X18054346Y-73657828D01*
X17984654Y-73652842D01*
X17940308Y-73624342D01*
X17914080Y-73598114D01*
X17771077Y-73509908D01*
X17771072Y-73509906D01*
X17611583Y-73457057D01*
X17513150Y-73447000D01*
X17496500Y-73447000D01*
X17496500Y-75396999D01*
X17513136Y-75396999D01*
X17513152Y-75396998D01*
X17611583Y-75386943D01*
X17771072Y-75334093D01*
X17771077Y-75334091D01*
X17914082Y-75245884D01*
X17940305Y-75219660D01*
X18001627Y-75186173D01*
X18071319Y-75191155D01*
X18115670Y-75219657D01*
X18148613Y-75252600D01*
X18293308Y-75341849D01*
X18454686Y-75395324D01*
X18554289Y-75405500D01*
X18857733Y-75405499D01*
X18924772Y-75425183D01*
X18945414Y-75441818D01*
X19140610Y-75637014D01*
X19150516Y-75649378D01*
X19150726Y-75649205D01*
X19155700Y-75655218D01*
X19206102Y-75702548D01*
X19207476Y-75703880D01*
X19227930Y-75724334D01*
X19233502Y-75728656D01*
X19237942Y-75732449D01*
X19272378Y-75764786D01*
X19290267Y-75774620D01*
X19306533Y-75785304D01*
X19322659Y-75797813D01*
X19365998Y-75816567D01*
X19371245Y-75819137D01*
X19412640Y-75841895D01*
X19432418Y-75846973D01*
X19450819Y-75853273D01*
X19469555Y-75861381D01*
X19514062Y-75868429D01*
X19516203Y-75868769D01*
X19521912Y-75869951D01*
X19567670Y-75881700D01*
X19588084Y-75881700D01*
X19607483Y-75883227D01*
X19627643Y-75886420D01*
X19674665Y-75881975D01*
X19680504Y-75881700D01*
X20239561Y-75881700D01*
X20306600Y-75901385D01*
X20352355Y-75954189D01*
X20362919Y-76018303D01*
X20352500Y-76120281D01*
X20352500Y-76654703D01*
X20352501Y-76654719D01*
X20362676Y-76754315D01*
X20386347Y-76825748D01*
X20416151Y-76915692D01*
X20493225Y-77040649D01*
X20505401Y-77060388D01*
X20538342Y-77093329D01*
X20571827Y-77154652D01*
X20566843Y-77224344D01*
X20538344Y-77268690D01*
X20512112Y-77294921D01*
X20423908Y-77437922D01*
X20423906Y-77437927D01*
X20371057Y-77597416D01*
X20361000Y-77695849D01*
X20361000Y-77712500D01*
X21412800Y-77712500D01*
X21479839Y-77732185D01*
X21525594Y-77784989D01*
X21536800Y-77836500D01*
X21536800Y-77973200D01*
X21517115Y-78040239D01*
X21464311Y-78085994D01*
X21412800Y-78097200D01*
X20100067Y-78097200D01*
X20033028Y-78077515D01*
X20012386Y-78060881D01*
X19829088Y-77877583D01*
X19819187Y-77865223D01*
X19818977Y-77865398D01*
X19814001Y-77859384D01*
X19814000Y-77859382D01*
X19763614Y-77812067D01*
X19762239Y-77810734D01*
X19741768Y-77790263D01*
X19739792Y-77788731D01*
X19736183Y-77785931D01*
X19731750Y-77782144D01*
X19725524Y-77776298D01*
X19697321Y-77749814D01*
X19697319Y-77749812D01*
X19679431Y-77739978D01*
X19663170Y-77729297D01*
X19647039Y-77716784D01*
X19603693Y-77698027D01*
X19598445Y-77695456D01*
X19571024Y-77680382D01*
X19557060Y-77672705D01*
X19553660Y-77671832D01*
X19537287Y-77667628D01*
X19518881Y-77661326D01*
X19500144Y-77653218D01*
X19500146Y-77653218D01*
X19453496Y-77645830D01*
X19447781Y-77644646D01*
X19427612Y-77639468D01*
X19402032Y-77632900D01*
X19402030Y-77632900D01*
X19381616Y-77632900D01*
X19362217Y-77631373D01*
X19342058Y-77628180D01*
X19342057Y-77628180D01*
X19295034Y-77632625D01*
X19289196Y-77632900D01*
X18395034Y-77632900D01*
X18379286Y-77631161D01*
X18379261Y-77631432D01*
X18371493Y-77630697D01*
X18302409Y-77632869D01*
X18300461Y-77632900D01*
X18271537Y-77632900D01*
X18264543Y-77633784D01*
X18258720Y-77634242D01*
X18211511Y-77635726D01*
X18211508Y-77635727D01*
X18191905Y-77641422D01*
X18172859Y-77645366D01*
X18152603Y-77647926D01*
X18152601Y-77647926D01*
X18152599Y-77647927D01*
X18108682Y-77665314D01*
X18103156Y-77667206D01*
X18057806Y-77680382D01*
X18040233Y-77690774D01*
X18022770Y-77699329D01*
X18003785Y-77706846D01*
X18003783Y-77706847D01*
X17965579Y-77734604D01*
X17960696Y-77737812D01*
X17920037Y-77761858D01*
X17905596Y-77776298D01*
X17890808Y-77788927D01*
X17874297Y-77800923D01*
X17874292Y-77800928D01*
X17844190Y-77837314D01*
X17840258Y-77841636D01*
X17619678Y-78062215D01*
X17607308Y-78072127D01*
X17607481Y-78072337D01*
X17599157Y-78079222D01*
X17596981Y-78080155D01*
X17594920Y-78081465D01*
X17594708Y-78081131D01*
X17534953Y-78106782D01*
X17507527Y-78107030D01*
X17487662Y-78105001D01*
X17487638Y-78105000D01*
X17471000Y-78105000D01*
X17471000Y-78190584D01*
X17460802Y-78239830D01*
X17440126Y-78287609D01*
X17437555Y-78292857D01*
X17414803Y-78334244D01*
X17409725Y-78354020D01*
X17403425Y-78372422D01*
X17395318Y-78391157D01*
X17387931Y-78437795D01*
X17386746Y-78443516D01*
X17375000Y-78489265D01*
X17375000Y-78509684D01*
X17373473Y-78529083D01*
X17370280Y-78549241D01*
X17370280Y-78549242D01*
X17374725Y-78596266D01*
X17375000Y-78602104D01*
X17375000Y-79505366D01*
X17373261Y-79521113D01*
X17373532Y-79521139D01*
X17372797Y-79528906D01*
X17374969Y-79597990D01*
X17375000Y-79599938D01*
X17375000Y-79628859D01*
X17375884Y-79635856D01*
X17376342Y-79641679D01*
X17377826Y-79688889D01*
X17377827Y-79688891D01*
X17383522Y-79708495D01*
X17387467Y-79727542D01*
X17390026Y-79747797D01*
X17390027Y-79747800D01*
X17390028Y-79747803D01*
X17407414Y-79791716D01*
X17409306Y-79797244D01*
X17417696Y-79826120D01*
X17422482Y-79842593D01*
X17432092Y-79858844D01*
X17432874Y-79860165D01*
X17441432Y-79877634D01*
X17448948Y-79896617D01*
X17452710Y-79903460D01*
X17450909Y-79904449D01*
X17470797Y-79960162D01*
X17471000Y-79967259D01*
X17471000Y-80054999D01*
X17487637Y-80054999D01*
X17487649Y-80054998D01*
X17511546Y-80052557D01*
X17580239Y-80065326D01*
X17611830Y-80088234D01*
X19812410Y-82288814D01*
X19822316Y-82301178D01*
X19822526Y-82301005D01*
X19827500Y-82307018D01*
X19875516Y-82352108D01*
X19910911Y-82412348D01*
X19908119Y-82482162D01*
X19868025Y-82539384D01*
X19803360Y-82565845D01*
X19790633Y-82566500D01*
X19520640Y-82566500D01*
X19455543Y-82548039D01*
X19361694Y-82490152D01*
X19361689Y-82490150D01*
X19360250Y-82489673D01*
X19200314Y-82436676D01*
X19200311Y-82436675D01*
X19200312Y-82436675D01*
X19100712Y-82426500D01*
X18491296Y-82426500D01*
X18491280Y-82426501D01*
X18391684Y-82436676D01*
X18230310Y-82490150D01*
X18230305Y-82490152D01*
X18085611Y-82579401D01*
X17962332Y-82702681D01*
X17901009Y-82736166D01*
X17874651Y-82739000D01*
X17812349Y-82739000D01*
X17745310Y-82719315D01*
X17724668Y-82702681D01*
X17601388Y-82579401D01*
X17601388Y-82579400D01*
X17601387Y-82579400D01*
X17498361Y-82515853D01*
X17456694Y-82490152D01*
X17456689Y-82490150D01*
X17455250Y-82489673D01*
X17295314Y-82436676D01*
X17295311Y-82436675D01*
X17295312Y-82436675D01*
X17195712Y-82426500D01*
X16586296Y-82426500D01*
X16586280Y-82426501D01*
X16486684Y-82436676D01*
X16325310Y-82490150D01*
X16325305Y-82490152D01*
X16180611Y-82579401D01*
X16060401Y-82699611D01*
X15971152Y-82844305D01*
X15971150Y-82844310D01*
X15917675Y-83005689D01*
X15907500Y-83105281D01*
X15907500Y-83639703D01*
X15907501Y-83639719D01*
X15917676Y-83739315D01*
X15936931Y-83797423D01*
X15971151Y-83900692D01*
X16055614Y-84037628D01*
X16060401Y-84045388D01*
X16093342Y-84078329D01*
X16126827Y-84139652D01*
X16121843Y-84209344D01*
X16093344Y-84253690D01*
X16067112Y-84279921D01*
X15978908Y-84422922D01*
X15978906Y-84422927D01*
X15926057Y-84582416D01*
X15916000Y-84680849D01*
X15916000Y-84697500D01*
X18839700Y-84697500D01*
X18906739Y-84717185D01*
X18952494Y-84769989D01*
X18963700Y-84821500D01*
X18963700Y-89886294D01*
X18944015Y-89953333D01*
X18891211Y-89999088D01*
X18834784Y-90009609D01*
X18834784Y-90010000D01*
X18832689Y-90010000D01*
X18832297Y-90010073D01*
X18831076Y-90010000D01*
X18095000Y-90010000D01*
X18095000Y-90931000D01*
X18075315Y-90998039D01*
X18022511Y-91043794D01*
X17971000Y-91055000D01*
X16360000Y-91055000D01*
X16360000Y-91101071D01*
X16370445Y-91188063D01*
X16425034Y-91326491D01*
X16448959Y-91358040D01*
X16473782Y-91423352D01*
X16459354Y-91491716D01*
X16448959Y-91507891D01*
X16417556Y-91549301D01*
X16362109Y-91689904D01*
X16351499Y-91778262D01*
X16351499Y-92102832D01*
X16331814Y-92169872D01*
X16315180Y-92190513D01*
X15705681Y-92800013D01*
X15644358Y-92833498D01*
X15574667Y-92828514D01*
X15518733Y-92786643D01*
X15494316Y-92721178D01*
X15494000Y-92712332D01*
X15494000Y-90555000D01*
X16360000Y-90555000D01*
X17595000Y-90555000D01*
X17595000Y-90010000D01*
X16858928Y-90010000D01*
X16771936Y-90020445D01*
X16633508Y-90075034D01*
X16514945Y-90164945D01*
X16425034Y-90283508D01*
X16370445Y-90421936D01*
X16360000Y-90508928D01*
X16360000Y-90555000D01*
X15494000Y-90555000D01*
X15494000Y-85197500D01*
X15916001Y-85197500D01*
X15916001Y-85214152D01*
X15926056Y-85312583D01*
X15978906Y-85472072D01*
X15978908Y-85472077D01*
X16067114Y-85615080D01*
X16185919Y-85733885D01*
X16328922Y-85822091D01*
X16328927Y-85822093D01*
X16488416Y-85874942D01*
X16586855Y-85884999D01*
X16640999Y-85884998D01*
X16641000Y-85884998D01*
X16641000Y-85197500D01*
X17141000Y-85197500D01*
X17141000Y-85884999D01*
X17195136Y-85884999D01*
X17195152Y-85884998D01*
X17293583Y-85874943D01*
X17453072Y-85822093D01*
X17453077Y-85822091D01*
X17596080Y-85733885D01*
X17714887Y-85615078D01*
X17737961Y-85577670D01*
X17789909Y-85530945D01*
X17858871Y-85519722D01*
X17922954Y-85547566D01*
X17949039Y-85577670D01*
X17972112Y-85615078D01*
X18090919Y-85733885D01*
X18233922Y-85822091D01*
X18233927Y-85822093D01*
X18393416Y-85874942D01*
X18491855Y-85884999D01*
X18545999Y-85884998D01*
X18546000Y-85884998D01*
X18546000Y-85197500D01*
X17141000Y-85197500D01*
X16641000Y-85197500D01*
X15916001Y-85197500D01*
X15494000Y-85197500D01*
X15494000Y-79330000D01*
X16283501Y-79330000D01*
X16283501Y-79384152D01*
X16293556Y-79482583D01*
X16346406Y-79642072D01*
X16346408Y-79642077D01*
X16434614Y-79785080D01*
X16553419Y-79903885D01*
X16696422Y-79992091D01*
X16696427Y-79992093D01*
X16855916Y-80044942D01*
X16954356Y-80054999D01*
X16971000Y-80054998D01*
X16971000Y-79330000D01*
X16283501Y-79330000D01*
X15494000Y-79330000D01*
X15494000Y-78830000D01*
X16283500Y-78830000D01*
X16971000Y-78830000D01*
X16971000Y-78104999D01*
X16954356Y-78105000D01*
X16855915Y-78115057D01*
X16696427Y-78167906D01*
X16696422Y-78167908D01*
X16553419Y-78256114D01*
X16434614Y-78374919D01*
X16346408Y-78517922D01*
X16346406Y-78517927D01*
X16293557Y-78677416D01*
X16283500Y-78775849D01*
X16283500Y-78830000D01*
X15494000Y-78830000D01*
X15494000Y-74672000D01*
X16309001Y-74672000D01*
X16309001Y-74726152D01*
X16319056Y-74824583D01*
X16371906Y-74984072D01*
X16371908Y-74984077D01*
X16460114Y-75127080D01*
X16578919Y-75245885D01*
X16721922Y-75334091D01*
X16721927Y-75334093D01*
X16881416Y-75386942D01*
X16979856Y-75396999D01*
X16996500Y-75396998D01*
X16996500Y-74672000D01*
X16309001Y-74672000D01*
X15494000Y-74672000D01*
X15494000Y-74172000D01*
X16309000Y-74172000D01*
X16996500Y-74172000D01*
X16996500Y-73446999D01*
X16979856Y-73447000D01*
X16881415Y-73457057D01*
X16721927Y-73509906D01*
X16721922Y-73509908D01*
X16578919Y-73598114D01*
X16460114Y-73716919D01*
X16371908Y-73859922D01*
X16371906Y-73859927D01*
X16319057Y-74019416D01*
X16309000Y-74117849D01*
X16309000Y-74172000D01*
X15494000Y-74172000D01*
X15494000Y-70806654D01*
X16355500Y-70806654D01*
X16362011Y-70867202D01*
X16362011Y-70867204D01*
X16413111Y-71004203D01*
X16413111Y-71004204D01*
X16500739Y-71121261D01*
X16617796Y-71208889D01*
X16754799Y-71259989D01*
X16782050Y-71262918D01*
X16815345Y-71266499D01*
X16815362Y-71266500D01*
X19412638Y-71266500D01*
X19412654Y-71266499D01*
X19439692Y-71263591D01*
X19473201Y-71259989D01*
X19610204Y-71208889D01*
X19727261Y-71121261D01*
X19814889Y-71004204D01*
X19865989Y-70867201D01*
X19869591Y-70833692D01*
X19872499Y-70806654D01*
X19872500Y-70806637D01*
X19872500Y-68209362D01*
X19872499Y-68209345D01*
X19869157Y-68178270D01*
X19865989Y-68148799D01*
X19814889Y-68011796D01*
X19727261Y-67894739D01*
X19610204Y-67807111D01*
X19610203Y-67807110D01*
X19473203Y-67756011D01*
X19412654Y-67749500D01*
X19412638Y-67749500D01*
X16815362Y-67749500D01*
X16815345Y-67749500D01*
X16754797Y-67756011D01*
X16754795Y-67756011D01*
X16617795Y-67807111D01*
X16500739Y-67894739D01*
X16413111Y-68011795D01*
X16362011Y-68148795D01*
X16362011Y-68148797D01*
X16355500Y-68209345D01*
X16355500Y-70806654D01*
X15494000Y-70806654D01*
X15494000Y-59806654D01*
X16355500Y-59806654D01*
X16362011Y-59867202D01*
X16362011Y-59867204D01*
X16411575Y-60000086D01*
X16413111Y-60004204D01*
X16500739Y-60121261D01*
X16617796Y-60208889D01*
X16732297Y-60251596D01*
X16749463Y-60257999D01*
X16754799Y-60259989D01*
X16782050Y-60262918D01*
X16815345Y-60266499D01*
X16815362Y-60266500D01*
X19412638Y-60266500D01*
X19412654Y-60266499D01*
X19439692Y-60263591D01*
X19473201Y-60259989D01*
X19478537Y-60257999D01*
X19495703Y-60251596D01*
X19610204Y-60208889D01*
X19727261Y-60121261D01*
X19814889Y-60004204D01*
X19865989Y-59867201D01*
X19869591Y-59833692D01*
X19872499Y-59806654D01*
X19872500Y-59806637D01*
X19872500Y-58758000D01*
X26364000Y-58758000D01*
X26364000Y-59805844D01*
X26370401Y-59865372D01*
X26370403Y-59865379D01*
X26420645Y-60000086D01*
X26420649Y-60000093D01*
X26506809Y-60115187D01*
X26506812Y-60115190D01*
X26621906Y-60201350D01*
X26621913Y-60201354D01*
X26756620Y-60251596D01*
X26756627Y-60251598D01*
X26816155Y-60257999D01*
X26816172Y-60258000D01*
X27864000Y-60258000D01*
X28363999Y-60258000D01*
X29411828Y-60258000D01*
X29411844Y-60257999D01*
X29471372Y-60251598D01*
X29471379Y-60251596D01*
X29606086Y-60201354D01*
X29606093Y-60201350D01*
X29721187Y-60115190D01*
X29721190Y-60115187D01*
X29807350Y-60000093D01*
X29807354Y-60000086D01*
X29857596Y-59865379D01*
X29857598Y-59865372D01*
X29863999Y-59805844D01*
X29864000Y-59805827D01*
X29864000Y-58758000D01*
X28364000Y-58758000D01*
X28363999Y-60258000D01*
X27864000Y-60258000D01*
X27864000Y-58758000D01*
X26364000Y-58758000D01*
X19872500Y-58758000D01*
X19872500Y-58258000D01*
X26364000Y-58258000D01*
X27864000Y-58258000D01*
X28363999Y-58258000D01*
X29864000Y-58258000D01*
X29864000Y-57210172D01*
X29863999Y-57210155D01*
X29857598Y-57150627D01*
X29857596Y-57150620D01*
X29807354Y-57015913D01*
X29807350Y-57015906D01*
X29721190Y-56900812D01*
X29721187Y-56900809D01*
X29606093Y-56814649D01*
X29606086Y-56814645D01*
X29471379Y-56764403D01*
X29471372Y-56764401D01*
X29411844Y-56758000D01*
X28364000Y-56758000D01*
X28363999Y-58258000D01*
X27864000Y-58258000D01*
X27864000Y-56758000D01*
X26816155Y-56758000D01*
X26756627Y-56764401D01*
X26756620Y-56764403D01*
X26621913Y-56814645D01*
X26621906Y-56814649D01*
X26506812Y-56900809D01*
X26506809Y-56900812D01*
X26420649Y-57015906D01*
X26420645Y-57015913D01*
X26370403Y-57150620D01*
X26370401Y-57150627D01*
X26364000Y-57210155D01*
X26364000Y-58258000D01*
X19872500Y-58258000D01*
X19872500Y-57209362D01*
X19872499Y-57209345D01*
X19869157Y-57178270D01*
X19865989Y-57148799D01*
X19814889Y-57011796D01*
X19727261Y-56894739D01*
X19610204Y-56807111D01*
X19610203Y-56807110D01*
X19473203Y-56756011D01*
X19412654Y-56749500D01*
X19412638Y-56749500D01*
X19011500Y-56749500D01*
X18944461Y-56729815D01*
X18898706Y-56677011D01*
X18887500Y-56625500D01*
X18887500Y-55206089D01*
X18907185Y-55139050D01*
X18923817Y-55118408D01*
X18936086Y-55106141D01*
X19015956Y-54971089D01*
X19059730Y-54820418D01*
X19062500Y-54785220D01*
X19062500Y-54434780D01*
X19059730Y-54399582D01*
X19015956Y-54248911D01*
X18947918Y-54133865D01*
X18936088Y-54113862D01*
X18936081Y-54113853D01*
X18825146Y-54002918D01*
X18825137Y-54002911D01*
X18690087Y-53923043D01*
X18690084Y-53923042D01*
X18539422Y-53879270D01*
X18539416Y-53879269D01*
X18504227Y-53876500D01*
X18504220Y-53876500D01*
X18003780Y-53876500D01*
X18003772Y-53876500D01*
X17968583Y-53879269D01*
X17968577Y-53879270D01*
X17817915Y-53923042D01*
X17817912Y-53923043D01*
X17682862Y-54002911D01*
X17682853Y-54002918D01*
X17571918Y-54113853D01*
X17571911Y-54113862D01*
X17492043Y-54248912D01*
X17492042Y-54248915D01*
X17448270Y-54399577D01*
X17448269Y-54399583D01*
X17445500Y-54434772D01*
X17445500Y-54785227D01*
X17448269Y-54820416D01*
X17448270Y-54820422D01*
X17492042Y-54971084D01*
X17492043Y-54971087D01*
X17571911Y-55106137D01*
X17571912Y-55106138D01*
X17571914Y-55106141D01*
X17584180Y-55118407D01*
X17617665Y-55179727D01*
X17620500Y-55206089D01*
X17620500Y-56485313D01*
X17600815Y-56552352D01*
X17597558Y-56557115D01*
X17587580Y-56575265D01*
X17576903Y-56591520D01*
X17564386Y-56607657D01*
X17564385Y-56607659D01*
X17545626Y-56651009D01*
X17543056Y-56656254D01*
X17536469Y-56668236D01*
X17527124Y-56685235D01*
X17477583Y-56734499D01*
X17418462Y-56749500D01*
X16815345Y-56749500D01*
X16754797Y-56756011D01*
X16754795Y-56756011D01*
X16617795Y-56807111D01*
X16500739Y-56894739D01*
X16413111Y-57011795D01*
X16362011Y-57148795D01*
X16362011Y-57148797D01*
X16355500Y-57209345D01*
X16355500Y-59806654D01*
X15494000Y-59806654D01*
X15494000Y-51940000D01*
X15513685Y-51872961D01*
X15566489Y-51827206D01*
X15618000Y-51816000D01*
X50676000Y-51816000D01*
X50743039Y-51835685D01*
G37*
G04 #@! TD.AperFunction*
G04 #@! TA.AperFunction,Conductor*
G36*
X34156839Y-84234685D02*
G01*
X34202594Y-84287489D01*
X34213800Y-84339000D01*
X34213800Y-87768566D01*
X34212061Y-87784313D01*
X34212332Y-87784339D01*
X34211597Y-87792106D01*
X34213769Y-87861190D01*
X34213800Y-87863138D01*
X34213800Y-87892059D01*
X34214684Y-87899056D01*
X34215142Y-87904879D01*
X34216626Y-87952089D01*
X34216627Y-87952091D01*
X34222322Y-87971695D01*
X34226267Y-87990742D01*
X34228826Y-88010997D01*
X34228827Y-88011000D01*
X34228828Y-88011003D01*
X34246214Y-88054916D01*
X34248106Y-88060444D01*
X34261281Y-88105792D01*
X34271672Y-88123362D01*
X34280232Y-88140835D01*
X34287747Y-88159817D01*
X34315509Y-88198027D01*
X34318716Y-88202910D01*
X34342758Y-88243562D01*
X34342762Y-88243566D01*
X34357189Y-88257993D01*
X34369826Y-88272788D01*
X34381828Y-88289307D01*
X34418231Y-88319422D01*
X34422531Y-88323335D01*
X36141640Y-90042445D01*
X36710612Y-90611417D01*
X36720516Y-90623778D01*
X36720726Y-90623605D01*
X36725697Y-90629613D01*
X36725700Y-90629618D01*
X36776118Y-90676963D01*
X36777427Y-90678232D01*
X36787267Y-90688072D01*
X36797925Y-90698731D01*
X36803513Y-90703066D01*
X36807945Y-90706852D01*
X36829553Y-90727142D01*
X36842380Y-90739187D01*
X36860262Y-90749017D01*
X36876529Y-90759702D01*
X36892660Y-90772215D01*
X36914502Y-90781666D01*
X36936007Y-90790971D01*
X36941233Y-90793531D01*
X36982640Y-90816295D01*
X37002416Y-90821372D01*
X37020824Y-90827675D01*
X37039550Y-90835779D01*
X37039552Y-90835780D01*
X37039553Y-90835780D01*
X37039555Y-90835781D01*
X37077099Y-90841727D01*
X37086203Y-90843169D01*
X37091912Y-90844351D01*
X37137670Y-90856100D01*
X37158084Y-90856100D01*
X37177483Y-90857627D01*
X37197643Y-90860820D01*
X37244665Y-90856375D01*
X37250504Y-90856100D01*
X37889166Y-90856100D01*
X37904913Y-90857838D01*
X37904939Y-90857568D01*
X37912706Y-90858302D01*
X37912708Y-90858301D01*
X37912709Y-90858302D01*
X37922059Y-90858008D01*
X37981791Y-90856131D01*
X37983739Y-90856100D01*
X38012657Y-90856100D01*
X38014022Y-90855927D01*
X38019662Y-90855214D01*
X38025485Y-90854756D01*
X38051508Y-90853938D01*
X38072690Y-90853273D01*
X38082481Y-90850427D01*
X38092281Y-90847580D01*
X38111338Y-90843632D01*
X38131597Y-90841074D01*
X38175521Y-90823682D01*
X38181021Y-90821799D01*
X38226393Y-90808618D01*
X38243965Y-90798225D01*
X38261432Y-90789668D01*
X38280417Y-90782152D01*
X38318626Y-90754390D01*
X38323504Y-90751185D01*
X38364162Y-90727142D01*
X38378602Y-90712700D01*
X38393392Y-90700070D01*
X38409907Y-90688072D01*
X38440021Y-90651668D01*
X38443925Y-90647377D01*
X38615817Y-90475486D01*
X38628181Y-90465582D01*
X38628007Y-90465372D01*
X38634011Y-90460403D01*
X38634018Y-90460400D01*
X38681349Y-90409996D01*
X38682620Y-90408683D01*
X38703135Y-90388170D01*
X38707461Y-90382592D01*
X38711250Y-90378155D01*
X38743586Y-90343721D01*
X38753419Y-90325832D01*
X38764102Y-90309569D01*
X38776614Y-90293441D01*
X38795371Y-90250091D01*
X38797941Y-90244847D01*
X38820693Y-90203464D01*
X38820693Y-90203463D01*
X38820695Y-90203460D01*
X38825774Y-90183673D01*
X38832070Y-90165285D01*
X38840181Y-90146545D01*
X38847569Y-90099897D01*
X38848751Y-90094186D01*
X38860500Y-90048430D01*
X38860500Y-90028014D01*
X38862027Y-90008615D01*
X38865527Y-89986519D01*
X38865536Y-89986499D01*
X38864550Y-89981370D01*
X38860775Y-89941433D01*
X38860500Y-89935595D01*
X38860500Y-88774000D01*
X38880185Y-88706961D01*
X38932989Y-88661206D01*
X38984500Y-88650000D01*
X38988000Y-88650000D01*
X39055039Y-88669685D01*
X39100794Y-88722489D01*
X39112000Y-88774000D01*
X39112000Y-89969701D01*
X39108012Y-89983280D01*
X39110978Y-89990028D01*
X39112000Y-90005919D01*
X39112000Y-90372295D01*
X39112001Y-90372295D01*
X39114486Y-90372100D01*
X39272198Y-90326281D01*
X39311379Y-90303110D01*
X39379102Y-90285927D01*
X39445365Y-90308087D01*
X39489129Y-90362553D01*
X39498500Y-90409842D01*
X39498500Y-91093275D01*
X39478815Y-91160314D01*
X39426011Y-91206069D01*
X39356853Y-91216013D01*
X39335496Y-91210981D01*
X39227084Y-91175057D01*
X39128650Y-91165000D01*
X39112000Y-91165000D01*
X39112000Y-93114999D01*
X39128636Y-93114999D01*
X39128652Y-93114998D01*
X39227083Y-93104943D01*
X39386572Y-93052093D01*
X39386577Y-93052091D01*
X39529582Y-92963884D01*
X39555805Y-92937660D01*
X39617127Y-92904173D01*
X39686819Y-92909155D01*
X39731170Y-92937657D01*
X39767181Y-92973668D01*
X39800666Y-93034991D01*
X39803500Y-93061349D01*
X39803500Y-93758650D01*
X39783815Y-93825689D01*
X39767181Y-93846331D01*
X39731170Y-93882342D01*
X39669847Y-93915827D01*
X39600155Y-93910843D01*
X39555808Y-93882342D01*
X39529580Y-93856114D01*
X39386577Y-93767908D01*
X39386572Y-93767906D01*
X39227083Y-93715057D01*
X39128650Y-93705000D01*
X39112000Y-93705000D01*
X39112000Y-95654999D01*
X39128636Y-95654999D01*
X39128652Y-95654998D01*
X39227083Y-95644943D01*
X39386572Y-95592093D01*
X39386577Y-95592091D01*
X39529582Y-95503884D01*
X39555805Y-95477660D01*
X39617127Y-95444173D01*
X39686819Y-95449155D01*
X39731169Y-95477656D01*
X39764113Y-95510600D01*
X39908808Y-95599849D01*
X40070186Y-95653324D01*
X40169789Y-95663500D01*
X40473233Y-95663499D01*
X40540272Y-95683183D01*
X40560914Y-95699818D01*
X42225381Y-97364285D01*
X42258866Y-97425608D01*
X42261700Y-97451966D01*
X42261700Y-98285604D01*
X42242015Y-98352643D01*
X42189211Y-98398398D01*
X42120053Y-98408342D01*
X42105606Y-98405379D01*
X41960000Y-98366364D01*
X41960000Y-99413981D01*
X41845199Y-99361554D01*
X41743975Y-99347000D01*
X41676025Y-99347000D01*
X41574801Y-99361554D01*
X41460000Y-99413981D01*
X41460000Y-98366364D01*
X41459999Y-98366364D01*
X41246513Y-98423567D01*
X41246507Y-98423570D01*
X41032422Y-98523399D01*
X41032420Y-98523400D01*
X40865673Y-98640158D01*
X40799467Y-98662485D01*
X40731700Y-98645475D01*
X40706869Y-98626264D01*
X37172988Y-95092383D01*
X37163087Y-95080023D01*
X37162877Y-95080198D01*
X37157901Y-95074184D01*
X37157900Y-95074182D01*
X37107514Y-95026867D01*
X37106139Y-95025534D01*
X37085668Y-95005063D01*
X37083692Y-95003531D01*
X37080083Y-95000731D01*
X37075650Y-94996944D01*
X37062027Y-94984152D01*
X37041221Y-94964614D01*
X37041219Y-94964612D01*
X37023331Y-94954778D01*
X37007070Y-94944097D01*
X36990939Y-94931584D01*
X36987278Y-94930000D01*
X37924501Y-94930000D01*
X37924501Y-94984152D01*
X37934556Y-95082583D01*
X37987406Y-95242072D01*
X37987408Y-95242077D01*
X38075614Y-95385080D01*
X38194419Y-95503885D01*
X38337422Y-95592091D01*
X38337427Y-95592093D01*
X38496916Y-95644942D01*
X38595356Y-95654999D01*
X38612000Y-95654998D01*
X38612000Y-94930000D01*
X37924501Y-94930000D01*
X36987278Y-94930000D01*
X36947593Y-94912827D01*
X36942345Y-94910256D01*
X36915151Y-94895306D01*
X36900960Y-94887505D01*
X36897560Y-94886632D01*
X36881187Y-94882428D01*
X36862781Y-94876126D01*
X36844044Y-94868018D01*
X36844046Y-94868018D01*
X36797396Y-94860630D01*
X36791681Y-94859446D01*
X36771512Y-94854268D01*
X36745932Y-94847700D01*
X36745930Y-94847700D01*
X36725516Y-94847700D01*
X36706117Y-94846173D01*
X36685958Y-94842980D01*
X36685957Y-94842980D01*
X36638934Y-94847425D01*
X36633096Y-94847700D01*
X33157575Y-94847700D01*
X33090536Y-94828015D01*
X33044781Y-94775211D01*
X33034286Y-94710445D01*
X33040498Y-94652656D01*
X33040500Y-94652637D01*
X33040500Y-94430000D01*
X37924500Y-94430000D01*
X38612000Y-94430000D01*
X38612000Y-93704999D01*
X38595356Y-93705000D01*
X38496915Y-93715057D01*
X38337427Y-93767906D01*
X38337422Y-93767908D01*
X38194419Y-93856114D01*
X38075614Y-93974919D01*
X37987408Y-94117922D01*
X37987406Y-94117927D01*
X37934557Y-94277416D01*
X37924500Y-94375849D01*
X37924500Y-94430000D01*
X33040500Y-94430000D01*
X33040500Y-93815362D01*
X33040499Y-93815345D01*
X33035398Y-93767906D01*
X33033989Y-93754799D01*
X32992040Y-93642332D01*
X32987055Y-93572644D01*
X32992038Y-93555673D01*
X33033989Y-93443201D01*
X33037733Y-93408375D01*
X33040499Y-93382654D01*
X33040500Y-93382637D01*
X33040500Y-92545362D01*
X33040499Y-92545345D01*
X33037157Y-92514270D01*
X33033989Y-92484799D01*
X33030429Y-92475255D01*
X32998630Y-92390000D01*
X37924501Y-92390000D01*
X37924501Y-92444152D01*
X37934556Y-92542583D01*
X37987406Y-92702072D01*
X37987408Y-92702077D01*
X38075614Y-92845080D01*
X38194419Y-92963885D01*
X38337422Y-93052091D01*
X38337427Y-93052093D01*
X38496916Y-93104942D01*
X38595356Y-93114999D01*
X38612000Y-93114998D01*
X38612000Y-92390000D01*
X37924501Y-92390000D01*
X32998630Y-92390000D01*
X32992040Y-92372332D01*
X32987055Y-92302644D01*
X32992038Y-92285673D01*
X33033989Y-92173201D01*
X33039487Y-92122065D01*
X33040499Y-92112654D01*
X33040500Y-92112637D01*
X33040500Y-91890000D01*
X37924500Y-91890000D01*
X38612000Y-91890000D01*
X38612000Y-91164999D01*
X38595356Y-91165000D01*
X38496915Y-91175057D01*
X38337427Y-91227906D01*
X38337422Y-91227908D01*
X38194419Y-91316114D01*
X38075614Y-91434919D01*
X37987408Y-91577922D01*
X37987406Y-91577927D01*
X37934557Y-91737416D01*
X37924500Y-91835849D01*
X37924500Y-91890000D01*
X33040500Y-91890000D01*
X33040500Y-91275362D01*
X33040499Y-91275345D01*
X33033989Y-91214798D01*
X33024017Y-91188063D01*
X33018638Y-91173644D01*
X33013653Y-91103954D01*
X33047137Y-91042631D01*
X33096502Y-91012379D01*
X33129175Y-91001764D01*
X33136285Y-90997251D01*
X33157084Y-90986652D01*
X33164917Y-90983552D01*
X33211986Y-90949353D01*
X33215185Y-90947180D01*
X33264318Y-90916000D01*
X33270089Y-90909853D01*
X33287594Y-90894421D01*
X33294407Y-90889472D01*
X33331505Y-90844625D01*
X33334026Y-90841766D01*
X33373886Y-90799321D01*
X33377942Y-90791940D01*
X33391059Y-90772638D01*
X33396433Y-90766144D01*
X33421212Y-90713484D01*
X33422956Y-90710060D01*
X33450995Y-90659060D01*
X33453090Y-90650897D01*
X33461001Y-90628929D01*
X33463425Y-90623778D01*
X33464583Y-90621318D01*
X33475488Y-90564148D01*
X33476321Y-90560417D01*
X33490800Y-90504030D01*
X33490800Y-90495606D01*
X33492997Y-90472371D01*
X33494574Y-90464102D01*
X33494574Y-90464099D01*
X33494575Y-90464094D01*
X33490920Y-90406019D01*
X33490799Y-90402143D01*
X33490799Y-89548399D01*
X33490799Y-88692622D01*
X33492539Y-88676882D01*
X33492268Y-88676857D01*
X33493001Y-88669094D01*
X33493002Y-88669091D01*
X33491122Y-88609303D01*
X33490830Y-88600006D01*
X33490799Y-88598056D01*
X33490800Y-88569144D01*
X33489914Y-88562140D01*
X33489456Y-88556313D01*
X33487973Y-88509110D01*
X33487972Y-88509108D01*
X33482279Y-88489514D01*
X33478332Y-88470457D01*
X33475774Y-88450203D01*
X33458384Y-88406284D01*
X33456493Y-88400757D01*
X33443318Y-88355408D01*
X33443318Y-88355407D01*
X33432924Y-88337832D01*
X33424364Y-88320356D01*
X33416854Y-88301388D01*
X33416854Y-88301387D01*
X33416853Y-88301385D01*
X33416852Y-88301383D01*
X33389089Y-88263171D01*
X33385887Y-88258297D01*
X33361842Y-88217637D01*
X33347406Y-88203201D01*
X33334769Y-88188406D01*
X33322771Y-88171892D01*
X33286384Y-88141790D01*
X33282062Y-88137857D01*
X31992707Y-86848502D01*
X30701680Y-85557476D01*
X30668196Y-85496154D01*
X30673180Y-85426462D01*
X30715052Y-85370529D01*
X30750360Y-85352089D01*
X30788075Y-85339591D01*
X30788077Y-85339591D01*
X30931080Y-85251385D01*
X31049887Y-85132578D01*
X31072961Y-85095170D01*
X31124909Y-85048445D01*
X31193871Y-85037222D01*
X31257954Y-85065066D01*
X31284039Y-85095170D01*
X31307112Y-85132578D01*
X31425919Y-85251385D01*
X31568922Y-85339591D01*
X31568927Y-85339593D01*
X31728416Y-85392442D01*
X31826855Y-85402499D01*
X31880999Y-85402498D01*
X31881000Y-85402498D01*
X31881000Y-84715000D01*
X32381000Y-84715000D01*
X32381000Y-85402499D01*
X32435136Y-85402499D01*
X32435152Y-85402498D01*
X32533583Y-85392443D01*
X32693072Y-85339593D01*
X32693077Y-85339591D01*
X32836080Y-85251385D01*
X32954887Y-85132578D01*
X32977961Y-85095170D01*
X33029909Y-85048445D01*
X33098871Y-85037222D01*
X33162954Y-85065066D01*
X33189039Y-85095170D01*
X33212112Y-85132578D01*
X33330919Y-85251385D01*
X33473922Y-85339591D01*
X33473927Y-85339593D01*
X33633416Y-85392442D01*
X33731855Y-85402499D01*
X33785999Y-85402498D01*
X33786000Y-85402498D01*
X33786000Y-84715000D01*
X32381000Y-84715000D01*
X31881000Y-84715000D01*
X30176099Y-84715000D01*
X30109060Y-84695315D01*
X30063305Y-84642511D01*
X30052099Y-84591000D01*
X30052100Y-84339000D01*
X30071785Y-84271960D01*
X30124589Y-84226205D01*
X30176100Y-84215000D01*
X34089800Y-84215000D01*
X34156839Y-84234685D01*
G37*
G04 #@! TD.AperFunction*
G04 #@! TA.AperFunction,Conductor*
G36*
X27625039Y-90193685D02*
G01*
X27670794Y-90246489D01*
X27682000Y-90298000D01*
X27682000Y-91820000D01*
X27662315Y-91887039D01*
X27609511Y-91932794D01*
X27558000Y-91944000D01*
X27306000Y-91944000D01*
X27238961Y-91924315D01*
X27193206Y-91871511D01*
X27182000Y-91820000D01*
X27182000Y-90298000D01*
X27201685Y-90230961D01*
X27254489Y-90185206D01*
X27306000Y-90174000D01*
X27558000Y-90174000D01*
X27625039Y-90193685D01*
G37*
G04 #@! TD.AperFunction*
G04 #@! TA.AperFunction,Conductor*
G36*
X25212039Y-77757685D02*
G01*
X25257794Y-77810489D01*
X25269000Y-77862000D01*
X25269000Y-78925499D01*
X25323136Y-78925499D01*
X25323152Y-78925498D01*
X25421583Y-78915443D01*
X25581072Y-78862593D01*
X25581077Y-78862591D01*
X25724080Y-78774385D01*
X25842885Y-78655580D01*
X25931091Y-78512577D01*
X25931091Y-78512575D01*
X25940436Y-78484375D01*
X25980208Y-78426930D01*
X26044723Y-78400105D01*
X26113499Y-78412419D01*
X26145826Y-78435698D01*
X26442695Y-78732580D01*
X26476179Y-78793904D01*
X26471193Y-78863595D01*
X26429320Y-78919528D01*
X26363855Y-78943943D01*
X26358909Y-78944198D01*
X26323012Y-78945326D01*
X26323009Y-78945327D01*
X26303406Y-78951022D01*
X26284358Y-78954966D01*
X26264103Y-78957526D01*
X26250734Y-78962819D01*
X26220185Y-78974913D01*
X26214659Y-78976805D01*
X26169307Y-78989981D01*
X26151733Y-79000374D01*
X26134272Y-79008928D01*
X26115286Y-79016446D01*
X26115284Y-79016447D01*
X26077072Y-79044208D01*
X26072190Y-79047415D01*
X26031537Y-79071457D01*
X26017101Y-79085894D01*
X26002315Y-79098523D01*
X25985793Y-79110528D01*
X25985791Y-79110529D01*
X25985791Y-79110530D01*
X25985788Y-79110532D01*
X25955680Y-79146925D01*
X25951749Y-79151246D01*
X25568680Y-79534313D01*
X25556321Y-79544216D01*
X25556494Y-79544425D01*
X25550484Y-79549396D01*
X25503172Y-79599778D01*
X25501819Y-79601174D01*
X25481373Y-79621621D01*
X25481357Y-79621639D01*
X25477031Y-79627214D01*
X25473247Y-79631644D01*
X25440919Y-79666071D01*
X25440912Y-79666081D01*
X25431079Y-79683967D01*
X25420403Y-79700220D01*
X25407886Y-79716357D01*
X25407885Y-79716359D01*
X25389125Y-79759710D01*
X25386555Y-79764956D01*
X25363803Y-79806341D01*
X25363803Y-79806342D01*
X25358725Y-79826120D01*
X25352425Y-79844522D01*
X25344318Y-79863257D01*
X25336931Y-79909895D01*
X25335746Y-79915616D01*
X25324000Y-79961365D01*
X25324000Y-79981784D01*
X25322473Y-80001184D01*
X25319279Y-80021341D01*
X25319279Y-80021342D01*
X25323724Y-80068363D01*
X25323999Y-80074200D01*
X25323999Y-82023466D01*
X25322262Y-82039213D01*
X25322532Y-82039239D01*
X25321797Y-82047006D01*
X25323969Y-82116090D01*
X25324000Y-82118038D01*
X25324000Y-82146959D01*
X25324884Y-82153956D01*
X25325342Y-82159779D01*
X25326826Y-82206989D01*
X25326827Y-82206991D01*
X25332522Y-82226595D01*
X25336467Y-82245642D01*
X25339026Y-82265897D01*
X25339027Y-82265900D01*
X25339028Y-82265903D01*
X25356414Y-82309816D01*
X25358306Y-82315344D01*
X25371481Y-82360692D01*
X25381872Y-82378262D01*
X25390432Y-82395735D01*
X25397947Y-82414717D01*
X25425709Y-82452927D01*
X25428918Y-82457812D01*
X25448043Y-82490152D01*
X25452958Y-82498462D01*
X25452962Y-82498466D01*
X25467389Y-82512893D01*
X25480026Y-82527688D01*
X25492028Y-82544207D01*
X25528431Y-82574322D01*
X25532731Y-82578235D01*
X25715205Y-82760709D01*
X25893310Y-82938814D01*
X25903216Y-82951178D01*
X25903426Y-82951005D01*
X25908400Y-82957018D01*
X25958802Y-83004348D01*
X25960176Y-83005680D01*
X25980630Y-83026134D01*
X25986202Y-83030456D01*
X25990642Y-83034249D01*
X26025078Y-83066586D01*
X26042967Y-83076420D01*
X26059233Y-83087104D01*
X26075359Y-83099613D01*
X26118697Y-83118367D01*
X26123946Y-83120938D01*
X26163237Y-83142539D01*
X26212501Y-83192085D01*
X26227500Y-83251201D01*
X26227500Y-83473654D01*
X26234840Y-83541912D01*
X26234249Y-83541975D01*
X26236285Y-83574509D01*
X26236000Y-83577156D01*
X26236000Y-83624999D01*
X26258288Y-83647288D01*
X26287719Y-83674688D01*
X26360827Y-83772349D01*
X26363328Y-83775689D01*
X26387745Y-83841154D01*
X26372893Y-83909427D01*
X26363329Y-83924308D01*
X26302176Y-84006000D01*
X26287720Y-84025311D01*
X26271266Y-84037628D01*
X26272319Y-84038681D01*
X26236000Y-84075000D01*
X26236000Y-84122838D01*
X26236285Y-84125488D01*
X26234249Y-84158024D01*
X26234840Y-84158088D01*
X26227500Y-84226345D01*
X26227500Y-84773644D01*
X26231596Y-84811748D01*
X26231596Y-84838252D01*
X26227500Y-84876355D01*
X26227500Y-85102066D01*
X26207815Y-85169105D01*
X26162730Y-85208170D01*
X26163819Y-85210011D01*
X26139527Y-85224376D01*
X26122062Y-85232932D01*
X26103087Y-85240445D01*
X26103085Y-85240446D01*
X26064876Y-85268206D01*
X26059994Y-85271412D01*
X26019335Y-85295458D01*
X26004979Y-85309815D01*
X25943655Y-85343299D01*
X25873964Y-85338313D01*
X25818031Y-85296440D01*
X25793616Y-85230975D01*
X25793300Y-85222132D01*
X25793300Y-85182131D01*
X25795038Y-85166381D01*
X25794768Y-85166356D01*
X25795502Y-85158593D01*
X25793331Y-85089507D01*
X25793300Y-85087559D01*
X25793300Y-85058646D01*
X25793300Y-85058644D01*
X25792414Y-85051636D01*
X25791956Y-85045814D01*
X25790473Y-84998610D01*
X25790472Y-84998608D01*
X25784777Y-84979008D01*
X25780832Y-84959957D01*
X25778274Y-84939703D01*
X25760884Y-84895784D01*
X25758993Y-84890257D01*
X25745818Y-84844908D01*
X25745818Y-84844907D01*
X25735424Y-84827332D01*
X25726864Y-84809856D01*
X25719354Y-84790888D01*
X25719354Y-84790887D01*
X25719353Y-84790885D01*
X25719352Y-84790883D01*
X25691589Y-84752671D01*
X25688387Y-84747797D01*
X25664342Y-84707137D01*
X25649906Y-84692701D01*
X25637269Y-84677906D01*
X25625271Y-84661392D01*
X25588884Y-84631290D01*
X25584562Y-84627357D01*
X23118388Y-82161183D01*
X23108487Y-82148823D01*
X23108277Y-82148998D01*
X23103301Y-82142984D01*
X23103300Y-82142982D01*
X23052914Y-82095667D01*
X23051539Y-82094334D01*
X23031068Y-82073863D01*
X23029092Y-82072331D01*
X23025483Y-82069531D01*
X23021050Y-82065744D01*
X23001095Y-82047006D01*
X22986621Y-82033414D01*
X22986619Y-82033412D01*
X22968731Y-82023578D01*
X22952470Y-82012897D01*
X22931376Y-81996535D01*
X22890469Y-81939892D01*
X22886679Y-81870125D01*
X22921210Y-81809385D01*
X22934489Y-81798238D01*
X22965986Y-81775353D01*
X22969198Y-81773172D01*
X22972839Y-81770860D01*
X23018318Y-81742000D01*
X23024089Y-81735853D01*
X23041594Y-81720421D01*
X23048407Y-81715472D01*
X23085505Y-81670625D01*
X23088026Y-81667766D01*
X23127886Y-81625321D01*
X23131942Y-81617940D01*
X23145059Y-81598638D01*
X23150433Y-81592144D01*
X23175212Y-81539484D01*
X23176956Y-81536060D01*
X23204995Y-81485060D01*
X23207090Y-81476897D01*
X23215001Y-81454929D01*
X23218583Y-81447318D01*
X23229488Y-81390148D01*
X23230321Y-81386417D01*
X23244800Y-81330030D01*
X23244800Y-81321605D01*
X23246996Y-81298374D01*
X23248575Y-81290094D01*
X23244921Y-81232018D01*
X23244800Y-81228146D01*
X23244800Y-79428565D01*
X23264485Y-79361526D01*
X23281114Y-79340889D01*
X23996981Y-78625022D01*
X24058300Y-78591540D01*
X24127991Y-78596524D01*
X24183925Y-78638396D01*
X24190195Y-78647606D01*
X24195113Y-78655579D01*
X24313919Y-78774385D01*
X24456922Y-78862591D01*
X24456927Y-78862593D01*
X24616416Y-78915442D01*
X24714855Y-78925499D01*
X24768998Y-78925498D01*
X24768999Y-78925498D01*
X24768999Y-77904366D01*
X24788684Y-77837327D01*
X24805314Y-77816689D01*
X24847686Y-77774318D01*
X24909009Y-77740833D01*
X24935366Y-77738000D01*
X25145000Y-77738000D01*
X25212039Y-77757685D01*
G37*
G04 #@! TD.AperFunction*
M02*
