G04 #@! TF.GenerationSoftware,KiCad,Pcbnew,7.0.5*
G04 #@! TF.CreationDate,2023-07-03T11:33:58+02:00*
G04 #@! TF.ProjectId,STM32CAN,53544d33-3243-4414-9e2e-6b696361645f,rev?*
G04 #@! TF.SameCoordinates,Original*
G04 #@! TF.FileFunction,Legend,Top*
G04 #@! TF.FilePolarity,Positive*
%FSLAX46Y46*%
G04 Gerber Fmt 4.6, Leading zero omitted, Abs format (unit mm)*
G04 Created by KiCad (PCBNEW 7.0.5) date 2023-07-03 11:33:58*
%MOMM*%
%LPD*%
G01*
G04 APERTURE LIST*
%ADD10C,0.150000*%
%ADD11C,0.254000*%
%ADD12C,0.127000*%
%ADD13C,0.300000*%
%ADD14C,0.120000*%
%ADD15C,0.100000*%
%ADD16C,0.200000*%
G04 APERTURE END LIST*
D10*
G36*
X46036926Y-91159703D02*
G01*
X46017786Y-91162988D01*
X46000389Y-91165850D01*
X45984485Y-91168311D01*
X45969827Y-91170394D01*
X45951792Y-91172617D01*
X45934941Y-91174258D01*
X45918687Y-91175365D01*
X45902442Y-91175992D01*
X45885617Y-91176190D01*
X45870486Y-91175938D01*
X45855799Y-91175183D01*
X45827768Y-91172175D01*
X45801544Y-91167179D01*
X45777145Y-91160213D01*
X45754590Y-91151290D01*
X45733897Y-91140428D01*
X45715086Y-91127641D01*
X45698176Y-91112946D01*
X45683185Y-91096357D01*
X45670131Y-91077890D01*
X45659034Y-91057561D01*
X45649913Y-91035385D01*
X45642786Y-91011379D01*
X45637672Y-90985556D01*
X45634590Y-90957934D01*
X45633558Y-90928527D01*
X45633558Y-90897020D01*
X46095910Y-91012425D01*
X46107257Y-91025948D01*
X46118919Y-91039579D01*
X46129040Y-91050975D01*
X46141051Y-91063812D01*
X46152533Y-91075573D01*
X46163655Y-91086759D01*
X46173579Y-91096688D01*
X46182727Y-91083513D01*
X46192654Y-91071352D01*
X46204233Y-91060930D01*
X46217541Y-91053052D01*
X46231702Y-91047121D01*
X46234396Y-91046130D01*
X46251923Y-91051754D01*
X46266556Y-91056365D01*
X46283852Y-91061568D01*
X46299352Y-91065971D01*
X46318517Y-91071203D01*
X46336508Y-91076012D01*
X46350699Y-91079772D01*
X46366941Y-91084057D01*
X46385486Y-91088940D01*
X46406587Y-91094490D01*
X46426457Y-91100029D01*
X46445161Y-91105255D01*
X46462748Y-91110183D01*
X46479269Y-91114831D01*
X46494774Y-91119215D01*
X46509313Y-91123353D01*
X46535696Y-91130955D01*
X46558821Y-91137772D01*
X46579089Y-91143937D01*
X46596903Y-91149584D01*
X46612667Y-91154849D01*
X46626782Y-91159864D01*
X46645743Y-91167214D01*
X46663260Y-91174758D01*
X46680689Y-91182950D01*
X46699390Y-91192241D01*
X46713234Y-91199270D01*
X46733251Y-91210358D01*
X46752079Y-91222318D01*
X46769701Y-91235137D01*
X46786106Y-91248804D01*
X46801279Y-91263306D01*
X46815205Y-91278631D01*
X46827871Y-91294765D01*
X46839263Y-91311698D01*
X46849367Y-91329417D01*
X46858170Y-91347909D01*
X46865656Y-91367162D01*
X46871812Y-91387164D01*
X46876625Y-91407902D01*
X46880080Y-91429364D01*
X46882163Y-91451537D01*
X46882861Y-91474410D01*
X46882639Y-91489892D01*
X46881910Y-91505047D01*
X46880581Y-91520340D01*
X46878556Y-91536234D01*
X46875741Y-91553193D01*
X46872041Y-91571680D01*
X46868630Y-91586827D01*
X46864627Y-91603290D01*
X46861612Y-91615094D01*
X47002662Y-91699358D01*
X47006147Y-91682034D01*
X47008775Y-91666964D01*
X47010951Y-91650723D01*
X47012238Y-91635177D01*
X47012825Y-91618935D01*
X47012920Y-91607034D01*
X47012412Y-91583015D01*
X47010815Y-91559725D01*
X47008020Y-91536947D01*
X47003915Y-91514464D01*
X46998392Y-91492061D01*
X46991340Y-91469521D01*
X46982648Y-91446627D01*
X46972208Y-91423165D01*
X46959908Y-91398917D01*
X46945640Y-91373666D01*
X46937733Y-91360598D01*
X46929292Y-91347198D01*
X46920305Y-91333439D01*
X46910756Y-91319295D01*
X46900632Y-91304738D01*
X46889920Y-91289741D01*
X46878606Y-91274278D01*
X46866675Y-91258320D01*
X46854115Y-91241842D01*
X46840912Y-91224816D01*
X46827051Y-91207215D01*
X46812519Y-91189012D01*
X46799585Y-91172919D01*
X46787259Y-91157724D01*
X46775478Y-91143389D01*
X46764179Y-91129877D01*
X46753299Y-91117151D01*
X46742777Y-91105172D01*
X46732549Y-91093902D01*
X46712727Y-91073342D01*
X46693334Y-91055168D01*
X46673869Y-91039079D01*
X46653831Y-91024773D01*
X46632721Y-91011949D01*
X46610039Y-91000306D01*
X46585285Y-90989540D01*
X46557957Y-90979352D01*
X46543172Y-90974380D01*
X46527557Y-90969439D01*
X46511048Y-90964492D01*
X46493583Y-90959500D01*
X46475100Y-90954426D01*
X46455536Y-90949233D01*
X46434829Y-90943882D01*
X46412916Y-90938336D01*
X46389734Y-90932557D01*
X45614874Y-90739483D01*
X45554057Y-90670240D01*
X45554107Y-90697167D01*
X45554264Y-90722145D01*
X45554540Y-90745349D01*
X45554950Y-90766949D01*
X45555506Y-90787120D01*
X45556221Y-90806034D01*
X45557108Y-90823864D01*
X45558179Y-90840783D01*
X45559448Y-90856963D01*
X45560927Y-90872578D01*
X45562629Y-90887800D01*
X45564567Y-90902802D01*
X45566755Y-90917756D01*
X45569204Y-90932836D01*
X45571928Y-90948215D01*
X45574940Y-90964065D01*
X45579599Y-90985477D01*
X45584911Y-91006362D01*
X45590866Y-91026710D01*
X45597451Y-91046510D01*
X45604655Y-91065753D01*
X45612467Y-91084429D01*
X45620874Y-91102527D01*
X45629866Y-91120038D01*
X45639431Y-91136952D01*
X45649556Y-91153259D01*
X45660231Y-91168948D01*
X45671444Y-91184010D01*
X45683182Y-91198434D01*
X45695436Y-91212212D01*
X45708192Y-91225332D01*
X45721440Y-91237784D01*
X45735168Y-91249560D01*
X45749363Y-91260648D01*
X45764016Y-91271039D01*
X45779113Y-91280723D01*
X45794644Y-91289689D01*
X45810596Y-91297928D01*
X45826959Y-91305430D01*
X45843720Y-91312185D01*
X45860868Y-91318183D01*
X45878391Y-91323413D01*
X45896278Y-91327866D01*
X45914518Y-91331532D01*
X45933097Y-91334400D01*
X45952006Y-91336461D01*
X45971232Y-91337706D01*
X45990764Y-91338123D01*
X46005769Y-91337905D01*
X46022916Y-91336949D01*
X46039356Y-91335107D01*
X46056245Y-91332246D01*
X46070858Y-91329132D01*
X46087091Y-91325212D01*
X46105538Y-91320416D01*
X46110565Y-91319072D01*
X46036926Y-91159703D01*
G37*
G36*
X46094664Y-89919022D02*
G01*
X46123172Y-89920554D01*
X46137850Y-89921872D01*
X46152774Y-89923546D01*
X46167916Y-89925568D01*
X46183249Y-89927927D01*
X46198744Y-89930614D01*
X46214375Y-89933621D01*
X46230113Y-89936938D01*
X46245931Y-89940555D01*
X46261802Y-89944465D01*
X46277697Y-89948657D01*
X46293589Y-89953123D01*
X46309451Y-89957852D01*
X46325254Y-89962837D01*
X46340972Y-89968067D01*
X46356576Y-89973534D01*
X46372039Y-89979229D01*
X46387333Y-89985141D01*
X46402431Y-89991263D01*
X46417304Y-89997585D01*
X46431926Y-90004097D01*
X46446269Y-90010790D01*
X46460305Y-90017656D01*
X46474006Y-90024685D01*
X46487344Y-90031868D01*
X46500293Y-90039196D01*
X46524911Y-90054248D01*
X46547637Y-90069769D01*
X46552183Y-90073433D01*
X46565966Y-90085526D01*
X46579979Y-90099290D01*
X46594234Y-90114747D01*
X46603878Y-90126003D01*
X46613639Y-90138028D01*
X46623521Y-90150827D01*
X46633527Y-90164408D01*
X46643661Y-90178777D01*
X46653928Y-90193940D01*
X46664330Y-90209904D01*
X46674872Y-90226675D01*
X46685557Y-90244259D01*
X46696389Y-90262663D01*
X46707372Y-90281894D01*
X46711992Y-90290659D01*
X46720723Y-90307625D01*
X46728785Y-90323877D01*
X46736191Y-90339461D01*
X46742954Y-90354420D01*
X46749085Y-90368802D01*
X46757125Y-90389388D01*
X46763813Y-90408925D01*
X46769193Y-90427567D01*
X46773304Y-90445465D01*
X46776189Y-90462771D01*
X46777889Y-90479638D01*
X46778447Y-90496217D01*
X46777499Y-90516625D01*
X46774690Y-90536050D01*
X46770076Y-90554446D01*
X46763712Y-90571769D01*
X46755652Y-90587970D01*
X46745951Y-90603005D01*
X46734663Y-90616828D01*
X46721844Y-90629391D01*
X46707547Y-90640649D01*
X46691829Y-90650556D01*
X46674743Y-90659065D01*
X46656344Y-90666130D01*
X46636688Y-90671706D01*
X46615828Y-90675746D01*
X46593820Y-90678204D01*
X46570718Y-90679033D01*
X46550982Y-90678758D01*
X46531220Y-90677939D01*
X46511455Y-90676586D01*
X46491710Y-90674709D01*
X46472008Y-90672318D01*
X46452373Y-90669424D01*
X46432827Y-90666036D01*
X46413393Y-90662163D01*
X46394096Y-90657817D01*
X46374957Y-90653007D01*
X46356000Y-90647743D01*
X46337249Y-90642035D01*
X46318726Y-90635894D01*
X46300454Y-90629328D01*
X46282457Y-90622349D01*
X46264758Y-90614965D01*
X46247380Y-90607188D01*
X46230346Y-90599027D01*
X46213679Y-90590492D01*
X46197402Y-90581592D01*
X46181539Y-90572339D01*
X46166113Y-90562742D01*
X46151146Y-90552812D01*
X46136662Y-90542557D01*
X46122685Y-90531988D01*
X46109236Y-90521115D01*
X46096340Y-90509949D01*
X46084020Y-90498498D01*
X46072298Y-90486773D01*
X46061198Y-90474785D01*
X46050743Y-90462542D01*
X46040956Y-90450056D01*
X46024017Y-90426728D01*
X46007853Y-90403240D01*
X45992506Y-90379683D01*
X45978021Y-90356146D01*
X45964442Y-90332718D01*
X45951813Y-90309490D01*
X45940178Y-90286550D01*
X45929581Y-90263988D01*
X45920066Y-90241895D01*
X45911676Y-90220359D01*
X45910532Y-90217048D01*
X45986367Y-90217048D01*
X45989258Y-90244628D01*
X45997674Y-90272121D01*
X46003836Y-90285761D01*
X46011237Y-90299292D01*
X46019829Y-90312685D01*
X46029564Y-90325910D01*
X46040395Y-90338937D01*
X46052274Y-90351739D01*
X46065154Y-90364285D01*
X46078987Y-90376547D01*
X46093726Y-90388495D01*
X46109322Y-90400101D01*
X46125728Y-90411334D01*
X46142896Y-90422166D01*
X46160780Y-90432568D01*
X46179330Y-90442510D01*
X46198501Y-90451963D01*
X46218243Y-90460898D01*
X46238509Y-90469287D01*
X46259253Y-90477098D01*
X46280425Y-90484305D01*
X46301979Y-90490877D01*
X46323866Y-90496784D01*
X46346040Y-90501999D01*
X46368452Y-90506492D01*
X46391055Y-90510233D01*
X46413802Y-90513194D01*
X46436644Y-90515344D01*
X46459534Y-90516656D01*
X46482424Y-90517100D01*
X46493531Y-90516941D01*
X46514978Y-90515680D01*
X46535360Y-90513190D01*
X46554624Y-90509505D01*
X46572718Y-90504660D01*
X46589590Y-90498687D01*
X46605189Y-90491620D01*
X46619462Y-90483494D01*
X46632357Y-90474342D01*
X46643822Y-90464198D01*
X46653805Y-90453096D01*
X46665887Y-90434720D01*
X46671937Y-90421370D01*
X46676323Y-90407180D01*
X46678993Y-90392184D01*
X46679895Y-90376416D01*
X46679133Y-90361495D01*
X46676859Y-90346692D01*
X46673087Y-90332022D01*
X46667833Y-90317500D01*
X46661114Y-90303142D01*
X46652943Y-90288961D01*
X46643338Y-90274974D01*
X46632313Y-90261195D01*
X46619885Y-90247639D01*
X46606067Y-90234321D01*
X46590878Y-90221257D01*
X46574330Y-90208461D01*
X46556442Y-90195949D01*
X46537227Y-90183734D01*
X46516701Y-90171834D01*
X46494881Y-90160261D01*
X46475532Y-90151033D01*
X46456111Y-90142314D01*
X46436651Y-90134117D01*
X46417183Y-90126453D01*
X46397738Y-90119334D01*
X46378349Y-90112773D01*
X46359047Y-90106780D01*
X46339863Y-90101368D01*
X46320829Y-90096549D01*
X46301978Y-90092334D01*
X46283340Y-90088735D01*
X46264947Y-90085763D01*
X46246831Y-90083432D01*
X46229024Y-90081752D01*
X46211557Y-90080735D01*
X46194462Y-90080394D01*
X46170994Y-90081003D01*
X46148705Y-90082810D01*
X46127642Y-90085784D01*
X46107851Y-90089897D01*
X46089378Y-90095117D01*
X46072270Y-90101414D01*
X46056571Y-90108759D01*
X46042329Y-90117122D01*
X46029590Y-90126472D01*
X46018400Y-90136780D01*
X46008804Y-90148015D01*
X45997503Y-90166540D01*
X45990050Y-90186983D01*
X45987296Y-90201627D01*
X45986367Y-90217048D01*
X45910532Y-90217048D01*
X45904457Y-90199470D01*
X45898451Y-90179318D01*
X45893704Y-90159993D01*
X45890258Y-90141583D01*
X45888159Y-90124180D01*
X45887449Y-90107871D01*
X45888374Y-90087394D01*
X45891103Y-90067772D01*
X45895568Y-90049068D01*
X45901703Y-90031347D01*
X45909439Y-90014674D01*
X45918709Y-89999113D01*
X45929445Y-89984728D01*
X45941579Y-89971584D01*
X45955045Y-89959745D01*
X45969774Y-89949276D01*
X45985698Y-89940240D01*
X46002751Y-89932703D01*
X46020864Y-89926729D01*
X46039970Y-89922382D01*
X46060001Y-89919727D01*
X46080889Y-89918827D01*
X46094664Y-89919022D01*
G37*
G36*
X46774050Y-89864605D02*
G01*
X46713234Y-89715495D01*
X46223771Y-89591298D01*
X46214737Y-89577929D01*
X46206882Y-89565524D01*
X46198554Y-89551693D01*
X46192264Y-89541106D01*
X46182603Y-89526207D01*
X46173629Y-89512259D01*
X46165374Y-89499323D01*
X46155538Y-89483756D01*
X46147107Y-89470242D01*
X46138655Y-89456462D01*
X46130973Y-89443488D01*
X46129249Y-89440356D01*
X46115965Y-89415910D01*
X46104338Y-89394487D01*
X46094259Y-89375857D01*
X46085618Y-89359790D01*
X46078303Y-89346053D01*
X46069576Y-89329315D01*
X46061552Y-89313003D01*
X46055457Y-89297655D01*
X46053778Y-89282819D01*
X46059553Y-89268977D01*
X46072325Y-89261541D01*
X46085286Y-89259738D01*
X46100034Y-89260403D01*
X46117732Y-89262587D01*
X46134947Y-89265620D01*
X46150111Y-89268740D01*
X46167539Y-89272654D01*
X46187531Y-89277422D01*
X46202433Y-89281107D01*
X46218697Y-89285217D01*
X46236413Y-89289771D01*
X46255669Y-89294787D01*
X46265903Y-89297474D01*
X46287864Y-89303083D01*
X46309237Y-89308508D01*
X46330025Y-89313749D01*
X46350232Y-89318807D01*
X46369863Y-89323682D01*
X46388921Y-89328374D01*
X46407410Y-89332884D01*
X46425335Y-89337213D01*
X46442698Y-89341359D01*
X46459505Y-89345325D01*
X46475759Y-89349111D01*
X46491464Y-89352716D01*
X46506624Y-89356141D01*
X46521243Y-89359387D01*
X46548874Y-89365343D01*
X46574388Y-89370585D01*
X46597817Y-89375118D01*
X46619193Y-89378945D01*
X46638547Y-89382069D01*
X46655911Y-89384493D01*
X46671317Y-89386221D01*
X46690824Y-89387513D01*
X46696381Y-89387599D01*
X46711831Y-89385922D01*
X46727423Y-89381403D01*
X46742966Y-89374952D01*
X46757844Y-89367570D01*
X46771218Y-89360249D01*
X46778447Y-89356092D01*
X46767030Y-89334030D01*
X46754810Y-89311197D01*
X46741859Y-89287706D01*
X46728249Y-89263671D01*
X46714054Y-89239204D01*
X46699344Y-89214418D01*
X46684194Y-89189428D01*
X46676476Y-89176891D01*
X46668675Y-89164346D01*
X46660800Y-89151806D01*
X46652860Y-89139285D01*
X46644864Y-89126798D01*
X46636821Y-89114359D01*
X46628740Y-89101982D01*
X46620630Y-89089681D01*
X46612501Y-89077471D01*
X46596219Y-89053377D01*
X46579967Y-89029814D01*
X46563818Y-89006896D01*
X46547843Y-88984735D01*
X46539944Y-88973974D01*
X46479494Y-88959319D01*
X46488861Y-88975259D01*
X46497736Y-88990397D01*
X46506132Y-89004759D01*
X46514062Y-89018368D01*
X46521539Y-89031249D01*
X46535182Y-89054929D01*
X46547165Y-89075996D01*
X46557588Y-89094648D01*
X46566555Y-89111084D01*
X46574167Y-89125501D01*
X46583266Y-89143774D01*
X46589890Y-89158620D01*
X46595467Y-89174237D01*
X46598352Y-89189271D01*
X46598562Y-89194525D01*
X46593794Y-89208904D01*
X46582144Y-89218425D01*
X46566877Y-89223789D01*
X46550443Y-89225888D01*
X46544340Y-89226032D01*
X46528627Y-89225701D01*
X46512302Y-89224499D01*
X46493978Y-89222117D01*
X46472270Y-89218247D01*
X46455234Y-89214685D01*
X46435667Y-89210233D01*
X46413160Y-89204797D01*
X46387301Y-89198287D01*
X46372986Y-89194600D01*
X46357680Y-89190610D01*
X46341330Y-89186305D01*
X46323886Y-89181674D01*
X46305296Y-89176705D01*
X46285509Y-89171388D01*
X46264474Y-89165710D01*
X46242139Y-89159660D01*
X46218453Y-89153226D01*
X46193364Y-89146398D01*
X46166822Y-89139163D01*
X46138775Y-89131511D01*
X46120335Y-89126551D01*
X46103045Y-89121902D01*
X46086865Y-89117552D01*
X46071756Y-89113492D01*
X46044593Y-89106202D01*
X46021241Y-89099952D01*
X46001383Y-89094661D01*
X45984704Y-89090249D01*
X45964957Y-89085107D01*
X45950588Y-89081493D01*
X45935699Y-89078137D01*
X45923353Y-89076922D01*
X45908933Y-89079979D01*
X45896407Y-89090202D01*
X45889509Y-89104636D01*
X45887449Y-89120886D01*
X45889466Y-89136289D01*
X45895590Y-89156671D01*
X45902006Y-89173127D01*
X45910327Y-89191949D01*
X45920583Y-89213197D01*
X45932806Y-89236933D01*
X45947029Y-89263218D01*
X45954900Y-89277336D01*
X45963282Y-89292114D01*
X45972180Y-89307560D01*
X45981598Y-89323681D01*
X45991539Y-89340486D01*
X46002008Y-89357981D01*
X46013008Y-89376175D01*
X46024544Y-89395075D01*
X46036618Y-89414689D01*
X46049237Y-89435024D01*
X46062402Y-89456088D01*
X46076119Y-89477889D01*
X46090390Y-89500435D01*
X46105221Y-89523732D01*
X46120615Y-89547789D01*
X46136577Y-89572613D01*
X45856308Y-89501172D01*
X45837413Y-89496518D01*
X45819320Y-89492031D01*
X45802004Y-89487705D01*
X45785442Y-89483533D01*
X45769610Y-89479508D01*
X45754486Y-89475624D01*
X45740046Y-89471874D01*
X45713123Y-89464749D01*
X45688655Y-89458080D01*
X45666454Y-89451815D01*
X45646332Y-89445900D01*
X45628104Y-89440282D01*
X45611580Y-89434908D01*
X45596575Y-89429725D01*
X45576503Y-89422192D01*
X45558793Y-89414789D01*
X45542813Y-89407337D01*
X45532808Y-89402254D01*
X45517055Y-89393626D01*
X45502960Y-89384234D01*
X45490498Y-89374087D01*
X45479646Y-89363195D01*
X45470381Y-89351566D01*
X45460455Y-89334931D01*
X45453252Y-89317024D01*
X45449603Y-89302772D01*
X45447431Y-89287826D01*
X45446713Y-89272194D01*
X45446993Y-89257529D01*
X45448181Y-89242042D01*
X45450241Y-89226356D01*
X45452807Y-89210743D01*
X45456356Y-89191449D01*
X45459756Y-89174030D01*
X45463861Y-89153670D01*
X45465397Y-89146165D01*
X45337536Y-89056039D01*
X45334027Y-89072341D01*
X45330891Y-89089069D01*
X45328776Y-89104102D01*
X45327523Y-89118918D01*
X45326973Y-89134994D01*
X45326912Y-89143967D01*
X45327298Y-89164679D01*
X45328528Y-89184368D01*
X45330706Y-89203246D01*
X45333935Y-89221527D01*
X45338322Y-89239424D01*
X45343971Y-89257150D01*
X45350986Y-89274917D01*
X45359472Y-89292940D01*
X45369534Y-89311430D01*
X45381276Y-89330602D01*
X45394803Y-89350667D01*
X45410219Y-89371840D01*
X45427630Y-89394333D01*
X45437116Y-89406141D01*
X45447140Y-89418359D01*
X45457715Y-89431013D01*
X45468853Y-89444131D01*
X45480569Y-89457739D01*
X45492875Y-89471863D01*
X45510306Y-89491286D01*
X45526763Y-89508750D01*
X45542688Y-89524462D01*
X45558522Y-89538627D01*
X45574709Y-89551450D01*
X45591690Y-89563137D01*
X45609907Y-89573893D01*
X45629803Y-89583925D01*
X45651820Y-89593436D01*
X45676400Y-89602634D01*
X45703986Y-89611724D01*
X45719043Y-89616292D01*
X45735018Y-89620910D01*
X45751966Y-89625604D01*
X45769941Y-89630399D01*
X45788999Y-89635322D01*
X45809196Y-89640397D01*
X45830586Y-89645650D01*
X45853225Y-89651108D01*
X45877168Y-89656796D01*
X45902470Y-89662739D01*
X46774050Y-89864605D01*
G37*
G36*
X46723126Y-88754155D02*
G01*
X46221939Y-88630324D01*
X46187868Y-88577934D01*
X46176581Y-88560126D01*
X46165926Y-88543295D01*
X46155886Y-88527407D01*
X46146443Y-88512429D01*
X46137578Y-88498330D01*
X46129273Y-88485076D01*
X46121511Y-88472634D01*
X46107544Y-88450057D01*
X46095530Y-88430338D01*
X46085328Y-88413214D01*
X46076792Y-88398423D01*
X46066799Y-88380039D01*
X46059747Y-88365433D01*
X46054082Y-88350305D01*
X46051388Y-88335436D01*
X46051214Y-88329905D01*
X46056977Y-88316239D01*
X46071484Y-88309623D01*
X46079057Y-88309023D01*
X46097718Y-88310225D01*
X46112494Y-88312297D01*
X46130984Y-88315587D01*
X46145791Y-88318538D01*
X46162871Y-88322154D01*
X46182477Y-88326484D01*
X46204856Y-88331577D01*
X46230258Y-88337482D01*
X46258933Y-88344250D01*
X46274576Y-88347972D01*
X46291130Y-88351928D01*
X46308628Y-88356124D01*
X46327100Y-88360567D01*
X46346577Y-88365262D01*
X46367091Y-88370216D01*
X46388672Y-88375435D01*
X46411353Y-88380925D01*
X46435163Y-88386692D01*
X46452349Y-88390910D01*
X46468684Y-88394912D01*
X46484198Y-88398704D01*
X46498917Y-88402291D01*
X46526083Y-88408871D01*
X46550408Y-88414696D01*
X46572114Y-88419808D01*
X46591424Y-88424250D01*
X46608561Y-88428065D01*
X46623750Y-88431297D01*
X46643366Y-88435143D01*
X46659852Y-88437917D01*
X46678268Y-88440198D01*
X46694245Y-88441174D01*
X46701877Y-88441280D01*
X46718265Y-88440350D01*
X46734527Y-88437397D01*
X46751389Y-88432173D01*
X46766420Y-88425908D01*
X46782790Y-88417753D01*
X46797131Y-88409773D01*
X46788635Y-88391449D01*
X46778978Y-88371974D01*
X46768213Y-88351424D01*
X46756391Y-88329877D01*
X46743561Y-88307409D01*
X46729775Y-88284096D01*
X46715085Y-88260017D01*
X46699541Y-88235246D01*
X46691465Y-88222626D01*
X46683194Y-88209862D01*
X46674736Y-88196963D01*
X46666095Y-88183940D01*
X46657280Y-88170802D01*
X46648296Y-88157558D01*
X46639149Y-88144218D01*
X46629846Y-88130792D01*
X46620393Y-88117289D01*
X46610798Y-88103719D01*
X46601065Y-88090092D01*
X46591201Y-88076416D01*
X46581213Y-88062703D01*
X46571108Y-88048960D01*
X46560890Y-88035198D01*
X46550568Y-88021427D01*
X46490851Y-88006772D01*
X46501719Y-88025321D01*
X46511944Y-88042798D01*
X46521545Y-88059239D01*
X46530541Y-88074679D01*
X46538952Y-88089155D01*
X46546798Y-88102702D01*
X46560872Y-88127151D01*
X46572920Y-88148315D01*
X46583097Y-88166478D01*
X46591562Y-88181926D01*
X46598470Y-88194946D01*
X46606258Y-88210548D01*
X46612656Y-88225522D01*
X46616261Y-88240138D01*
X46616514Y-88246008D01*
X46611610Y-88261609D01*
X46599456Y-88271752D01*
X46583283Y-88277384D01*
X46565618Y-88279564D01*
X46558995Y-88279714D01*
X46543110Y-88279429D01*
X46526744Y-88278327D01*
X46508292Y-88276035D01*
X46486152Y-88272179D01*
X46468551Y-88268555D01*
X46448124Y-88263960D01*
X46424395Y-88258283D01*
X46396889Y-88251413D01*
X46381572Y-88247497D01*
X46365132Y-88243241D01*
X46347511Y-88238631D01*
X46328649Y-88233655D01*
X46308486Y-88228297D01*
X46286964Y-88222544D01*
X46264023Y-88216383D01*
X46239603Y-88209800D01*
X46213645Y-88202780D01*
X46186091Y-88195309D01*
X46156879Y-88187375D01*
X46125952Y-88178963D01*
X46108710Y-88174170D01*
X46092543Y-88169677D01*
X46077414Y-88165473D01*
X46063286Y-88161550D01*
X46037883Y-88154504D01*
X46016037Y-88148464D01*
X45997452Y-88143350D01*
X45981831Y-88139087D01*
X45963308Y-88134117D01*
X45946215Y-88129744D01*
X45930548Y-88126555D01*
X45923353Y-88126207D01*
X45908005Y-88128943D01*
X45895637Y-88138156D01*
X45888784Y-88153204D01*
X45887449Y-88166141D01*
X45887912Y-88182104D01*
X45890328Y-88197402D01*
X45896240Y-88215078D01*
X45903894Y-88231727D01*
X45910891Y-88245156D01*
X45919629Y-88260891D01*
X45930301Y-88279313D01*
X45943099Y-88300804D01*
X45958215Y-88325742D01*
X45966703Y-88339624D01*
X45975842Y-88354510D01*
X45985658Y-88370448D01*
X45996174Y-88387486D01*
X46007414Y-88405672D01*
X46019402Y-88425053D01*
X46032163Y-88445677D01*
X46041901Y-88461064D01*
X46051195Y-88475764D01*
X46060050Y-88489778D01*
X46068467Y-88503104D01*
X46076451Y-88515744D01*
X46087621Y-88533415D01*
X46097834Y-88549541D01*
X46107099Y-88564121D01*
X46115429Y-88577156D01*
X46125099Y-88592131D01*
X46134913Y-88606986D01*
X46136577Y-88609441D01*
X46121956Y-88605432D01*
X46106286Y-88601273D01*
X46089813Y-88597021D01*
X46072783Y-88592732D01*
X46055445Y-88588462D01*
X46038045Y-88584267D01*
X46020829Y-88580205D01*
X46004044Y-88576331D01*
X45987938Y-88572702D01*
X45972757Y-88569374D01*
X45952261Y-88565069D01*
X45935235Y-88561759D01*
X45919372Y-88559222D01*
X45914926Y-88558883D01*
X45899933Y-88562471D01*
X45889872Y-88573717D01*
X45887449Y-88586360D01*
X45892702Y-88605577D01*
X45900598Y-88624588D01*
X45907683Y-88640078D01*
X45916139Y-88657651D01*
X45925890Y-88677163D01*
X45936862Y-88698468D01*
X45948981Y-88721422D01*
X45962171Y-88745879D01*
X45976358Y-88771696D01*
X45983802Y-88785068D01*
X45991468Y-88798726D01*
X45999345Y-88812651D01*
X46007425Y-88826825D01*
X46015699Y-88841230D01*
X46024156Y-88855849D01*
X46032789Y-88870662D01*
X46041586Y-88885651D01*
X46050540Y-88900800D01*
X46059640Y-88916088D01*
X46115327Y-88928545D01*
X46104404Y-88904778D01*
X46094796Y-88883765D01*
X46086419Y-88865307D01*
X46079189Y-88849204D01*
X46073022Y-88835256D01*
X46065578Y-88817938D01*
X46060052Y-88804347D01*
X46054329Y-88788146D01*
X46051429Y-88773770D01*
X46051214Y-88766978D01*
X46056179Y-88752540D01*
X46069297Y-88743588D01*
X46081256Y-88741699D01*
X46097630Y-88742677D01*
X46120059Y-88745541D01*
X46138139Y-88748448D01*
X46158557Y-88752117D01*
X46181172Y-88756517D01*
X46205842Y-88761619D01*
X46232427Y-88767390D01*
X46260784Y-88773802D01*
X46275584Y-88777237D01*
X46290774Y-88780822D01*
X46306336Y-88784551D01*
X46322254Y-88788421D01*
X46338509Y-88792428D01*
X46355084Y-88796568D01*
X46371961Y-88800837D01*
X46389123Y-88805232D01*
X46406551Y-88809748D01*
X46424229Y-88814383D01*
X46442138Y-88819131D01*
X46460262Y-88823990D01*
X46478581Y-88828955D01*
X46497079Y-88834023D01*
X46670003Y-88882383D01*
X46685757Y-88886756D01*
X46700251Y-88890545D01*
X46718119Y-88895105D01*
X46734731Y-88899286D01*
X46753309Y-88903922D01*
X46768481Y-88907687D01*
X46784675Y-88911692D01*
X46723126Y-88754155D01*
G37*
G36*
X46715799Y-86262146D02*
G01*
X46718032Y-86274912D01*
X46721005Y-86292020D01*
X46723538Y-86306796D01*
X46725957Y-86321260D01*
X46728255Y-86335785D01*
X46749138Y-86455220D01*
X46752606Y-86474368D01*
X46755867Y-86492383D01*
X46758917Y-86509264D01*
X46761754Y-86525012D01*
X46764377Y-86539626D01*
X46767904Y-86559423D01*
X46770936Y-86576669D01*
X46774196Y-86595697D01*
X46776546Y-86610192D01*
X46778447Y-86625579D01*
X46777598Y-86635441D01*
X46772389Y-86650834D01*
X46763189Y-86663026D01*
X46750873Y-86671050D01*
X46736315Y-86673939D01*
X46725627Y-86673627D01*
X46710666Y-86672485D01*
X46693769Y-86670601D01*
X46678514Y-86668538D01*
X46662451Y-86666090D01*
X46645823Y-86663314D01*
X46641342Y-86662313D01*
X46625408Y-86659470D01*
X46608608Y-86656888D01*
X46592297Y-86654641D01*
X46574546Y-86652460D01*
X46559727Y-86650858D01*
X46546819Y-86649014D01*
X46529968Y-86646602D01*
X46513750Y-86644262D01*
X46498412Y-86642015D01*
X46480848Y-86639370D01*
X46465518Y-86636946D01*
X46448719Y-86634005D01*
X46439239Y-86633083D01*
X46422650Y-86631063D01*
X46406060Y-86628666D01*
X46389471Y-86626051D01*
X46372882Y-86623381D01*
X46371761Y-86639258D01*
X46370731Y-86656114D01*
X46369791Y-86673950D01*
X46368937Y-86692767D01*
X46368167Y-86712564D01*
X46367478Y-86733344D01*
X46366868Y-86755105D01*
X46366333Y-86777849D01*
X46365871Y-86801576D01*
X46365479Y-86826287D01*
X46365155Y-86851982D01*
X46364896Y-86878662D01*
X46364699Y-86906327D01*
X46364562Y-86934979D01*
X46364515Y-86949674D01*
X46364481Y-86964616D01*
X46364462Y-86979805D01*
X46364455Y-86995240D01*
X46393296Y-87020524D01*
X46420764Y-87044814D01*
X46446887Y-87068149D01*
X46471697Y-87090572D01*
X46495223Y-87112121D01*
X46517495Y-87132838D01*
X46538544Y-87152763D01*
X46558399Y-87171937D01*
X46577091Y-87190399D01*
X46594649Y-87208191D01*
X46611104Y-87225353D01*
X46626486Y-87241925D01*
X46640824Y-87257947D01*
X46654149Y-87273461D01*
X46666491Y-87288506D01*
X46677880Y-87303124D01*
X46688346Y-87317354D01*
X46697918Y-87331237D01*
X46706628Y-87344813D01*
X46714505Y-87358124D01*
X46727880Y-87384108D01*
X46738284Y-87409513D01*
X46745958Y-87434662D01*
X46751141Y-87459880D01*
X46754075Y-87485489D01*
X46755000Y-87511814D01*
X46754798Y-87526082D01*
X46753896Y-87542446D01*
X46752133Y-87558078D01*
X46749357Y-87573941D01*
X46745417Y-87591000D01*
X46741325Y-87606156D01*
X46736315Y-87623189D01*
X46589403Y-87543321D01*
X46593609Y-87529978D01*
X46597658Y-87515134D01*
X46600988Y-87498950D01*
X46602951Y-87483230D01*
X46603866Y-87466582D01*
X46604057Y-87450998D01*
X46603707Y-87433244D01*
X46602631Y-87416201D01*
X46600788Y-87399788D01*
X46598138Y-87383924D01*
X46594643Y-87368531D01*
X46590263Y-87353528D01*
X46584957Y-87338835D01*
X46578687Y-87324373D01*
X46571411Y-87310061D01*
X46563092Y-87295819D01*
X46553688Y-87281567D01*
X46543161Y-87267226D01*
X46531470Y-87252715D01*
X46518576Y-87237955D01*
X46504439Y-87222865D01*
X46489019Y-87207365D01*
X46477589Y-87195813D01*
X46463916Y-87182577D01*
X46448223Y-87167845D01*
X46430733Y-87151804D01*
X46411667Y-87134643D01*
X46391247Y-87116549D01*
X46369696Y-87097710D01*
X46358566Y-87088069D01*
X46347236Y-87078314D01*
X46335735Y-87068465D01*
X46324089Y-87058548D01*
X46312327Y-87048586D01*
X46300477Y-87038602D01*
X46288567Y-87028619D01*
X46276623Y-87018661D01*
X46264674Y-87008752D01*
X46252748Y-86998916D01*
X46240873Y-86989174D01*
X46229076Y-86979552D01*
X46217384Y-86970072D01*
X46205827Y-86960758D01*
X46183224Y-86942722D01*
X46161489Y-86925631D01*
X45691444Y-86562564D01*
X45690669Y-86572778D01*
X45689379Y-86590838D01*
X45688353Y-86606260D01*
X45687292Y-86622776D01*
X45686087Y-86640149D01*
X45684644Y-86656839D01*
X45683018Y-86671741D01*
X45682605Y-86674562D01*
X45680751Y-86689165D01*
X45679102Y-86704968D01*
X45677660Y-86721172D01*
X45676423Y-86736954D01*
X45670195Y-86787146D01*
X45669143Y-86802539D01*
X45668115Y-86817710D01*
X45667212Y-86832514D01*
X45666454Y-86849128D01*
X45666165Y-86864815D01*
X45666996Y-86892848D01*
X45669468Y-86919357D01*
X45673545Y-86944301D01*
X45679194Y-86967643D01*
X45686379Y-86989342D01*
X45695068Y-87009360D01*
X45705224Y-87027658D01*
X45716815Y-87044196D01*
X45729805Y-87058935D01*
X45744160Y-87071836D01*
X45759847Y-87082859D01*
X45776830Y-87091966D01*
X45795075Y-87099118D01*
X45814548Y-87104275D01*
X45835215Y-87107397D01*
X45857041Y-87108447D01*
X45861576Y-87108417D01*
X45879901Y-87107645D01*
X45898961Y-87105719D01*
X45914093Y-87103424D01*
X45930217Y-87100327D01*
X45947581Y-87096362D01*
X45966435Y-87091466D01*
X45987026Y-87085572D01*
X46001840Y-87081057D01*
X46017611Y-87076050D01*
X46034410Y-87070532D01*
X46052313Y-87064483D01*
X46136210Y-87219822D01*
X46125114Y-87223955D01*
X46109522Y-87229447D01*
X46095000Y-87234139D01*
X46076930Y-87239238D01*
X46059869Y-87243132D01*
X46043306Y-87245943D01*
X46026730Y-87247797D01*
X46009631Y-87248818D01*
X45991496Y-87249131D01*
X45970829Y-87248561D01*
X45950558Y-87246836D01*
X45930635Y-87243936D01*
X45911011Y-87239840D01*
X45891635Y-87234527D01*
X45872459Y-87227975D01*
X45853434Y-87220165D01*
X45834509Y-87211075D01*
X45815636Y-87200684D01*
X45796765Y-87188971D01*
X45777847Y-87175915D01*
X45758832Y-87161495D01*
X45739671Y-87145691D01*
X45720315Y-87128482D01*
X45700714Y-87109846D01*
X45680819Y-87089762D01*
X45663251Y-87071195D01*
X45646816Y-87052594D01*
X45631515Y-87033966D01*
X45617347Y-87015322D01*
X45604312Y-86996669D01*
X45592411Y-86978016D01*
X45581644Y-86959371D01*
X45572009Y-86940744D01*
X45563508Y-86922142D01*
X45556141Y-86903575D01*
X45549907Y-86885051D01*
X45544807Y-86866578D01*
X45540840Y-86848165D01*
X45538006Y-86829821D01*
X45536306Y-86811555D01*
X45535739Y-86793374D01*
X45535759Y-86789420D01*
X45536228Y-86772754D01*
X45537337Y-86754488D01*
X45538599Y-86739548D01*
X45540237Y-86723396D01*
X45542260Y-86705898D01*
X45544673Y-86686919D01*
X45547486Y-86666325D01*
X45549586Y-86651634D01*
X45551868Y-86636125D01*
X45554335Y-86619759D01*
X45556988Y-86602498D01*
X45560228Y-86581228D01*
X45562966Y-86563291D01*
X45565243Y-86548252D01*
X45567631Y-86531957D01*
X45568568Y-86524829D01*
X45747131Y-86524829D01*
X46278360Y-86930028D01*
X46278360Y-86610924D01*
X45747131Y-86524829D01*
X45568568Y-86524829D01*
X45569706Y-86516176D01*
X45571243Y-86499042D01*
X45571643Y-86482697D01*
X45571422Y-86467873D01*
X45569776Y-86452808D01*
X45563968Y-86436842D01*
X45554309Y-86422662D01*
X45542431Y-86409126D01*
X45530637Y-86396941D01*
X45516038Y-86382474D01*
X45504598Y-86371322D01*
X45525481Y-86342013D01*
X45557493Y-86348339D01*
X45590863Y-86354736D01*
X45625462Y-86361185D01*
X45661160Y-86367669D01*
X45697828Y-86374170D01*
X45735336Y-86380670D01*
X45773555Y-86387151D01*
X45812356Y-86393596D01*
X45851608Y-86399987D01*
X45891182Y-86406305D01*
X45930950Y-86412534D01*
X45970781Y-86418655D01*
X46010546Y-86424651D01*
X46050116Y-86430504D01*
X46089360Y-86436196D01*
X46128150Y-86441710D01*
X46166356Y-86447027D01*
X46203849Y-86452130D01*
X46240499Y-86457000D01*
X46276177Y-86461622D01*
X46310753Y-86465975D01*
X46344098Y-86470043D01*
X46376082Y-86473809D01*
X46406576Y-86477253D01*
X46435450Y-86480359D01*
X46462575Y-86483108D01*
X46487821Y-86485483D01*
X46511060Y-86487466D01*
X46532160Y-86489039D01*
X46550994Y-86490185D01*
X46581343Y-86491123D01*
X46600604Y-86490484D01*
X46617275Y-86488440D01*
X46631506Y-86484806D01*
X46646950Y-86477165D01*
X46658688Y-86465923D01*
X46667082Y-86450638D01*
X46671400Y-86436254D01*
X46674191Y-86419161D01*
X46675608Y-86399172D01*
X46675865Y-86384145D01*
X46675814Y-86380565D01*
X46675081Y-86364813D01*
X46674145Y-86350174D01*
X46672888Y-86332258D01*
X46671752Y-86316690D01*
X46670464Y-86299309D01*
X46669038Y-86280127D01*
X46667485Y-86259158D01*
X46666386Y-86244192D01*
X46665240Y-86228440D01*
X46715799Y-86262146D01*
G37*
G36*
X46778447Y-86181179D02*
G01*
X46717630Y-86019246D01*
X46113129Y-85861709D01*
X46103177Y-85848581D01*
X46094050Y-85835955D01*
X46085723Y-85823784D01*
X46074676Y-85806278D01*
X46065287Y-85789530D01*
X46057469Y-85773381D01*
X46051139Y-85757671D01*
X46046210Y-85742242D01*
X46042598Y-85726933D01*
X46040218Y-85711586D01*
X46038985Y-85696040D01*
X46038757Y-85685488D01*
X46039592Y-85668997D01*
X46042209Y-85653918D01*
X46046775Y-85639912D01*
X46053458Y-85626641D01*
X46062424Y-85613764D01*
X46073842Y-85600944D01*
X46087880Y-85587840D01*
X46100227Y-85577622D01*
X46104703Y-85574113D01*
X45904302Y-85511099D01*
X45899039Y-85527497D01*
X45894873Y-85541628D01*
X45891204Y-85556253D01*
X45888574Y-85571126D01*
X45887462Y-85586815D01*
X45887449Y-85588768D01*
X45888345Y-85603870D01*
X45891050Y-85619319D01*
X45895583Y-85635258D01*
X45901966Y-85651828D01*
X45910221Y-85669171D01*
X45917654Y-85682771D01*
X45926161Y-85696945D01*
X45935751Y-85711752D01*
X45946434Y-85727254D01*
X45956238Y-85740118D01*
X45966029Y-85752996D01*
X45975740Y-85765954D01*
X45985303Y-85779060D01*
X45994651Y-85792380D01*
X46003717Y-85805983D01*
X46007250Y-85811517D01*
X46017143Y-85823716D01*
X46026634Y-85836465D01*
X46035320Y-85849026D01*
X46036926Y-85851451D01*
X45910896Y-85826172D01*
X45896922Y-85831652D01*
X45888886Y-85844089D01*
X45887449Y-85853283D01*
X45891485Y-85870537D01*
X45899339Y-85891642D01*
X45906584Y-85909012D01*
X45915257Y-85928659D01*
X45925203Y-85950268D01*
X45936270Y-85973527D01*
X45948302Y-85998124D01*
X45961145Y-86023744D01*
X45967824Y-86036841D01*
X45974647Y-86050076D01*
X45981596Y-86063411D01*
X45988652Y-86076807D01*
X45995795Y-86090223D01*
X46003007Y-86103623D01*
X46010267Y-86116965D01*
X46017557Y-86130211D01*
X46024858Y-86143323D01*
X46032149Y-86156260D01*
X46046629Y-86181455D01*
X46053778Y-86193635D01*
X46110931Y-86199864D01*
X46100459Y-86178422D01*
X46091246Y-86159567D01*
X46083212Y-86143088D01*
X46076275Y-86128772D01*
X46067753Y-86110890D01*
X46061249Y-86096684D01*
X46055246Y-86082222D01*
X46050653Y-86066684D01*
X46049390Y-86051062D01*
X46049382Y-86048555D01*
X46051534Y-86032844D01*
X46059246Y-86019864D01*
X46072525Y-86011993D01*
X46088686Y-86009134D01*
X46094078Y-86008988D01*
X46112679Y-86010454D01*
X46127921Y-86012646D01*
X46145791Y-86015721D01*
X46165933Y-86019599D01*
X46180449Y-86022589D01*
X46195711Y-86025876D01*
X46211615Y-86029435D01*
X46228056Y-86033242D01*
X46244929Y-86037272D01*
X46262128Y-86041503D01*
X46279547Y-86045908D01*
X46297083Y-86050465D01*
X46314630Y-86055150D01*
X46778447Y-86181179D01*
G37*
G36*
X45456971Y-85127149D02*
G01*
X45469737Y-85143365D01*
X45482053Y-85159037D01*
X45493893Y-85174166D01*
X45505232Y-85188748D01*
X45516045Y-85202781D01*
X45526306Y-85216265D01*
X45535989Y-85229197D01*
X45545070Y-85241575D01*
X45556197Y-85257215D01*
X45566147Y-85271863D01*
X45582438Y-85266117D01*
X45598382Y-85259693D01*
X45614454Y-85252324D01*
X45631131Y-85243744D01*
X45644323Y-85236355D01*
X45658325Y-85228023D01*
X45673337Y-85218635D01*
X45689561Y-85208080D01*
X45707198Y-85196244D01*
X45713426Y-85191996D01*
X45699737Y-85176794D01*
X45688032Y-85163773D01*
X45677843Y-85152352D01*
X45665804Y-85138609D01*
X45654513Y-85125298D01*
X45642858Y-85111041D01*
X45633209Y-85098899D01*
X45622261Y-85084868D01*
X45609545Y-85068368D01*
X45599853Y-85055708D01*
X45586323Y-85062579D01*
X45572376Y-85070318D01*
X45558738Y-85078405D01*
X45551493Y-85082819D01*
X45538018Y-85089928D01*
X45524428Y-85097061D01*
X45509195Y-85104097D01*
X45495242Y-85109961D01*
X45484448Y-85114326D01*
X45456971Y-85127149D01*
G37*
G36*
X46507704Y-85047282D02*
G01*
X46526388Y-85082819D01*
X46533675Y-85096072D01*
X46547073Y-85120554D01*
X46558978Y-85142484D01*
X46569475Y-85162039D01*
X46578649Y-85179396D01*
X46586586Y-85194730D01*
X46593373Y-85208220D01*
X46601584Y-85225380D01*
X46607690Y-85239382D01*
X46613055Y-85254167D01*
X46616552Y-85270892D01*
X46616880Y-85278091D01*
X46612713Y-85293725D01*
X46600852Y-85305614D01*
X46587486Y-85311723D01*
X46570738Y-85315152D01*
X46557896Y-85315827D01*
X46542647Y-85315562D01*
X46525442Y-85313714D01*
X46505459Y-85310028D01*
X46484436Y-85305445D01*
X46466689Y-85301333D01*
X46445420Y-85296257D01*
X46420171Y-85290116D01*
X46405912Y-85286615D01*
X46390485Y-85282809D01*
X46373835Y-85278686D01*
X46355903Y-85274234D01*
X46336633Y-85269439D01*
X46315967Y-85264290D01*
X46293848Y-85258772D01*
X46270218Y-85252875D01*
X46245020Y-85246584D01*
X46215996Y-85239527D01*
X46188782Y-85232912D01*
X46163316Y-85226723D01*
X46139538Y-85220947D01*
X46117385Y-85215569D01*
X46096796Y-85210575D01*
X46077709Y-85205950D01*
X46060064Y-85201681D01*
X46043797Y-85197754D01*
X46028849Y-85194153D01*
X46002658Y-85187877D01*
X45980998Y-85182738D01*
X45963378Y-85178623D01*
X45943443Y-85174122D01*
X45926401Y-85170642D01*
X45911743Y-85168934D01*
X45908698Y-85168915D01*
X45894730Y-85174463D01*
X45888051Y-85187645D01*
X45887449Y-85194194D01*
X45890665Y-85211597D01*
X45897192Y-85229817D01*
X45903438Y-85244313D01*
X45911158Y-85260619D01*
X45920317Y-85278675D01*
X45930881Y-85298423D01*
X45942815Y-85319801D01*
X45956084Y-85342751D01*
X45970653Y-85367213D01*
X45978414Y-85379992D01*
X45986487Y-85393127D01*
X45994868Y-85406611D01*
X46003552Y-85420435D01*
X46012535Y-85434592D01*
X46021812Y-85449075D01*
X46031379Y-85463877D01*
X46041232Y-85478990D01*
X46051367Y-85494406D01*
X46061779Y-85510119D01*
X46072463Y-85526120D01*
X46131448Y-85530150D01*
X46119174Y-85507504D01*
X46108392Y-85487521D01*
X46099006Y-85470003D01*
X46090918Y-85454753D01*
X46084033Y-85441575D01*
X46075748Y-85425262D01*
X46068006Y-85408922D01*
X46062556Y-85394980D01*
X46060044Y-85380400D01*
X46060006Y-85377009D01*
X46064348Y-85362617D01*
X46077074Y-85354199D01*
X46093411Y-85351755D01*
X46095544Y-85351730D01*
X46112797Y-85352513D01*
X46129707Y-85354712D01*
X46146392Y-85357798D01*
X46161444Y-85361033D01*
X46179173Y-85365161D01*
X46200026Y-85370278D01*
X46215887Y-85374284D01*
X46233469Y-85378798D01*
X46252905Y-85383850D01*
X46274330Y-85389466D01*
X46307549Y-85398453D01*
X46338703Y-85406878D01*
X46367869Y-85414760D01*
X46395123Y-85422117D01*
X46420543Y-85428966D01*
X46444205Y-85435327D01*
X46466186Y-85441216D01*
X46486563Y-85446653D01*
X46505414Y-85451655D01*
X46522815Y-85456241D01*
X46538842Y-85460428D01*
X46553574Y-85464234D01*
X46579458Y-85470779D01*
X46601081Y-85476019D01*
X46619059Y-85480101D01*
X46634007Y-85483168D01*
X46652096Y-85486184D01*
X46666831Y-85487732D01*
X46684851Y-85488360D01*
X46694549Y-85488384D01*
X46712670Y-85487504D01*
X46728988Y-85484915D01*
X46743313Y-85480695D01*
X46758131Y-85473243D01*
X46769171Y-85463513D01*
X46776916Y-85449044D01*
X46778447Y-85437826D01*
X46776395Y-85419362D01*
X46771630Y-85401897D01*
X46766101Y-85386963D01*
X46758802Y-85370265D01*
X46749648Y-85351635D01*
X46742472Y-85338056D01*
X46734409Y-85323492D01*
X46725433Y-85307893D01*
X46715518Y-85291207D01*
X46704641Y-85273384D01*
X46692775Y-85254375D01*
X46679895Y-85234127D01*
X46670412Y-85219152D01*
X46660907Y-85204177D01*
X46651359Y-85189202D01*
X46641747Y-85174227D01*
X46632049Y-85159252D01*
X46622244Y-85144277D01*
X46612310Y-85129301D01*
X46602226Y-85114326D01*
X46594194Y-85100788D01*
X46585785Y-85087353D01*
X46577820Y-85074682D01*
X46569023Y-85060267D01*
X46566322Y-85055708D01*
X46507704Y-85047282D01*
G37*
G36*
X46486088Y-84551591D02*
G01*
X46494422Y-84566279D01*
X46503014Y-84581244D01*
X46511322Y-84595308D01*
X46519021Y-84607979D01*
X46528693Y-84623618D01*
X46537818Y-84638244D01*
X46548995Y-84656091D01*
X46557785Y-84670107D01*
X46567787Y-84686046D01*
X46577853Y-84702495D01*
X46586838Y-84717674D01*
X46594761Y-84731647D01*
X46603708Y-84748510D01*
X46610852Y-84763492D01*
X46617315Y-84779802D01*
X46621578Y-84796217D01*
X46622376Y-84805481D01*
X46617968Y-84820342D01*
X46607901Y-84831016D01*
X46593436Y-84838744D01*
X46578548Y-84842467D01*
X46567787Y-84843217D01*
X46548736Y-84843217D01*
X46530052Y-84843217D01*
X46510088Y-84840816D01*
X46487122Y-84836719D01*
X46457253Y-84830813D01*
X46439949Y-84827234D01*
X46421184Y-84823264D01*
X46401044Y-84818924D01*
X46379619Y-84814233D01*
X46356996Y-84809214D01*
X46333263Y-84803885D01*
X46308509Y-84798267D01*
X46282820Y-84792381D01*
X46256286Y-84786247D01*
X46228994Y-84779886D01*
X46201032Y-84773317D01*
X46172489Y-84766562D01*
X46143452Y-84759640D01*
X46114009Y-84752572D01*
X46084248Y-84745379D01*
X46054258Y-84738080D01*
X46024126Y-84730697D01*
X45993940Y-84723249D01*
X45963789Y-84715758D01*
X45933760Y-84708242D01*
X45903941Y-84700724D01*
X45874421Y-84693223D01*
X45845287Y-84685759D01*
X45816628Y-84678353D01*
X45788531Y-84671026D01*
X45760202Y-84663546D01*
X45733440Y-84656408D01*
X45708201Y-84649587D01*
X45684440Y-84643059D01*
X45662115Y-84636799D01*
X45641180Y-84630781D01*
X45621593Y-84624981D01*
X45603311Y-84619374D01*
X45586288Y-84613935D01*
X45570481Y-84608638D01*
X45555847Y-84603461D01*
X45529923Y-84593360D01*
X45508163Y-84583433D01*
X45490220Y-84573481D01*
X45475742Y-84563306D01*
X45464380Y-84552707D01*
X45452414Y-84535579D01*
X45445491Y-84516380D01*
X45442429Y-84494437D01*
X45441950Y-84477952D01*
X45442237Y-84461084D01*
X45443322Y-84444863D01*
X45445536Y-84427695D01*
X45448485Y-84411516D01*
X45451706Y-84396683D01*
X45455800Y-84379657D01*
X45456971Y-84375003D01*
X45345596Y-84284878D01*
X45341995Y-84300344D01*
X45338493Y-84317204D01*
X45335968Y-84331996D01*
X45334029Y-84348043D01*
X45333046Y-84363424D01*
X45332773Y-84379400D01*
X45333150Y-84394925D01*
X45334308Y-84410095D01*
X45336292Y-84424991D01*
X45339145Y-84439695D01*
X45342910Y-84454290D01*
X45347630Y-84468858D01*
X45353351Y-84483480D01*
X45360113Y-84498239D01*
X45367962Y-84513217D01*
X45376941Y-84528496D01*
X45387093Y-84544159D01*
X45398461Y-84560286D01*
X45411090Y-84576961D01*
X45425022Y-84594266D01*
X45440301Y-84612282D01*
X45456971Y-84631092D01*
X45471749Y-84647673D01*
X45485534Y-84662732D01*
X45498457Y-84676374D01*
X45510649Y-84688708D01*
X45522242Y-84699843D01*
X45533369Y-84709885D01*
X45549469Y-84723137D01*
X45565257Y-84734538D01*
X45581177Y-84744453D01*
X45597672Y-84753246D01*
X45615186Y-84761280D01*
X45634163Y-84768920D01*
X45647847Y-84773974D01*
X45665053Y-84779442D01*
X45679542Y-84783813D01*
X45696108Y-84788673D01*
X45714463Y-84793942D01*
X45734317Y-84799541D01*
X45755384Y-84805389D01*
X45777372Y-84811408D01*
X45799995Y-84817519D01*
X45822962Y-84823641D01*
X45845986Y-84829696D01*
X45868777Y-84835603D01*
X45891048Y-84841284D01*
X45912508Y-84846659D01*
X45932870Y-84851649D01*
X45951845Y-84856174D01*
X45960722Y-84858238D01*
X46618346Y-85009180D01*
X46633551Y-85011711D01*
X46648905Y-85013359D01*
X46656081Y-85013576D01*
X46674314Y-85012661D01*
X46692131Y-85010043D01*
X46709230Y-85005912D01*
X46725311Y-85000458D01*
X46740074Y-84993871D01*
X46753217Y-84986342D01*
X46767703Y-84975166D01*
X46778063Y-84963103D01*
X46784126Y-84947465D01*
X46784309Y-84944333D01*
X46784309Y-84931511D01*
X46784309Y-84925282D01*
X46779686Y-84907424D01*
X46771333Y-84892272D01*
X46763224Y-84879043D01*
X46752889Y-84863019D01*
X46740162Y-84843949D01*
X46724876Y-84821582D01*
X46716221Y-84809084D01*
X46706864Y-84795667D01*
X46696784Y-84781300D01*
X46685961Y-84765951D01*
X46674373Y-84749590D01*
X46662000Y-84732185D01*
X46648821Y-84713705D01*
X46634815Y-84694118D01*
X46619961Y-84673392D01*
X46604239Y-84651497D01*
X46587628Y-84628400D01*
X46570106Y-84604071D01*
X46551654Y-84578479D01*
X46532250Y-84551591D01*
X46486088Y-84551591D01*
G37*
G36*
X45458803Y-83444438D02*
G01*
X45454502Y-83461276D01*
X45450124Y-83479167D01*
X45446775Y-83494394D01*
X45443998Y-83510426D01*
X45442438Y-83525493D01*
X45441950Y-83541158D01*
X45442091Y-83548150D01*
X45444256Y-83568159D01*
X45449143Y-83586830D01*
X45456894Y-83604305D01*
X45467653Y-83620724D01*
X45481563Y-83636230D01*
X45492658Y-83646128D01*
X45505259Y-83655726D01*
X45519409Y-83665063D01*
X45535150Y-83674183D01*
X45552524Y-83683126D01*
X45571575Y-83691936D01*
X45592344Y-83700653D01*
X45614874Y-83709319D01*
X45628771Y-83714013D01*
X45646120Y-83719403D01*
X45666681Y-83725434D01*
X45690210Y-83732050D01*
X45716466Y-83739195D01*
X45745207Y-83746815D01*
X45776192Y-83754853D01*
X45809179Y-83763255D01*
X45843925Y-83771965D01*
X45880189Y-83780928D01*
X45917729Y-83790087D01*
X45956303Y-83799389D01*
X45995670Y-83808777D01*
X46035587Y-83818196D01*
X46075813Y-83827591D01*
X46116106Y-83836906D01*
X46156224Y-83846085D01*
X46195925Y-83855074D01*
X46234968Y-83863817D01*
X46273110Y-83872258D01*
X46310109Y-83880343D01*
X46345725Y-83888015D01*
X46379715Y-83895220D01*
X46411836Y-83901901D01*
X46441849Y-83908004D01*
X46469509Y-83913473D01*
X46494577Y-83918252D01*
X46516809Y-83922287D01*
X46535964Y-83925522D01*
X46551801Y-83927901D01*
X46572550Y-83929871D01*
X46575480Y-83929833D01*
X46591909Y-83928122D01*
X46607987Y-83923244D01*
X46621105Y-83914546D01*
X46627505Y-83900195D01*
X46626632Y-83895007D01*
X46621183Y-83880123D01*
X46614545Y-83865711D01*
X46607773Y-83852357D01*
X46599839Y-83837701D01*
X46590865Y-83822041D01*
X46580976Y-83805673D01*
X46578730Y-83802119D01*
X46569825Y-83788822D01*
X46560566Y-83775286D01*
X46551574Y-83762195D01*
X46541287Y-83747209D01*
X46532782Y-83734791D01*
X46523649Y-83721414D01*
X46513932Y-83707121D01*
X46476196Y-83648136D01*
X46541043Y-83656563D01*
X46552844Y-83672932D01*
X46564538Y-83689321D01*
X46576107Y-83705702D01*
X46587533Y-83722046D01*
X46598799Y-83738324D01*
X46609887Y-83754507D01*
X46620780Y-83770567D01*
X46631460Y-83786473D01*
X46641910Y-83802199D01*
X46652113Y-83817714D01*
X46662050Y-83832990D01*
X46671704Y-83847998D01*
X46681058Y-83862710D01*
X46690094Y-83877095D01*
X46698795Y-83891127D01*
X46707143Y-83904775D01*
X46715121Y-83918010D01*
X46722711Y-83930805D01*
X46736658Y-83954957D01*
X46748843Y-83976998D01*
X46759127Y-83996698D01*
X46767369Y-84013826D01*
X46773430Y-84028152D01*
X46778447Y-84047474D01*
X46777373Y-84058503D01*
X46771819Y-84072141D01*
X46759564Y-84083749D01*
X46744308Y-84090109D01*
X46728378Y-84092944D01*
X46713600Y-84093635D01*
X46709814Y-84093617D01*
X46693856Y-84093186D01*
X46676706Y-84092198D01*
X46658511Y-84090675D01*
X46639416Y-84088637D01*
X46624592Y-84086784D01*
X46609407Y-84084663D01*
X46593920Y-84082283D01*
X46578195Y-84079653D01*
X46562292Y-84076783D01*
X46576772Y-84096699D01*
X46590681Y-84115927D01*
X46604024Y-84134479D01*
X46616810Y-84152365D01*
X46629046Y-84169597D01*
X46640739Y-84186186D01*
X46651897Y-84202145D01*
X46662527Y-84217484D01*
X46672636Y-84232215D01*
X46682232Y-84246349D01*
X46691323Y-84259898D01*
X46699915Y-84272874D01*
X46708015Y-84285288D01*
X46722774Y-84308474D01*
X46735656Y-84329550D01*
X46746722Y-84348606D01*
X46756030Y-84365735D01*
X46763640Y-84381028D01*
X46769610Y-84394577D01*
X46775620Y-84411832D01*
X46778447Y-84429591D01*
X46778210Y-84433141D01*
X46772782Y-84447424D01*
X46760918Y-84461439D01*
X46748385Y-84471445D01*
X46733196Y-84480763D01*
X46715763Y-84489162D01*
X46696500Y-84496413D01*
X46675819Y-84502286D01*
X46661448Y-84505322D01*
X46646753Y-84507575D01*
X46631856Y-84508976D01*
X46616880Y-84509459D01*
X46602847Y-84509186D01*
X46587994Y-84508380D01*
X46572388Y-84507063D01*
X46556097Y-84505258D01*
X46539188Y-84502984D01*
X46521727Y-84500265D01*
X46503781Y-84497121D01*
X46485418Y-84493574D01*
X46466705Y-84489645D01*
X46447708Y-84485356D01*
X46428495Y-84480728D01*
X46409132Y-84475784D01*
X46389687Y-84470544D01*
X46370227Y-84465031D01*
X46350818Y-84459265D01*
X46331528Y-84453268D01*
X46312424Y-84447062D01*
X46293572Y-84440668D01*
X46275040Y-84434107D01*
X46256895Y-84427403D01*
X46239204Y-84420575D01*
X46222033Y-84413645D01*
X46205450Y-84406635D01*
X46189522Y-84399567D01*
X46174316Y-84392461D01*
X46159898Y-84385341D01*
X46133698Y-84371138D01*
X46111457Y-84357133D01*
X46093712Y-84343496D01*
X46084965Y-84335354D01*
X46067203Y-84317524D01*
X46049247Y-84297894D01*
X46031294Y-84276774D01*
X46013540Y-84254474D01*
X45996184Y-84231306D01*
X45979421Y-84207580D01*
X45963449Y-84183607D01*
X45948465Y-84159698D01*
X45934666Y-84136163D01*
X45922248Y-84113313D01*
X45911409Y-84091458D01*
X45902345Y-84070910D01*
X45902212Y-84070554D01*
X45986367Y-84070554D01*
X45986675Y-84080516D01*
X45989141Y-84100032D01*
X45994075Y-84119003D01*
X46001481Y-84137426D01*
X46011360Y-84155299D01*
X46023715Y-84172619D01*
X46038550Y-84189384D01*
X46055866Y-84205590D01*
X46075667Y-84221234D01*
X46097955Y-84236315D01*
X46122733Y-84250830D01*
X46136057Y-84257874D01*
X46150004Y-84264775D01*
X46164575Y-84271534D01*
X46179770Y-84278149D01*
X46195589Y-84284621D01*
X46212034Y-84290948D01*
X46229103Y-84297131D01*
X46246798Y-84303170D01*
X46265119Y-84309064D01*
X46284065Y-84314812D01*
X46303639Y-84320415D01*
X46321170Y-84325005D01*
X46338327Y-84329294D01*
X46355119Y-84333284D01*
X46371559Y-84336976D01*
X46387658Y-84340369D01*
X46403426Y-84343464D01*
X46418876Y-84346261D01*
X46434019Y-84348762D01*
X46448865Y-84350967D01*
X46463426Y-84352876D01*
X46484758Y-84355186D01*
X46505512Y-84356834D01*
X46525726Y-84357822D01*
X46545439Y-84358150D01*
X46562277Y-84357764D01*
X46577359Y-84356605D01*
X46594775Y-84353857D01*
X46612288Y-84348490D01*
X46625166Y-84340977D01*
X46634643Y-84329128D01*
X46637763Y-84314187D01*
X46635502Y-84298627D01*
X46629724Y-84282660D01*
X46622519Y-84267741D01*
X46612458Y-84249664D01*
X46603987Y-84235575D01*
X46593983Y-84219658D01*
X46582338Y-84201743D01*
X46568948Y-84181662D01*
X46553706Y-84159243D01*
X46545358Y-84147105D01*
X46536508Y-84134319D01*
X46527142Y-84120864D01*
X46517247Y-84106718D01*
X46506810Y-84091862D01*
X46495817Y-84076273D01*
X46484256Y-84059930D01*
X46043154Y-83961378D01*
X46035573Y-83969048D01*
X46025368Y-83980011D01*
X46013840Y-83993822D01*
X46004550Y-84006998D01*
X45997348Y-84019854D01*
X45991052Y-84035950D01*
X45987490Y-84052646D01*
X45986367Y-84070554D01*
X45902212Y-84070554D01*
X45895254Y-84051980D01*
X45890333Y-84034977D01*
X45887449Y-84013768D01*
X45887654Y-84006147D01*
X45888993Y-83990560D01*
X45891116Y-83974995D01*
X45893564Y-83960525D01*
X45896618Y-83944737D01*
X45900272Y-83927672D01*
X45894781Y-83926119D01*
X45878622Y-83921793D01*
X45863583Y-83918028D01*
X45848575Y-83914441D01*
X45833593Y-83910820D01*
X45814045Y-83905839D01*
X45795618Y-83901116D01*
X45778262Y-83896622D01*
X45761924Y-83892333D01*
X45746552Y-83888220D01*
X45732095Y-83884258D01*
X45705715Y-83876679D01*
X45682368Y-83869384D01*
X45661639Y-83862159D01*
X45643111Y-83854793D01*
X45626369Y-83847072D01*
X45610996Y-83838785D01*
X45596576Y-83829719D01*
X45582695Y-83819660D01*
X45568935Y-83808398D01*
X45554881Y-83795719D01*
X45540118Y-83781410D01*
X45524228Y-83765260D01*
X45506796Y-83747055D01*
X45501713Y-83741489D01*
X45491558Y-83730163D01*
X45481451Y-83718614D01*
X45471429Y-83706888D01*
X45461530Y-83695032D01*
X45451792Y-83683091D01*
X45442252Y-83671112D01*
X45432947Y-83659142D01*
X45423915Y-83647225D01*
X45410962Y-83629553D01*
X45398835Y-83612263D01*
X45387661Y-83595510D01*
X45377566Y-83579450D01*
X45368677Y-83564239D01*
X45359245Y-83547644D01*
X45351475Y-83532182D01*
X45345242Y-83517407D01*
X45340421Y-83502873D01*
X45336889Y-83488133D01*
X45334519Y-83472740D01*
X45333189Y-83456247D01*
X45332773Y-83438210D01*
X45332800Y-83434362D01*
X45333627Y-83417945D01*
X45335482Y-83402768D01*
X45338109Y-83387263D01*
X45341200Y-83371165D01*
X45458803Y-83444438D01*
G37*
G36*
X45542334Y-82190007D02*
G01*
X45540788Y-82204673D01*
X45539146Y-82220639D01*
X45537600Y-82237389D01*
X45536518Y-82252826D01*
X45535900Y-82268340D01*
X45535739Y-82282330D01*
X45535945Y-82297199D01*
X45536774Y-82315462D01*
X45538233Y-82333328D01*
X45540312Y-82350754D01*
X45543004Y-82367699D01*
X45546299Y-82384121D01*
X45548562Y-82393705D01*
X45554146Y-82410785D01*
X45562512Y-82429883D01*
X45569531Y-82443588D01*
X45577629Y-82457967D01*
X45586745Y-82472930D01*
X45596814Y-82488389D01*
X45607776Y-82504256D01*
X45619565Y-82520440D01*
X45632121Y-82536852D01*
X45645380Y-82553404D01*
X45659278Y-82570007D01*
X45673755Y-82586570D01*
X45688746Y-82603007D01*
X45704189Y-82619226D01*
X45720020Y-82635139D01*
X45740144Y-82653680D01*
X45760557Y-82670808D01*
X45781704Y-82686689D01*
X45804027Y-82701491D01*
X45827970Y-82715381D01*
X45853979Y-82728526D01*
X45867896Y-82734871D01*
X45882496Y-82741092D01*
X45897833Y-82747210D01*
X45913965Y-82753246D01*
X45930945Y-82759221D01*
X45948830Y-82765156D01*
X45967674Y-82771071D01*
X45987534Y-82776987D01*
X46008465Y-82782926D01*
X46030523Y-82788908D01*
X46053762Y-82794954D01*
X46078239Y-82801085D01*
X46104008Y-82807322D01*
X46131126Y-82813685D01*
X46159648Y-82820195D01*
X46189629Y-82826874D01*
X46221124Y-82833743D01*
X46254190Y-82840821D01*
X46288882Y-82848130D01*
X46325254Y-82855691D01*
X46350446Y-82861010D01*
X46374514Y-82866332D01*
X46397481Y-82871670D01*
X46419367Y-82877038D01*
X46440194Y-82882453D01*
X46459982Y-82887928D01*
X46478754Y-82893477D01*
X46496530Y-82899116D01*
X46513331Y-82904859D01*
X46529179Y-82910721D01*
X46544094Y-82916716D01*
X46558099Y-82922860D01*
X46583460Y-82935649D01*
X46605431Y-82949205D01*
X46624183Y-82963646D01*
X46639884Y-82979088D01*
X46652704Y-82995649D01*
X46662813Y-83013445D01*
X46670380Y-83032593D01*
X46675576Y-83053211D01*
X46678569Y-83075415D01*
X46679528Y-83099323D01*
X46679480Y-83114347D01*
X46679199Y-83130954D01*
X46678601Y-83146670D01*
X46677530Y-83162359D01*
X46677330Y-83164536D01*
X46687833Y-83174807D01*
X46699701Y-83186065D01*
X46711029Y-83196333D01*
X46722739Y-83206434D01*
X46735754Y-83217189D01*
X46747725Y-83226816D01*
X46761594Y-83237808D01*
X46760795Y-83220266D01*
X46760048Y-83203717D01*
X46759353Y-83188084D01*
X46758709Y-83173288D01*
X46757840Y-83152490D01*
X46757086Y-83133131D01*
X46756448Y-83114944D01*
X46755927Y-83097663D01*
X46755521Y-83081023D01*
X46755231Y-83064756D01*
X46755057Y-83048596D01*
X46755000Y-83032278D01*
X46755113Y-83014930D01*
X46755446Y-82994849D01*
X46755784Y-82979957D01*
X46756209Y-82963871D01*
X46756719Y-82946600D01*
X46757309Y-82928153D01*
X46757976Y-82908539D01*
X46758716Y-82887765D01*
X46759525Y-82865840D01*
X46760400Y-82842773D01*
X46761336Y-82818573D01*
X46762331Y-82793248D01*
X46763379Y-82766807D01*
X46764478Y-82739258D01*
X46765624Y-82710610D01*
X46766789Y-82679684D01*
X46767881Y-82650605D01*
X46768903Y-82623306D01*
X46769857Y-82597719D01*
X46770744Y-82573773D01*
X46771569Y-82551401D01*
X46772332Y-82530533D01*
X46773037Y-82511102D01*
X46773686Y-82493038D01*
X46774280Y-82476273D01*
X46774823Y-82460738D01*
X46775763Y-82433083D01*
X46776524Y-82409524D01*
X46777126Y-82389512D01*
X46777587Y-82372496D01*
X46778055Y-82351389D01*
X46778313Y-82333933D01*
X46778422Y-82318274D01*
X46778446Y-82302557D01*
X46778447Y-82296985D01*
X46778168Y-82277240D01*
X46777302Y-82258891D01*
X46775800Y-82241859D01*
X46773615Y-82226065D01*
X46770701Y-82211427D01*
X46764857Y-82191466D01*
X46757106Y-82173658D01*
X46747288Y-82157733D01*
X46735242Y-82143423D01*
X46720811Y-82130456D01*
X46703834Y-82118563D01*
X46691024Y-82111099D01*
X46676964Y-82103911D01*
X46660610Y-82095809D01*
X46647242Y-82089418D01*
X46632182Y-82082360D01*
X46615671Y-82074744D01*
X46597950Y-82066677D01*
X46579258Y-82058268D01*
X46559836Y-82049623D01*
X46539925Y-82040852D01*
X46519765Y-82032062D01*
X46499597Y-82023361D01*
X46479660Y-82014856D01*
X46460195Y-82006656D01*
X46441444Y-81998869D01*
X46423645Y-81991601D01*
X46407040Y-81984962D01*
X46399260Y-81981912D01*
X46358593Y-82004993D01*
X46385224Y-82017485D01*
X46410264Y-82029395D01*
X46433760Y-82040804D01*
X46455762Y-82051796D01*
X46476318Y-82062454D01*
X46495476Y-82072860D01*
X46513286Y-82083096D01*
X46529794Y-82093246D01*
X46545051Y-82103393D01*
X46559104Y-82113618D01*
X46572002Y-82124005D01*
X46583794Y-82134636D01*
X46594527Y-82145595D01*
X46604251Y-82156963D01*
X46613014Y-82168824D01*
X46620864Y-82181260D01*
X46627851Y-82194354D01*
X46634022Y-82208188D01*
X46639425Y-82222846D01*
X46644111Y-82238410D01*
X46648126Y-82254963D01*
X46651520Y-82272588D01*
X46654340Y-82291366D01*
X46656636Y-82311382D01*
X46658457Y-82332717D01*
X46659849Y-82355455D01*
X46660863Y-82379678D01*
X46661546Y-82405468D01*
X46661947Y-82432909D01*
X46662114Y-82462084D01*
X46662097Y-82493074D01*
X46661943Y-82525963D01*
X46661943Y-82922735D01*
X46649662Y-82909929D01*
X46638076Y-82897870D01*
X46627154Y-82886531D01*
X46616864Y-82875884D01*
X46598048Y-82856555D01*
X46581371Y-82839662D01*
X46566578Y-82824985D01*
X46553410Y-82812302D01*
X46541610Y-82801392D01*
X46525914Y-82787869D01*
X46511852Y-82777091D01*
X46498555Y-82768313D01*
X46485155Y-82760788D01*
X46470787Y-82753771D01*
X46454581Y-82746514D01*
X46439765Y-82740925D01*
X46419573Y-82733509D01*
X46400124Y-82726810D01*
X46379511Y-82720334D01*
X46364181Y-82715895D01*
X46346921Y-82711188D01*
X46327165Y-82706064D01*
X46304349Y-82700377D01*
X46277907Y-82693980D01*
X46263151Y-82690470D01*
X46247275Y-82686727D01*
X46230211Y-82682732D01*
X46211888Y-82678469D01*
X46192234Y-82673917D01*
X46171179Y-82669060D01*
X46148653Y-82663877D01*
X46124585Y-82658352D01*
X46098904Y-82652466D01*
X46071539Y-82646200D01*
X46042421Y-82639536D01*
X46019114Y-82633411D01*
X45997245Y-82627665D01*
X45976761Y-82622283D01*
X45957610Y-82617248D01*
X45939739Y-82612546D01*
X45923095Y-82608159D01*
X45907627Y-82604073D01*
X45893282Y-82600272D01*
X45867752Y-82593460D01*
X45846085Y-82587597D01*
X45827862Y-82582558D01*
X45812665Y-82578215D01*
X45794624Y-82572733D01*
X45777246Y-82566687D01*
X45761538Y-82559739D01*
X45749696Y-82553440D01*
X45731544Y-82543108D01*
X45715566Y-82532225D01*
X45701679Y-82520663D01*
X45689798Y-82508296D01*
X45679836Y-82494996D01*
X45671708Y-82480637D01*
X45665331Y-82465093D01*
X45660618Y-82448236D01*
X45657484Y-82429940D01*
X45655845Y-82410078D01*
X45655540Y-82395903D01*
X45655569Y-82379921D01*
X45655772Y-82363562D01*
X45656199Y-82347697D01*
X45656783Y-82332421D01*
X45657637Y-82313983D01*
X45658486Y-82297599D01*
X45659537Y-82278650D01*
X45659937Y-82271706D01*
X45542334Y-82190007D01*
G37*
G36*
X46094664Y-81138003D02*
G01*
X46123172Y-81139535D01*
X46137850Y-81140853D01*
X46152774Y-81142528D01*
X46167916Y-81144549D01*
X46183249Y-81146908D01*
X46198744Y-81149595D01*
X46214375Y-81152602D01*
X46230113Y-81155919D01*
X46245931Y-81159537D01*
X46261802Y-81163446D01*
X46277697Y-81167638D01*
X46293589Y-81172104D01*
X46309451Y-81176833D01*
X46325254Y-81181818D01*
X46340972Y-81187048D01*
X46356576Y-81192515D01*
X46372039Y-81198210D01*
X46387333Y-81204123D01*
X46402431Y-81210244D01*
X46417304Y-81216566D01*
X46431926Y-81223078D01*
X46446269Y-81229772D01*
X46460305Y-81236638D01*
X46474006Y-81243667D01*
X46487344Y-81250849D01*
X46500293Y-81258177D01*
X46524911Y-81273230D01*
X46547637Y-81288751D01*
X46552183Y-81292414D01*
X46565966Y-81304507D01*
X46579979Y-81318271D01*
X46594234Y-81333729D01*
X46603878Y-81344985D01*
X46613639Y-81357009D01*
X46623521Y-81369809D01*
X46633527Y-81383390D01*
X46643661Y-81397758D01*
X46653928Y-81412921D01*
X46664330Y-81428885D01*
X46674872Y-81445656D01*
X46685557Y-81463240D01*
X46696389Y-81481645D01*
X46707372Y-81500875D01*
X46711992Y-81509640D01*
X46720723Y-81526606D01*
X46728785Y-81542858D01*
X46736191Y-81558442D01*
X46742954Y-81573402D01*
X46749085Y-81587783D01*
X46757125Y-81608369D01*
X46763813Y-81627906D01*
X46769193Y-81646548D01*
X46773304Y-81664446D01*
X46776189Y-81681752D01*
X46777889Y-81698619D01*
X46778447Y-81715199D01*
X46777499Y-81735606D01*
X46774690Y-81755031D01*
X46770076Y-81773427D01*
X46763712Y-81790750D01*
X46755652Y-81806952D01*
X46745951Y-81821987D01*
X46734663Y-81835809D01*
X46721844Y-81848372D01*
X46707547Y-81859630D01*
X46691829Y-81869537D01*
X46674743Y-81878046D01*
X46656344Y-81885111D01*
X46636688Y-81890687D01*
X46615828Y-81894727D01*
X46593820Y-81897185D01*
X46570718Y-81898014D01*
X46550982Y-81897739D01*
X46531220Y-81896920D01*
X46511455Y-81895567D01*
X46491710Y-81893690D01*
X46472008Y-81891300D01*
X46452373Y-81888405D01*
X46432827Y-81885017D01*
X46413393Y-81881144D01*
X46394096Y-81876798D01*
X46374957Y-81871988D01*
X46356000Y-81866724D01*
X46337249Y-81861017D01*
X46318726Y-81854875D01*
X46300454Y-81848309D01*
X46282457Y-81841330D01*
X46264758Y-81833946D01*
X46247380Y-81826169D01*
X46230346Y-81818008D01*
X46213679Y-81809473D01*
X46197402Y-81800574D01*
X46181539Y-81791321D01*
X46166113Y-81781724D01*
X46151146Y-81771793D01*
X46136662Y-81761538D01*
X46122685Y-81750969D01*
X46109236Y-81740096D01*
X46096340Y-81728930D01*
X46084020Y-81717479D01*
X46072298Y-81705754D01*
X46061198Y-81693766D01*
X46050743Y-81681523D01*
X46040956Y-81669037D01*
X46024017Y-81645709D01*
X46007853Y-81622221D01*
X45992506Y-81598664D01*
X45978021Y-81575127D01*
X45964442Y-81551699D01*
X45951813Y-81528471D01*
X45940178Y-81505531D01*
X45929581Y-81482969D01*
X45920066Y-81460876D01*
X45911676Y-81439340D01*
X45910532Y-81436029D01*
X45986367Y-81436029D01*
X45989258Y-81463609D01*
X45997674Y-81491102D01*
X46003836Y-81504742D01*
X46011237Y-81518273D01*
X46019829Y-81531666D01*
X46029564Y-81544891D01*
X46040395Y-81557919D01*
X46052274Y-81570720D01*
X46065154Y-81583267D01*
X46078987Y-81595528D01*
X46093726Y-81607477D01*
X46109322Y-81619082D01*
X46125728Y-81630315D01*
X46142896Y-81641147D01*
X46160780Y-81651549D01*
X46179330Y-81661491D01*
X46198501Y-81670944D01*
X46218243Y-81679879D01*
X46238509Y-81688268D01*
X46259253Y-81696080D01*
X46280425Y-81703286D01*
X46301979Y-81709858D01*
X46323866Y-81715766D01*
X46346040Y-81720980D01*
X46368452Y-81725473D01*
X46391055Y-81729214D01*
X46413802Y-81732175D01*
X46436644Y-81734326D01*
X46459534Y-81735638D01*
X46482424Y-81736081D01*
X46493531Y-81735922D01*
X46514978Y-81734661D01*
X46535360Y-81732171D01*
X46554624Y-81728487D01*
X46572718Y-81723641D01*
X46589590Y-81717668D01*
X46605189Y-81710601D01*
X46619462Y-81702475D01*
X46632357Y-81693323D01*
X46643822Y-81683179D01*
X46653805Y-81672077D01*
X46665887Y-81653701D01*
X46671937Y-81640351D01*
X46676323Y-81626161D01*
X46678993Y-81611166D01*
X46679895Y-81595397D01*
X46679133Y-81580476D01*
X46676859Y-81565673D01*
X46673087Y-81551003D01*
X46667833Y-81536482D01*
X46661114Y-81522123D01*
X46652943Y-81507942D01*
X46643338Y-81493955D01*
X46632313Y-81480176D01*
X46619885Y-81466620D01*
X46606067Y-81453303D01*
X46590878Y-81440238D01*
X46574330Y-81427442D01*
X46556442Y-81414930D01*
X46537227Y-81402716D01*
X46516701Y-81390815D01*
X46494881Y-81379243D01*
X46475532Y-81370014D01*
X46456111Y-81361295D01*
X46436651Y-81353098D01*
X46417183Y-81345434D01*
X46397738Y-81338315D01*
X46378349Y-81331754D01*
X46359047Y-81325761D01*
X46339863Y-81320349D01*
X46320829Y-81315530D01*
X46301978Y-81311315D01*
X46283340Y-81307716D01*
X46264947Y-81304745D01*
X46246831Y-81302413D01*
X46229024Y-81300733D01*
X46211557Y-81299717D01*
X46194462Y-81299375D01*
X46170994Y-81299984D01*
X46148705Y-81301791D01*
X46127642Y-81304765D01*
X46107851Y-81308878D01*
X46089378Y-81314098D01*
X46072270Y-81320395D01*
X46056571Y-81327740D01*
X46042329Y-81336103D01*
X46029590Y-81345453D01*
X46018400Y-81355761D01*
X46008804Y-81366996D01*
X45997503Y-81385521D01*
X45990050Y-81405964D01*
X45987296Y-81420608D01*
X45986367Y-81436029D01*
X45910532Y-81436029D01*
X45904457Y-81418451D01*
X45898451Y-81398299D01*
X45893704Y-81378974D01*
X45890258Y-81360564D01*
X45888159Y-81343161D01*
X45887449Y-81326852D01*
X45888374Y-81306375D01*
X45891103Y-81286753D01*
X45895568Y-81268049D01*
X45901703Y-81250328D01*
X45909439Y-81233655D01*
X45918709Y-81218094D01*
X45929445Y-81203709D01*
X45941579Y-81190565D01*
X45955045Y-81178726D01*
X45969774Y-81168257D01*
X45985698Y-81159221D01*
X46002751Y-81151685D01*
X46020864Y-81145710D01*
X46039970Y-81141363D01*
X46060001Y-81138708D01*
X46080889Y-81137808D01*
X46094664Y-81138003D01*
G37*
G36*
X46486088Y-80596322D02*
G01*
X46494422Y-80611010D01*
X46503014Y-80625975D01*
X46511322Y-80640039D01*
X46519021Y-80652710D01*
X46528693Y-80668350D01*
X46537818Y-80682976D01*
X46548995Y-80700822D01*
X46557785Y-80714838D01*
X46567787Y-80730778D01*
X46577853Y-80747226D01*
X46586838Y-80762405D01*
X46594761Y-80776378D01*
X46603708Y-80793241D01*
X46610852Y-80808223D01*
X46617315Y-80824533D01*
X46621578Y-80840948D01*
X46622376Y-80850213D01*
X46617968Y-80865073D01*
X46607901Y-80875747D01*
X46593436Y-80883476D01*
X46578548Y-80887198D01*
X46567787Y-80887948D01*
X46548736Y-80887948D01*
X46530052Y-80887948D01*
X46510088Y-80885548D01*
X46487122Y-80881450D01*
X46457253Y-80875545D01*
X46439949Y-80871965D01*
X46421184Y-80867995D01*
X46401044Y-80863655D01*
X46379619Y-80858965D01*
X46356996Y-80853945D01*
X46333263Y-80848616D01*
X46308509Y-80842998D01*
X46282820Y-80837112D01*
X46256286Y-80830978D01*
X46228994Y-80824617D01*
X46201032Y-80818048D01*
X46172489Y-80811293D01*
X46143452Y-80804371D01*
X46114009Y-80797303D01*
X46084248Y-80790110D01*
X46054258Y-80782812D01*
X46024126Y-80775428D01*
X45993940Y-80767981D01*
X45963789Y-80760489D01*
X45933760Y-80752974D01*
X45903941Y-80745455D01*
X45874421Y-80737954D01*
X45845287Y-80730490D01*
X45816628Y-80723084D01*
X45788531Y-80715757D01*
X45760202Y-80708277D01*
X45733440Y-80701139D01*
X45708201Y-80694319D01*
X45684440Y-80687791D01*
X45662115Y-80681530D01*
X45641180Y-80675512D01*
X45621593Y-80669712D01*
X45603311Y-80664105D01*
X45586288Y-80658666D01*
X45570481Y-80653370D01*
X45555847Y-80648192D01*
X45529923Y-80638091D01*
X45508163Y-80628164D01*
X45490220Y-80618213D01*
X45475742Y-80608037D01*
X45464380Y-80597438D01*
X45452414Y-80580311D01*
X45445491Y-80561111D01*
X45442429Y-80539168D01*
X45441950Y-80522683D01*
X45442237Y-80505815D01*
X45443322Y-80489594D01*
X45445536Y-80472427D01*
X45448485Y-80456247D01*
X45451706Y-80441414D01*
X45455800Y-80424389D01*
X45456971Y-80419735D01*
X45345596Y-80329609D01*
X45341995Y-80345076D01*
X45338493Y-80361935D01*
X45335968Y-80376727D01*
X45334029Y-80392775D01*
X45333046Y-80408156D01*
X45332773Y-80424131D01*
X45333150Y-80439656D01*
X45334308Y-80454826D01*
X45336292Y-80469722D01*
X45339145Y-80484426D01*
X45342910Y-80499021D01*
X45347630Y-80513589D01*
X45353351Y-80528211D01*
X45360113Y-80542970D01*
X45367962Y-80557948D01*
X45376941Y-80573228D01*
X45387093Y-80588890D01*
X45398461Y-80605018D01*
X45411090Y-80621693D01*
X45425022Y-80638997D01*
X45440301Y-80657013D01*
X45456971Y-80675823D01*
X45471749Y-80692405D01*
X45485534Y-80707463D01*
X45498457Y-80721105D01*
X45510649Y-80733440D01*
X45522242Y-80744574D01*
X45533369Y-80754616D01*
X45549469Y-80767868D01*
X45565257Y-80779270D01*
X45581177Y-80789184D01*
X45597672Y-80797977D01*
X45615186Y-80806011D01*
X45634163Y-80813651D01*
X45647847Y-80818705D01*
X45665053Y-80824173D01*
X45679542Y-80828545D01*
X45696108Y-80833405D01*
X45714463Y-80838674D01*
X45734317Y-80844272D01*
X45755384Y-80850121D01*
X45777372Y-80856140D01*
X45799995Y-80862250D01*
X45822962Y-80868372D01*
X45845986Y-80874427D01*
X45868777Y-80880334D01*
X45891048Y-80886015D01*
X45912508Y-80891391D01*
X45932870Y-80896380D01*
X45951845Y-80900906D01*
X45960722Y-80902969D01*
X46618346Y-81053911D01*
X46633551Y-81056443D01*
X46648905Y-81058090D01*
X46656081Y-81058307D01*
X46674314Y-81057392D01*
X46692131Y-81054774D01*
X46709230Y-81050643D01*
X46725311Y-81045189D01*
X46740074Y-81038603D01*
X46753217Y-81031073D01*
X46767703Y-81019897D01*
X46778063Y-81007835D01*
X46784126Y-80992196D01*
X46784309Y-80989065D01*
X46784309Y-80976242D01*
X46784309Y-80970014D01*
X46779686Y-80952155D01*
X46771333Y-80937003D01*
X46763224Y-80923774D01*
X46752889Y-80907751D01*
X46740162Y-80888681D01*
X46724876Y-80866314D01*
X46716221Y-80853815D01*
X46706864Y-80840398D01*
X46696784Y-80826031D01*
X46685961Y-80810683D01*
X46674373Y-80794322D01*
X46662000Y-80776917D01*
X46648821Y-80758436D01*
X46634815Y-80738849D01*
X46619961Y-80718123D01*
X46604239Y-80696228D01*
X46587628Y-80673132D01*
X46570106Y-80648803D01*
X46551654Y-80623210D01*
X46532250Y-80596322D01*
X46486088Y-80596322D01*
G37*
G36*
X46486088Y-80092205D02*
G01*
X46494422Y-80106893D01*
X46503014Y-80121858D01*
X46511322Y-80135922D01*
X46519021Y-80148593D01*
X46528693Y-80164232D01*
X46537818Y-80178858D01*
X46548995Y-80196705D01*
X46557785Y-80210721D01*
X46567787Y-80226661D01*
X46577853Y-80243109D01*
X46586838Y-80258288D01*
X46594761Y-80272261D01*
X46603708Y-80289124D01*
X46610852Y-80304106D01*
X46617315Y-80320416D01*
X46621578Y-80336831D01*
X46622376Y-80346095D01*
X46617968Y-80360956D01*
X46607901Y-80371630D01*
X46593436Y-80379359D01*
X46578548Y-80383081D01*
X46567787Y-80383831D01*
X46548736Y-80383831D01*
X46530052Y-80383831D01*
X46510088Y-80381430D01*
X46487122Y-80377333D01*
X46457253Y-80371428D01*
X46439949Y-80367848D01*
X46421184Y-80363878D01*
X46401044Y-80359538D01*
X46379619Y-80354847D01*
X46356996Y-80349828D01*
X46333263Y-80344499D01*
X46308509Y-80338881D01*
X46282820Y-80332995D01*
X46256286Y-80326861D01*
X46228994Y-80320500D01*
X46201032Y-80313931D01*
X46172489Y-80307176D01*
X46143452Y-80300254D01*
X46114009Y-80293186D01*
X46084248Y-80285993D01*
X46054258Y-80278694D01*
X46024126Y-80271311D01*
X45993940Y-80263864D01*
X45963789Y-80256372D01*
X45933760Y-80248857D01*
X45903941Y-80241338D01*
X45874421Y-80233837D01*
X45845287Y-80226373D01*
X45816628Y-80218967D01*
X45788531Y-80211640D01*
X45760202Y-80204160D01*
X45733440Y-80197022D01*
X45708201Y-80190202D01*
X45684440Y-80183674D01*
X45662115Y-80177413D01*
X45641180Y-80171395D01*
X45621593Y-80165595D01*
X45603311Y-80159988D01*
X45586288Y-80154549D01*
X45570481Y-80149253D01*
X45555847Y-80144075D01*
X45529923Y-80133974D01*
X45508163Y-80124047D01*
X45490220Y-80114095D01*
X45475742Y-80103920D01*
X45464380Y-80093321D01*
X45452414Y-80076194D01*
X45445491Y-80056994D01*
X45442429Y-80035051D01*
X45441950Y-80018566D01*
X45442237Y-80001698D01*
X45443322Y-79985477D01*
X45445536Y-79968310D01*
X45448485Y-79952130D01*
X45451706Y-79937297D01*
X45455800Y-79920271D01*
X45456971Y-79915617D01*
X45345596Y-79825492D01*
X45341995Y-79840958D01*
X45338493Y-79857818D01*
X45335968Y-79872610D01*
X45334029Y-79888657D01*
X45333046Y-79904038D01*
X45332773Y-79920014D01*
X45333150Y-79935539D01*
X45334308Y-79950709D01*
X45336292Y-79965605D01*
X45339145Y-79980309D01*
X45342910Y-79994904D01*
X45347630Y-80009472D01*
X45353351Y-80024094D01*
X45360113Y-80038853D01*
X45367962Y-80053831D01*
X45376941Y-80069110D01*
X45387093Y-80084773D01*
X45398461Y-80100900D01*
X45411090Y-80117575D01*
X45425022Y-80134880D01*
X45440301Y-80152896D01*
X45456971Y-80171706D01*
X45471749Y-80188288D01*
X45485534Y-80203346D01*
X45498457Y-80216988D01*
X45510649Y-80229322D01*
X45522242Y-80240457D01*
X45533369Y-80250499D01*
X45549469Y-80263751D01*
X45565257Y-80275152D01*
X45581177Y-80285067D01*
X45597672Y-80293860D01*
X45615186Y-80301894D01*
X45634163Y-80309534D01*
X45647847Y-80314588D01*
X45665053Y-80320056D01*
X45679542Y-80324428D01*
X45696108Y-80329287D01*
X45714463Y-80334556D01*
X45734317Y-80340155D01*
X45755384Y-80346003D01*
X45777372Y-80352022D01*
X45799995Y-80358133D01*
X45822962Y-80364255D01*
X45845986Y-80370310D01*
X45868777Y-80376217D01*
X45891048Y-80381898D01*
X45912508Y-80387273D01*
X45932870Y-80392263D01*
X45951845Y-80396788D01*
X45960722Y-80398852D01*
X46618346Y-80549794D01*
X46633551Y-80552325D01*
X46648905Y-80553973D01*
X46656081Y-80554190D01*
X46674314Y-80553275D01*
X46692131Y-80550657D01*
X46709230Y-80546526D01*
X46725311Y-80541072D01*
X46740074Y-80534485D01*
X46753217Y-80526956D01*
X46767703Y-80515780D01*
X46778063Y-80503718D01*
X46784126Y-80488079D01*
X46784309Y-80484947D01*
X46784309Y-80472125D01*
X46784309Y-80465896D01*
X46779686Y-80448038D01*
X46771333Y-80432886D01*
X46763224Y-80419657D01*
X46752889Y-80403633D01*
X46740162Y-80384564D01*
X46724876Y-80362196D01*
X46716221Y-80349698D01*
X46706864Y-80336281D01*
X46696784Y-80321914D01*
X46685961Y-80306566D01*
X46674373Y-80290205D01*
X46662000Y-80272800D01*
X46648821Y-80254319D01*
X46634815Y-80234732D01*
X46619961Y-80214006D01*
X46604239Y-80192111D01*
X46587628Y-80169014D01*
X46570106Y-80144685D01*
X46551654Y-80119093D01*
X46532250Y-80092205D01*
X46486088Y-80092205D01*
G37*
G36*
X46539211Y-79201573D02*
G01*
X46544449Y-79208746D01*
X46554442Y-79222480D01*
X46563850Y-79235481D01*
X46572750Y-79247851D01*
X46585308Y-79265446D01*
X46597141Y-79282192D01*
X46608500Y-79298431D01*
X46619636Y-79314506D01*
X46630802Y-79330759D01*
X46642249Y-79347532D01*
X46654230Y-79365169D01*
X46662638Y-79377574D01*
X46671468Y-79390617D01*
X46680478Y-79404213D01*
X46696962Y-79429185D01*
X46711498Y-79451370D01*
X46724207Y-79470976D01*
X46735212Y-79488214D01*
X46744633Y-79503292D01*
X46756060Y-79522314D01*
X46764606Y-79537650D01*
X46772226Y-79553581D01*
X46777051Y-79568584D01*
X46778447Y-79583691D01*
X46774969Y-79599452D01*
X46764536Y-79610551D01*
X46749424Y-79616107D01*
X46734483Y-79617397D01*
X46719787Y-79616756D01*
X46704887Y-79615259D01*
X46686828Y-79612807D01*
X46671010Y-79610298D01*
X46653087Y-79607181D01*
X46632916Y-79603425D01*
X46618151Y-79600550D01*
X46602282Y-79597368D01*
X46585268Y-79593870D01*
X46567067Y-79590047D01*
X46547637Y-79585889D01*
X46564932Y-79609922D01*
X46581383Y-79632857D01*
X46597010Y-79654724D01*
X46611831Y-79675556D01*
X46625867Y-79695382D01*
X46639137Y-79714234D01*
X46651659Y-79732142D01*
X46663454Y-79749139D01*
X46674541Y-79765254D01*
X46684938Y-79780520D01*
X46694666Y-79794965D01*
X46703743Y-79808623D01*
X46720023Y-79833698D01*
X46733934Y-79855991D01*
X46745629Y-79875752D01*
X46755263Y-79893228D01*
X46762991Y-79908666D01*
X46771347Y-79928546D01*
X46776283Y-79945237D01*
X46778447Y-79963977D01*
X46776707Y-79978207D01*
X46769171Y-79995519D01*
X46759822Y-80007161D01*
X46747487Y-80017570D01*
X46732331Y-80026671D01*
X46714518Y-80034392D01*
X46694213Y-80040657D01*
X46679374Y-80043988D01*
X46663549Y-80046617D01*
X46646788Y-80048522D01*
X46629140Y-80049682D01*
X46610652Y-80050073D01*
X46594359Y-80049824D01*
X46577458Y-80049087D01*
X46560008Y-80047879D01*
X46542063Y-80046218D01*
X46523681Y-80044119D01*
X46504918Y-80041601D01*
X46485831Y-80038680D01*
X46466476Y-80035373D01*
X46446910Y-80031696D01*
X46427188Y-80027667D01*
X46407368Y-80023303D01*
X46387506Y-80018620D01*
X46367659Y-80013636D01*
X46347882Y-80008366D01*
X46328233Y-80002830D01*
X46308768Y-79997042D01*
X46289543Y-79991020D01*
X46270615Y-79984781D01*
X46252041Y-79978342D01*
X46233876Y-79971720D01*
X46216178Y-79964931D01*
X46199003Y-79957993D01*
X46182407Y-79950922D01*
X46166447Y-79943736D01*
X46151179Y-79936451D01*
X46136660Y-79929084D01*
X46122946Y-79921652D01*
X46110094Y-79914172D01*
X46087201Y-79899136D01*
X46068433Y-79884110D01*
X46059205Y-79874848D01*
X46048398Y-79862757D01*
X46036287Y-79848195D01*
X46023147Y-79831521D01*
X46013951Y-79819409D01*
X46004502Y-79806624D01*
X45994882Y-79793272D01*
X45985171Y-79779460D01*
X45975451Y-79765294D01*
X45965805Y-79750879D01*
X45956313Y-79736323D01*
X45947058Y-79721732D01*
X45938120Y-79707211D01*
X45929581Y-79692868D01*
X45926494Y-79687985D01*
X45918093Y-79673596D01*
X45910914Y-79659392D01*
X45904874Y-79645103D01*
X45901178Y-79634250D01*
X45984169Y-79634250D01*
X45985360Y-79653700D01*
X45989021Y-79671962D01*
X45995284Y-79689181D01*
X46004281Y-79705502D01*
X46016145Y-79721069D01*
X46031008Y-79736027D01*
X46042648Y-79745733D01*
X46055718Y-79755276D01*
X46070259Y-79764698D01*
X46086309Y-79774043D01*
X46103907Y-79783354D01*
X46123092Y-79792673D01*
X46143904Y-79802044D01*
X46166964Y-79812007D01*
X46190348Y-79821417D01*
X46213985Y-79830260D01*
X46237802Y-79838526D01*
X46261729Y-79846202D01*
X46285693Y-79853275D01*
X46309625Y-79859732D01*
X46333452Y-79865563D01*
X46357102Y-79870753D01*
X46380506Y-79875292D01*
X46403590Y-79879166D01*
X46426285Y-79882364D01*
X46448518Y-79884872D01*
X46470218Y-79886680D01*
X46491314Y-79887773D01*
X46511734Y-79888140D01*
X46529904Y-79887649D01*
X46546469Y-79886179D01*
X46561390Y-79883739D01*
X46578658Y-79878987D01*
X46592836Y-79872540D01*
X46606071Y-79862122D01*
X46614147Y-79849115D01*
X46616880Y-79833552D01*
X46616165Y-79825213D01*
X46611900Y-79808267D01*
X46605868Y-79792136D01*
X46599900Y-79778635D01*
X46592754Y-79764002D01*
X46584486Y-79748301D01*
X46575149Y-79731594D01*
X46564798Y-79713945D01*
X46553486Y-79695418D01*
X46545439Y-79682610D01*
X46545160Y-79682299D01*
X46535990Y-79670126D01*
X46525624Y-79656055D01*
X46514562Y-79641032D01*
X46504627Y-79627566D01*
X46493273Y-79612212D01*
X46480484Y-79594969D01*
X46471154Y-79582423D01*
X46461175Y-79569037D01*
X46451455Y-79566164D01*
X46436514Y-79561887D01*
X46420791Y-79557586D01*
X46405707Y-79553696D01*
X46389734Y-79549986D01*
X46379524Y-79547671D01*
X46364297Y-79544267D01*
X46349165Y-79540930D01*
X46334115Y-79537641D01*
X46319135Y-79534382D01*
X46304211Y-79531135D01*
X46289331Y-79527882D01*
X46274483Y-79524605D01*
X46259653Y-79521286D01*
X46244830Y-79517906D01*
X46230000Y-79514448D01*
X46227519Y-79513887D01*
X46212832Y-79510235D01*
X46196299Y-79505948D01*
X46179960Y-79501637D01*
X46159981Y-79496307D01*
X46144523Y-79492152D01*
X46127271Y-79487490D01*
X46108155Y-79482300D01*
X46087105Y-79476560D01*
X46064050Y-79470250D01*
X46038921Y-79463347D01*
X46011646Y-79455830D01*
X46007074Y-79475333D01*
X46002853Y-79494774D01*
X45999003Y-79513977D01*
X45995546Y-79532762D01*
X45992506Y-79550954D01*
X45989902Y-79568374D01*
X45987757Y-79584845D01*
X45986092Y-79600189D01*
X45984659Y-79618589D01*
X45984169Y-79634250D01*
X45901178Y-79634250D01*
X45899888Y-79630461D01*
X45895875Y-79615199D01*
X45892751Y-79599047D01*
X45890432Y-79581740D01*
X45888835Y-79563007D01*
X45887877Y-79542581D01*
X45887552Y-79527891D01*
X45887449Y-79512250D01*
X45887549Y-79495172D01*
X45887856Y-79478510D01*
X45888379Y-79462190D01*
X45889126Y-79446139D01*
X45890108Y-79430283D01*
X45891332Y-79414549D01*
X45892809Y-79398863D01*
X45894547Y-79383153D01*
X45896556Y-79367343D01*
X45898844Y-79351361D01*
X45901421Y-79335134D01*
X45904296Y-79318587D01*
X45907478Y-79301647D01*
X45910976Y-79284241D01*
X45914799Y-79266295D01*
X45918956Y-79247735D01*
X45928827Y-79256473D01*
X45942140Y-79268212D01*
X45954738Y-79279014D01*
X45967965Y-79289524D01*
X45980925Y-79298942D01*
X45994794Y-79308552D01*
X46021590Y-79315747D01*
X46047973Y-79322767D01*
X46073926Y-79329608D01*
X46099431Y-79336267D01*
X46124471Y-79342740D01*
X46149028Y-79349024D01*
X46173083Y-79355115D01*
X46196620Y-79361010D01*
X46219621Y-79366706D01*
X46242069Y-79372199D01*
X46263944Y-79377484D01*
X46285231Y-79382560D01*
X46305911Y-79387422D01*
X46325967Y-79392067D01*
X46345381Y-79396492D01*
X46364135Y-79400692D01*
X46382211Y-79404665D01*
X46399593Y-79408407D01*
X46416263Y-79411914D01*
X46432202Y-79415184D01*
X46447393Y-79418212D01*
X46475462Y-79423529D01*
X46500327Y-79427838D01*
X46521848Y-79431112D01*
X46539884Y-79433322D01*
X46560094Y-79434581D01*
X46566974Y-79434315D01*
X46582833Y-79431168D01*
X46596594Y-79422881D01*
X46602226Y-79409302D01*
X46602161Y-79407298D01*
X46598523Y-79392412D01*
X46592163Y-79378375D01*
X46584808Y-79364827D01*
X46574896Y-79348122D01*
X46566715Y-79334980D01*
X46557170Y-79320056D01*
X46546168Y-79303200D01*
X46533619Y-79284260D01*
X46519432Y-79263085D01*
X46503515Y-79239523D01*
X46494879Y-79226800D01*
X46485777Y-79213424D01*
X46476196Y-79199375D01*
X46539211Y-79201573D01*
G37*
G36*
X46723126Y-79007400D02*
G01*
X46221939Y-78883569D01*
X46187868Y-78831179D01*
X46176581Y-78813371D01*
X46165926Y-78796540D01*
X46155886Y-78780652D01*
X46146443Y-78765674D01*
X46137578Y-78751575D01*
X46129273Y-78738321D01*
X46121511Y-78725879D01*
X46107544Y-78703302D01*
X46095530Y-78683583D01*
X46085328Y-78666459D01*
X46076792Y-78651668D01*
X46066799Y-78633284D01*
X46059747Y-78618678D01*
X46054082Y-78603550D01*
X46051388Y-78588681D01*
X46051214Y-78583150D01*
X46056977Y-78569484D01*
X46071484Y-78562868D01*
X46079057Y-78562268D01*
X46097718Y-78563470D01*
X46112494Y-78565542D01*
X46130984Y-78568832D01*
X46145791Y-78571783D01*
X46162871Y-78575399D01*
X46182477Y-78579729D01*
X46204856Y-78584822D01*
X46230258Y-78590727D01*
X46258933Y-78597494D01*
X46274576Y-78601217D01*
X46291130Y-78605173D01*
X46308628Y-78609369D01*
X46327100Y-78613812D01*
X46346577Y-78618507D01*
X46367091Y-78623461D01*
X46388672Y-78628680D01*
X46411353Y-78634170D01*
X46435163Y-78639937D01*
X46452349Y-78644155D01*
X46468684Y-78648157D01*
X46484198Y-78651949D01*
X46498917Y-78655536D01*
X46526083Y-78662116D01*
X46550408Y-78667941D01*
X46572114Y-78673053D01*
X46591424Y-78677495D01*
X46608561Y-78681310D01*
X46623750Y-78684542D01*
X46643366Y-78688388D01*
X46659852Y-78691162D01*
X46678268Y-78693443D01*
X46694245Y-78694419D01*
X46701877Y-78694525D01*
X46718265Y-78693595D01*
X46734527Y-78690642D01*
X46751389Y-78685418D01*
X46766420Y-78679153D01*
X46782790Y-78670998D01*
X46797131Y-78663018D01*
X46788635Y-78644694D01*
X46778978Y-78625219D01*
X46768213Y-78604669D01*
X46756391Y-78583122D01*
X46743561Y-78560654D01*
X46729775Y-78537341D01*
X46715085Y-78513262D01*
X46699541Y-78488491D01*
X46691465Y-78475871D01*
X46683194Y-78463107D01*
X46674736Y-78450208D01*
X46666095Y-78437185D01*
X46657280Y-78424047D01*
X46648296Y-78410803D01*
X46639149Y-78397463D01*
X46629846Y-78384037D01*
X46620393Y-78370534D01*
X46610798Y-78356964D01*
X46601065Y-78343337D01*
X46591201Y-78329661D01*
X46581213Y-78315948D01*
X46571108Y-78302205D01*
X46560890Y-78288443D01*
X46550568Y-78274672D01*
X46490851Y-78260017D01*
X46501719Y-78278566D01*
X46511944Y-78296043D01*
X46521545Y-78312484D01*
X46530541Y-78327924D01*
X46538952Y-78342400D01*
X46546798Y-78355947D01*
X46560872Y-78380396D01*
X46572920Y-78401560D01*
X46583097Y-78419723D01*
X46591562Y-78435171D01*
X46598470Y-78448191D01*
X46606258Y-78463793D01*
X46612656Y-78478767D01*
X46616261Y-78493383D01*
X46616514Y-78499253D01*
X46611610Y-78514854D01*
X46599456Y-78524997D01*
X46583283Y-78530629D01*
X46565618Y-78532809D01*
X46558995Y-78532959D01*
X46543110Y-78532674D01*
X46526744Y-78531572D01*
X46508292Y-78529280D01*
X46486152Y-78525424D01*
X46468551Y-78521800D01*
X46448124Y-78517205D01*
X46424395Y-78511528D01*
X46396889Y-78504658D01*
X46381572Y-78500742D01*
X46365132Y-78496486D01*
X46347511Y-78491876D01*
X46328649Y-78486900D01*
X46308486Y-78481542D01*
X46286964Y-78475789D01*
X46264023Y-78469628D01*
X46239603Y-78463044D01*
X46213645Y-78456024D01*
X46186091Y-78448554D01*
X46156879Y-78440620D01*
X46125952Y-78432208D01*
X46108710Y-78427415D01*
X46092543Y-78422922D01*
X46077414Y-78418718D01*
X46063286Y-78414795D01*
X46037883Y-78407749D01*
X46016037Y-78401709D01*
X45997452Y-78396595D01*
X45981831Y-78392332D01*
X45963308Y-78387362D01*
X45946215Y-78382989D01*
X45930548Y-78379800D01*
X45923353Y-78379452D01*
X45908005Y-78382188D01*
X45895637Y-78391401D01*
X45888784Y-78406449D01*
X45887449Y-78419386D01*
X45887912Y-78435349D01*
X45890328Y-78450647D01*
X45896240Y-78468323D01*
X45903894Y-78484972D01*
X45910891Y-78498401D01*
X45919629Y-78514136D01*
X45930301Y-78532558D01*
X45943099Y-78554048D01*
X45958215Y-78578987D01*
X45966703Y-78592868D01*
X45975842Y-78607755D01*
X45985658Y-78623693D01*
X45996174Y-78640731D01*
X46007414Y-78658917D01*
X46019402Y-78678298D01*
X46032163Y-78698922D01*
X46041901Y-78714309D01*
X46051195Y-78729009D01*
X46060050Y-78743023D01*
X46068467Y-78756349D01*
X46076451Y-78768989D01*
X46087621Y-78786660D01*
X46097834Y-78802786D01*
X46107099Y-78817366D01*
X46115429Y-78830401D01*
X46125099Y-78845376D01*
X46134913Y-78860231D01*
X46136577Y-78862686D01*
X46121956Y-78858677D01*
X46106286Y-78854518D01*
X46089813Y-78850266D01*
X46072783Y-78845977D01*
X46055445Y-78841707D01*
X46038045Y-78837512D01*
X46020829Y-78833450D01*
X46004044Y-78829576D01*
X45987938Y-78825947D01*
X45972757Y-78822619D01*
X45952261Y-78818314D01*
X45935235Y-78815004D01*
X45919372Y-78812466D01*
X45914926Y-78812128D01*
X45899933Y-78815716D01*
X45889872Y-78826962D01*
X45887449Y-78839605D01*
X45892702Y-78858822D01*
X45900598Y-78877833D01*
X45907683Y-78893323D01*
X45916139Y-78910896D01*
X45925890Y-78930408D01*
X45936862Y-78951713D01*
X45948981Y-78974667D01*
X45962171Y-78999124D01*
X45976358Y-79024940D01*
X45983802Y-79038313D01*
X45991468Y-79051971D01*
X45999345Y-79065896D01*
X46007425Y-79080070D01*
X46015699Y-79094475D01*
X46024156Y-79109094D01*
X46032789Y-79123907D01*
X46041586Y-79138896D01*
X46050540Y-79154045D01*
X46059640Y-79169333D01*
X46115327Y-79181790D01*
X46104404Y-79158023D01*
X46094796Y-79137010D01*
X46086419Y-79118552D01*
X46079189Y-79102449D01*
X46073022Y-79088501D01*
X46065578Y-79071183D01*
X46060052Y-79057592D01*
X46054329Y-79041391D01*
X46051429Y-79027015D01*
X46051214Y-79020223D01*
X46056179Y-79005785D01*
X46069297Y-78996833D01*
X46081256Y-78994944D01*
X46097630Y-78995922D01*
X46120059Y-78998786D01*
X46138139Y-79001693D01*
X46158557Y-79005362D01*
X46181172Y-79009762D01*
X46205842Y-79014864D01*
X46232427Y-79020635D01*
X46260784Y-79027046D01*
X46275584Y-79030482D01*
X46290774Y-79034067D01*
X46306336Y-79037796D01*
X46322254Y-79041666D01*
X46338509Y-79045673D01*
X46355084Y-79049813D01*
X46371961Y-79054082D01*
X46389123Y-79058477D01*
X46406551Y-79062993D01*
X46424229Y-79067628D01*
X46442138Y-79072376D01*
X46460262Y-79077235D01*
X46478581Y-79082200D01*
X46497079Y-79087268D01*
X46670003Y-79135628D01*
X46685757Y-79140001D01*
X46700251Y-79143790D01*
X46718119Y-79148350D01*
X46734731Y-79152531D01*
X46753309Y-79157167D01*
X46768481Y-79160932D01*
X46784675Y-79164937D01*
X46723126Y-79007400D01*
G37*
G36*
X45458803Y-77138576D02*
G01*
X45454502Y-77155415D01*
X45450124Y-77173305D01*
X45446775Y-77188532D01*
X45443998Y-77204565D01*
X45442438Y-77219631D01*
X45441950Y-77235296D01*
X45442091Y-77242288D01*
X45444256Y-77262297D01*
X45449143Y-77280968D01*
X45456894Y-77298443D01*
X45467653Y-77314862D01*
X45481563Y-77330368D01*
X45492658Y-77340267D01*
X45505259Y-77349864D01*
X45519409Y-77359201D01*
X45535150Y-77368321D01*
X45552524Y-77377264D01*
X45571575Y-77386074D01*
X45592344Y-77394791D01*
X45614874Y-77403457D01*
X45628771Y-77408152D01*
X45646120Y-77413542D01*
X45666681Y-77419572D01*
X45690210Y-77426188D01*
X45716466Y-77433333D01*
X45745207Y-77440953D01*
X45776192Y-77448991D01*
X45809179Y-77457393D01*
X45843925Y-77466103D01*
X45880189Y-77475066D01*
X45917729Y-77484226D01*
X45956303Y-77493527D01*
X45995670Y-77502915D01*
X46035587Y-77512334D01*
X46075813Y-77521729D01*
X46116106Y-77531044D01*
X46156224Y-77540223D01*
X46195925Y-77549212D01*
X46234968Y-77557955D01*
X46273110Y-77566397D01*
X46310109Y-77574481D01*
X46345725Y-77582153D01*
X46379715Y-77589358D01*
X46411836Y-77596039D01*
X46441849Y-77602142D01*
X46469509Y-77607611D01*
X46494577Y-77612390D01*
X46516809Y-77616425D01*
X46535964Y-77619660D01*
X46551801Y-77622039D01*
X46572550Y-77624009D01*
X46575480Y-77623971D01*
X46591909Y-77622260D01*
X46607987Y-77617382D01*
X46621105Y-77608684D01*
X46627505Y-77594333D01*
X46626632Y-77589145D01*
X46621183Y-77574262D01*
X46614545Y-77559849D01*
X46607773Y-77546495D01*
X46599839Y-77531840D01*
X46590865Y-77516180D01*
X46580976Y-77499811D01*
X46578730Y-77496258D01*
X46569825Y-77482960D01*
X46560566Y-77469424D01*
X46551574Y-77456333D01*
X46541287Y-77441347D01*
X46532782Y-77428930D01*
X46523649Y-77415552D01*
X46513932Y-77401259D01*
X46476196Y-77342275D01*
X46541043Y-77350701D01*
X46552844Y-77367070D01*
X46564538Y-77383459D01*
X46576107Y-77399840D01*
X46587533Y-77416184D01*
X46598799Y-77432462D01*
X46609887Y-77448645D01*
X46620780Y-77464705D01*
X46631460Y-77480611D01*
X46641910Y-77496337D01*
X46652113Y-77511852D01*
X46662050Y-77527128D01*
X46671704Y-77542136D01*
X46681058Y-77556848D01*
X46690094Y-77571234D01*
X46698795Y-77585265D01*
X46707143Y-77598913D01*
X46715121Y-77612149D01*
X46722711Y-77624943D01*
X46736658Y-77649095D01*
X46748843Y-77671136D01*
X46759127Y-77690836D01*
X46767369Y-77707964D01*
X46773430Y-77722290D01*
X46778447Y-77741612D01*
X46777373Y-77752641D01*
X46771819Y-77766280D01*
X46759564Y-77777887D01*
X46744308Y-77784247D01*
X46728378Y-77787082D01*
X46713600Y-77787774D01*
X46709814Y-77787755D01*
X46693856Y-77787324D01*
X46676706Y-77786336D01*
X46658511Y-77784813D01*
X46639416Y-77782775D01*
X46624592Y-77780922D01*
X46609407Y-77778801D01*
X46593920Y-77776421D01*
X46578195Y-77773792D01*
X46562292Y-77770921D01*
X46576772Y-77790837D01*
X46590681Y-77810066D01*
X46604024Y-77828617D01*
X46616810Y-77846503D01*
X46629046Y-77863735D01*
X46640739Y-77880324D01*
X46651897Y-77896283D01*
X46662527Y-77911622D01*
X46672636Y-77926353D01*
X46682232Y-77940487D01*
X46691323Y-77954037D01*
X46699915Y-77967012D01*
X46708015Y-77979426D01*
X46722774Y-78002612D01*
X46735656Y-78023688D01*
X46746722Y-78042744D01*
X46756030Y-78059873D01*
X46763640Y-78075166D01*
X46769610Y-78088715D01*
X46775620Y-78105970D01*
X46778447Y-78123730D01*
X46778210Y-78127279D01*
X46772782Y-78141563D01*
X46760918Y-78155577D01*
X46748385Y-78165583D01*
X46733196Y-78174901D01*
X46715763Y-78183300D01*
X46696500Y-78190552D01*
X46675819Y-78196424D01*
X46661448Y-78199460D01*
X46646753Y-78201713D01*
X46631856Y-78203115D01*
X46616880Y-78203597D01*
X46602847Y-78203324D01*
X46587994Y-78202518D01*
X46572388Y-78201202D01*
X46556097Y-78199396D01*
X46539188Y-78197123D01*
X46521727Y-78194403D01*
X46503781Y-78191259D01*
X46485418Y-78187712D01*
X46466705Y-78183783D01*
X46447708Y-78179494D01*
X46428495Y-78174867D01*
X46409132Y-78169922D01*
X46389687Y-78164683D01*
X46370227Y-78159169D01*
X46350818Y-78153403D01*
X46331528Y-78147406D01*
X46312424Y-78141200D01*
X46293572Y-78134806D01*
X46275040Y-78128246D01*
X46256895Y-78121541D01*
X46239204Y-78114713D01*
X46222033Y-78107783D01*
X46205450Y-78100773D01*
X46189522Y-78093705D01*
X46174316Y-78086600D01*
X46159898Y-78079479D01*
X46133698Y-78065277D01*
X46111457Y-78051271D01*
X46093712Y-78037634D01*
X46084965Y-78029492D01*
X46067203Y-78011662D01*
X46049247Y-77992032D01*
X46031294Y-77970912D01*
X46013540Y-77948613D01*
X45996184Y-77925445D01*
X45979421Y-77901719D01*
X45963449Y-77877746D01*
X45948465Y-77853836D01*
X45934666Y-77830301D01*
X45922248Y-77807451D01*
X45911409Y-77785596D01*
X45902345Y-77765049D01*
X45902212Y-77764693D01*
X45986367Y-77764693D01*
X45986675Y-77774654D01*
X45989141Y-77794170D01*
X45994075Y-77813141D01*
X46001481Y-77831565D01*
X46011360Y-77849438D01*
X46023715Y-77866758D01*
X46038550Y-77883522D01*
X46055866Y-77899728D01*
X46075667Y-77915373D01*
X46097955Y-77930454D01*
X46122733Y-77944968D01*
X46136057Y-77952012D01*
X46150004Y-77958914D01*
X46164575Y-77965672D01*
X46179770Y-77972287D01*
X46195589Y-77978759D01*
X46212034Y-77985086D01*
X46229103Y-77991270D01*
X46246798Y-77997308D01*
X46265119Y-78003202D01*
X46284065Y-78008950D01*
X46303639Y-78014553D01*
X46321170Y-78019143D01*
X46338327Y-78023432D01*
X46355119Y-78027423D01*
X46371559Y-78031114D01*
X46387658Y-78034507D01*
X46403426Y-78037602D01*
X46418876Y-78040400D01*
X46434019Y-78042901D01*
X46448865Y-78045105D01*
X46463426Y-78047014D01*
X46484758Y-78049324D01*
X46505512Y-78050972D01*
X46525726Y-78051960D01*
X46545439Y-78052289D01*
X46562277Y-78051902D01*
X46577359Y-78050743D01*
X46594775Y-78047995D01*
X46612288Y-78042629D01*
X46625166Y-78035115D01*
X46634643Y-78023266D01*
X46637763Y-78008325D01*
X46635502Y-77992765D01*
X46629724Y-77976798D01*
X46622519Y-77961880D01*
X46612458Y-77943802D01*
X46603987Y-77929713D01*
X46593983Y-77913796D01*
X46582338Y-77895881D01*
X46568948Y-77875800D01*
X46553706Y-77853381D01*
X46545358Y-77841243D01*
X46536508Y-77828457D01*
X46527142Y-77815002D01*
X46517247Y-77800857D01*
X46506810Y-77786000D01*
X46495817Y-77770411D01*
X46484256Y-77754068D01*
X46043154Y-77655516D01*
X46035573Y-77663186D01*
X46025368Y-77674149D01*
X46013840Y-77687960D01*
X46004550Y-77701137D01*
X45997348Y-77713992D01*
X45991052Y-77730088D01*
X45987490Y-77746784D01*
X45986367Y-77764693D01*
X45902212Y-77764693D01*
X45895254Y-77746118D01*
X45890333Y-77729115D01*
X45887449Y-77707906D01*
X45887654Y-77700285D01*
X45888993Y-77684698D01*
X45891116Y-77669133D01*
X45893564Y-77654663D01*
X45896618Y-77638875D01*
X45900272Y-77621811D01*
X45894781Y-77620257D01*
X45878622Y-77615932D01*
X45863583Y-77612167D01*
X45848575Y-77608579D01*
X45833593Y-77604958D01*
X45814045Y-77599977D01*
X45795618Y-77595254D01*
X45778262Y-77590760D01*
X45761924Y-77586471D01*
X45746552Y-77582358D01*
X45732095Y-77578396D01*
X45705715Y-77570817D01*
X45682368Y-77563522D01*
X45661639Y-77556297D01*
X45643111Y-77548931D01*
X45626369Y-77541210D01*
X45610996Y-77532923D01*
X45596576Y-77523857D01*
X45582695Y-77513799D01*
X45568935Y-77502536D01*
X45554881Y-77489857D01*
X45540118Y-77475548D01*
X45524228Y-77459398D01*
X45506796Y-77441193D01*
X45501713Y-77435628D01*
X45491558Y-77424301D01*
X45481451Y-77412752D01*
X45471429Y-77401026D01*
X45461530Y-77389170D01*
X45451792Y-77377229D01*
X45442252Y-77365251D01*
X45432947Y-77353280D01*
X45423915Y-77341364D01*
X45410962Y-77323692D01*
X45398835Y-77306401D01*
X45387661Y-77289648D01*
X45377566Y-77273588D01*
X45368677Y-77258377D01*
X45359245Y-77241782D01*
X45351475Y-77226320D01*
X45345242Y-77211546D01*
X45340421Y-77197011D01*
X45336889Y-77182271D01*
X45334519Y-77166878D01*
X45333189Y-77150386D01*
X45332773Y-77132348D01*
X45332800Y-77128500D01*
X45333627Y-77112083D01*
X45335482Y-77096906D01*
X45338109Y-77081401D01*
X45341200Y-77065303D01*
X45458803Y-77138576D01*
G37*
G36*
X49298447Y-88755621D02*
G01*
X49280910Y-88739460D01*
X49265193Y-88724684D01*
X49251201Y-88711159D01*
X49238838Y-88698749D01*
X49228011Y-88687320D01*
X49214440Y-88671722D01*
X49203787Y-88657573D01*
X49195734Y-88644419D01*
X49188484Y-88627643D01*
X49184524Y-88610749D01*
X49183093Y-88592661D01*
X49183042Y-88587826D01*
X49183861Y-88571706D01*
X49185902Y-88554878D01*
X49188619Y-88538723D01*
X49191552Y-88524218D01*
X49195087Y-88508908D01*
X49195865Y-88505761D01*
X49198467Y-88491279D01*
X49201772Y-88474803D01*
X49204693Y-88460440D01*
X49207994Y-88444047D01*
X49210858Y-88429551D01*
X49212351Y-88421863D01*
X49216341Y-88405543D01*
X49219779Y-88389579D01*
X49222849Y-88373693D01*
X49225735Y-88357609D01*
X49227372Y-88348224D01*
X49231699Y-88329717D01*
X49235756Y-88312360D01*
X49239551Y-88296109D01*
X49243093Y-88280922D01*
X49249453Y-88253563D01*
X49254907Y-88229934D01*
X49259523Y-88209689D01*
X49263372Y-88192479D01*
X49266523Y-88177957D01*
X49270094Y-88160452D01*
X49273065Y-88143274D01*
X49274686Y-88127789D01*
X49275000Y-88110820D01*
X49274157Y-88095064D01*
X49270854Y-88079698D01*
X49265512Y-88064420D01*
X49264741Y-88062460D01*
X49251210Y-88053592D01*
X49237335Y-88044378D01*
X49224366Y-88035564D01*
X49212351Y-88026923D01*
X49125889Y-87970136D01*
X49034665Y-87907121D01*
X49022265Y-87899117D01*
X49008583Y-87890292D01*
X48995456Y-87881826D01*
X48989235Y-87877812D01*
X48941242Y-87894665D01*
X48956561Y-87906924D01*
X48971007Y-87918511D01*
X48984604Y-87929455D01*
X48997378Y-87939787D01*
X49009354Y-87949534D01*
X49031014Y-87967399D01*
X49049789Y-87983285D01*
X49065881Y-87997432D01*
X49079494Y-88010075D01*
X49090831Y-88021452D01*
X49104015Y-88036662D01*
X49113222Y-88050359D01*
X49120500Y-88067649D01*
X49123557Y-88085568D01*
X49124057Y-88100562D01*
X49122994Y-88115241D01*
X49120503Y-88131062D01*
X49117829Y-88144526D01*
X49113230Y-88171480D01*
X49108771Y-88197943D01*
X49104446Y-88223921D01*
X49100249Y-88249420D01*
X49096175Y-88274447D01*
X49092217Y-88299008D01*
X49088370Y-88323110D01*
X49084627Y-88346759D01*
X49080984Y-88369961D01*
X49077433Y-88392723D01*
X49073968Y-88415052D01*
X49070585Y-88436953D01*
X49067277Y-88458434D01*
X49064039Y-88479500D01*
X49060863Y-88500158D01*
X49057745Y-88520415D01*
X49047559Y-88509354D01*
X49028060Y-88488214D01*
X49009651Y-88468289D01*
X48992238Y-88449469D01*
X48975731Y-88431643D01*
X48960036Y-88414700D01*
X48945061Y-88398527D01*
X48930715Y-88383015D01*
X48916903Y-88368053D01*
X48903535Y-88353528D01*
X48890518Y-88339331D01*
X48877760Y-88325350D01*
X48865168Y-88311473D01*
X48852651Y-88297591D01*
X48840114Y-88283591D01*
X48827468Y-88269363D01*
X48821074Y-88262128D01*
X48648883Y-88075283D01*
X48636885Y-88062572D01*
X48626432Y-88051420D01*
X48614326Y-88038395D01*
X48603599Y-88026751D01*
X48593468Y-88015693D01*
X48583153Y-88004426D01*
X48571872Y-87992157D01*
X48558844Y-87978091D01*
X48551430Y-87970136D01*
X48534556Y-87959147D01*
X48518102Y-87948976D01*
X48502010Y-87939607D01*
X48486217Y-87931027D01*
X48470665Y-87923219D01*
X48455294Y-87916169D01*
X48440042Y-87909862D01*
X48424851Y-87904282D01*
X48409660Y-87899415D01*
X48394409Y-87895246D01*
X48379037Y-87891760D01*
X48363485Y-87888941D01*
X48347693Y-87886774D01*
X48331600Y-87885246D01*
X48315147Y-87884339D01*
X48298272Y-87884041D01*
X48273896Y-87885039D01*
X48250676Y-87887995D01*
X48228670Y-87892846D01*
X48207935Y-87899531D01*
X48188529Y-87907989D01*
X48170509Y-87918160D01*
X48153933Y-87929981D01*
X48138858Y-87943392D01*
X48125342Y-87958331D01*
X48113441Y-87974737D01*
X48103214Y-87992550D01*
X48094717Y-88011707D01*
X48088009Y-88032148D01*
X48083146Y-88053812D01*
X48080186Y-88076637D01*
X48079187Y-88100562D01*
X48079652Y-88120665D01*
X48081041Y-88140827D01*
X48083340Y-88161005D01*
X48086537Y-88181156D01*
X48090618Y-88201236D01*
X48095570Y-88221202D01*
X48101381Y-88241010D01*
X48108038Y-88260617D01*
X48115527Y-88279979D01*
X48123837Y-88299053D01*
X48132954Y-88317796D01*
X48142865Y-88336163D01*
X48153558Y-88354111D01*
X48165019Y-88371598D01*
X48177235Y-88388579D01*
X48190195Y-88405011D01*
X48201671Y-88419106D01*
X48213431Y-88432269D01*
X48225476Y-88444502D01*
X48237805Y-88455809D01*
X48250420Y-88466193D01*
X48263321Y-88475657D01*
X48276509Y-88484205D01*
X48289983Y-88491839D01*
X48303746Y-88498563D01*
X48317796Y-88504380D01*
X48332136Y-88509293D01*
X48346764Y-88513306D01*
X48361682Y-88516421D01*
X48376891Y-88518642D01*
X48392391Y-88519973D01*
X48408182Y-88520415D01*
X48423834Y-88519651D01*
X48439706Y-88517417D01*
X48455913Y-88514560D01*
X48458007Y-88514187D01*
X48474494Y-88365077D01*
X48458991Y-88370102D01*
X48444908Y-88374484D01*
X48427990Y-88379382D01*
X48412754Y-88383270D01*
X48395344Y-88386830D01*
X48378872Y-88389085D01*
X48362401Y-88390186D01*
X48352128Y-88390356D01*
X48330870Y-88389553D01*
X48310677Y-88387175D01*
X48291590Y-88383273D01*
X48273652Y-88377894D01*
X48256905Y-88371087D01*
X48241392Y-88362902D01*
X48227156Y-88353387D01*
X48214238Y-88342591D01*
X48202681Y-88330563D01*
X48192527Y-88317351D01*
X48183819Y-88303005D01*
X48176599Y-88287574D01*
X48170910Y-88271105D01*
X48166794Y-88253648D01*
X48164293Y-88235253D01*
X48163450Y-88215967D01*
X48164434Y-88197756D01*
X48167334Y-88180262D01*
X48172074Y-88163547D01*
X48178580Y-88147674D01*
X48186775Y-88132707D01*
X48196584Y-88118710D01*
X48207931Y-88105745D01*
X48220741Y-88093876D01*
X48234937Y-88083166D01*
X48250444Y-88073678D01*
X48267187Y-88065477D01*
X48285089Y-88058625D01*
X48304075Y-88053185D01*
X48324070Y-88049221D01*
X48344998Y-88046796D01*
X48366782Y-88045974D01*
X48393264Y-88046626D01*
X48418525Y-88048733D01*
X48442901Y-88052525D01*
X48466726Y-88058230D01*
X48490333Y-88066074D01*
X48514059Y-88076287D01*
X48538236Y-88089096D01*
X48563200Y-88104729D01*
X48576081Y-88113676D01*
X48589284Y-88123415D01*
X48602850Y-88133974D01*
X48616823Y-88145382D01*
X48631242Y-88157667D01*
X48646151Y-88170858D01*
X48661590Y-88184982D01*
X48677602Y-88200070D01*
X48694229Y-88216149D01*
X48711512Y-88233247D01*
X48729493Y-88251394D01*
X48748214Y-88270617D01*
X48767717Y-88290946D01*
X48788043Y-88312408D01*
X48809234Y-88335033D01*
X48831332Y-88358849D01*
X48854419Y-88383926D01*
X48876251Y-88407610D01*
X48896889Y-88429959D01*
X48916393Y-88451032D01*
X48934820Y-88470890D01*
X48952233Y-88489590D01*
X48968689Y-88507193D01*
X48984249Y-88523758D01*
X48998973Y-88539344D01*
X49012919Y-88554011D01*
X49026148Y-88567817D01*
X49038720Y-88580822D01*
X49050693Y-88593086D01*
X49062127Y-88604667D01*
X49073083Y-88615625D01*
X49083620Y-88626020D01*
X49103674Y-88645354D01*
X49122767Y-88663146D01*
X49141376Y-88679868D01*
X49159978Y-88695995D01*
X49179050Y-88712003D01*
X49199070Y-88728364D01*
X49220513Y-88745554D01*
X49243859Y-88764048D01*
X49298447Y-88755621D01*
G37*
G36*
X48413329Y-86912621D02*
G01*
X48430949Y-86913150D01*
X48448924Y-86914024D01*
X48467224Y-86915235D01*
X48485821Y-86916777D01*
X48504685Y-86918642D01*
X48523788Y-86920823D01*
X48543101Y-86923313D01*
X48562595Y-86926106D01*
X48582240Y-86929193D01*
X48602009Y-86932569D01*
X48621871Y-86936225D01*
X48641799Y-86940156D01*
X48661764Y-86944353D01*
X48681735Y-86948811D01*
X48701685Y-86953521D01*
X48721585Y-86958477D01*
X48741405Y-86963672D01*
X48761117Y-86969098D01*
X48780692Y-86974749D01*
X48800100Y-86980618D01*
X48819314Y-86986698D01*
X48838304Y-86992980D01*
X48857041Y-86999460D01*
X48875496Y-87006129D01*
X48893641Y-87012980D01*
X48911445Y-87020006D01*
X48928882Y-87027201D01*
X48945921Y-87034557D01*
X48962534Y-87042068D01*
X48978691Y-87049725D01*
X48994364Y-87057523D01*
X49012159Y-87066946D01*
X49029476Y-87076733D01*
X49046310Y-87086875D01*
X49062653Y-87097363D01*
X49078502Y-87108191D01*
X49093850Y-87119348D01*
X49108692Y-87130828D01*
X49123021Y-87142622D01*
X49136833Y-87154722D01*
X49150121Y-87167120D01*
X49162879Y-87179807D01*
X49175103Y-87192776D01*
X49186786Y-87206017D01*
X49197922Y-87219524D01*
X49208507Y-87233287D01*
X49218534Y-87247299D01*
X49227997Y-87261552D01*
X49236891Y-87276037D01*
X49245210Y-87290745D01*
X49252948Y-87305670D01*
X49260100Y-87320802D01*
X49266661Y-87336134D01*
X49272623Y-87351658D01*
X49277982Y-87367364D01*
X49282732Y-87383245D01*
X49286867Y-87399293D01*
X49290381Y-87415500D01*
X49293270Y-87431857D01*
X49295526Y-87448356D01*
X49297145Y-87464989D01*
X49298120Y-87481749D01*
X49298447Y-87498625D01*
X49297066Y-87527987D01*
X49292927Y-87555481D01*
X49286039Y-87581105D01*
X49276408Y-87604854D01*
X49264042Y-87626724D01*
X49248949Y-87646713D01*
X49231136Y-87664816D01*
X49210611Y-87681029D01*
X49187381Y-87695349D01*
X49161454Y-87707771D01*
X49147481Y-87713270D01*
X49132837Y-87718293D01*
X49117522Y-87722840D01*
X49101537Y-87726910D01*
X49084884Y-87730504D01*
X49067563Y-87733619D01*
X49049576Y-87736257D01*
X49030922Y-87738416D01*
X49011604Y-87740096D01*
X48991621Y-87741296D01*
X48970976Y-87742017D01*
X48949668Y-87742258D01*
X48930439Y-87742037D01*
X48910830Y-87741381D01*
X48890876Y-87740300D01*
X48870613Y-87738802D01*
X48850076Y-87736897D01*
X48829298Y-87734595D01*
X48808315Y-87731904D01*
X48787163Y-87728834D01*
X48765875Y-87725394D01*
X48744486Y-87721594D01*
X48723032Y-87717442D01*
X48701548Y-87712949D01*
X48680068Y-87708124D01*
X48658627Y-87702975D01*
X48637260Y-87697512D01*
X48616002Y-87691745D01*
X48594888Y-87685683D01*
X48573952Y-87679335D01*
X48553230Y-87672710D01*
X48532757Y-87665818D01*
X48512567Y-87658669D01*
X48492695Y-87651271D01*
X48473176Y-87643633D01*
X48454046Y-87635766D01*
X48435338Y-87627678D01*
X48417088Y-87619379D01*
X48399331Y-87610878D01*
X48382101Y-87602184D01*
X48365434Y-87593307D01*
X48349364Y-87584256D01*
X48333926Y-87575041D01*
X48319155Y-87565670D01*
X48304507Y-87555825D01*
X48290175Y-87545602D01*
X48276170Y-87535019D01*
X48262501Y-87524089D01*
X48249178Y-87512829D01*
X48236210Y-87501256D01*
X48223608Y-87489383D01*
X48211381Y-87477227D01*
X48199539Y-87464805D01*
X48188091Y-87452130D01*
X48177047Y-87439220D01*
X48166418Y-87426089D01*
X48156212Y-87412755D01*
X48146439Y-87399231D01*
X48137110Y-87385534D01*
X48128234Y-87371680D01*
X48119820Y-87357684D01*
X48111878Y-87343563D01*
X48104419Y-87329330D01*
X48097451Y-87315004D01*
X48090985Y-87300598D01*
X48085030Y-87286130D01*
X48079596Y-87271613D01*
X48074693Y-87257065D01*
X48070890Y-87244369D01*
X48144033Y-87244369D01*
X48144314Y-87253548D01*
X48146564Y-87271544D01*
X48151065Y-87289058D01*
X48157816Y-87306087D01*
X48166819Y-87322629D01*
X48178075Y-87338683D01*
X48191583Y-87354247D01*
X48207344Y-87369320D01*
X48225359Y-87383900D01*
X48245628Y-87397986D01*
X48268152Y-87411575D01*
X48292931Y-87424667D01*
X48306166Y-87431025D01*
X48319966Y-87437259D01*
X48334330Y-87443367D01*
X48349257Y-87449350D01*
X48364750Y-87455208D01*
X48380806Y-87460939D01*
X48397427Y-87466544D01*
X48414612Y-87472024D01*
X48432362Y-87477376D01*
X48459523Y-87485241D01*
X48473886Y-87489137D01*
X48488718Y-87492999D01*
X48503977Y-87496821D01*
X48519621Y-87500595D01*
X48535611Y-87504315D01*
X48551905Y-87507973D01*
X48568463Y-87511564D01*
X48585243Y-87515079D01*
X48602205Y-87518513D01*
X48619308Y-87521857D01*
X48636511Y-87525106D01*
X48653774Y-87528252D01*
X48671055Y-87531289D01*
X48688313Y-87534208D01*
X48705508Y-87537005D01*
X48722599Y-87539671D01*
X48739544Y-87542200D01*
X48756304Y-87544585D01*
X48772837Y-87546818D01*
X48789103Y-87548894D01*
X48805060Y-87550805D01*
X48820668Y-87552544D01*
X48835885Y-87554104D01*
X48850672Y-87555479D01*
X48878789Y-87557644D01*
X48904691Y-87558983D01*
X48928053Y-87559442D01*
X48943945Y-87559246D01*
X48959535Y-87558662D01*
X48974809Y-87557699D01*
X48989753Y-87556365D01*
X49018600Y-87552612D01*
X49045970Y-87547466D01*
X49071759Y-87540989D01*
X49095860Y-87533244D01*
X49118167Y-87524292D01*
X49138575Y-87514196D01*
X49156978Y-87503018D01*
X49173270Y-87490820D01*
X49187346Y-87477665D01*
X49199099Y-87463615D01*
X49208425Y-87448731D01*
X49215217Y-87433078D01*
X49219370Y-87416715D01*
X49220778Y-87399707D01*
X49219955Y-87386039D01*
X49215656Y-87365825D01*
X49207714Y-87345995D01*
X49200416Y-87333011D01*
X49191527Y-87320231D01*
X49181061Y-87307669D01*
X49169029Y-87295339D01*
X49155442Y-87283253D01*
X49140313Y-87271426D01*
X49123654Y-87259870D01*
X49105476Y-87248599D01*
X49085791Y-87237626D01*
X49064611Y-87226965D01*
X49041947Y-87216630D01*
X49017812Y-87206633D01*
X49002231Y-87200383D01*
X48986345Y-87194273D01*
X48970172Y-87188309D01*
X48953731Y-87182493D01*
X48937040Y-87176830D01*
X48920119Y-87171322D01*
X48902985Y-87165975D01*
X48885657Y-87160792D01*
X48868155Y-87155776D01*
X48850496Y-87150931D01*
X48832700Y-87146261D01*
X48814784Y-87141769D01*
X48796769Y-87137461D01*
X48778671Y-87133338D01*
X48760511Y-87129405D01*
X48742306Y-87125666D01*
X48724075Y-87122125D01*
X48705837Y-87118785D01*
X48687611Y-87115650D01*
X48669415Y-87112724D01*
X48651268Y-87110010D01*
X48633188Y-87107512D01*
X48615195Y-87105235D01*
X48597306Y-87103181D01*
X48579540Y-87101355D01*
X48561917Y-87099760D01*
X48544454Y-87098400D01*
X48527171Y-87097279D01*
X48510086Y-87096401D01*
X48493218Y-87095768D01*
X48476585Y-87095386D01*
X48460205Y-87095258D01*
X48441441Y-87095411D01*
X48423207Y-87095870D01*
X48405507Y-87096633D01*
X48388346Y-87097698D01*
X48371729Y-87099065D01*
X48355658Y-87100731D01*
X48340140Y-87102695D01*
X48325177Y-87104955D01*
X48296937Y-87110361D01*
X48270972Y-87116935D01*
X48247318Y-87124667D01*
X48226007Y-87133543D01*
X48207075Y-87143553D01*
X48190556Y-87154685D01*
X48176483Y-87166927D01*
X48164893Y-87180266D01*
X48155818Y-87194692D01*
X48149294Y-87210192D01*
X48145354Y-87226755D01*
X48144033Y-87244369D01*
X48070890Y-87244369D01*
X48070330Y-87242501D01*
X48066517Y-87227937D01*
X48063265Y-87213387D01*
X48060581Y-87198869D01*
X48056963Y-87169989D01*
X48055739Y-87141420D01*
X48056073Y-87127451D01*
X48058742Y-87100810D01*
X48064079Y-87075903D01*
X48072080Y-87052737D01*
X48082745Y-87031318D01*
X48096070Y-87011652D01*
X48112054Y-86993743D01*
X48130695Y-86977599D01*
X48151990Y-86963225D01*
X48175937Y-86950628D01*
X48202534Y-86939812D01*
X48216825Y-86935074D01*
X48231779Y-86930784D01*
X48247394Y-86926942D01*
X48263669Y-86923550D01*
X48280606Y-86920608D01*
X48298204Y-86918116D01*
X48316462Y-86916075D01*
X48335380Y-86914487D01*
X48354958Y-86913352D01*
X48375195Y-86912670D01*
X48396092Y-86912442D01*
X48413329Y-86912621D01*
G37*
G36*
X49298447Y-86909145D02*
G01*
X49280910Y-86892984D01*
X49265193Y-86878208D01*
X49251201Y-86864683D01*
X49238838Y-86852273D01*
X49228011Y-86840844D01*
X49214440Y-86825246D01*
X49203787Y-86811097D01*
X49195734Y-86797943D01*
X49188484Y-86781167D01*
X49184524Y-86764273D01*
X49183093Y-86746185D01*
X49183042Y-86741350D01*
X49183861Y-86725230D01*
X49185902Y-86708402D01*
X49188619Y-86692247D01*
X49191552Y-86677742D01*
X49195087Y-86662432D01*
X49195865Y-86659285D01*
X49198467Y-86644803D01*
X49201772Y-86628327D01*
X49204693Y-86613964D01*
X49207994Y-86597572D01*
X49210858Y-86583075D01*
X49212351Y-86575387D01*
X49216341Y-86559067D01*
X49219779Y-86543103D01*
X49222849Y-86527217D01*
X49225735Y-86511133D01*
X49227372Y-86501748D01*
X49231699Y-86483241D01*
X49235756Y-86465884D01*
X49239551Y-86449633D01*
X49243093Y-86434446D01*
X49249453Y-86407087D01*
X49254907Y-86383458D01*
X49259523Y-86363213D01*
X49263372Y-86346003D01*
X49266523Y-86331481D01*
X49270094Y-86313976D01*
X49273065Y-86296798D01*
X49274686Y-86281313D01*
X49275000Y-86264344D01*
X49274157Y-86248588D01*
X49270854Y-86233222D01*
X49265512Y-86217944D01*
X49264741Y-86215984D01*
X49251210Y-86207116D01*
X49237335Y-86197902D01*
X49224366Y-86189088D01*
X49212351Y-86180447D01*
X49125889Y-86123660D01*
X49034665Y-86060646D01*
X49022265Y-86052641D01*
X49008583Y-86043816D01*
X48995456Y-86035350D01*
X48989235Y-86031336D01*
X48941242Y-86048189D01*
X48956561Y-86060448D01*
X48971007Y-86072035D01*
X48984604Y-86082979D01*
X48997378Y-86093311D01*
X49009354Y-86103059D01*
X49031014Y-86120923D01*
X49049789Y-86136809D01*
X49065881Y-86150956D01*
X49079494Y-86163599D01*
X49090831Y-86174976D01*
X49104015Y-86190186D01*
X49113222Y-86203883D01*
X49120500Y-86221173D01*
X49123557Y-86239092D01*
X49124057Y-86254086D01*
X49122994Y-86268765D01*
X49120503Y-86284586D01*
X49117829Y-86298050D01*
X49113230Y-86325004D01*
X49108771Y-86351467D01*
X49104446Y-86377445D01*
X49100249Y-86402944D01*
X49096175Y-86427971D01*
X49092217Y-86452532D01*
X49088370Y-86476634D01*
X49084627Y-86500283D01*
X49080984Y-86523485D01*
X49077433Y-86546247D01*
X49073968Y-86568576D01*
X49070585Y-86590477D01*
X49067277Y-86611958D01*
X49064039Y-86633024D01*
X49060863Y-86653682D01*
X49057745Y-86673939D01*
X49047559Y-86662878D01*
X49028060Y-86641738D01*
X49009651Y-86621813D01*
X48992238Y-86602994D01*
X48975731Y-86585167D01*
X48960036Y-86568224D01*
X48945061Y-86552051D01*
X48930715Y-86536539D01*
X48916903Y-86521577D01*
X48903535Y-86507052D01*
X48890518Y-86492855D01*
X48877760Y-86478874D01*
X48865168Y-86464998D01*
X48852651Y-86451115D01*
X48840114Y-86437115D01*
X48827468Y-86422887D01*
X48821074Y-86415653D01*
X48648883Y-86228807D01*
X48636885Y-86216096D01*
X48626432Y-86204944D01*
X48614326Y-86191919D01*
X48603599Y-86180275D01*
X48593468Y-86169217D01*
X48583153Y-86157950D01*
X48571872Y-86145681D01*
X48558844Y-86131615D01*
X48551430Y-86123660D01*
X48534556Y-86112671D01*
X48518102Y-86102500D01*
X48502010Y-86093131D01*
X48486217Y-86084551D01*
X48470665Y-86076743D01*
X48455294Y-86069693D01*
X48440042Y-86063386D01*
X48424851Y-86057806D01*
X48409660Y-86052939D01*
X48394409Y-86048770D01*
X48379037Y-86045284D01*
X48363485Y-86042465D01*
X48347693Y-86040298D01*
X48331600Y-86038770D01*
X48315147Y-86037863D01*
X48298272Y-86037565D01*
X48273896Y-86038563D01*
X48250676Y-86041519D01*
X48228670Y-86046370D01*
X48207935Y-86053055D01*
X48188529Y-86061513D01*
X48170509Y-86071684D01*
X48153933Y-86083505D01*
X48138858Y-86096916D01*
X48125342Y-86111855D01*
X48113441Y-86128261D01*
X48103214Y-86146074D01*
X48094717Y-86165231D01*
X48088009Y-86185672D01*
X48083146Y-86207336D01*
X48080186Y-86230161D01*
X48079187Y-86254086D01*
X48079652Y-86274189D01*
X48081041Y-86294351D01*
X48083340Y-86314529D01*
X48086537Y-86334680D01*
X48090618Y-86354760D01*
X48095570Y-86374726D01*
X48101381Y-86394534D01*
X48108038Y-86414141D01*
X48115527Y-86433503D01*
X48123837Y-86452577D01*
X48132954Y-86471320D01*
X48142865Y-86489687D01*
X48153558Y-86507635D01*
X48165019Y-86525122D01*
X48177235Y-86542103D01*
X48190195Y-86558535D01*
X48201671Y-86572630D01*
X48213431Y-86585793D01*
X48225476Y-86598026D01*
X48237805Y-86609333D01*
X48250420Y-86619717D01*
X48263321Y-86629181D01*
X48276509Y-86637729D01*
X48289983Y-86645363D01*
X48303746Y-86652087D01*
X48317796Y-86657904D01*
X48332136Y-86662817D01*
X48346764Y-86666830D01*
X48361682Y-86669945D01*
X48376891Y-86672166D01*
X48392391Y-86673497D01*
X48408182Y-86673939D01*
X48423834Y-86673175D01*
X48439706Y-86670941D01*
X48455913Y-86668084D01*
X48458007Y-86667711D01*
X48474494Y-86518601D01*
X48458991Y-86523626D01*
X48444908Y-86528008D01*
X48427990Y-86532906D01*
X48412754Y-86536794D01*
X48395344Y-86540354D01*
X48378872Y-86542609D01*
X48362401Y-86543710D01*
X48352128Y-86543880D01*
X48330870Y-86543077D01*
X48310677Y-86540699D01*
X48291590Y-86536797D01*
X48273652Y-86531418D01*
X48256905Y-86524611D01*
X48241392Y-86516426D01*
X48227156Y-86506911D01*
X48214238Y-86496115D01*
X48202681Y-86484087D01*
X48192527Y-86470876D01*
X48183819Y-86456529D01*
X48176599Y-86441098D01*
X48170910Y-86424629D01*
X48166794Y-86407172D01*
X48164293Y-86388777D01*
X48163450Y-86369491D01*
X48164434Y-86351280D01*
X48167334Y-86333786D01*
X48172074Y-86317071D01*
X48178580Y-86301198D01*
X48186775Y-86286231D01*
X48196584Y-86272234D01*
X48207931Y-86259269D01*
X48220741Y-86247400D01*
X48234937Y-86236690D01*
X48250444Y-86227202D01*
X48267187Y-86219001D01*
X48285089Y-86212149D01*
X48304075Y-86206709D01*
X48324070Y-86202745D01*
X48344998Y-86200320D01*
X48366782Y-86199498D01*
X48393264Y-86200150D01*
X48418525Y-86202258D01*
X48442901Y-86206050D01*
X48466726Y-86211754D01*
X48490333Y-86219598D01*
X48514059Y-86229811D01*
X48538236Y-86242620D01*
X48563200Y-86258253D01*
X48576081Y-86267201D01*
X48589284Y-86276939D01*
X48602850Y-86287498D01*
X48616823Y-86298906D01*
X48631242Y-86311191D01*
X48646151Y-86324382D01*
X48661590Y-86338506D01*
X48677602Y-86353594D01*
X48694229Y-86369673D01*
X48711512Y-86386771D01*
X48729493Y-86404918D01*
X48748214Y-86424141D01*
X48767717Y-86444470D01*
X48788043Y-86465932D01*
X48809234Y-86488557D01*
X48831332Y-86512373D01*
X48854419Y-86537450D01*
X48876251Y-86561134D01*
X48896889Y-86583483D01*
X48916393Y-86604556D01*
X48934820Y-86624414D01*
X48952233Y-86643114D01*
X48968689Y-86660717D01*
X48984249Y-86677282D01*
X48998973Y-86692869D01*
X49012919Y-86707535D01*
X49026148Y-86721341D01*
X49038720Y-86734347D01*
X49050693Y-86746610D01*
X49062127Y-86758191D01*
X49073083Y-86769149D01*
X49083620Y-86779544D01*
X49103674Y-86798879D01*
X49122767Y-86816670D01*
X49141376Y-86833392D01*
X49159978Y-86849519D01*
X49179050Y-86865527D01*
X49199070Y-86881888D01*
X49220513Y-86899078D01*
X49243859Y-86917572D01*
X49298447Y-86909145D01*
G37*
G36*
X49231402Y-86017415D02*
G01*
X49240125Y-86001097D01*
X49248168Y-85985210D01*
X49255547Y-85969684D01*
X49262280Y-85954451D01*
X49268381Y-85939445D01*
X49273867Y-85924595D01*
X49278755Y-85909834D01*
X49283060Y-85895095D01*
X49286797Y-85880308D01*
X49289985Y-85865406D01*
X49292637Y-85850320D01*
X49294772Y-85834982D01*
X49296404Y-85819325D01*
X49297550Y-85803280D01*
X49298225Y-85786778D01*
X49298447Y-85769752D01*
X49297607Y-85741766D01*
X49295124Y-85713765D01*
X49291053Y-85685807D01*
X49285449Y-85657951D01*
X49278368Y-85630258D01*
X49269863Y-85602786D01*
X49259990Y-85575594D01*
X49248804Y-85548743D01*
X49236361Y-85522291D01*
X49222714Y-85496298D01*
X49207920Y-85470822D01*
X49192032Y-85445924D01*
X49175107Y-85421662D01*
X49157199Y-85398095D01*
X49138363Y-85375284D01*
X49118654Y-85353288D01*
X49098127Y-85332165D01*
X49076837Y-85311975D01*
X49054839Y-85292777D01*
X49032189Y-85274631D01*
X49008940Y-85257596D01*
X48985149Y-85241731D01*
X48960870Y-85227095D01*
X48936158Y-85213749D01*
X48911069Y-85201750D01*
X48885656Y-85191159D01*
X48859976Y-85182035D01*
X48834083Y-85174436D01*
X48808032Y-85168423D01*
X48781879Y-85164055D01*
X48755677Y-85161390D01*
X48729483Y-85160489D01*
X48711013Y-85161262D01*
X48692968Y-85163544D01*
X48675442Y-85167278D01*
X48658534Y-85172409D01*
X48642337Y-85178880D01*
X48626949Y-85186636D01*
X48612466Y-85195619D01*
X48598983Y-85205775D01*
X48586596Y-85217046D01*
X48575402Y-85229376D01*
X48568649Y-85238158D01*
X48560312Y-85250686D01*
X48551393Y-85266638D01*
X48545272Y-85280327D01*
X48539886Y-85295459D01*
X48535079Y-85312607D01*
X48531761Y-85327133D01*
X48528617Y-85343354D01*
X48525582Y-85361512D01*
X48523586Y-85374812D01*
X48514221Y-85361245D01*
X48504993Y-85348708D01*
X48495353Y-85336584D01*
X48484752Y-85324253D01*
X48435293Y-85259407D01*
X48399023Y-85211047D01*
X48385895Y-85201179D01*
X48373134Y-85192037D01*
X48360695Y-85183608D01*
X48342542Y-85172277D01*
X48324860Y-85162483D01*
X48307496Y-85154183D01*
X48290299Y-85147337D01*
X48273117Y-85141902D01*
X48255797Y-85137837D01*
X48238187Y-85135100D01*
X48220136Y-85133650D01*
X48207780Y-85133378D01*
X48191100Y-85134205D01*
X48175161Y-85136652D01*
X48160010Y-85140661D01*
X48145693Y-85146177D01*
X48132256Y-85153145D01*
X48119746Y-85161507D01*
X48108207Y-85171210D01*
X48097688Y-85182196D01*
X48088233Y-85194409D01*
X48079889Y-85207795D01*
X48072702Y-85222297D01*
X48066719Y-85237860D01*
X48061984Y-85254427D01*
X48058546Y-85271943D01*
X48056449Y-85290353D01*
X48055739Y-85309599D01*
X48056242Y-85326004D01*
X48057903Y-85342694D01*
X48060340Y-85357750D01*
X48063878Y-85374647D01*
X48067590Y-85389990D01*
X48072161Y-85407370D01*
X48074790Y-85416944D01*
X48082809Y-85431698D01*
X48090253Y-85445183D01*
X48097959Y-85458749D01*
X48105860Y-85471736D01*
X48108496Y-85475562D01*
X48116195Y-85488276D01*
X48125642Y-85501889D01*
X48135650Y-85515915D01*
X48144915Y-85528898D01*
X48155192Y-85543450D01*
X48166383Y-85559577D01*
X48169312Y-85563856D01*
X48178763Y-85576887D01*
X48187777Y-85589573D01*
X48197236Y-85603062D01*
X48206273Y-85616092D01*
X48212177Y-85624672D01*
X48265666Y-85626870D01*
X48255477Y-85610806D01*
X48245805Y-85594926D01*
X48236670Y-85579265D01*
X48228091Y-85563861D01*
X48220087Y-85548752D01*
X48212678Y-85533973D01*
X48205882Y-85519563D01*
X48199720Y-85505558D01*
X48191707Y-85485391D01*
X48185227Y-85466344D01*
X48180346Y-85448542D01*
X48177129Y-85432110D01*
X48175641Y-85417172D01*
X48175540Y-85412547D01*
X48176932Y-85393646D01*
X48180991Y-85375982D01*
X48187546Y-85359690D01*
X48196425Y-85344908D01*
X48207456Y-85331770D01*
X48220467Y-85320413D01*
X48235285Y-85310971D01*
X48251738Y-85303582D01*
X48269656Y-85298381D01*
X48288864Y-85295504D01*
X48302302Y-85294944D01*
X48326573Y-85296406D01*
X48350240Y-85300831D01*
X48373360Y-85308282D01*
X48395989Y-85318821D01*
X48418184Y-85332509D01*
X48440002Y-85349407D01*
X48461501Y-85369579D01*
X48472148Y-85380911D01*
X48482737Y-85393084D01*
X48493274Y-85406106D01*
X48503766Y-85419986D01*
X48514222Y-85434729D01*
X48524647Y-85450345D01*
X48535049Y-85466841D01*
X48545435Y-85484224D01*
X48555812Y-85502502D01*
X48566188Y-85521684D01*
X48576569Y-85541776D01*
X48586962Y-85562786D01*
X48597375Y-85584723D01*
X48607814Y-85607594D01*
X48618288Y-85631406D01*
X48628802Y-85656168D01*
X48639365Y-85681886D01*
X48649982Y-85708569D01*
X48706036Y-85715164D01*
X48699978Y-85699519D01*
X48694299Y-85684843D01*
X48688986Y-85671097D01*
X48679410Y-85646235D01*
X48671152Y-85624616D01*
X48664116Y-85605922D01*
X48658202Y-85589837D01*
X48651225Y-85569907D01*
X48646225Y-85554061D01*
X48642066Y-85537438D01*
X48639797Y-85520330D01*
X48639360Y-85502675D01*
X48639357Y-85498643D01*
X48640330Y-85479698D01*
X48643201Y-85461513D01*
X48647907Y-85444152D01*
X48654378Y-85427677D01*
X48662550Y-85412153D01*
X48672356Y-85397644D01*
X48683729Y-85384214D01*
X48696602Y-85371927D01*
X48710909Y-85360845D01*
X48726584Y-85351034D01*
X48743559Y-85342558D01*
X48761769Y-85335479D01*
X48781147Y-85329862D01*
X48801625Y-85325771D01*
X48823139Y-85323270D01*
X48845621Y-85322422D01*
X48862177Y-85322835D01*
X48878843Y-85324064D01*
X48895575Y-85326090D01*
X48912327Y-85328896D01*
X48929057Y-85332464D01*
X48945717Y-85336776D01*
X48962266Y-85341815D01*
X48978657Y-85347563D01*
X48994846Y-85354002D01*
X49010789Y-85361115D01*
X49026441Y-85368884D01*
X49041757Y-85377290D01*
X49056694Y-85386317D01*
X49071206Y-85395947D01*
X49085249Y-85406162D01*
X49098778Y-85416944D01*
X49111697Y-85428181D01*
X49123797Y-85439904D01*
X49135077Y-85452099D01*
X49145536Y-85464754D01*
X49155169Y-85477855D01*
X49163977Y-85491390D01*
X49171956Y-85505345D01*
X49179104Y-85519709D01*
X49185419Y-85534467D01*
X49190899Y-85549607D01*
X49195542Y-85565117D01*
X49199345Y-85580983D01*
X49202307Y-85597193D01*
X49204426Y-85613733D01*
X49205698Y-85630590D01*
X49206123Y-85647753D01*
X49205800Y-85669236D01*
X49204662Y-85689288D01*
X49202453Y-85708697D01*
X49198917Y-85728253D01*
X49193799Y-85748746D01*
X49189382Y-85763319D01*
X49184073Y-85778893D01*
X49177797Y-85795703D01*
X49170476Y-85813982D01*
X49162037Y-85833964D01*
X49152402Y-85855884D01*
X49141497Y-85879975D01*
X49129246Y-85906471D01*
X49122592Y-85920694D01*
X49231402Y-86017415D01*
G37*
G36*
X48917062Y-84909529D02*
G01*
X48913032Y-84724515D01*
X48913095Y-84709609D01*
X48913447Y-84693833D01*
X48914171Y-84676961D01*
X48915193Y-84659744D01*
X48916352Y-84643468D01*
X48917062Y-84634389D01*
X48903661Y-84625995D01*
X48890456Y-84617504D01*
X48877453Y-84608916D01*
X48864653Y-84600232D01*
X48852061Y-84591451D01*
X48839680Y-84582573D01*
X48827514Y-84573599D01*
X48815567Y-84564528D01*
X48803842Y-84555361D01*
X48792343Y-84546097D01*
X48784804Y-84539867D01*
X48784804Y-84558552D01*
X48782606Y-84730743D01*
X48782620Y-84746545D01*
X48782722Y-84761636D01*
X48782997Y-84777626D01*
X48783422Y-84792797D01*
X48784079Y-84810640D01*
X48784804Y-84827463D01*
X48796588Y-84838750D01*
X48809900Y-84850573D01*
X48824655Y-84862851D01*
X48836616Y-84872309D01*
X48849304Y-84881943D01*
X48862683Y-84891719D01*
X48876716Y-84901601D01*
X48891367Y-84911555D01*
X48906601Y-84921548D01*
X48917062Y-84928214D01*
X48917062Y-84909529D01*
G37*
G36*
X48413329Y-83555258D02*
G01*
X48430949Y-83555788D01*
X48448924Y-83556662D01*
X48467224Y-83557873D01*
X48485821Y-83559415D01*
X48504685Y-83561280D01*
X48523788Y-83563461D01*
X48543101Y-83565951D01*
X48562595Y-83568743D01*
X48582240Y-83571831D01*
X48602009Y-83575207D01*
X48621871Y-83578863D01*
X48641799Y-83582794D01*
X48661764Y-83586991D01*
X48681735Y-83591449D01*
X48701685Y-83596159D01*
X48721585Y-83601115D01*
X48741405Y-83606310D01*
X48761117Y-83611736D01*
X48780692Y-83617387D01*
X48800100Y-83623256D01*
X48819314Y-83629335D01*
X48838304Y-83635618D01*
X48857041Y-83642098D01*
X48875496Y-83648766D01*
X48893641Y-83655618D01*
X48911445Y-83662644D01*
X48928882Y-83669839D01*
X48945921Y-83677195D01*
X48962534Y-83684705D01*
X48978691Y-83692363D01*
X48994364Y-83700161D01*
X49012159Y-83709584D01*
X49029476Y-83719371D01*
X49046310Y-83729513D01*
X49062653Y-83740001D01*
X49078502Y-83750828D01*
X49093850Y-83761986D01*
X49108692Y-83773466D01*
X49123021Y-83785260D01*
X49136833Y-83797360D01*
X49150121Y-83809758D01*
X49162879Y-83822445D01*
X49175103Y-83835413D01*
X49186786Y-83848655D01*
X49197922Y-83862162D01*
X49208507Y-83875925D01*
X49218534Y-83889937D01*
X49227997Y-83904190D01*
X49236891Y-83918674D01*
X49245210Y-83933383D01*
X49252948Y-83948308D01*
X49260100Y-83963440D01*
X49266661Y-83978772D01*
X49272623Y-83994295D01*
X49277982Y-84010002D01*
X49282732Y-84025883D01*
X49286867Y-84041931D01*
X49290381Y-84058138D01*
X49293270Y-84074495D01*
X49295526Y-84090994D01*
X49297145Y-84107627D01*
X49298120Y-84124386D01*
X49298447Y-84141263D01*
X49297066Y-84170625D01*
X49292927Y-84198119D01*
X49286039Y-84223743D01*
X49276408Y-84247492D01*
X49264042Y-84269362D01*
X49248949Y-84289351D01*
X49231136Y-84307454D01*
X49210611Y-84323667D01*
X49187381Y-84337987D01*
X49161454Y-84350409D01*
X49147481Y-84355908D01*
X49132837Y-84360931D01*
X49117522Y-84365478D01*
X49101537Y-84369548D01*
X49084884Y-84373141D01*
X49067563Y-84376257D01*
X49049576Y-84378895D01*
X49030922Y-84381054D01*
X49011604Y-84382734D01*
X48991621Y-84383934D01*
X48970976Y-84384655D01*
X48949668Y-84384895D01*
X48930439Y-84384675D01*
X48910830Y-84384019D01*
X48890876Y-84382938D01*
X48870613Y-84381440D01*
X48850076Y-84379535D01*
X48829298Y-84377233D01*
X48808315Y-84374542D01*
X48787163Y-84371472D01*
X48765875Y-84368032D01*
X48744486Y-84364231D01*
X48723032Y-84360080D01*
X48701548Y-84355587D01*
X48680068Y-84350761D01*
X48658627Y-84345613D01*
X48637260Y-84340150D01*
X48616002Y-84334383D01*
X48594888Y-84328321D01*
X48573952Y-84321973D01*
X48553230Y-84315348D01*
X48532757Y-84308456D01*
X48512567Y-84301307D01*
X48492695Y-84293908D01*
X48473176Y-84286271D01*
X48454046Y-84278404D01*
X48435338Y-84270316D01*
X48417088Y-84262017D01*
X48399331Y-84253516D01*
X48382101Y-84244822D01*
X48365434Y-84235945D01*
X48349364Y-84226894D01*
X48333926Y-84217679D01*
X48319155Y-84208308D01*
X48304507Y-84198463D01*
X48290175Y-84188240D01*
X48276170Y-84177656D01*
X48262501Y-84166727D01*
X48249178Y-84155467D01*
X48236210Y-84143893D01*
X48223608Y-84132021D01*
X48211381Y-84119865D01*
X48199539Y-84107442D01*
X48188091Y-84094768D01*
X48177047Y-84081858D01*
X48166418Y-84068727D01*
X48156212Y-84055392D01*
X48146439Y-84041869D01*
X48137110Y-84028172D01*
X48128234Y-84014318D01*
X48119820Y-84000322D01*
X48111878Y-83986200D01*
X48104419Y-83971968D01*
X48097451Y-83957642D01*
X48090985Y-83943236D01*
X48085030Y-83928767D01*
X48079596Y-83914251D01*
X48074693Y-83899703D01*
X48070889Y-83887006D01*
X48144033Y-83887006D01*
X48144314Y-83896185D01*
X48146564Y-83914182D01*
X48151065Y-83931696D01*
X48157816Y-83948724D01*
X48166819Y-83965266D01*
X48178075Y-83981321D01*
X48191583Y-83996885D01*
X48207344Y-84011958D01*
X48225359Y-84026538D01*
X48245628Y-84040624D01*
X48268152Y-84054213D01*
X48292931Y-84067305D01*
X48306166Y-84073663D01*
X48319966Y-84079897D01*
X48334330Y-84086005D01*
X48349257Y-84091988D01*
X48364750Y-84097845D01*
X48380806Y-84103577D01*
X48397427Y-84109182D01*
X48414612Y-84114661D01*
X48432362Y-84120014D01*
X48459523Y-84127879D01*
X48473886Y-84131775D01*
X48488718Y-84135637D01*
X48503977Y-84139458D01*
X48519621Y-84143233D01*
X48535611Y-84146953D01*
X48551905Y-84150611D01*
X48568463Y-84154202D01*
X48585243Y-84157717D01*
X48602205Y-84161151D01*
X48619308Y-84164495D01*
X48636511Y-84167744D01*
X48653774Y-84170890D01*
X48671055Y-84173926D01*
X48688313Y-84176846D01*
X48705508Y-84179643D01*
X48722599Y-84182309D01*
X48739544Y-84184838D01*
X48756304Y-84187223D01*
X48772837Y-84189456D01*
X48789103Y-84191532D01*
X48805060Y-84193443D01*
X48820668Y-84195182D01*
X48835885Y-84196742D01*
X48850672Y-84198117D01*
X48878789Y-84200281D01*
X48904691Y-84201621D01*
X48928053Y-84202080D01*
X48943945Y-84201883D01*
X48959535Y-84201300D01*
X48974809Y-84200337D01*
X48989753Y-84199003D01*
X49018600Y-84195250D01*
X49045970Y-84190104D01*
X49071759Y-84183627D01*
X49095860Y-84175882D01*
X49118167Y-84166930D01*
X49138575Y-84156834D01*
X49156978Y-84145656D01*
X49173270Y-84133458D01*
X49187346Y-84120303D01*
X49199099Y-84106252D01*
X49208425Y-84091369D01*
X49215217Y-84075715D01*
X49219370Y-84059353D01*
X49220778Y-84042345D01*
X49219955Y-84028677D01*
X49215656Y-84008462D01*
X49207714Y-83988632D01*
X49200416Y-83975648D01*
X49191527Y-83962869D01*
X49181061Y-83950307D01*
X49169029Y-83937977D01*
X49155442Y-83925891D01*
X49140313Y-83914064D01*
X49123654Y-83902508D01*
X49105476Y-83891237D01*
X49085791Y-83880264D01*
X49064611Y-83869603D01*
X49041947Y-83859268D01*
X49017812Y-83849271D01*
X49002231Y-83843020D01*
X48986345Y-83836911D01*
X48970172Y-83830947D01*
X48953731Y-83825131D01*
X48937040Y-83819467D01*
X48920119Y-83813960D01*
X48902985Y-83808613D01*
X48885657Y-83803429D01*
X48868155Y-83798413D01*
X48850496Y-83793568D01*
X48832700Y-83788898D01*
X48814784Y-83784407D01*
X48796769Y-83780098D01*
X48778671Y-83775976D01*
X48760511Y-83772043D01*
X48742306Y-83768304D01*
X48724075Y-83764763D01*
X48705837Y-83761423D01*
X48687611Y-83758288D01*
X48669415Y-83755361D01*
X48651268Y-83752648D01*
X48633188Y-83750150D01*
X48615195Y-83747872D01*
X48597306Y-83745819D01*
X48579540Y-83743993D01*
X48561917Y-83742398D01*
X48544454Y-83741038D01*
X48527171Y-83739917D01*
X48510086Y-83739038D01*
X48493218Y-83738406D01*
X48476585Y-83738024D01*
X48460205Y-83737896D01*
X48441441Y-83738049D01*
X48423207Y-83738508D01*
X48405507Y-83739271D01*
X48388346Y-83740336D01*
X48371729Y-83741702D01*
X48355658Y-83743368D01*
X48340140Y-83745333D01*
X48325177Y-83747593D01*
X48296937Y-83752999D01*
X48270972Y-83759573D01*
X48247318Y-83767305D01*
X48226007Y-83776181D01*
X48207075Y-83786191D01*
X48190556Y-83797323D01*
X48176483Y-83809564D01*
X48164893Y-83822904D01*
X48155818Y-83837330D01*
X48149294Y-83852830D01*
X48145354Y-83869393D01*
X48144033Y-83887006D01*
X48070889Y-83887006D01*
X48070330Y-83885139D01*
X48066517Y-83870575D01*
X48063265Y-83856025D01*
X48060581Y-83841507D01*
X48056963Y-83812626D01*
X48055739Y-83784058D01*
X48056073Y-83770089D01*
X48058742Y-83743447D01*
X48064079Y-83718541D01*
X48072080Y-83695375D01*
X48082745Y-83673956D01*
X48096070Y-83654289D01*
X48112054Y-83636381D01*
X48130695Y-83620237D01*
X48151990Y-83605863D01*
X48175937Y-83593265D01*
X48202534Y-83582450D01*
X48216825Y-83577712D01*
X48231779Y-83573422D01*
X48247394Y-83569580D01*
X48263669Y-83566188D01*
X48280606Y-83563245D01*
X48298204Y-83560754D01*
X48316462Y-83558713D01*
X48335380Y-83557125D01*
X48354958Y-83555990D01*
X48375195Y-83555308D01*
X48396092Y-83555080D01*
X48413329Y-83555258D01*
G37*
G36*
X49258513Y-83115077D02*
G01*
X49240558Y-83117809D01*
X49224259Y-83120238D01*
X49209399Y-83122374D01*
X49191450Y-83124775D01*
X49175158Y-83126682D01*
X49160008Y-83128113D01*
X49141891Y-83129258D01*
X49123748Y-83129718D01*
X49120027Y-83129731D01*
X49104107Y-83129551D01*
X49088508Y-83128976D01*
X49073144Y-83127958D01*
X49057929Y-83126451D01*
X49042780Y-83124404D01*
X49027609Y-83121769D01*
X49012333Y-83118499D01*
X48996866Y-83114544D01*
X48981122Y-83109857D01*
X48965017Y-83104390D01*
X48948465Y-83098092D01*
X48931381Y-83090918D01*
X48913679Y-83082817D01*
X48895274Y-83073741D01*
X48876082Y-83063643D01*
X48856016Y-83052474D01*
X48834992Y-83040186D01*
X48812924Y-83026729D01*
X48789727Y-83012057D01*
X48765316Y-82996119D01*
X48739605Y-82978869D01*
X48712510Y-82960258D01*
X48683944Y-82940236D01*
X48653823Y-82918757D01*
X48622062Y-82895771D01*
X48588574Y-82871231D01*
X48553276Y-82845087D01*
X48516081Y-82817292D01*
X48476904Y-82787797D01*
X48435661Y-82756554D01*
X48392265Y-82723514D01*
X48346632Y-82688629D01*
X48325033Y-82672629D01*
X48305661Y-82658296D01*
X48288236Y-82645434D01*
X48272478Y-82633846D01*
X48258107Y-82623335D01*
X48244842Y-82613706D01*
X48232404Y-82604761D01*
X48214683Y-82592199D01*
X48197246Y-82580072D01*
X48179147Y-82567718D01*
X48166247Y-82559029D01*
X48152352Y-82549748D01*
X48137183Y-82539678D01*
X48120459Y-82528624D01*
X48111427Y-82522666D01*
X48112935Y-82543147D01*
X48114302Y-82563689D01*
X48115536Y-82584355D01*
X48116642Y-82605207D01*
X48117625Y-82626305D01*
X48118491Y-82647711D01*
X48119247Y-82669488D01*
X48119899Y-82691697D01*
X48120451Y-82714400D01*
X48120911Y-82737658D01*
X48121284Y-82761533D01*
X48121576Y-82786087D01*
X48121793Y-82811382D01*
X48121940Y-82837479D01*
X48122024Y-82864440D01*
X48122051Y-82892327D01*
X48122047Y-82913330D01*
X48122021Y-82933023D01*
X48121949Y-82951449D01*
X48121809Y-82968653D01*
X48121579Y-82984680D01*
X48121235Y-82999573D01*
X48120116Y-83026136D01*
X48118272Y-83048695D01*
X48115521Y-83067605D01*
X48111681Y-83083218D01*
X48103485Y-83101231D01*
X48091819Y-83113817D01*
X48076072Y-83122169D01*
X48055631Y-83127482D01*
X48039094Y-83129924D01*
X48020017Y-83131899D01*
X47998220Y-83133761D01*
X47998220Y-83165269D01*
X48019082Y-83173043D01*
X48039220Y-83180562D01*
X48058638Y-83187821D01*
X48077343Y-83194813D01*
X48095340Y-83201532D01*
X48112633Y-83207972D01*
X48129229Y-83214129D01*
X48145132Y-83219994D01*
X48160349Y-83225564D01*
X48174883Y-83230831D01*
X48188742Y-83235791D01*
X48208274Y-83242640D01*
X48226315Y-83248762D01*
X48242882Y-83254138D01*
X48248080Y-83255761D01*
X48260537Y-83249533D01*
X48261706Y-83230385D01*
X48262744Y-83212926D01*
X48263654Y-83196856D01*
X48264439Y-83181874D01*
X48265300Y-83163071D01*
X48265954Y-83144954D01*
X48266410Y-83126812D01*
X48266678Y-83107931D01*
X48266760Y-83092857D01*
X48266765Y-83087600D01*
X48266692Y-83067930D01*
X48266473Y-83047520D01*
X48266108Y-83026358D01*
X48265597Y-83004435D01*
X48264940Y-82981738D01*
X48264138Y-82958259D01*
X48263189Y-82933984D01*
X48262094Y-82908905D01*
X48260853Y-82883010D01*
X48259466Y-82856289D01*
X48257934Y-82828731D01*
X48256255Y-82800324D01*
X48254430Y-82771059D01*
X48253463Y-82756101D01*
X48252460Y-82740924D01*
X48251420Y-82725528D01*
X48250343Y-82709910D01*
X48249230Y-82694069D01*
X48248080Y-82678004D01*
X48348831Y-82760070D01*
X48383413Y-82788287D01*
X48416846Y-82815464D01*
X48449171Y-82841631D01*
X48480430Y-82866818D01*
X48510665Y-82891055D01*
X48539918Y-82914374D01*
X48568231Y-82936804D01*
X48595646Y-82958376D01*
X48622204Y-82979121D01*
X48647947Y-82999068D01*
X48672918Y-83018249D01*
X48697157Y-83036693D01*
X48720708Y-83054432D01*
X48743611Y-83071496D01*
X48765909Y-83087915D01*
X48787643Y-83103720D01*
X48808856Y-83118940D01*
X48829589Y-83133607D01*
X48849884Y-83147752D01*
X48869783Y-83161403D01*
X48889328Y-83174593D01*
X48908561Y-83187351D01*
X48927523Y-83199708D01*
X48946256Y-83211694D01*
X48964803Y-83223340D01*
X48983205Y-83234676D01*
X49001503Y-83245733D01*
X49019741Y-83256541D01*
X49037959Y-83267130D01*
X49056200Y-83277532D01*
X49074505Y-83287776D01*
X49092916Y-83297893D01*
X49108498Y-83302099D01*
X49125895Y-83306148D01*
X49141788Y-83309026D01*
X49157040Y-83310918D01*
X49172515Y-83312009D01*
X49189077Y-83312483D01*
X49199895Y-83312547D01*
X49215203Y-83312379D01*
X49230421Y-83311847D01*
X49246370Y-83310909D01*
X49263873Y-83309524D01*
X49279545Y-83308065D01*
X49297157Y-83306271D01*
X49311894Y-83304693D01*
X49317131Y-83304121D01*
X49258513Y-83115077D01*
G37*
G36*
X48917062Y-82475405D02*
G01*
X48913032Y-82290391D01*
X48913095Y-82275484D01*
X48913447Y-82259708D01*
X48914171Y-82242837D01*
X48915193Y-82225620D01*
X48916352Y-82209343D01*
X48917062Y-82200265D01*
X48903661Y-82191871D01*
X48890456Y-82183380D01*
X48877453Y-82174792D01*
X48864653Y-82166107D01*
X48852061Y-82157327D01*
X48839680Y-82148449D01*
X48827514Y-82139475D01*
X48815567Y-82130404D01*
X48803842Y-82121237D01*
X48792343Y-82111973D01*
X48784804Y-82105743D01*
X48784804Y-82124428D01*
X48782606Y-82296619D01*
X48782620Y-82312420D01*
X48782722Y-82327512D01*
X48782997Y-82343501D01*
X48783422Y-82358673D01*
X48784079Y-82376516D01*
X48784804Y-82393339D01*
X48796588Y-82404626D01*
X48809900Y-82416449D01*
X48824655Y-82428727D01*
X48836616Y-82438185D01*
X48849304Y-82447819D01*
X48862683Y-82457594D01*
X48876716Y-82467476D01*
X48891367Y-82477431D01*
X48906601Y-82487424D01*
X48917062Y-82494089D01*
X48917062Y-82475405D01*
G37*
G36*
X48413329Y-81121134D02*
G01*
X48430949Y-81121664D01*
X48448924Y-81122538D01*
X48467224Y-81123749D01*
X48485821Y-81125291D01*
X48504685Y-81127155D01*
X48523788Y-81129337D01*
X48543101Y-81131827D01*
X48562595Y-81134619D01*
X48582240Y-81137707D01*
X48602009Y-81141082D01*
X48621871Y-81144739D01*
X48641799Y-81148670D01*
X48661764Y-81152867D01*
X48681735Y-81157324D01*
X48701685Y-81162035D01*
X48721585Y-81166991D01*
X48741405Y-81172185D01*
X48761117Y-81177612D01*
X48780692Y-81183263D01*
X48800100Y-81189132D01*
X48819314Y-81195211D01*
X48838304Y-81201494D01*
X48857041Y-81207973D01*
X48875496Y-81214642D01*
X48893641Y-81221493D01*
X48911445Y-81228520D01*
X48928882Y-81235715D01*
X48945921Y-81243071D01*
X48962534Y-81250581D01*
X48978691Y-81258239D01*
X48994364Y-81266036D01*
X49012159Y-81275460D01*
X49029476Y-81285247D01*
X49046310Y-81295388D01*
X49062653Y-81305877D01*
X49078502Y-81316704D01*
X49093850Y-81327862D01*
X49108692Y-81339342D01*
X49123021Y-81351136D01*
X49136833Y-81363236D01*
X49150121Y-81375633D01*
X49162879Y-81388321D01*
X49175103Y-81401289D01*
X49186786Y-81414531D01*
X49197922Y-81428038D01*
X49208507Y-81441801D01*
X49218534Y-81455813D01*
X49227997Y-81470066D01*
X49236891Y-81484550D01*
X49245210Y-81499259D01*
X49252948Y-81514184D01*
X49260100Y-81529316D01*
X49266661Y-81544648D01*
X49272623Y-81560171D01*
X49277982Y-81575877D01*
X49282732Y-81591759D01*
X49286867Y-81607807D01*
X49290381Y-81624013D01*
X49293270Y-81640370D01*
X49295526Y-81656870D01*
X49297145Y-81673503D01*
X49298120Y-81690262D01*
X49298447Y-81707139D01*
X49297066Y-81736500D01*
X49292927Y-81763995D01*
X49286039Y-81789618D01*
X49276408Y-81813367D01*
X49264042Y-81835238D01*
X49248949Y-81855227D01*
X49231136Y-81873329D01*
X49210611Y-81889543D01*
X49187381Y-81903862D01*
X49161454Y-81916285D01*
X49147481Y-81921784D01*
X49132837Y-81926807D01*
X49117522Y-81931354D01*
X49101537Y-81935424D01*
X49084884Y-81939017D01*
X49067563Y-81942133D01*
X49049576Y-81944770D01*
X49030922Y-81946929D01*
X49011604Y-81948609D01*
X48991621Y-81949810D01*
X48970976Y-81950531D01*
X48949668Y-81950771D01*
X48930439Y-81950551D01*
X48910830Y-81949895D01*
X48890876Y-81948814D01*
X48870613Y-81947316D01*
X48850076Y-81945411D01*
X48829298Y-81943108D01*
X48808315Y-81940417D01*
X48787163Y-81937347D01*
X48765875Y-81933908D01*
X48744486Y-81930107D01*
X48723032Y-81925956D01*
X48701548Y-81921463D01*
X48680068Y-81916637D01*
X48658627Y-81911488D01*
X48637260Y-81906026D01*
X48616002Y-81900259D01*
X48594888Y-81894196D01*
X48573952Y-81887848D01*
X48553230Y-81881224D01*
X48532757Y-81874332D01*
X48512567Y-81867182D01*
X48492695Y-81859784D01*
X48473176Y-81852147D01*
X48454046Y-81844279D01*
X48435338Y-81836191D01*
X48417088Y-81827892D01*
X48399331Y-81819391D01*
X48382101Y-81810698D01*
X48365434Y-81801821D01*
X48349364Y-81792770D01*
X48333926Y-81783554D01*
X48319155Y-81774184D01*
X48304507Y-81764338D01*
X48290175Y-81754116D01*
X48276170Y-81743532D01*
X48262501Y-81732603D01*
X48249178Y-81721343D01*
X48236210Y-81709769D01*
X48223608Y-81697897D01*
X48211381Y-81685741D01*
X48199539Y-81673318D01*
X48188091Y-81660644D01*
X48177047Y-81647734D01*
X48166418Y-81634603D01*
X48156212Y-81621268D01*
X48146439Y-81607745D01*
X48137110Y-81594048D01*
X48128234Y-81580194D01*
X48119820Y-81566198D01*
X48111878Y-81552076D01*
X48104419Y-81537844D01*
X48097451Y-81523517D01*
X48090985Y-81509112D01*
X48085030Y-81494643D01*
X48079596Y-81480127D01*
X48074693Y-81465579D01*
X48070889Y-81452882D01*
X48144033Y-81452882D01*
X48144314Y-81462061D01*
X48146564Y-81480058D01*
X48151065Y-81497572D01*
X48157816Y-81514600D01*
X48166819Y-81531142D01*
X48178075Y-81547196D01*
X48191583Y-81562761D01*
X48207344Y-81577834D01*
X48225359Y-81592414D01*
X48245628Y-81606499D01*
X48268152Y-81620089D01*
X48292931Y-81633180D01*
X48306166Y-81639539D01*
X48319966Y-81645773D01*
X48334330Y-81651881D01*
X48349257Y-81657864D01*
X48364750Y-81663721D01*
X48380806Y-81669453D01*
X48397427Y-81675058D01*
X48414612Y-81680537D01*
X48432362Y-81685890D01*
X48459523Y-81693755D01*
X48473886Y-81697650D01*
X48488718Y-81701513D01*
X48503977Y-81705334D01*
X48519621Y-81709108D01*
X48535611Y-81712828D01*
X48551905Y-81716487D01*
X48568463Y-81720077D01*
X48585243Y-81723593D01*
X48602205Y-81727026D01*
X48619308Y-81730371D01*
X48636511Y-81733620D01*
X48653774Y-81736766D01*
X48671055Y-81739802D01*
X48688313Y-81742722D01*
X48705508Y-81745519D01*
X48722599Y-81748185D01*
X48739544Y-81750714D01*
X48756304Y-81753098D01*
X48772837Y-81755332D01*
X48789103Y-81757408D01*
X48805060Y-81759318D01*
X48820668Y-81761057D01*
X48835885Y-81762618D01*
X48850672Y-81763992D01*
X48878789Y-81766157D01*
X48904691Y-81767497D01*
X48928053Y-81767955D01*
X48943945Y-81767759D01*
X48959535Y-81767176D01*
X48974809Y-81766213D01*
X48989753Y-81764879D01*
X49018600Y-81761126D01*
X49045970Y-81755980D01*
X49071759Y-81749503D01*
X49095860Y-81741757D01*
X49118167Y-81732806D01*
X49138575Y-81722709D01*
X49156978Y-81711531D01*
X49173270Y-81699334D01*
X49187346Y-81686179D01*
X49199099Y-81672128D01*
X49208425Y-81657245D01*
X49215217Y-81641591D01*
X49219370Y-81625229D01*
X49220778Y-81608221D01*
X49219955Y-81594553D01*
X49215656Y-81574338D01*
X49207714Y-81554508D01*
X49200416Y-81541524D01*
X49191527Y-81528745D01*
X49181061Y-81516183D01*
X49169029Y-81503853D01*
X49155442Y-81491767D01*
X49140313Y-81479939D01*
X49123654Y-81468383D01*
X49105476Y-81457112D01*
X49085791Y-81446140D01*
X49064611Y-81435479D01*
X49041947Y-81425144D01*
X49017812Y-81415147D01*
X49002231Y-81408896D01*
X48986345Y-81402787D01*
X48970172Y-81396822D01*
X48953731Y-81391007D01*
X48937040Y-81385343D01*
X48920119Y-81379836D01*
X48902985Y-81374489D01*
X48885657Y-81369305D01*
X48868155Y-81364289D01*
X48850496Y-81359444D01*
X48832700Y-81354774D01*
X48814784Y-81350283D01*
X48796769Y-81345974D01*
X48778671Y-81341852D01*
X48760511Y-81337919D01*
X48742306Y-81334180D01*
X48724075Y-81330639D01*
X48705837Y-81327299D01*
X48687611Y-81324163D01*
X48669415Y-81321237D01*
X48651268Y-81318523D01*
X48633188Y-81316026D01*
X48615195Y-81313748D01*
X48597306Y-81311694D01*
X48579540Y-81309868D01*
X48561917Y-81308273D01*
X48544454Y-81306914D01*
X48527171Y-81305793D01*
X48510086Y-81304914D01*
X48493218Y-81304282D01*
X48476585Y-81303900D01*
X48460205Y-81303772D01*
X48441441Y-81303925D01*
X48423207Y-81304384D01*
X48405507Y-81305147D01*
X48388346Y-81306212D01*
X48371729Y-81307578D01*
X48355658Y-81309244D01*
X48340140Y-81311208D01*
X48325177Y-81313469D01*
X48296937Y-81318875D01*
X48270972Y-81325449D01*
X48247318Y-81333180D01*
X48226007Y-81342057D01*
X48207075Y-81352067D01*
X48190556Y-81363199D01*
X48176483Y-81375440D01*
X48164893Y-81388780D01*
X48155818Y-81403206D01*
X48149294Y-81418706D01*
X48145354Y-81435269D01*
X48144033Y-81452882D01*
X48070889Y-81452882D01*
X48070330Y-81451015D01*
X48066517Y-81436450D01*
X48063265Y-81421901D01*
X48060581Y-81407383D01*
X48056963Y-81378502D01*
X48055739Y-81349934D01*
X48056073Y-81335964D01*
X48058742Y-81309323D01*
X48064079Y-81284417D01*
X48072080Y-81261251D01*
X48082745Y-81239832D01*
X48096070Y-81220165D01*
X48112054Y-81202257D01*
X48130695Y-81186113D01*
X48151990Y-81171739D01*
X48175937Y-81159141D01*
X48202534Y-81148326D01*
X48216825Y-81143588D01*
X48231779Y-81139298D01*
X48247394Y-81135456D01*
X48263669Y-81132064D01*
X48280606Y-81129121D01*
X48298204Y-81126629D01*
X48316462Y-81124589D01*
X48335380Y-81123001D01*
X48354958Y-81121865D01*
X48375195Y-81121184D01*
X48396092Y-81120956D01*
X48413329Y-81121134D01*
G37*
G36*
X49275000Y-81052446D02*
G01*
X49275000Y-80920188D01*
X49273168Y-80691211D01*
X49275000Y-80449777D01*
X49275000Y-80363681D01*
X49218579Y-80313489D01*
X49217702Y-80332434D01*
X49216355Y-80353415D01*
X49215231Y-80368232D01*
X49213949Y-80383502D01*
X49212532Y-80399045D01*
X49211000Y-80414678D01*
X49209375Y-80430222D01*
X49207676Y-80445495D01*
X49205925Y-80460318D01*
X49203247Y-80481309D01*
X49200569Y-80500267D01*
X49197963Y-80516583D01*
X49195498Y-80529644D01*
X49190499Y-80544474D01*
X49181867Y-80559530D01*
X49170595Y-80571297D01*
X49156930Y-80579456D01*
X49141118Y-80583688D01*
X49132484Y-80584232D01*
X49116384Y-80583650D01*
X49100889Y-80582213D01*
X49084104Y-80579894D01*
X49069320Y-80577277D01*
X49053973Y-80574030D01*
X49044556Y-80571776D01*
X49026858Y-80566897D01*
X49011572Y-80563092D01*
X48992915Y-80558645D01*
X48970992Y-80553568D01*
X48954614Y-80549840D01*
X48936862Y-80545841D01*
X48917767Y-80541576D01*
X48897361Y-80537048D01*
X48875674Y-80532260D01*
X48852738Y-80527217D01*
X48828583Y-80521923D01*
X48803242Y-80516380D01*
X48776744Y-80510593D01*
X48741485Y-80502626D01*
X48707205Y-80494866D01*
X48673890Y-80487308D01*
X48641523Y-80479948D01*
X48610089Y-80472783D01*
X48579572Y-80465809D01*
X48549954Y-80459021D01*
X48521222Y-80452416D01*
X48493359Y-80445989D01*
X48466348Y-80439738D01*
X48440175Y-80433657D01*
X48414823Y-80427743D01*
X48390276Y-80421991D01*
X48366518Y-80416399D01*
X48343534Y-80410962D01*
X48321308Y-80405676D01*
X48299823Y-80400536D01*
X48279064Y-80395540D01*
X48259014Y-80390683D01*
X48239659Y-80385961D01*
X48220982Y-80381371D01*
X48202967Y-80376907D01*
X48185598Y-80372567D01*
X48168860Y-80368347D01*
X48152736Y-80364241D01*
X48137211Y-80360247D01*
X48122268Y-80356361D01*
X48107892Y-80352578D01*
X48080778Y-80345307D01*
X48055739Y-80338402D01*
X48064202Y-80354052D01*
X48072939Y-80370366D01*
X48082011Y-80387447D01*
X48091481Y-80405397D01*
X48101410Y-80424321D01*
X48108314Y-80437529D01*
X48115468Y-80451245D01*
X48122890Y-80465501D01*
X48130598Y-80480328D01*
X48138610Y-80495755D01*
X48146945Y-80511814D01*
X48155620Y-80528534D01*
X48164655Y-80545947D01*
X48169312Y-80554923D01*
X48176774Y-80570072D01*
X48184144Y-80585310D01*
X48191777Y-80601384D01*
X48200024Y-80619040D01*
X48209241Y-80639024D01*
X48216097Y-80654008D01*
X48223646Y-80670580D01*
X48231991Y-80688960D01*
X48241237Y-80709370D01*
X48251490Y-80732031D01*
X48262853Y-80757164D01*
X48268984Y-80770726D01*
X48275432Y-80784989D01*
X48282209Y-80799981D01*
X48289330Y-80815729D01*
X48296807Y-80832261D01*
X48328314Y-80769246D01*
X48322447Y-80752465D01*
X48317306Y-80737899D01*
X48311488Y-80721682D01*
X48305852Y-80706331D01*
X48299871Y-80690402D01*
X48294483Y-80676275D01*
X48288265Y-80660117D01*
X48286549Y-80655673D01*
X48261270Y-80592659D01*
X48255693Y-80578716D01*
X48250601Y-80564212D01*
X48245053Y-80547880D01*
X48240387Y-80534041D01*
X49096946Y-80733343D01*
X49112814Y-80737211D01*
X49130402Y-80741702D01*
X49147417Y-80746583D01*
X49161951Y-80751986D01*
X49175552Y-80760852D01*
X49180844Y-80767048D01*
X49188911Y-80780947D01*
X49193071Y-80795487D01*
X49195797Y-80812309D01*
X49198236Y-80831657D01*
X49200394Y-80850491D01*
X49202052Y-80865423D01*
X49203925Y-80882453D01*
X49212351Y-80947666D01*
X49213817Y-80963328D01*
X49216372Y-80979535D01*
X49218579Y-80991630D01*
X49275000Y-81052446D01*
G37*
X43754523Y-101796264D02*
X43277459Y-102130209D01*
X43754523Y-102368741D02*
X42752688Y-102368741D01*
X42752688Y-102368741D02*
X42752688Y-101987090D01*
X42752688Y-101987090D02*
X42800394Y-101891677D01*
X42800394Y-101891677D02*
X42848101Y-101843971D01*
X42848101Y-101843971D02*
X42943514Y-101796264D01*
X42943514Y-101796264D02*
X43086633Y-101796264D01*
X43086633Y-101796264D02*
X43182046Y-101843971D01*
X43182046Y-101843971D02*
X43229752Y-101891677D01*
X43229752Y-101891677D02*
X43277459Y-101987090D01*
X43277459Y-101987090D02*
X43277459Y-102368741D01*
X43229752Y-101366906D02*
X43229752Y-101032961D01*
X43754523Y-100889842D02*
X43754523Y-101366906D01*
X43754523Y-101366906D02*
X42752688Y-101366906D01*
X42752688Y-101366906D02*
X42752688Y-100889842D01*
X43229752Y-100126539D02*
X43229752Y-100460484D01*
X43754523Y-100460484D02*
X42752688Y-100460484D01*
X42752688Y-100460484D02*
X42752688Y-99983420D01*
X42752688Y-99458649D02*
X42991220Y-99458649D01*
X42895807Y-99697181D02*
X42991220Y-99458649D01*
X42991220Y-99458649D02*
X42895807Y-99220117D01*
X43182046Y-99601768D02*
X42991220Y-99458649D01*
X42991220Y-99458649D02*
X43182046Y-99315530D01*
X42752688Y-98695346D02*
X42991220Y-98695346D01*
X42895807Y-98933878D02*
X42991220Y-98695346D01*
X42991220Y-98695346D02*
X42895807Y-98456814D01*
X43182046Y-98838465D02*
X42991220Y-98695346D01*
X42991220Y-98695346D02*
X43182046Y-98552227D01*
X17250580Y-81786666D02*
X17298200Y-81834285D01*
X17298200Y-81834285D02*
X17345819Y-81977142D01*
X17345819Y-81977142D02*
X17345819Y-82072380D01*
X17345819Y-82072380D02*
X17298200Y-82215237D01*
X17298200Y-82215237D02*
X17202961Y-82310475D01*
X17202961Y-82310475D02*
X17107723Y-82358094D01*
X17107723Y-82358094D02*
X16917247Y-82405713D01*
X16917247Y-82405713D02*
X16774390Y-82405713D01*
X16774390Y-82405713D02*
X16583914Y-82358094D01*
X16583914Y-82358094D02*
X16488676Y-82310475D01*
X16488676Y-82310475D02*
X16393438Y-82215237D01*
X16393438Y-82215237D02*
X16345819Y-82072380D01*
X16345819Y-82072380D02*
X16345819Y-81977142D01*
X16345819Y-81977142D02*
X16393438Y-81834285D01*
X16393438Y-81834285D02*
X16441057Y-81786666D01*
X17345819Y-80834285D02*
X17345819Y-81405713D01*
X17345819Y-81119999D02*
X16345819Y-81119999D01*
X16345819Y-81119999D02*
X16488676Y-81215237D01*
X16488676Y-81215237D02*
X16583914Y-81310475D01*
X16583914Y-81310475D02*
X16631533Y-81405713D01*
X19155580Y-81939166D02*
X19203200Y-81986785D01*
X19203200Y-81986785D02*
X19250819Y-82129642D01*
X19250819Y-82129642D02*
X19250819Y-82224880D01*
X19250819Y-82224880D02*
X19203200Y-82367737D01*
X19203200Y-82367737D02*
X19107961Y-82462975D01*
X19107961Y-82462975D02*
X19012723Y-82510594D01*
X19012723Y-82510594D02*
X18822247Y-82558213D01*
X18822247Y-82558213D02*
X18679390Y-82558213D01*
X18679390Y-82558213D02*
X18488914Y-82510594D01*
X18488914Y-82510594D02*
X18393676Y-82462975D01*
X18393676Y-82462975D02*
X18298438Y-82367737D01*
X18298438Y-82367737D02*
X18250819Y-82224880D01*
X18250819Y-82224880D02*
X18250819Y-82129642D01*
X18250819Y-82129642D02*
X18298438Y-81986785D01*
X18298438Y-81986785D02*
X18346057Y-81939166D01*
X18346057Y-81558213D02*
X18298438Y-81510594D01*
X18298438Y-81510594D02*
X18250819Y-81415356D01*
X18250819Y-81415356D02*
X18250819Y-81177261D01*
X18250819Y-81177261D02*
X18298438Y-81082023D01*
X18298438Y-81082023D02*
X18346057Y-81034404D01*
X18346057Y-81034404D02*
X18441295Y-80986785D01*
X18441295Y-80986785D02*
X18536533Y-80986785D01*
X18536533Y-80986785D02*
X18679390Y-81034404D01*
X18679390Y-81034404D02*
X19250819Y-81605832D01*
X19250819Y-81605832D02*
X19250819Y-80986785D01*
X30585580Y-81151666D02*
X30633200Y-81199285D01*
X30633200Y-81199285D02*
X30680819Y-81342142D01*
X30680819Y-81342142D02*
X30680819Y-81437380D01*
X30680819Y-81437380D02*
X30633200Y-81580237D01*
X30633200Y-81580237D02*
X30537961Y-81675475D01*
X30537961Y-81675475D02*
X30442723Y-81723094D01*
X30442723Y-81723094D02*
X30252247Y-81770713D01*
X30252247Y-81770713D02*
X30109390Y-81770713D01*
X30109390Y-81770713D02*
X29918914Y-81723094D01*
X29918914Y-81723094D02*
X29823676Y-81675475D01*
X29823676Y-81675475D02*
X29728438Y-81580237D01*
X29728438Y-81580237D02*
X29680819Y-81437380D01*
X29680819Y-81437380D02*
X29680819Y-81342142D01*
X29680819Y-81342142D02*
X29728438Y-81199285D01*
X29728438Y-81199285D02*
X29776057Y-81151666D01*
X29680819Y-80818332D02*
X29680819Y-80199285D01*
X29680819Y-80199285D02*
X30061771Y-80532618D01*
X30061771Y-80532618D02*
X30061771Y-80389761D01*
X30061771Y-80389761D02*
X30109390Y-80294523D01*
X30109390Y-80294523D02*
X30157009Y-80246904D01*
X30157009Y-80246904D02*
X30252247Y-80199285D01*
X30252247Y-80199285D02*
X30490342Y-80199285D01*
X30490342Y-80199285D02*
X30585580Y-80246904D01*
X30585580Y-80246904D02*
X30633200Y-80294523D01*
X30633200Y-80294523D02*
X30680819Y-80389761D01*
X30680819Y-80389761D02*
X30680819Y-80675475D01*
X30680819Y-80675475D02*
X30633200Y-80770713D01*
X30633200Y-80770713D02*
X30585580Y-80818332D01*
X32490580Y-81151666D02*
X32538200Y-81199285D01*
X32538200Y-81199285D02*
X32585819Y-81342142D01*
X32585819Y-81342142D02*
X32585819Y-81437380D01*
X32585819Y-81437380D02*
X32538200Y-81580237D01*
X32538200Y-81580237D02*
X32442961Y-81675475D01*
X32442961Y-81675475D02*
X32347723Y-81723094D01*
X32347723Y-81723094D02*
X32157247Y-81770713D01*
X32157247Y-81770713D02*
X32014390Y-81770713D01*
X32014390Y-81770713D02*
X31823914Y-81723094D01*
X31823914Y-81723094D02*
X31728676Y-81675475D01*
X31728676Y-81675475D02*
X31633438Y-81580237D01*
X31633438Y-81580237D02*
X31585819Y-81437380D01*
X31585819Y-81437380D02*
X31585819Y-81342142D01*
X31585819Y-81342142D02*
X31633438Y-81199285D01*
X31633438Y-81199285D02*
X31681057Y-81151666D01*
X31919152Y-80294523D02*
X32585819Y-80294523D01*
X31538200Y-80532618D02*
X32252485Y-80770713D01*
X32252485Y-80770713D02*
X32252485Y-80151666D01*
X34395580Y-81151666D02*
X34443200Y-81199285D01*
X34443200Y-81199285D02*
X34490819Y-81342142D01*
X34490819Y-81342142D02*
X34490819Y-81437380D01*
X34490819Y-81437380D02*
X34443200Y-81580237D01*
X34443200Y-81580237D02*
X34347961Y-81675475D01*
X34347961Y-81675475D02*
X34252723Y-81723094D01*
X34252723Y-81723094D02*
X34062247Y-81770713D01*
X34062247Y-81770713D02*
X33919390Y-81770713D01*
X33919390Y-81770713D02*
X33728914Y-81723094D01*
X33728914Y-81723094D02*
X33633676Y-81675475D01*
X33633676Y-81675475D02*
X33538438Y-81580237D01*
X33538438Y-81580237D02*
X33490819Y-81437380D01*
X33490819Y-81437380D02*
X33490819Y-81342142D01*
X33490819Y-81342142D02*
X33538438Y-81199285D01*
X33538438Y-81199285D02*
X33586057Y-81151666D01*
X33490819Y-80246904D02*
X33490819Y-80723094D01*
X33490819Y-80723094D02*
X33967009Y-80770713D01*
X33967009Y-80770713D02*
X33919390Y-80723094D01*
X33919390Y-80723094D02*
X33871771Y-80627856D01*
X33871771Y-80627856D02*
X33871771Y-80389761D01*
X33871771Y-80389761D02*
X33919390Y-80294523D01*
X33919390Y-80294523D02*
X33967009Y-80246904D01*
X33967009Y-80246904D02*
X34062247Y-80199285D01*
X34062247Y-80199285D02*
X34300342Y-80199285D01*
X34300342Y-80199285D02*
X34395580Y-80246904D01*
X34395580Y-80246904D02*
X34443200Y-80294523D01*
X34443200Y-80294523D02*
X34490819Y-80389761D01*
X34490819Y-80389761D02*
X34490819Y-80627856D01*
X34490819Y-80627856D02*
X34443200Y-80723094D01*
X34443200Y-80723094D02*
X34395580Y-80770713D01*
X26808580Y-77367166D02*
X26856200Y-77414785D01*
X26856200Y-77414785D02*
X26903819Y-77557642D01*
X26903819Y-77557642D02*
X26903819Y-77652880D01*
X26903819Y-77652880D02*
X26856200Y-77795737D01*
X26856200Y-77795737D02*
X26760961Y-77890975D01*
X26760961Y-77890975D02*
X26665723Y-77938594D01*
X26665723Y-77938594D02*
X26475247Y-77986213D01*
X26475247Y-77986213D02*
X26332390Y-77986213D01*
X26332390Y-77986213D02*
X26141914Y-77938594D01*
X26141914Y-77938594D02*
X26046676Y-77890975D01*
X26046676Y-77890975D02*
X25951438Y-77795737D01*
X25951438Y-77795737D02*
X25903819Y-77652880D01*
X25903819Y-77652880D02*
X25903819Y-77557642D01*
X25903819Y-77557642D02*
X25951438Y-77414785D01*
X25951438Y-77414785D02*
X25999057Y-77367166D01*
X25903819Y-76510023D02*
X25903819Y-76700499D01*
X25903819Y-76700499D02*
X25951438Y-76795737D01*
X25951438Y-76795737D02*
X25999057Y-76843356D01*
X25999057Y-76843356D02*
X26141914Y-76938594D01*
X26141914Y-76938594D02*
X26332390Y-76986213D01*
X26332390Y-76986213D02*
X26713342Y-76986213D01*
X26713342Y-76986213D02*
X26808580Y-76938594D01*
X26808580Y-76938594D02*
X26856200Y-76890975D01*
X26856200Y-76890975D02*
X26903819Y-76795737D01*
X26903819Y-76795737D02*
X26903819Y-76605261D01*
X26903819Y-76605261D02*
X26856200Y-76510023D01*
X26856200Y-76510023D02*
X26808580Y-76462404D01*
X26808580Y-76462404D02*
X26713342Y-76414785D01*
X26713342Y-76414785D02*
X26475247Y-76414785D01*
X26475247Y-76414785D02*
X26380009Y-76462404D01*
X26380009Y-76462404D02*
X26332390Y-76510023D01*
X26332390Y-76510023D02*
X26284771Y-76605261D01*
X26284771Y-76605261D02*
X26284771Y-76795737D01*
X26284771Y-76795737D02*
X26332390Y-76890975D01*
X26332390Y-76890975D02*
X26380009Y-76938594D01*
X26380009Y-76938594D02*
X26475247Y-76986213D01*
X23125580Y-77341666D02*
X23173200Y-77389285D01*
X23173200Y-77389285D02*
X23220819Y-77532142D01*
X23220819Y-77532142D02*
X23220819Y-77627380D01*
X23220819Y-77627380D02*
X23173200Y-77770237D01*
X23173200Y-77770237D02*
X23077961Y-77865475D01*
X23077961Y-77865475D02*
X22982723Y-77913094D01*
X22982723Y-77913094D02*
X22792247Y-77960713D01*
X22792247Y-77960713D02*
X22649390Y-77960713D01*
X22649390Y-77960713D02*
X22458914Y-77913094D01*
X22458914Y-77913094D02*
X22363676Y-77865475D01*
X22363676Y-77865475D02*
X22268438Y-77770237D01*
X22268438Y-77770237D02*
X22220819Y-77627380D01*
X22220819Y-77627380D02*
X22220819Y-77532142D01*
X22220819Y-77532142D02*
X22268438Y-77389285D01*
X22268438Y-77389285D02*
X22316057Y-77341666D01*
X22220819Y-77008332D02*
X22220819Y-76341666D01*
X22220819Y-76341666D02*
X23220819Y-76770237D01*
X36790333Y-92499580D02*
X36742714Y-92547200D01*
X36742714Y-92547200D02*
X36599857Y-92594819D01*
X36599857Y-92594819D02*
X36504619Y-92594819D01*
X36504619Y-92594819D02*
X36361762Y-92547200D01*
X36361762Y-92547200D02*
X36266524Y-92451961D01*
X36266524Y-92451961D02*
X36218905Y-92356723D01*
X36218905Y-92356723D02*
X36171286Y-92166247D01*
X36171286Y-92166247D02*
X36171286Y-92023390D01*
X36171286Y-92023390D02*
X36218905Y-91832914D01*
X36218905Y-91832914D02*
X36266524Y-91737676D01*
X36266524Y-91737676D02*
X36361762Y-91642438D01*
X36361762Y-91642438D02*
X36504619Y-91594819D01*
X36504619Y-91594819D02*
X36599857Y-91594819D01*
X36599857Y-91594819D02*
X36742714Y-91642438D01*
X36742714Y-91642438D02*
X36790333Y-91690057D01*
X37361762Y-92023390D02*
X37266524Y-91975771D01*
X37266524Y-91975771D02*
X37218905Y-91928152D01*
X37218905Y-91928152D02*
X37171286Y-91832914D01*
X37171286Y-91832914D02*
X37171286Y-91785295D01*
X37171286Y-91785295D02*
X37218905Y-91690057D01*
X37218905Y-91690057D02*
X37266524Y-91642438D01*
X37266524Y-91642438D02*
X37361762Y-91594819D01*
X37361762Y-91594819D02*
X37552238Y-91594819D01*
X37552238Y-91594819D02*
X37647476Y-91642438D01*
X37647476Y-91642438D02*
X37695095Y-91690057D01*
X37695095Y-91690057D02*
X37742714Y-91785295D01*
X37742714Y-91785295D02*
X37742714Y-91832914D01*
X37742714Y-91832914D02*
X37695095Y-91928152D01*
X37695095Y-91928152D02*
X37647476Y-91975771D01*
X37647476Y-91975771D02*
X37552238Y-92023390D01*
X37552238Y-92023390D02*
X37361762Y-92023390D01*
X37361762Y-92023390D02*
X37266524Y-92071009D01*
X37266524Y-92071009D02*
X37218905Y-92118628D01*
X37218905Y-92118628D02*
X37171286Y-92213866D01*
X37171286Y-92213866D02*
X37171286Y-92404342D01*
X37171286Y-92404342D02*
X37218905Y-92499580D01*
X37218905Y-92499580D02*
X37266524Y-92547200D01*
X37266524Y-92547200D02*
X37361762Y-92594819D01*
X37361762Y-92594819D02*
X37552238Y-92594819D01*
X37552238Y-92594819D02*
X37647476Y-92547200D01*
X37647476Y-92547200D02*
X37695095Y-92499580D01*
X37695095Y-92499580D02*
X37742714Y-92404342D01*
X37742714Y-92404342D02*
X37742714Y-92213866D01*
X37742714Y-92213866D02*
X37695095Y-92118628D01*
X37695095Y-92118628D02*
X37647476Y-92071009D01*
X37647476Y-92071009D02*
X37552238Y-92023390D01*
X35679142Y-95039580D02*
X35631523Y-95087200D01*
X35631523Y-95087200D02*
X35488666Y-95134819D01*
X35488666Y-95134819D02*
X35393428Y-95134819D01*
X35393428Y-95134819D02*
X35250571Y-95087200D01*
X35250571Y-95087200D02*
X35155333Y-94991961D01*
X35155333Y-94991961D02*
X35107714Y-94896723D01*
X35107714Y-94896723D02*
X35060095Y-94706247D01*
X35060095Y-94706247D02*
X35060095Y-94563390D01*
X35060095Y-94563390D02*
X35107714Y-94372914D01*
X35107714Y-94372914D02*
X35155333Y-94277676D01*
X35155333Y-94277676D02*
X35250571Y-94182438D01*
X35250571Y-94182438D02*
X35393428Y-94134819D01*
X35393428Y-94134819D02*
X35488666Y-94134819D01*
X35488666Y-94134819D02*
X35631523Y-94182438D01*
X35631523Y-94182438D02*
X35679142Y-94230057D01*
X36631523Y-95134819D02*
X36060095Y-95134819D01*
X36345809Y-95134819D02*
X36345809Y-94134819D01*
X36345809Y-94134819D02*
X36250571Y-94277676D01*
X36250571Y-94277676D02*
X36155333Y-94372914D01*
X36155333Y-94372914D02*
X36060095Y-94420533D01*
X37583904Y-95134819D02*
X37012476Y-95134819D01*
X37298190Y-95134819D02*
X37298190Y-94134819D01*
X37298190Y-94134819D02*
X37202952Y-94277676D01*
X37202952Y-94277676D02*
X37107714Y-94372914D01*
X37107714Y-94372914D02*
X37012476Y-94420533D01*
X37300905Y-80113819D02*
X37300905Y-79113819D01*
X37300905Y-79113819D02*
X37539000Y-79113819D01*
X37539000Y-79113819D02*
X37681857Y-79161438D01*
X37681857Y-79161438D02*
X37777095Y-79256676D01*
X37777095Y-79256676D02*
X37824714Y-79351914D01*
X37824714Y-79351914D02*
X37872333Y-79542390D01*
X37872333Y-79542390D02*
X37872333Y-79685247D01*
X37872333Y-79685247D02*
X37824714Y-79875723D01*
X37824714Y-79875723D02*
X37777095Y-79970961D01*
X37777095Y-79970961D02*
X37681857Y-80066200D01*
X37681857Y-80066200D02*
X37539000Y-80113819D01*
X37539000Y-80113819D02*
X37300905Y-80113819D01*
X38205667Y-79113819D02*
X38824714Y-79113819D01*
X38824714Y-79113819D02*
X38491381Y-79494771D01*
X38491381Y-79494771D02*
X38634238Y-79494771D01*
X38634238Y-79494771D02*
X38729476Y-79542390D01*
X38729476Y-79542390D02*
X38777095Y-79590009D01*
X38777095Y-79590009D02*
X38824714Y-79685247D01*
X38824714Y-79685247D02*
X38824714Y-79923342D01*
X38824714Y-79923342D02*
X38777095Y-80018580D01*
X38777095Y-80018580D02*
X38729476Y-80066200D01*
X38729476Y-80066200D02*
X38634238Y-80113819D01*
X38634238Y-80113819D02*
X38348524Y-80113819D01*
X38348524Y-80113819D02*
X38253286Y-80066200D01*
X38253286Y-80066200D02*
X38205667Y-80018580D01*
X17841833Y-78104819D02*
X17508500Y-77628628D01*
X17270405Y-78104819D02*
X17270405Y-77104819D01*
X17270405Y-77104819D02*
X17651357Y-77104819D01*
X17651357Y-77104819D02*
X17746595Y-77152438D01*
X17746595Y-77152438D02*
X17794214Y-77200057D01*
X17794214Y-77200057D02*
X17841833Y-77295295D01*
X17841833Y-77295295D02*
X17841833Y-77438152D01*
X17841833Y-77438152D02*
X17794214Y-77533390D01*
X17794214Y-77533390D02*
X17746595Y-77581009D01*
X17746595Y-77581009D02*
X17651357Y-77628628D01*
X17651357Y-77628628D02*
X17270405Y-77628628D01*
X18698976Y-77438152D02*
X18698976Y-78104819D01*
X18460881Y-77057200D02*
X18222786Y-77771485D01*
X18222786Y-77771485D02*
X18841833Y-77771485D01*
X23749095Y-78679819D02*
X23749095Y-79489342D01*
X23749095Y-79489342D02*
X23796714Y-79584580D01*
X23796714Y-79584580D02*
X23844333Y-79632200D01*
X23844333Y-79632200D02*
X23939571Y-79679819D01*
X23939571Y-79679819D02*
X24130047Y-79679819D01*
X24130047Y-79679819D02*
X24225285Y-79632200D01*
X24225285Y-79632200D02*
X24272904Y-79584580D01*
X24272904Y-79584580D02*
X24320523Y-79489342D01*
X24320523Y-79489342D02*
X24320523Y-78679819D01*
X25320523Y-79679819D02*
X24749095Y-79679819D01*
X25034809Y-79679819D02*
X25034809Y-78679819D01*
X25034809Y-78679819D02*
X24939571Y-78822676D01*
X24939571Y-78822676D02*
X24844333Y-78917914D01*
X24844333Y-78917914D02*
X24749095Y-78965533D01*
X35551819Y-87186904D02*
X36361342Y-87186904D01*
X36361342Y-87186904D02*
X36456580Y-87139285D01*
X36456580Y-87139285D02*
X36504200Y-87091666D01*
X36504200Y-87091666D02*
X36551819Y-86996428D01*
X36551819Y-86996428D02*
X36551819Y-86805952D01*
X36551819Y-86805952D02*
X36504200Y-86710714D01*
X36504200Y-86710714D02*
X36456580Y-86663095D01*
X36456580Y-86663095D02*
X36361342Y-86615476D01*
X36361342Y-86615476D02*
X35551819Y-86615476D01*
X35647057Y-86186904D02*
X35599438Y-86139285D01*
X35599438Y-86139285D02*
X35551819Y-86044047D01*
X35551819Y-86044047D02*
X35551819Y-85805952D01*
X35551819Y-85805952D02*
X35599438Y-85710714D01*
X35599438Y-85710714D02*
X35647057Y-85663095D01*
X35647057Y-85663095D02*
X35742295Y-85615476D01*
X35742295Y-85615476D02*
X35837533Y-85615476D01*
X35837533Y-85615476D02*
X35980390Y-85663095D01*
X35980390Y-85663095D02*
X36551819Y-86234523D01*
X36551819Y-86234523D02*
X36551819Y-85615476D01*
D11*
X30891238Y-74391556D02*
X30891238Y-74996318D01*
X30467905Y-73726318D02*
X30891238Y-74391556D01*
X30891238Y-74391556D02*
X31314572Y-73726318D01*
X32403143Y-74996318D02*
X31677428Y-74996318D01*
X32040285Y-74996318D02*
X32040285Y-73726318D01*
X32040285Y-73726318D02*
X31919333Y-73907746D01*
X31919333Y-73907746D02*
X31798381Y-74028699D01*
X31798381Y-74028699D02*
X31677428Y-74089175D01*
D10*
X18565905Y-53214819D02*
X18565905Y-52214819D01*
X18565905Y-52214819D02*
X18804000Y-52214819D01*
X18804000Y-52214819D02*
X18946857Y-52262438D01*
X18946857Y-52262438D02*
X19042095Y-52357676D01*
X19042095Y-52357676D02*
X19089714Y-52452914D01*
X19089714Y-52452914D02*
X19137333Y-52643390D01*
X19137333Y-52643390D02*
X19137333Y-52786247D01*
X19137333Y-52786247D02*
X19089714Y-52976723D01*
X19089714Y-52976723D02*
X19042095Y-53071961D01*
X19042095Y-53071961D02*
X18946857Y-53167200D01*
X18946857Y-53167200D02*
X18804000Y-53214819D01*
X18804000Y-53214819D02*
X18565905Y-53214819D01*
X20089714Y-53214819D02*
X19518286Y-53214819D01*
X19804000Y-53214819D02*
X19804000Y-52214819D01*
X19804000Y-52214819D02*
X19708762Y-52357676D01*
X19708762Y-52357676D02*
X19613524Y-52452914D01*
X19613524Y-52452914D02*
X19518286Y-52500533D01*
X35126666Y-95726819D02*
X35126666Y-96441104D01*
X35126666Y-96441104D02*
X35079047Y-96583961D01*
X35079047Y-96583961D02*
X34983809Y-96679200D01*
X34983809Y-96679200D02*
X34840952Y-96726819D01*
X34840952Y-96726819D02*
X34745714Y-96726819D01*
X36079047Y-95726819D02*
X35602857Y-95726819D01*
X35602857Y-95726819D02*
X35555238Y-96203009D01*
X35555238Y-96203009D02*
X35602857Y-96155390D01*
X35602857Y-96155390D02*
X35698095Y-96107771D01*
X35698095Y-96107771D02*
X35936190Y-96107771D01*
X35936190Y-96107771D02*
X36031428Y-96155390D01*
X36031428Y-96155390D02*
X36079047Y-96203009D01*
X36079047Y-96203009D02*
X36126666Y-96298247D01*
X36126666Y-96298247D02*
X36126666Y-96536342D01*
X36126666Y-96536342D02*
X36079047Y-96631580D01*
X36079047Y-96631580D02*
X36031428Y-96679200D01*
X36031428Y-96679200D02*
X35936190Y-96726819D01*
X35936190Y-96726819D02*
X35698095Y-96726819D01*
X35698095Y-96726819D02*
X35602857Y-96679200D01*
X35602857Y-96679200D02*
X35555238Y-96631580D01*
X21614333Y-73352819D02*
X21281000Y-72876628D01*
X21042905Y-73352819D02*
X21042905Y-72352819D01*
X21042905Y-72352819D02*
X21423857Y-72352819D01*
X21423857Y-72352819D02*
X21519095Y-72400438D01*
X21519095Y-72400438D02*
X21566714Y-72448057D01*
X21566714Y-72448057D02*
X21614333Y-72543295D01*
X21614333Y-72543295D02*
X21614333Y-72686152D01*
X21614333Y-72686152D02*
X21566714Y-72781390D01*
X21566714Y-72781390D02*
X21519095Y-72829009D01*
X21519095Y-72829009D02*
X21423857Y-72876628D01*
X21423857Y-72876628D02*
X21042905Y-72876628D01*
X22566714Y-73352819D02*
X21995286Y-73352819D01*
X22281000Y-73352819D02*
X22281000Y-72352819D01*
X22281000Y-72352819D02*
X22185762Y-72495676D01*
X22185762Y-72495676D02*
X22090524Y-72590914D01*
X22090524Y-72590914D02*
X21995286Y-72638533D01*
X17295905Y-73446819D02*
X17295905Y-72446819D01*
X17295905Y-72446819D02*
X17534000Y-72446819D01*
X17534000Y-72446819D02*
X17676857Y-72494438D01*
X17676857Y-72494438D02*
X17772095Y-72589676D01*
X17772095Y-72589676D02*
X17819714Y-72684914D01*
X17819714Y-72684914D02*
X17867333Y-72875390D01*
X17867333Y-72875390D02*
X17867333Y-73018247D01*
X17867333Y-73018247D02*
X17819714Y-73208723D01*
X17819714Y-73208723D02*
X17772095Y-73303961D01*
X17772095Y-73303961D02*
X17676857Y-73399200D01*
X17676857Y-73399200D02*
X17534000Y-73446819D01*
X17534000Y-73446819D02*
X17295905Y-73446819D01*
X18248286Y-72542057D02*
X18295905Y-72494438D01*
X18295905Y-72494438D02*
X18391143Y-72446819D01*
X18391143Y-72446819D02*
X18629238Y-72446819D01*
X18629238Y-72446819D02*
X18724476Y-72494438D01*
X18724476Y-72494438D02*
X18772095Y-72542057D01*
X18772095Y-72542057D02*
X18819714Y-72637295D01*
X18819714Y-72637295D02*
X18819714Y-72732533D01*
X18819714Y-72732533D02*
X18772095Y-72875390D01*
X18772095Y-72875390D02*
X18200667Y-73446819D01*
X18200667Y-73446819D02*
X18819714Y-73446819D01*
X20466666Y-95324819D02*
X20466666Y-96039104D01*
X20466666Y-96039104D02*
X20419047Y-96181961D01*
X20419047Y-96181961D02*
X20323809Y-96277200D01*
X20323809Y-96277200D02*
X20180952Y-96324819D01*
X20180952Y-96324819D02*
X20085714Y-96324819D01*
X21466666Y-96324819D02*
X20895238Y-96324819D01*
X21180952Y-96324819D02*
X21180952Y-95324819D01*
X21180952Y-95324819D02*
X21085714Y-95467676D01*
X21085714Y-95467676D02*
X20990476Y-95562914D01*
X20990476Y-95562914D02*
X20895238Y-95610533D01*
X19558095Y-88862819D02*
X19558095Y-89672342D01*
X19558095Y-89672342D02*
X19605714Y-89767580D01*
X19605714Y-89767580D02*
X19653333Y-89815200D01*
X19653333Y-89815200D02*
X19748571Y-89862819D01*
X19748571Y-89862819D02*
X19939047Y-89862819D01*
X19939047Y-89862819D02*
X20034285Y-89815200D01*
X20034285Y-89815200D02*
X20081904Y-89767580D01*
X20081904Y-89767580D02*
X20129523Y-89672342D01*
X20129523Y-89672342D02*
X20129523Y-88862819D01*
X20510476Y-88862819D02*
X21129523Y-88862819D01*
X21129523Y-88862819D02*
X20796190Y-89243771D01*
X20796190Y-89243771D02*
X20939047Y-89243771D01*
X20939047Y-89243771D02*
X21034285Y-89291390D01*
X21034285Y-89291390D02*
X21081904Y-89339009D01*
X21081904Y-89339009D02*
X21129523Y-89434247D01*
X21129523Y-89434247D02*
X21129523Y-89672342D01*
X21129523Y-89672342D02*
X21081904Y-89767580D01*
X21081904Y-89767580D02*
X21034285Y-89815200D01*
X21034285Y-89815200D02*
X20939047Y-89862819D01*
X20939047Y-89862819D02*
X20653333Y-89862819D01*
X20653333Y-89862819D02*
X20558095Y-89815200D01*
X20558095Y-89815200D02*
X20510476Y-89767580D01*
D11*
X21196856Y-64582318D02*
X21196856Y-63312318D01*
X21196856Y-63312318D02*
X21680666Y-63312318D01*
X21680666Y-63312318D02*
X21801618Y-63372794D01*
X21801618Y-63372794D02*
X21862095Y-63433270D01*
X21862095Y-63433270D02*
X21922571Y-63554222D01*
X21922571Y-63554222D02*
X21922571Y-63735651D01*
X21922571Y-63735651D02*
X21862095Y-63856603D01*
X21862095Y-63856603D02*
X21801618Y-63917080D01*
X21801618Y-63917080D02*
X21680666Y-63977556D01*
X21680666Y-63977556D02*
X21196856Y-63977556D01*
X22406380Y-64521842D02*
X22587809Y-64582318D01*
X22587809Y-64582318D02*
X22890190Y-64582318D01*
X22890190Y-64582318D02*
X23011142Y-64521842D01*
X23011142Y-64521842D02*
X23071618Y-64461365D01*
X23071618Y-64461365D02*
X23132095Y-64340413D01*
X23132095Y-64340413D02*
X23132095Y-64219461D01*
X23132095Y-64219461D02*
X23071618Y-64098508D01*
X23071618Y-64098508D02*
X23011142Y-64038032D01*
X23011142Y-64038032D02*
X22890190Y-63977556D01*
X22890190Y-63977556D02*
X22648285Y-63917080D01*
X22648285Y-63917080D02*
X22527333Y-63856603D01*
X22527333Y-63856603D02*
X22466856Y-63796127D01*
X22466856Y-63796127D02*
X22406380Y-63675175D01*
X22406380Y-63675175D02*
X22406380Y-63554222D01*
X22406380Y-63554222D02*
X22466856Y-63433270D01*
X22466856Y-63433270D02*
X22527333Y-63372794D01*
X22527333Y-63372794D02*
X22648285Y-63312318D01*
X22648285Y-63312318D02*
X22950666Y-63312318D01*
X22950666Y-63312318D02*
X23132095Y-63372794D01*
X24341619Y-64582318D02*
X23615904Y-64582318D01*
X23978761Y-64582318D02*
X23978761Y-63312318D01*
X23978761Y-63312318D02*
X23857809Y-63493746D01*
X23857809Y-63493746D02*
X23736857Y-63614699D01*
X23736857Y-63614699D02*
X23615904Y-63675175D01*
D10*
X29048666Y-86913819D02*
X29048666Y-87628104D01*
X29048666Y-87628104D02*
X29001047Y-87770961D01*
X29001047Y-87770961D02*
X28905809Y-87866200D01*
X28905809Y-87866200D02*
X28762952Y-87913819D01*
X28762952Y-87913819D02*
X28667714Y-87913819D01*
X29429619Y-86913819D02*
X30048666Y-86913819D01*
X30048666Y-86913819D02*
X29715333Y-87294771D01*
X29715333Y-87294771D02*
X29858190Y-87294771D01*
X29858190Y-87294771D02*
X29953428Y-87342390D01*
X29953428Y-87342390D02*
X30001047Y-87390009D01*
X30001047Y-87390009D02*
X30048666Y-87485247D01*
X30048666Y-87485247D02*
X30048666Y-87723342D01*
X30048666Y-87723342D02*
X30001047Y-87818580D01*
X30001047Y-87818580D02*
X29953428Y-87866200D01*
X29953428Y-87866200D02*
X29858190Y-87913819D01*
X29858190Y-87913819D02*
X29572476Y-87913819D01*
X29572476Y-87913819D02*
X29477238Y-87866200D01*
X29477238Y-87866200D02*
X29429619Y-87818580D01*
D11*
X39962667Y-55946318D02*
X39962667Y-56853461D01*
X39962667Y-56853461D02*
X39902190Y-57034889D01*
X39902190Y-57034889D02*
X39781238Y-57155842D01*
X39781238Y-57155842D02*
X39599809Y-57216318D01*
X39599809Y-57216318D02*
X39478857Y-57216318D01*
X40506952Y-56067270D02*
X40567428Y-56006794D01*
X40567428Y-56006794D02*
X40688381Y-55946318D01*
X40688381Y-55946318D02*
X40990762Y-55946318D01*
X40990762Y-55946318D02*
X41111714Y-56006794D01*
X41111714Y-56006794D02*
X41172190Y-56067270D01*
X41172190Y-56067270D02*
X41232667Y-56188222D01*
X41232667Y-56188222D02*
X41232667Y-56309175D01*
X41232667Y-56309175D02*
X41172190Y-56490603D01*
X41172190Y-56490603D02*
X40446476Y-57216318D01*
X40446476Y-57216318D02*
X41232667Y-57216318D01*
D12*
X44704000Y-103505000D02*
X50800000Y-103505000D01*
X50800000Y-103505000D02*
X50800000Y-93599000D01*
X50800000Y-93599000D02*
X44704000Y-93599000D01*
X44704000Y-93599000D02*
X44704000Y-103505000D01*
D13*
X51652000Y-99802000D02*
G75*
G03*
X51652000Y-99802000I-150000J0D01*
G01*
D14*
X16381000Y-84322779D02*
X16381000Y-83997221D01*
X17401000Y-84322779D02*
X17401000Y-83997221D01*
X18286000Y-84322779D02*
X18286000Y-83997221D01*
X19306000Y-84322779D02*
X19306000Y-83997221D01*
X29716000Y-83840279D02*
X29716000Y-83514721D01*
X30736000Y-83840279D02*
X30736000Y-83514721D01*
X31621000Y-83840279D02*
X31621000Y-83514721D01*
X32641000Y-83840279D02*
X32641000Y-83514721D01*
X33526000Y-83840279D02*
X33526000Y-83514721D01*
X34546000Y-83840279D02*
X34546000Y-83514721D01*
X25529000Y-77037721D02*
X25529000Y-77363279D01*
X24509000Y-77037721D02*
X24509000Y-77363279D01*
X21846000Y-77012221D02*
X21846000Y-77337779D01*
X20826000Y-77012221D02*
X20826000Y-77337779D01*
X39812279Y-92650000D02*
X39486721Y-92650000D01*
X39812279Y-91630000D02*
X39486721Y-91630000D01*
X39812279Y-95190000D02*
X39486721Y-95190000D01*
X39812279Y-94170000D02*
X39486721Y-94170000D01*
X38669000Y-76549000D02*
X37259000Y-76549000D01*
X37259000Y-78869000D02*
X39289000Y-78869000D01*
X37259000Y-78869000D02*
X37259000Y-78209000D01*
X37259000Y-77209000D02*
X37259000Y-76549000D01*
X17845721Y-78570000D02*
X18171279Y-78570000D01*
X17845721Y-79590000D02*
X18171279Y-79590000D01*
D10*
X20761000Y-80075000D02*
X26736000Y-80075000D01*
X22286000Y-86975000D02*
X26736000Y-86975000D01*
D14*
X36937000Y-86425000D02*
X36937000Y-89875000D01*
X36937000Y-86425000D02*
X36937000Y-84475000D01*
X42057000Y-86425000D02*
X42057000Y-88375000D01*
X42057000Y-86425000D02*
X42057000Y-84475000D01*
D15*
X34036000Y-75575000D02*
X34036000Y-75575000D01*
X34036000Y-75575000D02*
X28996000Y-75575000D01*
X33996000Y-78775000D02*
X33996000Y-78775000D01*
X33996000Y-78775000D02*
X28996000Y-78775000D01*
X28996000Y-78775000D02*
X33996000Y-78775000D01*
X28996000Y-78775000D02*
X28996000Y-78775000D01*
X28996000Y-75575000D02*
X34036000Y-75575000D01*
X28996000Y-75575000D02*
X28996000Y-75575000D01*
D14*
X17694000Y-53760000D02*
X17694000Y-55460000D01*
X17694000Y-53760000D02*
X20354000Y-53760000D01*
X17694000Y-55460000D02*
X20354000Y-55460000D01*
X26360000Y-97072000D02*
X26360000Y-98322000D01*
X26650000Y-97362000D02*
X26650000Y-103332000D01*
X26650000Y-103332000D02*
X44270000Y-103332000D01*
X26660000Y-97372000D02*
X26660000Y-98122000D01*
X26660000Y-98122000D02*
X28460000Y-98122000D01*
X26660000Y-99622000D02*
X27410000Y-99622000D01*
X27410000Y-99622000D02*
X27410000Y-102572000D01*
X27410000Y-102572000D02*
X35460000Y-102572000D01*
X27610000Y-97072000D02*
X26360000Y-97072000D01*
X28460000Y-97372000D02*
X26660000Y-97372000D01*
X28460000Y-98122000D02*
X28460000Y-97372000D01*
X29960000Y-97372000D02*
X29960000Y-98122000D01*
X29960000Y-98122000D02*
X40960000Y-98122000D01*
X40960000Y-97372000D02*
X29960000Y-97372000D01*
X40960000Y-98122000D02*
X40960000Y-97372000D01*
X42460000Y-97372000D02*
X42460000Y-98122000D01*
X42460000Y-98122000D02*
X44260000Y-98122000D01*
X43510000Y-99622000D02*
X43510000Y-102572000D01*
X43510000Y-102572000D02*
X35460000Y-102572000D01*
X44260000Y-97372000D02*
X42460000Y-97372000D01*
X44260000Y-98122000D02*
X44260000Y-97372000D01*
X44260000Y-99622000D02*
X43510000Y-99622000D01*
X44270000Y-97362000D02*
X26650000Y-97362000D01*
X44270000Y-103332000D02*
X44270000Y-97362000D01*
X22018258Y-74944500D02*
X21543742Y-74944500D01*
X22018258Y-73899500D02*
X21543742Y-73899500D01*
X16549000Y-73687000D02*
X16549000Y-75157000D01*
X16549000Y-75157000D02*
X18834000Y-75157000D01*
X18834000Y-73687000D02*
X16549000Y-73687000D01*
X16650000Y-102490000D02*
X16650000Y-104230000D01*
X16650000Y-104230000D02*
X18150000Y-104230000D01*
X16890000Y-96870000D02*
X16890000Y-103990000D01*
X16890000Y-96870000D02*
X24710000Y-96870000D01*
X16890000Y-102430000D02*
X24710000Y-102430000D01*
X16890000Y-103990000D02*
X24710000Y-103990000D01*
X24710000Y-96870000D02*
X24710000Y-103990000D01*
X17618000Y-99722000D02*
G75*
G03*
X17617891Y-100937742I1432000J-608000D01*
G01*
X19658000Y-98898000D02*
G75*
G03*
X18442258Y-98897891I-608000J-1432000D01*
G01*
X18442000Y-101761999D02*
G75*
G03*
X19077011Y-101885492I607998J1431987D01*
G01*
X19050000Y-101884999D02*
G75*
G03*
X19657587Y-101761384I0J1554999D01*
G01*
X20482000Y-100938000D02*
G75*
G03*
X20482109Y-99722258I-1432003J607999D01*
G01*
X24105000Y-100330000D02*
G75*
G03*
X24105000Y-100330000I-1555000J0D01*
G01*
D12*
X18320000Y-90190000D02*
X22320000Y-90190000D01*
X18320000Y-95230000D02*
X22320000Y-95230000D01*
D16*
X15975000Y-90215000D02*
G75*
G03*
X15975000Y-90215000I-100000J0D01*
G01*
X16214000Y-58308000D02*
X16214000Y-58308000D01*
X16214000Y-58508000D02*
X16214000Y-58508000D01*
D15*
X16864000Y-60508000D02*
X16864000Y-67508000D01*
X20114000Y-57258000D02*
X26114000Y-57258000D01*
X20114000Y-70758000D02*
X26114000Y-70758000D01*
X29364000Y-60508000D02*
X29364000Y-67508000D01*
D16*
X16214000Y-58508000D02*
G75*
G03*
X16214000Y-58308000I0J100000D01*
G01*
X16214000Y-58308000D02*
G75*
G03*
X16214000Y-58508000I0J-100000D01*
G01*
D14*
X26292000Y-88524000D02*
X27617000Y-88524000D01*
X27617000Y-88459000D02*
X27617000Y-88524000D01*
X27617000Y-88459000D02*
X31147000Y-88459000D01*
X27617000Y-94864000D02*
X27617000Y-94929000D01*
X27617000Y-94929000D02*
X31147000Y-94929000D01*
X31147000Y-88459000D02*
X31147000Y-88524000D01*
X31147000Y-94864000D02*
X31147000Y-94929000D01*
D15*
X31386000Y-58778000D02*
X31386000Y-66778000D01*
X31386000Y-66778000D02*
X40386000Y-73078000D01*
X40386000Y-52478000D02*
X31386000Y-58778000D01*
X40386000Y-73078000D02*
X49386000Y-66778000D01*
X49386000Y-58778000D02*
X40386000Y-52478000D01*
X49386000Y-66778000D02*
X49386000Y-58778000D01*
D16*
X49886000Y-62578000D02*
X49886000Y-62578000D01*
X49886000Y-62778000D02*
X49886000Y-62778000D01*
X49886000Y-62778000D02*
G75*
G03*
X49886000Y-62578000I0J100000D01*
G01*
X49886000Y-62578000D02*
G75*
G03*
X49886000Y-62778000I0J-100000D01*
G01*
M02*
