G04 #@! TF.GenerationSoftware,KiCad,Pcbnew,7.0.5*
G04 #@! TF.CreationDate,2023-07-03T11:33:58+02:00*
G04 #@! TF.ProjectId,STM32CAN,53544d33-3243-4414-9e2e-6b696361645f,rev?*
G04 #@! TF.SameCoordinates,Original*
G04 #@! TF.FileFunction,Soldermask,Bot*
G04 #@! TF.FilePolarity,Negative*
%FSLAX46Y46*%
G04 Gerber Fmt 4.6, Leading zero omitted, Abs format (unit mm)*
G04 Created by KiCad (PCBNEW 7.0.5) date 2023-07-03 11:33:58*
%MOMM*%
%LPD*%
G01*
G04 APERTURE LIST*
G04 APERTURE END LIST*
G36*
X47789188Y-100550396D02*
G01*
X47817761Y-100550396D01*
X47850524Y-100558471D01*
X47893445Y-100564122D01*
X47922824Y-100576291D01*
X47945467Y-100581872D01*
X47979797Y-100599890D01*
X48025250Y-100618717D01*
X48045987Y-100634629D01*
X48061925Y-100642994D01*
X48094509Y-100671861D01*
X48138434Y-100705566D01*
X48150918Y-100721835D01*
X48160373Y-100730212D01*
X48187487Y-100769494D01*
X48225283Y-100818750D01*
X48230979Y-100832502D01*
X48235089Y-100838456D01*
X48252917Y-100885465D01*
X48279878Y-100950555D01*
X48281088Y-100959746D01*
X48281727Y-100961431D01*
X48286676Y-101002196D01*
X48298500Y-101092000D01*
X48286674Y-101181819D01*
X48281727Y-101222568D01*
X48281088Y-101224252D01*
X48279878Y-101233445D01*
X48252912Y-101298545D01*
X48235089Y-101345543D01*
X48230980Y-101351495D01*
X48225283Y-101365250D01*
X48187480Y-101414514D01*
X48160373Y-101453787D01*
X48150920Y-101462161D01*
X48138434Y-101478434D01*
X48094501Y-101512144D01*
X48061925Y-101541005D01*
X48045991Y-101549367D01*
X48025250Y-101565283D01*
X47979788Y-101584113D01*
X47945467Y-101602127D01*
X47922829Y-101607706D01*
X47893445Y-101619878D01*
X47850522Y-101625529D01*
X47817761Y-101633604D01*
X47789188Y-101633604D01*
X47752000Y-101638500D01*
X47714812Y-101633604D01*
X47686239Y-101633604D01*
X47653477Y-101625528D01*
X47610555Y-101619878D01*
X47581172Y-101607707D01*
X47558532Y-101602127D01*
X47524206Y-101584111D01*
X47478750Y-101565283D01*
X47458010Y-101549369D01*
X47442074Y-101541005D01*
X47409491Y-101512138D01*
X47365566Y-101478434D01*
X47353081Y-101462164D01*
X47343626Y-101453787D01*
X47316509Y-101414501D01*
X47278717Y-101365250D01*
X47273021Y-101351499D01*
X47268910Y-101345543D01*
X47251075Y-101298516D01*
X47224122Y-101233445D01*
X47222912Y-101224256D01*
X47222272Y-101222568D01*
X47217311Y-101181717D01*
X47205500Y-101092000D01*
X47217310Y-101002290D01*
X47222272Y-100961431D01*
X47222912Y-100959742D01*
X47224122Y-100950555D01*
X47251070Y-100885494D01*
X47268910Y-100838456D01*
X47273022Y-100832498D01*
X47278717Y-100818750D01*
X47316502Y-100769507D01*
X47343626Y-100730212D01*
X47353084Y-100721832D01*
X47365566Y-100705566D01*
X47409482Y-100671867D01*
X47442074Y-100642994D01*
X47458014Y-100634627D01*
X47478750Y-100618717D01*
X47524197Y-100599892D01*
X47558532Y-100581872D01*
X47581176Y-100576290D01*
X47610555Y-100564122D01*
X47653475Y-100558471D01*
X47686239Y-100550396D01*
X47714812Y-100550396D01*
X47752000Y-100545500D01*
X47789188Y-100550396D01*
G37*
G36*
X20269517Y-99082882D02*
G01*
X20286062Y-99093938D01*
X20297118Y-99110483D01*
X20301000Y-99130000D01*
X20301000Y-101530000D01*
X20297118Y-101549517D01*
X20286062Y-101566062D01*
X20269517Y-101577118D01*
X20250000Y-101581000D01*
X17850000Y-101581000D01*
X17830483Y-101577118D01*
X17813938Y-101566062D01*
X17802882Y-101549517D01*
X17799000Y-101530000D01*
X17799000Y-99130000D01*
X17802882Y-99110483D01*
X17813938Y-99093938D01*
X17830483Y-99082882D01*
X17850000Y-99079000D01*
X20250000Y-99079000D01*
X20269517Y-99082882D01*
G37*
G36*
X22603720Y-99083700D02*
G01*
X22653273Y-99083700D01*
X22707891Y-99092814D01*
X22767234Y-99098006D01*
X22813834Y-99110492D01*
X22856997Y-99117695D01*
X22914900Y-99137573D01*
X22977867Y-99154445D01*
X23016438Y-99172430D01*
X23052349Y-99184759D01*
X23111347Y-99216687D01*
X23175500Y-99246602D01*
X23205701Y-99267749D01*
X23233995Y-99283061D01*
X23291590Y-99327889D01*
X23354127Y-99371678D01*
X23376167Y-99393718D01*
X23396987Y-99409923D01*
X23450470Y-99468021D01*
X23508322Y-99525873D01*
X23522924Y-99546727D01*
X23536878Y-99561885D01*
X23583430Y-99633139D01*
X23633398Y-99704500D01*
X23641738Y-99722385D01*
X23649843Y-99734791D01*
X23686635Y-99818668D01*
X23725555Y-99902133D01*
X23729179Y-99915658D01*
X23732813Y-99923943D01*
X23757144Y-100020025D01*
X23781994Y-100112766D01*
X23782714Y-100121000D01*
X23783515Y-100124162D01*
X23792893Y-100237345D01*
X23801000Y-100330000D01*
X23792891Y-100422681D01*
X23783515Y-100535837D01*
X23782714Y-100538997D01*
X23781994Y-100547234D01*
X23757139Y-100639991D01*
X23732813Y-100736056D01*
X23729179Y-100744338D01*
X23725555Y-100757867D01*
X23686627Y-100841347D01*
X23649843Y-100925208D01*
X23641739Y-100937611D01*
X23633398Y-100955500D01*
X23583421Y-101026874D01*
X23536878Y-101098114D01*
X23522927Y-101113268D01*
X23508322Y-101134127D01*
X23450458Y-101191990D01*
X23396987Y-101250076D01*
X23376172Y-101266276D01*
X23354127Y-101288322D01*
X23291577Y-101332119D01*
X23233995Y-101376938D01*
X23205707Y-101392246D01*
X23175500Y-101413398D01*
X23111334Y-101443318D01*
X23052349Y-101475240D01*
X23016446Y-101487565D01*
X22977867Y-101505555D01*
X22914887Y-101522430D01*
X22856997Y-101542304D01*
X22813842Y-101549505D01*
X22767234Y-101561994D01*
X22707888Y-101567186D01*
X22653273Y-101576300D01*
X22603720Y-101576300D01*
X22550000Y-101581000D01*
X22496280Y-101576300D01*
X22446727Y-101576300D01*
X22392111Y-101567186D01*
X22332766Y-101561994D01*
X22286159Y-101549505D01*
X22243002Y-101542304D01*
X22185108Y-101522429D01*
X22122133Y-101505555D01*
X22083556Y-101487566D01*
X22047650Y-101475240D01*
X21988658Y-101443315D01*
X21924500Y-101413398D01*
X21894295Y-101392248D01*
X21866004Y-101376938D01*
X21808412Y-101332112D01*
X21745873Y-101288322D01*
X21723831Y-101266280D01*
X21703012Y-101250076D01*
X21649528Y-101191977D01*
X21591678Y-101134127D01*
X21577075Y-101113273D01*
X21563121Y-101098114D01*
X21516563Y-101026852D01*
X21466602Y-100955500D01*
X21458262Y-100937616D01*
X21450156Y-100925208D01*
X21413355Y-100841311D01*
X21374445Y-100757867D01*
X21370821Y-100744344D01*
X21367186Y-100736056D01*
X21342842Y-100639923D01*
X21318006Y-100547234D01*
X21317285Y-100539003D01*
X21316484Y-100535837D01*
X21307089Y-100422465D01*
X21299000Y-100330000D01*
X21307087Y-100237561D01*
X21316484Y-100124162D01*
X21317286Y-100120994D01*
X21318006Y-100112766D01*
X21342837Y-100020093D01*
X21367186Y-99923943D01*
X21370822Y-99915653D01*
X21374445Y-99902133D01*
X21413348Y-99818704D01*
X21450156Y-99734791D01*
X21458264Y-99722380D01*
X21466602Y-99704500D01*
X21516554Y-99633160D01*
X21563121Y-99561885D01*
X21577078Y-99546722D01*
X21591678Y-99525873D01*
X21649517Y-99468033D01*
X21703012Y-99409923D01*
X21723835Y-99393715D01*
X21745873Y-99371678D01*
X21808399Y-99327896D01*
X21866004Y-99283061D01*
X21894301Y-99267746D01*
X21924500Y-99246602D01*
X21988644Y-99216690D01*
X22047650Y-99184759D01*
X22083564Y-99172429D01*
X22122133Y-99154445D01*
X22185095Y-99137574D01*
X22243002Y-99117695D01*
X22286166Y-99110492D01*
X22332766Y-99098006D01*
X22392107Y-99092814D01*
X22446727Y-99083700D01*
X22496280Y-99083700D01*
X22550000Y-99079000D01*
X22603720Y-99083700D01*
G37*
G36*
X29878914Y-98803995D02*
G01*
X29894726Y-98810976D01*
X29902531Y-98812213D01*
X29935039Y-98828776D01*
X29980106Y-98848676D01*
X30058324Y-98926894D01*
X30078226Y-98971967D01*
X30094786Y-99004468D01*
X30096021Y-99012270D01*
X30103005Y-99028086D01*
X30111000Y-99097000D01*
X30111000Y-100547000D01*
X30103005Y-100615914D01*
X30096021Y-100631729D01*
X30094786Y-100639531D01*
X30078229Y-100672024D01*
X30058324Y-100717106D01*
X29980106Y-100795324D01*
X29935024Y-100815229D01*
X29902531Y-100831786D01*
X29894729Y-100833021D01*
X29878914Y-100840005D01*
X29810000Y-100848000D01*
X28610000Y-100848000D01*
X28541086Y-100840005D01*
X28525270Y-100833021D01*
X28517468Y-100831786D01*
X28484967Y-100815226D01*
X28439894Y-100795324D01*
X28361676Y-100717106D01*
X28341776Y-100672039D01*
X28325213Y-100639531D01*
X28323976Y-100631726D01*
X28316995Y-100615914D01*
X28309000Y-100547000D01*
X28309000Y-99097000D01*
X28316995Y-99028086D01*
X28323976Y-99012274D01*
X28325213Y-99004468D01*
X28341780Y-98971953D01*
X28361676Y-98926894D01*
X28439894Y-98848676D01*
X28484953Y-98828780D01*
X28517468Y-98812213D01*
X28525274Y-98810976D01*
X28541086Y-98803995D01*
X28610000Y-98796000D01*
X29810000Y-98796000D01*
X29878914Y-98803995D01*
G37*
G36*
X31753983Y-98800936D02*
G01*
X31804180Y-98800936D01*
X31847524Y-98810149D01*
X31885659Y-98813905D01*
X31933566Y-98828437D01*
X31988424Y-98840098D01*
X32023530Y-98855728D01*
X32054566Y-98865143D01*
X32103884Y-98891504D01*
X32160500Y-98916711D01*
X32186822Y-98935835D01*
X32210232Y-98948348D01*
X32257988Y-98987540D01*
X32312887Y-99027427D01*
X32330711Y-99047223D01*
X32346675Y-99060324D01*
X32389572Y-99112594D01*
X32438924Y-99167405D01*
X32449292Y-99185363D01*
X32458651Y-99196767D01*
X32493273Y-99261542D01*
X32533104Y-99330530D01*
X32537685Y-99344630D01*
X32541856Y-99352433D01*
X32564852Y-99428242D01*
X32591311Y-99509672D01*
X32592242Y-99518532D01*
X32593094Y-99521340D01*
X32601387Y-99605539D01*
X32611000Y-99697000D01*
X32611000Y-99947000D01*
X32601385Y-100038475D01*
X32593094Y-100122659D01*
X32592242Y-100125466D01*
X32591311Y-100134328D01*
X32564848Y-100215771D01*
X32541856Y-100291566D01*
X32537686Y-100299366D01*
X32533104Y-100313470D01*
X32493266Y-100382470D01*
X32458651Y-100447232D01*
X32449294Y-100458633D01*
X32438924Y-100476595D01*
X32389563Y-100531415D01*
X32346675Y-100583675D01*
X32330714Y-100596773D01*
X32312887Y-100616573D01*
X32257977Y-100656467D01*
X32210232Y-100695651D01*
X32186827Y-100708161D01*
X32160500Y-100727289D01*
X32103873Y-100752500D01*
X32054566Y-100778856D01*
X32023537Y-100788268D01*
X31988424Y-100803902D01*
X31933555Y-100815564D01*
X31885659Y-100830094D01*
X31847533Y-100833849D01*
X31804180Y-100843064D01*
X31753972Y-100843064D01*
X31709999Y-100847395D01*
X31666026Y-100843064D01*
X31615820Y-100843064D01*
X31572467Y-100833849D01*
X31534340Y-100830094D01*
X31486441Y-100815563D01*
X31431576Y-100803902D01*
X31396464Y-100788269D01*
X31365433Y-100778856D01*
X31316120Y-100752498D01*
X31259500Y-100727289D01*
X31233175Y-100708163D01*
X31209767Y-100695651D01*
X31162013Y-100656460D01*
X31107113Y-100616573D01*
X31089287Y-100596776D01*
X31073324Y-100583675D01*
X31030425Y-100531402D01*
X30981076Y-100476595D01*
X30970708Y-100458637D01*
X30961348Y-100447232D01*
X30926719Y-100382447D01*
X30886896Y-100313470D01*
X30882315Y-100299371D01*
X30878143Y-100291566D01*
X30855136Y-100215725D01*
X30828689Y-100134328D01*
X30827758Y-100125471D01*
X30826905Y-100122659D01*
X30818605Y-100038394D01*
X30809000Y-99947000D01*
X30809000Y-99697000D01*
X30818604Y-99605620D01*
X30826905Y-99521340D01*
X30827758Y-99518527D01*
X30828689Y-99509672D01*
X30855132Y-99428288D01*
X30878143Y-99352433D01*
X30882315Y-99344626D01*
X30886896Y-99330530D01*
X30926712Y-99261565D01*
X30961348Y-99196767D01*
X30970710Y-99185359D01*
X30981076Y-99167405D01*
X31030416Y-99112607D01*
X31073324Y-99060324D01*
X31089291Y-99047219D01*
X31107113Y-99027427D01*
X31162002Y-98987546D01*
X31209767Y-98948348D01*
X31233180Y-98935833D01*
X31259500Y-98916711D01*
X31316109Y-98891506D01*
X31365433Y-98865143D01*
X31396471Y-98855727D01*
X31431576Y-98840098D01*
X31486430Y-98828438D01*
X31534340Y-98813905D01*
X31572476Y-98810148D01*
X31615820Y-98800936D01*
X31666016Y-98800936D01*
X31710000Y-98796604D01*
X31753983Y-98800936D01*
G37*
G36*
X34253983Y-98800936D02*
G01*
X34304180Y-98800936D01*
X34347524Y-98810149D01*
X34385659Y-98813905D01*
X34433566Y-98828437D01*
X34488424Y-98840098D01*
X34523530Y-98855728D01*
X34554566Y-98865143D01*
X34603884Y-98891504D01*
X34660500Y-98916711D01*
X34686822Y-98935835D01*
X34710232Y-98948348D01*
X34757988Y-98987540D01*
X34812887Y-99027427D01*
X34830711Y-99047223D01*
X34846675Y-99060324D01*
X34889572Y-99112594D01*
X34938924Y-99167405D01*
X34949292Y-99185363D01*
X34958651Y-99196767D01*
X34993273Y-99261542D01*
X35033104Y-99330530D01*
X35037685Y-99344630D01*
X35041856Y-99352433D01*
X35064852Y-99428242D01*
X35091311Y-99509672D01*
X35092242Y-99518532D01*
X35093094Y-99521340D01*
X35101387Y-99605539D01*
X35111000Y-99697000D01*
X35111000Y-99947000D01*
X35101385Y-100038475D01*
X35093094Y-100122659D01*
X35092242Y-100125466D01*
X35091311Y-100134328D01*
X35064848Y-100215771D01*
X35041856Y-100291566D01*
X35037686Y-100299366D01*
X35033104Y-100313470D01*
X34993266Y-100382470D01*
X34958651Y-100447232D01*
X34949294Y-100458633D01*
X34938924Y-100476595D01*
X34889563Y-100531415D01*
X34846675Y-100583675D01*
X34830714Y-100596773D01*
X34812887Y-100616573D01*
X34757977Y-100656467D01*
X34710232Y-100695651D01*
X34686827Y-100708161D01*
X34660500Y-100727289D01*
X34603873Y-100752500D01*
X34554566Y-100778856D01*
X34523537Y-100788268D01*
X34488424Y-100803902D01*
X34433555Y-100815564D01*
X34385659Y-100830094D01*
X34347532Y-100833849D01*
X34304180Y-100843064D01*
X34253973Y-100843064D01*
X34210000Y-100847395D01*
X34166027Y-100843064D01*
X34115820Y-100843064D01*
X34072467Y-100833849D01*
X34034340Y-100830094D01*
X33986441Y-100815563D01*
X33931576Y-100803902D01*
X33896464Y-100788269D01*
X33865433Y-100778856D01*
X33816120Y-100752498D01*
X33759500Y-100727289D01*
X33733175Y-100708163D01*
X33709767Y-100695651D01*
X33662013Y-100656460D01*
X33607113Y-100616573D01*
X33589287Y-100596776D01*
X33573324Y-100583675D01*
X33530425Y-100531402D01*
X33481076Y-100476595D01*
X33470708Y-100458637D01*
X33461348Y-100447232D01*
X33426719Y-100382447D01*
X33386896Y-100313470D01*
X33382315Y-100299371D01*
X33378143Y-100291566D01*
X33355136Y-100215725D01*
X33328689Y-100134328D01*
X33327758Y-100125471D01*
X33326905Y-100122659D01*
X33318605Y-100038394D01*
X33309000Y-99947000D01*
X33309000Y-99697000D01*
X33318604Y-99605620D01*
X33326905Y-99521340D01*
X33327758Y-99518527D01*
X33328689Y-99509672D01*
X33355132Y-99428288D01*
X33378143Y-99352433D01*
X33382315Y-99344626D01*
X33386896Y-99330530D01*
X33426712Y-99261565D01*
X33461348Y-99196767D01*
X33470710Y-99185359D01*
X33481076Y-99167405D01*
X33530416Y-99112607D01*
X33573324Y-99060324D01*
X33589291Y-99047219D01*
X33607113Y-99027427D01*
X33662002Y-98987546D01*
X33709767Y-98948348D01*
X33733180Y-98935833D01*
X33759500Y-98916711D01*
X33816109Y-98891506D01*
X33865433Y-98865143D01*
X33896471Y-98855727D01*
X33931576Y-98840098D01*
X33986430Y-98828438D01*
X34034340Y-98813905D01*
X34072476Y-98810148D01*
X34115820Y-98800936D01*
X34166016Y-98800936D01*
X34209999Y-98796604D01*
X34253983Y-98800936D01*
G37*
G36*
X36753983Y-98800936D02*
G01*
X36804180Y-98800936D01*
X36847524Y-98810149D01*
X36885659Y-98813905D01*
X36933566Y-98828437D01*
X36988424Y-98840098D01*
X37023530Y-98855728D01*
X37054566Y-98865143D01*
X37103884Y-98891504D01*
X37160500Y-98916711D01*
X37186822Y-98935835D01*
X37210232Y-98948348D01*
X37257988Y-98987540D01*
X37312887Y-99027427D01*
X37330711Y-99047223D01*
X37346675Y-99060324D01*
X37389572Y-99112594D01*
X37438924Y-99167405D01*
X37449292Y-99185363D01*
X37458651Y-99196767D01*
X37493273Y-99261542D01*
X37533104Y-99330530D01*
X37537685Y-99344630D01*
X37541856Y-99352433D01*
X37564852Y-99428242D01*
X37591311Y-99509672D01*
X37592242Y-99518532D01*
X37593094Y-99521340D01*
X37601387Y-99605539D01*
X37611000Y-99697000D01*
X37611000Y-99947000D01*
X37601385Y-100038475D01*
X37593094Y-100122659D01*
X37592242Y-100125466D01*
X37591311Y-100134328D01*
X37564848Y-100215771D01*
X37541856Y-100291566D01*
X37537686Y-100299366D01*
X37533104Y-100313470D01*
X37493266Y-100382470D01*
X37458651Y-100447232D01*
X37449294Y-100458633D01*
X37438924Y-100476595D01*
X37389563Y-100531415D01*
X37346675Y-100583675D01*
X37330714Y-100596773D01*
X37312887Y-100616573D01*
X37257977Y-100656467D01*
X37210232Y-100695651D01*
X37186827Y-100708161D01*
X37160500Y-100727289D01*
X37103873Y-100752500D01*
X37054566Y-100778856D01*
X37023537Y-100788268D01*
X36988424Y-100803902D01*
X36933555Y-100815564D01*
X36885659Y-100830094D01*
X36847532Y-100833849D01*
X36804180Y-100843064D01*
X36753973Y-100843064D01*
X36710000Y-100847395D01*
X36666027Y-100843064D01*
X36615820Y-100843064D01*
X36572467Y-100833849D01*
X36534340Y-100830094D01*
X36486441Y-100815563D01*
X36431576Y-100803902D01*
X36396464Y-100788269D01*
X36365433Y-100778856D01*
X36316120Y-100752498D01*
X36259500Y-100727289D01*
X36233175Y-100708163D01*
X36209767Y-100695651D01*
X36162013Y-100656460D01*
X36107113Y-100616573D01*
X36089287Y-100596776D01*
X36073324Y-100583675D01*
X36030425Y-100531402D01*
X35981076Y-100476595D01*
X35970708Y-100458637D01*
X35961348Y-100447232D01*
X35926719Y-100382447D01*
X35886896Y-100313470D01*
X35882315Y-100299371D01*
X35878143Y-100291566D01*
X35855136Y-100215725D01*
X35828689Y-100134328D01*
X35827758Y-100125471D01*
X35826905Y-100122659D01*
X35818605Y-100038394D01*
X35809000Y-99947000D01*
X35809000Y-99697000D01*
X35818604Y-99605620D01*
X35826905Y-99521340D01*
X35827758Y-99518527D01*
X35828689Y-99509672D01*
X35855132Y-99428288D01*
X35878143Y-99352433D01*
X35882315Y-99344626D01*
X35886896Y-99330530D01*
X35926712Y-99261565D01*
X35961348Y-99196767D01*
X35970710Y-99185359D01*
X35981076Y-99167405D01*
X36030416Y-99112607D01*
X36073324Y-99060324D01*
X36089291Y-99047219D01*
X36107113Y-99027427D01*
X36162002Y-98987546D01*
X36209767Y-98948348D01*
X36233180Y-98935833D01*
X36259500Y-98916711D01*
X36316109Y-98891506D01*
X36365433Y-98865143D01*
X36396471Y-98855727D01*
X36431576Y-98840098D01*
X36486430Y-98828438D01*
X36534340Y-98813905D01*
X36572476Y-98810148D01*
X36615820Y-98800936D01*
X36666016Y-98800936D01*
X36710000Y-98796604D01*
X36753983Y-98800936D01*
G37*
G36*
X39253983Y-98800936D02*
G01*
X39304180Y-98800936D01*
X39347524Y-98810149D01*
X39385659Y-98813905D01*
X39433566Y-98828437D01*
X39488424Y-98840098D01*
X39523530Y-98855728D01*
X39554566Y-98865143D01*
X39603884Y-98891504D01*
X39660500Y-98916711D01*
X39686822Y-98935835D01*
X39710232Y-98948348D01*
X39757988Y-98987540D01*
X39812887Y-99027427D01*
X39830711Y-99047223D01*
X39846675Y-99060324D01*
X39889572Y-99112594D01*
X39938924Y-99167405D01*
X39949292Y-99185363D01*
X39958651Y-99196767D01*
X39993273Y-99261542D01*
X40033104Y-99330530D01*
X40037685Y-99344630D01*
X40041856Y-99352433D01*
X40064852Y-99428242D01*
X40091311Y-99509672D01*
X40092242Y-99518532D01*
X40093094Y-99521340D01*
X40101387Y-99605539D01*
X40111000Y-99697000D01*
X40111000Y-99947000D01*
X40101385Y-100038475D01*
X40093094Y-100122659D01*
X40092242Y-100125466D01*
X40091311Y-100134328D01*
X40064848Y-100215771D01*
X40041856Y-100291566D01*
X40037686Y-100299366D01*
X40033104Y-100313470D01*
X39993266Y-100382470D01*
X39958651Y-100447232D01*
X39949294Y-100458633D01*
X39938924Y-100476595D01*
X39889563Y-100531415D01*
X39846675Y-100583675D01*
X39830714Y-100596773D01*
X39812887Y-100616573D01*
X39757977Y-100656467D01*
X39710232Y-100695651D01*
X39686827Y-100708161D01*
X39660500Y-100727289D01*
X39603873Y-100752500D01*
X39554566Y-100778856D01*
X39523537Y-100788268D01*
X39488424Y-100803902D01*
X39433555Y-100815564D01*
X39385659Y-100830094D01*
X39347533Y-100833849D01*
X39304180Y-100843064D01*
X39253972Y-100843064D01*
X39209999Y-100847395D01*
X39166026Y-100843064D01*
X39115820Y-100843064D01*
X39072467Y-100833849D01*
X39034340Y-100830094D01*
X38986441Y-100815563D01*
X38931576Y-100803902D01*
X38896464Y-100788269D01*
X38865433Y-100778856D01*
X38816120Y-100752498D01*
X38759500Y-100727289D01*
X38733175Y-100708163D01*
X38709767Y-100695651D01*
X38662013Y-100656460D01*
X38607113Y-100616573D01*
X38589287Y-100596776D01*
X38573324Y-100583675D01*
X38530425Y-100531402D01*
X38481076Y-100476595D01*
X38470708Y-100458637D01*
X38461348Y-100447232D01*
X38426719Y-100382447D01*
X38386896Y-100313470D01*
X38382315Y-100299371D01*
X38378143Y-100291566D01*
X38355136Y-100215725D01*
X38328689Y-100134328D01*
X38327758Y-100125471D01*
X38326905Y-100122659D01*
X38318605Y-100038394D01*
X38309000Y-99947000D01*
X38309000Y-99697000D01*
X38318604Y-99605620D01*
X38326905Y-99521340D01*
X38327758Y-99518527D01*
X38328689Y-99509672D01*
X38355132Y-99428288D01*
X38378143Y-99352433D01*
X38382315Y-99344626D01*
X38386896Y-99330530D01*
X38426712Y-99261565D01*
X38461348Y-99196767D01*
X38470710Y-99185359D01*
X38481076Y-99167405D01*
X38530416Y-99112607D01*
X38573324Y-99060324D01*
X38589291Y-99047219D01*
X38607113Y-99027427D01*
X38662002Y-98987546D01*
X38709767Y-98948348D01*
X38733180Y-98935833D01*
X38759500Y-98916711D01*
X38816109Y-98891506D01*
X38865433Y-98865143D01*
X38896471Y-98855727D01*
X38931576Y-98840098D01*
X38986430Y-98828438D01*
X39034340Y-98813905D01*
X39072476Y-98810148D01*
X39115820Y-98800936D01*
X39166016Y-98800936D01*
X39209999Y-98796604D01*
X39253983Y-98800936D01*
G37*
G36*
X41753983Y-98800936D02*
G01*
X41804180Y-98800936D01*
X41847524Y-98810149D01*
X41885659Y-98813905D01*
X41933566Y-98828437D01*
X41988424Y-98840098D01*
X42023530Y-98855728D01*
X42054566Y-98865143D01*
X42103884Y-98891504D01*
X42160500Y-98916711D01*
X42186822Y-98935835D01*
X42210232Y-98948348D01*
X42257988Y-98987540D01*
X42312887Y-99027427D01*
X42330711Y-99047223D01*
X42346675Y-99060324D01*
X42389572Y-99112594D01*
X42438924Y-99167405D01*
X42449292Y-99185363D01*
X42458651Y-99196767D01*
X42493273Y-99261542D01*
X42533104Y-99330530D01*
X42537685Y-99344630D01*
X42541856Y-99352433D01*
X42564852Y-99428242D01*
X42591311Y-99509672D01*
X42592242Y-99518532D01*
X42593094Y-99521340D01*
X42601387Y-99605539D01*
X42611000Y-99697000D01*
X42611000Y-99947000D01*
X42601385Y-100038475D01*
X42593094Y-100122659D01*
X42592242Y-100125466D01*
X42591311Y-100134328D01*
X42564848Y-100215771D01*
X42541856Y-100291566D01*
X42537686Y-100299366D01*
X42533104Y-100313470D01*
X42493266Y-100382470D01*
X42458651Y-100447232D01*
X42449294Y-100458633D01*
X42438924Y-100476595D01*
X42389563Y-100531415D01*
X42346675Y-100583675D01*
X42330714Y-100596773D01*
X42312887Y-100616573D01*
X42257977Y-100656467D01*
X42210232Y-100695651D01*
X42186827Y-100708161D01*
X42160500Y-100727289D01*
X42103873Y-100752500D01*
X42054566Y-100778856D01*
X42023537Y-100788268D01*
X41988424Y-100803902D01*
X41933555Y-100815564D01*
X41885659Y-100830094D01*
X41847533Y-100833849D01*
X41804180Y-100843064D01*
X41753972Y-100843064D01*
X41709999Y-100847395D01*
X41666026Y-100843064D01*
X41615820Y-100843064D01*
X41572467Y-100833849D01*
X41534340Y-100830094D01*
X41486441Y-100815563D01*
X41431576Y-100803902D01*
X41396464Y-100788269D01*
X41365433Y-100778856D01*
X41316120Y-100752498D01*
X41259500Y-100727289D01*
X41233175Y-100708163D01*
X41209767Y-100695651D01*
X41162013Y-100656460D01*
X41107113Y-100616573D01*
X41089287Y-100596776D01*
X41073324Y-100583675D01*
X41030425Y-100531402D01*
X40981076Y-100476595D01*
X40970708Y-100458637D01*
X40961348Y-100447232D01*
X40926719Y-100382447D01*
X40886896Y-100313470D01*
X40882315Y-100299371D01*
X40878143Y-100291566D01*
X40855136Y-100215725D01*
X40828689Y-100134328D01*
X40827758Y-100125471D01*
X40826905Y-100122659D01*
X40818605Y-100038394D01*
X40809000Y-99947000D01*
X40809000Y-99697000D01*
X40818604Y-99605620D01*
X40826905Y-99521340D01*
X40827758Y-99518527D01*
X40828689Y-99509672D01*
X40855132Y-99428288D01*
X40878143Y-99352433D01*
X40882315Y-99344626D01*
X40886896Y-99330530D01*
X40926712Y-99261565D01*
X40961348Y-99196767D01*
X40970710Y-99185359D01*
X40981076Y-99167405D01*
X41030416Y-99112607D01*
X41073324Y-99060324D01*
X41089291Y-99047219D01*
X41107113Y-99027427D01*
X41162002Y-98987546D01*
X41209767Y-98948348D01*
X41233180Y-98935833D01*
X41259500Y-98916711D01*
X41316109Y-98891506D01*
X41365433Y-98865143D01*
X41396471Y-98855727D01*
X41431576Y-98840098D01*
X41486430Y-98828438D01*
X41534340Y-98813905D01*
X41572476Y-98810148D01*
X41615820Y-98800936D01*
X41666016Y-98800936D01*
X41710000Y-98796604D01*
X41753983Y-98800936D01*
G37*
G36*
X46773188Y-95470396D02*
G01*
X46801761Y-95470396D01*
X46834524Y-95478471D01*
X46877445Y-95484122D01*
X46906824Y-95496291D01*
X46929467Y-95501872D01*
X46963797Y-95519890D01*
X47009250Y-95538717D01*
X47029987Y-95554629D01*
X47045925Y-95562994D01*
X47078509Y-95591861D01*
X47122434Y-95625566D01*
X47134918Y-95641835D01*
X47144373Y-95650212D01*
X47171487Y-95689494D01*
X47209283Y-95738750D01*
X47214979Y-95752502D01*
X47219089Y-95758456D01*
X47236917Y-95805465D01*
X47263878Y-95870555D01*
X47265088Y-95879746D01*
X47265727Y-95881431D01*
X47270676Y-95922196D01*
X47282500Y-96012000D01*
X47270674Y-96101819D01*
X47265727Y-96142568D01*
X47265088Y-96144252D01*
X47263878Y-96153445D01*
X47236912Y-96218545D01*
X47219089Y-96265543D01*
X47214980Y-96271495D01*
X47209283Y-96285250D01*
X47171480Y-96334514D01*
X47144373Y-96373787D01*
X47134920Y-96382161D01*
X47122434Y-96398434D01*
X47078501Y-96432144D01*
X47045925Y-96461005D01*
X47029991Y-96469367D01*
X47009250Y-96485283D01*
X46963788Y-96504113D01*
X46929467Y-96522127D01*
X46906829Y-96527706D01*
X46877445Y-96539878D01*
X46834522Y-96545529D01*
X46801761Y-96553604D01*
X46773188Y-96553604D01*
X46736000Y-96558500D01*
X46698812Y-96553604D01*
X46670239Y-96553604D01*
X46637477Y-96545528D01*
X46594555Y-96539878D01*
X46565172Y-96527707D01*
X46542532Y-96522127D01*
X46508206Y-96504111D01*
X46462750Y-96485283D01*
X46442010Y-96469369D01*
X46426074Y-96461005D01*
X46393491Y-96432138D01*
X46349566Y-96398434D01*
X46337081Y-96382164D01*
X46327626Y-96373787D01*
X46300509Y-96334501D01*
X46262717Y-96285250D01*
X46257021Y-96271499D01*
X46252910Y-96265543D01*
X46235075Y-96218516D01*
X46208122Y-96153445D01*
X46206912Y-96144256D01*
X46206272Y-96142568D01*
X46201311Y-96101717D01*
X46189500Y-96012000D01*
X46201310Y-95922290D01*
X46206272Y-95881431D01*
X46206912Y-95879742D01*
X46208122Y-95870555D01*
X46235070Y-95805494D01*
X46252910Y-95758456D01*
X46257022Y-95752498D01*
X46262717Y-95738750D01*
X46300502Y-95689507D01*
X46327626Y-95650212D01*
X46337084Y-95641832D01*
X46349566Y-95625566D01*
X46393482Y-95591867D01*
X46426074Y-95562994D01*
X46442014Y-95554627D01*
X46462750Y-95538717D01*
X46508197Y-95519892D01*
X46542532Y-95501872D01*
X46565176Y-95496290D01*
X46594555Y-95484122D01*
X46637475Y-95478471D01*
X46670239Y-95470396D01*
X46698812Y-95470396D01*
X46736000Y-95465500D01*
X46773188Y-95470396D01*
G37*
G36*
X48805188Y-95470396D02*
G01*
X48833761Y-95470396D01*
X48866524Y-95478471D01*
X48909445Y-95484122D01*
X48938824Y-95496291D01*
X48961467Y-95501872D01*
X48995797Y-95519890D01*
X49041250Y-95538717D01*
X49061987Y-95554629D01*
X49077925Y-95562994D01*
X49110509Y-95591861D01*
X49154434Y-95625566D01*
X49166918Y-95641835D01*
X49176373Y-95650212D01*
X49203487Y-95689494D01*
X49241283Y-95738750D01*
X49246979Y-95752502D01*
X49251089Y-95758456D01*
X49268917Y-95805465D01*
X49295878Y-95870555D01*
X49297088Y-95879746D01*
X49297727Y-95881431D01*
X49302676Y-95922196D01*
X49314500Y-96012000D01*
X49302674Y-96101819D01*
X49297727Y-96142568D01*
X49297088Y-96144252D01*
X49295878Y-96153445D01*
X49268912Y-96218545D01*
X49251089Y-96265543D01*
X49246980Y-96271495D01*
X49241283Y-96285250D01*
X49203480Y-96334514D01*
X49176373Y-96373787D01*
X49166920Y-96382161D01*
X49154434Y-96398434D01*
X49110501Y-96432144D01*
X49077925Y-96461005D01*
X49061991Y-96469367D01*
X49041250Y-96485283D01*
X48995788Y-96504113D01*
X48961467Y-96522127D01*
X48938829Y-96527706D01*
X48909445Y-96539878D01*
X48866522Y-96545529D01*
X48833761Y-96553604D01*
X48805188Y-96553604D01*
X48768000Y-96558500D01*
X48730812Y-96553604D01*
X48702239Y-96553604D01*
X48669477Y-96545528D01*
X48626555Y-96539878D01*
X48597172Y-96527707D01*
X48574532Y-96522127D01*
X48540206Y-96504111D01*
X48494750Y-96485283D01*
X48474010Y-96469369D01*
X48458074Y-96461005D01*
X48425491Y-96432138D01*
X48381566Y-96398434D01*
X48369081Y-96382164D01*
X48359626Y-96373787D01*
X48332509Y-96334501D01*
X48294717Y-96285250D01*
X48289021Y-96271499D01*
X48284910Y-96265543D01*
X48267075Y-96218516D01*
X48240122Y-96153445D01*
X48238912Y-96144256D01*
X48238272Y-96142568D01*
X48233311Y-96101717D01*
X48221500Y-96012000D01*
X48233310Y-95922290D01*
X48238272Y-95881431D01*
X48238912Y-95879742D01*
X48240122Y-95870555D01*
X48267070Y-95805494D01*
X48284910Y-95758456D01*
X48289022Y-95752498D01*
X48294717Y-95738750D01*
X48332502Y-95689507D01*
X48359626Y-95650212D01*
X48369084Y-95641832D01*
X48381566Y-95625566D01*
X48425482Y-95591867D01*
X48458074Y-95562994D01*
X48474014Y-95554627D01*
X48494750Y-95538717D01*
X48540197Y-95519892D01*
X48574532Y-95501872D01*
X48597176Y-95496290D01*
X48626555Y-95484122D01*
X48669475Y-95478471D01*
X48702239Y-95470396D01*
X48730812Y-95470396D01*
X48768000Y-95465500D01*
X48805188Y-95470396D01*
G37*
G36*
X40431023Y-64482073D02*
G01*
X40469657Y-64482073D01*
X40513240Y-64491336D01*
X40564239Y-64497083D01*
X40601321Y-64510058D01*
X40633306Y-64516857D01*
X40679401Y-64537379D01*
X40733541Y-64556324D01*
X40761719Y-64574029D01*
X40786157Y-64584910D01*
X40831720Y-64618014D01*
X40885415Y-64651753D01*
X40904700Y-64671038D01*
X40921512Y-64683253D01*
X40963076Y-64729414D01*
X41012247Y-64778585D01*
X41023555Y-64796582D01*
X41033467Y-64807590D01*
X41067376Y-64866322D01*
X41107676Y-64930459D01*
X41112707Y-64944838D01*
X41117120Y-64952481D01*
X41139718Y-65022030D01*
X41166917Y-65099761D01*
X41167948Y-65108913D01*
X41168823Y-65111606D01*
X41176750Y-65187038D01*
X41187000Y-65278000D01*
X41176750Y-65368969D01*
X41168823Y-65444393D01*
X41167948Y-65447084D01*
X41166917Y-65456239D01*
X41139713Y-65533982D01*
X41117120Y-65603518D01*
X41112708Y-65611159D01*
X41107676Y-65625541D01*
X41067369Y-65689688D01*
X41033467Y-65748409D01*
X41023557Y-65759414D01*
X41012247Y-65777415D01*
X40963067Y-65826594D01*
X40921512Y-65872746D01*
X40904704Y-65884957D01*
X40885415Y-65904247D01*
X40831710Y-65937992D01*
X40786157Y-65971089D01*
X40761725Y-65981966D01*
X40733541Y-65999676D01*
X40679391Y-66018623D01*
X40633306Y-66039142D01*
X40601327Y-66045939D01*
X40564239Y-66058917D01*
X40513237Y-66064663D01*
X40469657Y-66073927D01*
X40431023Y-66073927D01*
X40386000Y-66079000D01*
X40340977Y-66073927D01*
X40302343Y-66073927D01*
X40258761Y-66064663D01*
X40207761Y-66058917D01*
X40170674Y-66045939D01*
X40138693Y-66039142D01*
X40092603Y-66018622D01*
X40038459Y-65999676D01*
X40010277Y-65981968D01*
X39985842Y-65971089D01*
X39940282Y-65937987D01*
X39886585Y-65904247D01*
X39867298Y-65884960D01*
X39850487Y-65872746D01*
X39808922Y-65826584D01*
X39759753Y-65777415D01*
X39748444Y-65759418D01*
X39738532Y-65748409D01*
X39704618Y-65689668D01*
X39664324Y-65625541D01*
X39659293Y-65611163D01*
X39654879Y-65603518D01*
X39632272Y-65533942D01*
X39605083Y-65456239D01*
X39604052Y-65447089D01*
X39603176Y-65444393D01*
X39595235Y-65368837D01*
X39585000Y-65278000D01*
X39595234Y-65187170D01*
X39603176Y-65111606D01*
X39604052Y-65108909D01*
X39605083Y-65099761D01*
X39632267Y-65022070D01*
X39654879Y-64952481D01*
X39659293Y-64944834D01*
X39664324Y-64930459D01*
X39704611Y-64866342D01*
X39738532Y-64807590D01*
X39748446Y-64796578D01*
X39759753Y-64778585D01*
X39808913Y-64729424D01*
X39850487Y-64683253D01*
X39867301Y-64671036D01*
X39886585Y-64651753D01*
X39940278Y-64618015D01*
X39985846Y-64584908D01*
X40010284Y-64574027D01*
X40038459Y-64556324D01*
X40092587Y-64537383D01*
X40138689Y-64516858D01*
X40170679Y-64510058D01*
X40207761Y-64497083D01*
X40258759Y-64491336D01*
X40302343Y-64482073D01*
X40340977Y-64482073D01*
X40386000Y-64477000D01*
X40431023Y-64482073D01*
G37*
G36*
X37931023Y-61982073D02*
G01*
X37969657Y-61982073D01*
X38013240Y-61991336D01*
X38064239Y-61997083D01*
X38101321Y-62010058D01*
X38133306Y-62016857D01*
X38179401Y-62037379D01*
X38233541Y-62056324D01*
X38261719Y-62074029D01*
X38286157Y-62084910D01*
X38331720Y-62118014D01*
X38385415Y-62151753D01*
X38404700Y-62171038D01*
X38421512Y-62183253D01*
X38463076Y-62229414D01*
X38512247Y-62278585D01*
X38523555Y-62296582D01*
X38533467Y-62307590D01*
X38567376Y-62366322D01*
X38607676Y-62430459D01*
X38612707Y-62444838D01*
X38617120Y-62452481D01*
X38639718Y-62522030D01*
X38666917Y-62599761D01*
X38667948Y-62608913D01*
X38668823Y-62611606D01*
X38676751Y-62687044D01*
X38687000Y-62778000D01*
X38676749Y-62868975D01*
X38668823Y-62944393D01*
X38667948Y-62947084D01*
X38666917Y-62956239D01*
X38639713Y-63033982D01*
X38617120Y-63103518D01*
X38612708Y-63111159D01*
X38607676Y-63125541D01*
X38567369Y-63189688D01*
X38533467Y-63248409D01*
X38523557Y-63259414D01*
X38512247Y-63277415D01*
X38463067Y-63326594D01*
X38421512Y-63372746D01*
X38404704Y-63384957D01*
X38385415Y-63404247D01*
X38331710Y-63437992D01*
X38286157Y-63471089D01*
X38261725Y-63481966D01*
X38233541Y-63499676D01*
X38179391Y-63518623D01*
X38133306Y-63539142D01*
X38101327Y-63545939D01*
X38064239Y-63558917D01*
X38013237Y-63564663D01*
X37969657Y-63573927D01*
X37931023Y-63573927D01*
X37886000Y-63579000D01*
X37840977Y-63573927D01*
X37802343Y-63573927D01*
X37758761Y-63564663D01*
X37707761Y-63558917D01*
X37670674Y-63545939D01*
X37638693Y-63539142D01*
X37592603Y-63518622D01*
X37538459Y-63499676D01*
X37510277Y-63481968D01*
X37485842Y-63471089D01*
X37440282Y-63437987D01*
X37386585Y-63404247D01*
X37367298Y-63384960D01*
X37350487Y-63372746D01*
X37308922Y-63326584D01*
X37259753Y-63277415D01*
X37248444Y-63259418D01*
X37238532Y-63248409D01*
X37204618Y-63189668D01*
X37164324Y-63125541D01*
X37159293Y-63111163D01*
X37154879Y-63103518D01*
X37132272Y-63033942D01*
X37105083Y-62956239D01*
X37104052Y-62947089D01*
X37103176Y-62944393D01*
X37095235Y-62868843D01*
X37085000Y-62778000D01*
X37095233Y-62687176D01*
X37103176Y-62611606D01*
X37104052Y-62608909D01*
X37105083Y-62599761D01*
X37132267Y-62522070D01*
X37154879Y-62452481D01*
X37159293Y-62444834D01*
X37164324Y-62430459D01*
X37204611Y-62366342D01*
X37238532Y-62307590D01*
X37248446Y-62296578D01*
X37259753Y-62278585D01*
X37308913Y-62229424D01*
X37350487Y-62183253D01*
X37367301Y-62171036D01*
X37386585Y-62151753D01*
X37440278Y-62118015D01*
X37485846Y-62084908D01*
X37510284Y-62074027D01*
X37538459Y-62056324D01*
X37592587Y-62037383D01*
X37638689Y-62016858D01*
X37670679Y-62010058D01*
X37707761Y-61997083D01*
X37758759Y-61991336D01*
X37802343Y-61982073D01*
X37840977Y-61982073D01*
X37886000Y-61977000D01*
X37931023Y-61982073D01*
G37*
G36*
X40431023Y-61982073D02*
G01*
X40469657Y-61982073D01*
X40513240Y-61991336D01*
X40564239Y-61997083D01*
X40601321Y-62010058D01*
X40633306Y-62016857D01*
X40679401Y-62037379D01*
X40733541Y-62056324D01*
X40761719Y-62074029D01*
X40786157Y-62084910D01*
X40831720Y-62118014D01*
X40885415Y-62151753D01*
X40904700Y-62171038D01*
X40921512Y-62183253D01*
X40963076Y-62229414D01*
X41012247Y-62278585D01*
X41023555Y-62296582D01*
X41033467Y-62307590D01*
X41067376Y-62366322D01*
X41107676Y-62430459D01*
X41112707Y-62444838D01*
X41117120Y-62452481D01*
X41139718Y-62522030D01*
X41166917Y-62599761D01*
X41167948Y-62608913D01*
X41168823Y-62611606D01*
X41176751Y-62687044D01*
X41187000Y-62778000D01*
X41176749Y-62868975D01*
X41168823Y-62944393D01*
X41167948Y-62947084D01*
X41166917Y-62956239D01*
X41139713Y-63033982D01*
X41117120Y-63103518D01*
X41112708Y-63111159D01*
X41107676Y-63125541D01*
X41067369Y-63189688D01*
X41033467Y-63248409D01*
X41023557Y-63259414D01*
X41012247Y-63277415D01*
X40963067Y-63326594D01*
X40921512Y-63372746D01*
X40904704Y-63384957D01*
X40885415Y-63404247D01*
X40831710Y-63437992D01*
X40786157Y-63471089D01*
X40761725Y-63481966D01*
X40733541Y-63499676D01*
X40679391Y-63518623D01*
X40633306Y-63539142D01*
X40601327Y-63545939D01*
X40564239Y-63558917D01*
X40513237Y-63564663D01*
X40469657Y-63573927D01*
X40431023Y-63573927D01*
X40386000Y-63579000D01*
X40340977Y-63573927D01*
X40302343Y-63573927D01*
X40258761Y-63564663D01*
X40207761Y-63558917D01*
X40170674Y-63545939D01*
X40138693Y-63539142D01*
X40092603Y-63518622D01*
X40038459Y-63499676D01*
X40010277Y-63481968D01*
X39985842Y-63471089D01*
X39940282Y-63437987D01*
X39886585Y-63404247D01*
X39867298Y-63384960D01*
X39850487Y-63372746D01*
X39808922Y-63326584D01*
X39759753Y-63277415D01*
X39748444Y-63259418D01*
X39738532Y-63248409D01*
X39704618Y-63189668D01*
X39664324Y-63125541D01*
X39659293Y-63111163D01*
X39654879Y-63103518D01*
X39632272Y-63033942D01*
X39605083Y-62956239D01*
X39604052Y-62947089D01*
X39603176Y-62944393D01*
X39595235Y-62868843D01*
X39585000Y-62778000D01*
X39595233Y-62687176D01*
X39603176Y-62611606D01*
X39604052Y-62608909D01*
X39605083Y-62599761D01*
X39632267Y-62522070D01*
X39654879Y-62452481D01*
X39659293Y-62444834D01*
X39664324Y-62430459D01*
X39704611Y-62366342D01*
X39738532Y-62307590D01*
X39748446Y-62296578D01*
X39759753Y-62278585D01*
X39808913Y-62229424D01*
X39850487Y-62183253D01*
X39867301Y-62171036D01*
X39886585Y-62151753D01*
X39940278Y-62118015D01*
X39985846Y-62084908D01*
X40010284Y-62074027D01*
X40038459Y-62056324D01*
X40092587Y-62037383D01*
X40138689Y-62016858D01*
X40170679Y-62010058D01*
X40207761Y-61997083D01*
X40258759Y-61991336D01*
X40302343Y-61982073D01*
X40340977Y-61982073D01*
X40386000Y-61977000D01*
X40431023Y-61982073D01*
G37*
G36*
X42931023Y-61982073D02*
G01*
X42969657Y-61982073D01*
X43013240Y-61991336D01*
X43064239Y-61997083D01*
X43101321Y-62010058D01*
X43133306Y-62016857D01*
X43179401Y-62037379D01*
X43233541Y-62056324D01*
X43261719Y-62074029D01*
X43286157Y-62084910D01*
X43331720Y-62118014D01*
X43385415Y-62151753D01*
X43404700Y-62171038D01*
X43421512Y-62183253D01*
X43463076Y-62229414D01*
X43512247Y-62278585D01*
X43523555Y-62296582D01*
X43533467Y-62307590D01*
X43567376Y-62366322D01*
X43607676Y-62430459D01*
X43612707Y-62444838D01*
X43617120Y-62452481D01*
X43639718Y-62522030D01*
X43666917Y-62599761D01*
X43667948Y-62608913D01*
X43668823Y-62611606D01*
X43676751Y-62687044D01*
X43687000Y-62778000D01*
X43676749Y-62868975D01*
X43668823Y-62944393D01*
X43667948Y-62947084D01*
X43666917Y-62956239D01*
X43639713Y-63033982D01*
X43617120Y-63103518D01*
X43612708Y-63111159D01*
X43607676Y-63125541D01*
X43567369Y-63189688D01*
X43533467Y-63248409D01*
X43523557Y-63259414D01*
X43512247Y-63277415D01*
X43463067Y-63326594D01*
X43421512Y-63372746D01*
X43404704Y-63384957D01*
X43385415Y-63404247D01*
X43331710Y-63437992D01*
X43286157Y-63471089D01*
X43261725Y-63481966D01*
X43233541Y-63499676D01*
X43179391Y-63518623D01*
X43133306Y-63539142D01*
X43101327Y-63545939D01*
X43064239Y-63558917D01*
X43013237Y-63564663D01*
X42969657Y-63573927D01*
X42931023Y-63573927D01*
X42886000Y-63579000D01*
X42840977Y-63573927D01*
X42802343Y-63573927D01*
X42758761Y-63564663D01*
X42707761Y-63558917D01*
X42670674Y-63545939D01*
X42638693Y-63539142D01*
X42592603Y-63518622D01*
X42538459Y-63499676D01*
X42510277Y-63481968D01*
X42485842Y-63471089D01*
X42440282Y-63437987D01*
X42386585Y-63404247D01*
X42367298Y-63384960D01*
X42350487Y-63372746D01*
X42308922Y-63326584D01*
X42259753Y-63277415D01*
X42248444Y-63259418D01*
X42238532Y-63248409D01*
X42204618Y-63189668D01*
X42164324Y-63125541D01*
X42159293Y-63111163D01*
X42154879Y-63103518D01*
X42132272Y-63033942D01*
X42105083Y-62956239D01*
X42104052Y-62947089D01*
X42103176Y-62944393D01*
X42095235Y-62868843D01*
X42085000Y-62778000D01*
X42095233Y-62687176D01*
X42103176Y-62611606D01*
X42104052Y-62608909D01*
X42105083Y-62599761D01*
X42132267Y-62522070D01*
X42154879Y-62452481D01*
X42159293Y-62444834D01*
X42164324Y-62430459D01*
X42204611Y-62366342D01*
X42238532Y-62307590D01*
X42248446Y-62296578D01*
X42259753Y-62278585D01*
X42308913Y-62229424D01*
X42350487Y-62183253D01*
X42367301Y-62171036D01*
X42386585Y-62151753D01*
X42440278Y-62118015D01*
X42485846Y-62084908D01*
X42510284Y-62074027D01*
X42538459Y-62056324D01*
X42592587Y-62037383D01*
X42638689Y-62016858D01*
X42670679Y-62010058D01*
X42707761Y-61997083D01*
X42758759Y-61991336D01*
X42802343Y-61982073D01*
X42840977Y-61982073D01*
X42886000Y-61977000D01*
X42931023Y-61982073D01*
G37*
G36*
X40431023Y-59482073D02*
G01*
X40469657Y-59482073D01*
X40513240Y-59491336D01*
X40564239Y-59497083D01*
X40601321Y-59510058D01*
X40633306Y-59516857D01*
X40679401Y-59537379D01*
X40733541Y-59556324D01*
X40761719Y-59574029D01*
X40786157Y-59584910D01*
X40831720Y-59618014D01*
X40885415Y-59651753D01*
X40904700Y-59671038D01*
X40921512Y-59683253D01*
X40963076Y-59729414D01*
X41012247Y-59778585D01*
X41023555Y-59796582D01*
X41033467Y-59807590D01*
X41067376Y-59866322D01*
X41107676Y-59930459D01*
X41112707Y-59944838D01*
X41117120Y-59952481D01*
X41139718Y-60022030D01*
X41166917Y-60099761D01*
X41167948Y-60108913D01*
X41168823Y-60111606D01*
X41176750Y-60187038D01*
X41187000Y-60278000D01*
X41176750Y-60368969D01*
X41168823Y-60444393D01*
X41167948Y-60447084D01*
X41166917Y-60456239D01*
X41139713Y-60533982D01*
X41117120Y-60603518D01*
X41112708Y-60611159D01*
X41107676Y-60625541D01*
X41067369Y-60689688D01*
X41033467Y-60748409D01*
X41023557Y-60759414D01*
X41012247Y-60777415D01*
X40963067Y-60826594D01*
X40921512Y-60872746D01*
X40904704Y-60884957D01*
X40885415Y-60904247D01*
X40831710Y-60937992D01*
X40786157Y-60971089D01*
X40761725Y-60981966D01*
X40733541Y-60999676D01*
X40679391Y-61018623D01*
X40633306Y-61039142D01*
X40601327Y-61045939D01*
X40564239Y-61058917D01*
X40513237Y-61064663D01*
X40469657Y-61073927D01*
X40431023Y-61073927D01*
X40386000Y-61079000D01*
X40340977Y-61073927D01*
X40302343Y-61073927D01*
X40258761Y-61064663D01*
X40207761Y-61058917D01*
X40170674Y-61045939D01*
X40138693Y-61039142D01*
X40092603Y-61018622D01*
X40038459Y-60999676D01*
X40010277Y-60981968D01*
X39985842Y-60971089D01*
X39940282Y-60937987D01*
X39886585Y-60904247D01*
X39867298Y-60884960D01*
X39850487Y-60872746D01*
X39808922Y-60826584D01*
X39759753Y-60777415D01*
X39748444Y-60759418D01*
X39738532Y-60748409D01*
X39704618Y-60689668D01*
X39664324Y-60625541D01*
X39659293Y-60611163D01*
X39654879Y-60603518D01*
X39632272Y-60533942D01*
X39605083Y-60456239D01*
X39604052Y-60447089D01*
X39603176Y-60444393D01*
X39595235Y-60368837D01*
X39585000Y-60278000D01*
X39595234Y-60187170D01*
X39603176Y-60111606D01*
X39604052Y-60108909D01*
X39605083Y-60099761D01*
X39632267Y-60022070D01*
X39654879Y-59952481D01*
X39659293Y-59944834D01*
X39664324Y-59930459D01*
X39704611Y-59866342D01*
X39738532Y-59807590D01*
X39748446Y-59796578D01*
X39759753Y-59778585D01*
X39808913Y-59729424D01*
X39850487Y-59683253D01*
X39867301Y-59671036D01*
X39886585Y-59651753D01*
X39940278Y-59618015D01*
X39985846Y-59584908D01*
X40010284Y-59574027D01*
X40038459Y-59556324D01*
X40092587Y-59537383D01*
X40138689Y-59516858D01*
X40170679Y-59510058D01*
X40207761Y-59497083D01*
X40258759Y-59491336D01*
X40302343Y-59482073D01*
X40340977Y-59482073D01*
X40386000Y-59477000D01*
X40431023Y-59482073D01*
G37*
M02*
